%TF.GenerationSoftware,KiCad,Pcbnew,10.0.1*%
%TF.CreationDate,2026-05-07T18:18:31+07:00*%
%TF.ProjectId,Mp3Player,4d703350-6c61-4796-9572-2e6b69636164,rev?*%
%TF.SameCoordinates,Original*%
%TF.FileFunction,Paste,Top*%
%TF.FilePolarity,Positive*%
%FSLAX46Y46*%
G04 Gerber Fmt 4.6, Leading zero omitted, Abs format (unit mm)*
G04 Created by KiCad (PCBNEW 10.0.1) date 2026-05-07 18:18:31*
%MOMM*%
%LPD*%
G01*
G04 APERTURE LIST*
G04 Aperture macros list*
%AMRoundRect*
0 Rectangle with rounded corners*
0 $1 Rounding radius*
0 $2 $3 $4 $5 $6 $7 $8 $9 X,Y pos of 4 corners*
0 Add a 4 corners polygon primitive as box body*
4,1,4,$2,$3,$4,$5,$6,$7,$8,$9,$2,$3,0*
0 Add four circle primitives for the rounded corners*
1,1,$1+$1,$2,$3*
1,1,$1+$1,$4,$5*
1,1,$1+$1,$6,$7*
1,1,$1+$1,$8,$9*
0 Add four rect primitives between the rounded corners*
20,1,$1+$1,$2,$3,$4,$5,0*
20,1,$1+$1,$4,$5,$6,$7,0*
20,1,$1+$1,$6,$7,$8,$9,0*
20,1,$1+$1,$8,$9,$2,$3,0*%
G04 Aperture macros list end*
%ADD10RoundRect,0.062500X0.062500X0.350000X-0.062500X0.350000X-0.062500X-0.350000X0.062500X-0.350000X0*%
%ADD11RoundRect,0.062500X0.350000X0.062500X-0.350000X0.062500X-0.350000X-0.062500X0.350000X-0.062500X0*%
%ADD12RoundRect,0.250000X0.255000X0.255000X-0.255000X0.255000X-0.255000X-0.255000X0.255000X-0.255000X0*%
%ADD13RoundRect,0.237500X-0.237500X0.250000X-0.237500X-0.250000X0.237500X-0.250000X0.237500X0.250000X0*%
%ADD14R,1.000000X0.900000*%
%ADD15RoundRect,0.237500X-0.250000X-0.237500X0.250000X-0.237500X0.250000X0.237500X-0.250000X0.237500X0*%
%ADD16RoundRect,0.237500X0.237500X-0.250000X0.237500X0.250000X-0.237500X0.250000X-0.237500X-0.250000X0*%
%ADD17RoundRect,0.150000X0.150000X-0.512500X0.150000X0.512500X-0.150000X0.512500X-0.150000X-0.512500X0*%
%ADD18R,0.700000X1.200000*%
%ADD19R,1.000000X0.800000*%
%ADD20R,1.000000X1.200000*%
%ADD21R,1.000000X2.800000*%
%ADD22R,1.300000X1.900000*%
%ADD23RoundRect,0.237500X-0.237500X0.300000X-0.237500X-0.300000X0.237500X-0.300000X0.237500X0.300000X0*%
%ADD24RoundRect,0.237500X-0.300000X-0.237500X0.300000X-0.237500X0.300000X0.237500X-0.300000X0.237500X0*%
%ADD25RoundRect,0.150000X-0.587500X-0.150000X0.587500X-0.150000X0.587500X0.150000X-0.587500X0.150000X0*%
%ADD26RoundRect,0.150000X-0.150000X-0.425000X0.150000X-0.425000X0.150000X0.425000X-0.150000X0.425000X0*%
%ADD27RoundRect,0.075000X-0.075000X-0.500000X0.075000X-0.500000X0.075000X0.500000X-0.075000X0.500000X0*%
%ADD28O,1.000000X2.100000*%
%ADD29O,1.000000X1.800000*%
%ADD30RoundRect,0.237500X0.237500X-0.300000X0.237500X0.300000X-0.237500X0.300000X-0.237500X-0.300000X0*%
%ADD31R,0.800000X1.800000*%
%ADD32R,1.800000X0.800000*%
%ADD33R,0.900000X1.000000*%
%ADD34RoundRect,0.237500X0.250000X0.237500X-0.250000X0.237500X-0.250000X-0.237500X0.250000X-0.237500X0*%
%ADD35R,0.730000X0.660000*%
%ADD36R,0.450000X0.630000*%
%ADD37RoundRect,0.100000X0.100000X-0.637500X0.100000X0.637500X-0.100000X0.637500X-0.100000X-0.637500X0*%
%ADD38RoundRect,0.087500X-0.662500X-0.087500X0.662500X-0.087500X0.662500X0.087500X-0.662500X0.087500X0*%
%ADD39RoundRect,0.237500X0.300000X0.237500X-0.300000X0.237500X-0.300000X-0.237500X0.300000X-0.237500X0*%
%ADD40R,1.500000X0.900000*%
%ADD41R,0.900000X1.500000*%
%ADD42R,0.900000X0.900000*%
%ADD43R,1.000000X1.600000*%
G04 APERTURE END LIST*
D10*
%TO.C,U4*%
X192200000Y-127875000D03*
X191700000Y-127875000D03*
X191200000Y-127875000D03*
X190700000Y-127875000D03*
X190200000Y-127875000D03*
D11*
X189262500Y-126937500D03*
X189262500Y-126437500D03*
X189262500Y-125937500D03*
X189262500Y-125437500D03*
X189262500Y-124937500D03*
D10*
X190200000Y-124000000D03*
X190700000Y-124000000D03*
X191200000Y-124000000D03*
X191700000Y-124000000D03*
X192200000Y-124000000D03*
D11*
X193137500Y-124937500D03*
X193137500Y-125437500D03*
X193137500Y-125937500D03*
X193137500Y-126437500D03*
X193137500Y-126937500D03*
D12*
X190575000Y-125312500D03*
X190575000Y-126562500D03*
X191825000Y-125312500D03*
X191825000Y-126562500D03*
%TD*%
D13*
%TO.C,R6*%
X122100000Y-135775000D03*
X122100000Y-137600000D03*
%TD*%
%TO.C,R2*%
X181675000Y-125750000D03*
X181675000Y-127575000D03*
%TD*%
D14*
%TO.C,SW3*%
X169482382Y-108350000D03*
X169482382Y-112450000D03*
X167882382Y-108350000D03*
X167882382Y-112450000D03*
%TD*%
D13*
%TO.C,R16*%
X169500000Y-105000000D03*
X169500000Y-106825000D03*
%TD*%
D15*
%TO.C,R7*%
X161387500Y-129500000D03*
X163212500Y-129500000D03*
%TD*%
D16*
%TO.C,R19*%
X156400000Y-89012500D03*
X156400000Y-87187500D03*
%TD*%
D14*
%TO.C,SW5*%
X137817618Y-112450000D03*
X137817618Y-108350000D03*
X139417618Y-112450000D03*
X139417618Y-108350000D03*
%TD*%
D17*
%TO.C,U8*%
X165600000Y-137500000D03*
X166550000Y-137500000D03*
X167500000Y-137500000D03*
X167500000Y-135225000D03*
X166550000Y-135225000D03*
X165600000Y-135225000D03*
%TD*%
D18*
%TO.C,J7*%
X150200000Y-130300000D03*
X149100000Y-130300000D03*
X148000000Y-130300000D03*
X146900000Y-130300000D03*
X145800000Y-130300000D03*
X144700000Y-130300000D03*
X143600000Y-130300000D03*
X142500000Y-130300000D03*
X141550000Y-130300000D03*
D19*
X140600000Y-140800000D03*
D20*
X140600000Y-134600000D03*
D21*
X140600000Y-144950000D03*
D20*
X151750000Y-130300000D03*
D22*
X154100000Y-145400000D03*
%TD*%
D23*
%TO.C,C11*%
X166200000Y-74712500D03*
X166200000Y-76437500D03*
%TD*%
D24*
%TO.C,C4*%
X186012500Y-127012500D03*
X187737500Y-127012500D03*
%TD*%
D13*
%TO.C,R5*%
X113500000Y-135277500D03*
X113500000Y-137102500D03*
%TD*%
D16*
%TO.C,R1*%
X189075000Y-131325000D03*
X189075000Y-129500000D03*
%TD*%
D23*
%TO.C,C13*%
X151300000Y-88212500D03*
X151300000Y-89937500D03*
%TD*%
D25*
%TO.C,Q1*%
X177862500Y-132850000D03*
X177862500Y-134750000D03*
X179737500Y-133800000D03*
%TD*%
D16*
%TO.C,R13*%
X176000000Y-129525000D03*
X176000000Y-127700000D03*
%TD*%
D26*
%TO.C,J1*%
X163180000Y-139595000D03*
X163980000Y-139595000D03*
D27*
X165130000Y-139595000D03*
X166130000Y-139595000D03*
X166630000Y-139595000D03*
X167630000Y-139595000D03*
D26*
X168780000Y-139595000D03*
X169580000Y-139595000D03*
X169580000Y-139595000D03*
X168780000Y-139595000D03*
D27*
X168130000Y-139595000D03*
X167130000Y-139595000D03*
X165630000Y-139595000D03*
X164630000Y-139595000D03*
D26*
X163980000Y-139595000D03*
X163180000Y-139595000D03*
D28*
X162060000Y-140170000D03*
D29*
X162060000Y-144350000D03*
D28*
X170700000Y-140170000D03*
D29*
X170700000Y-144350000D03*
%TD*%
D13*
%TO.C,R12*%
X177700000Y-127600000D03*
X177700000Y-129425000D03*
%TD*%
D30*
%TO.C,C15*%
X150800000Y-78862500D03*
X150800000Y-77137500D03*
%TD*%
D23*
%TO.C,C19*%
X165900000Y-86312500D03*
X165900000Y-88037500D03*
%TD*%
D24*
%TO.C,C5*%
X171175000Y-127800000D03*
X172900000Y-127800000D03*
%TD*%
D13*
%TO.C,R4*%
X119200000Y-135875000D03*
X119200000Y-137700000D03*
%TD*%
D30*
%TO.C,C18*%
X163500000Y-88137500D03*
X163500000Y-86412500D03*
%TD*%
D31*
%TO.C,U1*%
X109715000Y-94700000D03*
X110985000Y-94700000D03*
X112255000Y-94700000D03*
X113525000Y-94700000D03*
X114795000Y-94700000D03*
X116065000Y-94700000D03*
X117335000Y-94700000D03*
X118605000Y-94700000D03*
X119875000Y-94700000D03*
X121145000Y-94700000D03*
X122415000Y-94700000D03*
D32*
X124685000Y-93415000D03*
X124685000Y-92145000D03*
X124685000Y-90875000D03*
X124685000Y-89605000D03*
X124685000Y-88335000D03*
X124685000Y-87065000D03*
X124685000Y-85795000D03*
X124685000Y-84525000D03*
X124685000Y-83255000D03*
X124685000Y-81985000D03*
D31*
X122415000Y-80700000D03*
X121145000Y-80700000D03*
X119875000Y-80700000D03*
X118605000Y-80700000D03*
X117335000Y-80700000D03*
X116065000Y-80700000D03*
X114795000Y-80700000D03*
X113525000Y-80700000D03*
X112255000Y-80700000D03*
X110985000Y-80700000D03*
X109715000Y-80700000D03*
%TD*%
D30*
%TO.C,C8*%
X156600000Y-92262500D03*
X156600000Y-90537500D03*
%TD*%
D33*
%TO.C,SW4*%
X155700000Y-126232382D03*
X151600000Y-126232382D03*
X155700000Y-124632382D03*
X151600000Y-124632382D03*
%TD*%
D15*
%TO.C,R18*%
X148187500Y-109500000D03*
X150012500Y-109500000D03*
%TD*%
%TO.C,R17*%
X148287500Y-94400000D03*
X150112500Y-94400000D03*
%TD*%
D33*
%TO.C,SW7*%
X194950000Y-114000000D03*
X199050000Y-114000000D03*
X194950000Y-115600000D03*
X199050000Y-115600000D03*
%TD*%
D25*
%TO.C,Q2*%
X174862500Y-118650000D03*
X174862500Y-120550000D03*
X176737500Y-119600000D03*
%TD*%
D34*
%TO.C,R15*%
X159212500Y-126200000D03*
X157387500Y-126200000D03*
%TD*%
D16*
%TO.C,R20*%
X158000000Y-89012500D03*
X158000000Y-87187500D03*
%TD*%
D13*
%TO.C,R3*%
X116300000Y-135377500D03*
X116300000Y-137202500D03*
%TD*%
D16*
%TO.C,R8*%
X163100000Y-137612500D03*
X163100000Y-135787500D03*
%TD*%
D24*
%TO.C,C7*%
X192475000Y-55900000D03*
X194200000Y-55900000D03*
%TD*%
%TO.C,C6*%
X171137500Y-129400000D03*
X172862500Y-129400000D03*
%TD*%
D30*
%TO.C,C1*%
X191775000Y-131075000D03*
X191775000Y-129350000D03*
%TD*%
D35*
%TO.C,U5*%
X181409000Y-123212500D03*
X182275000Y-123212500D03*
X183141000Y-123212500D03*
X181409000Y-122362500D03*
X182275000Y-122362500D03*
X183141000Y-122362500D03*
D36*
X181325000Y-124127500D03*
X182275000Y-124127500D03*
X183225000Y-124127500D03*
X183225000Y-121447500D03*
X182275000Y-121447500D03*
X181325000Y-121447500D03*
%TD*%
D37*
%TO.C,U3*%
X153700000Y-84100000D03*
X154350000Y-84100000D03*
X155000000Y-84100000D03*
X155650000Y-84100000D03*
X156300000Y-84100000D03*
X156950000Y-84100000D03*
X157600000Y-84100000D03*
X158250000Y-84100000D03*
X158900000Y-84100000D03*
X159550000Y-84100000D03*
X160200000Y-84100000D03*
X160850000Y-84100000D03*
X161500000Y-84100000D03*
X162150000Y-84100000D03*
X162150000Y-78375000D03*
X161500000Y-78375000D03*
X160850000Y-78375000D03*
X160200000Y-78375000D03*
X159550000Y-78375000D03*
X158900000Y-78375000D03*
X158250000Y-78375000D03*
X157600000Y-78375000D03*
X156950000Y-78375000D03*
X156300000Y-78375000D03*
X155650000Y-78375000D03*
X155000000Y-78375000D03*
X154350000Y-78375000D03*
X153700000Y-78375000D03*
%TD*%
D13*
%TO.C,R14*%
X137600000Y-104987500D03*
X137600000Y-106812500D03*
%TD*%
D23*
%TO.C,C12*%
X163500000Y-74812500D03*
X163500000Y-76537500D03*
%TD*%
D13*
%TO.C,R21*%
X155800000Y-74662500D03*
X155800000Y-76487500D03*
%TD*%
%TO.C,R9*%
X170500000Y-135887500D03*
X170500000Y-137712500D03*
%TD*%
D38*
%TO.C,U6*%
X165000000Y-128100000D03*
X165000000Y-128600000D03*
X165000000Y-129100000D03*
X165000000Y-129600000D03*
X165000000Y-130100000D03*
X169200000Y-130100000D03*
X169200000Y-129600000D03*
X169200000Y-129100000D03*
X169200000Y-128600000D03*
X169200000Y-128100000D03*
%TD*%
D23*
%TO.C,C20*%
X161800000Y-86412500D03*
X161800000Y-88137500D03*
%TD*%
D15*
%TO.C,FB1*%
X183662500Y-119962500D03*
X185487500Y-119962500D03*
%TD*%
D26*
%TO.C,J3*%
X115000000Y-139510000D03*
X115800000Y-139510000D03*
D27*
X116950000Y-139510000D03*
X117950000Y-139510000D03*
X118450000Y-139510000D03*
X119450000Y-139510000D03*
D26*
X120600000Y-139510000D03*
X121400000Y-139510000D03*
X121400000Y-139510000D03*
X120600000Y-139510000D03*
D27*
X119950000Y-139510000D03*
X118950000Y-139510000D03*
X117450000Y-139510000D03*
X116450000Y-139510000D03*
D26*
X115800000Y-139510000D03*
X115000000Y-139510000D03*
D28*
X113880000Y-140085000D03*
D29*
X113880000Y-144265000D03*
D28*
X122520000Y-140085000D03*
D29*
X122520000Y-144265000D03*
%TD*%
D13*
%TO.C,R11*%
X174787500Y-122127500D03*
X174787500Y-123952500D03*
%TD*%
D33*
%TO.C,SW1*%
X151600000Y-109600000D03*
X155700000Y-109600000D03*
X151600000Y-111200000D03*
X155700000Y-111200000D03*
%TD*%
D30*
%TO.C,C14*%
X161800000Y-76437500D03*
X161800000Y-74712500D03*
%TD*%
%TO.C,C2*%
X191175000Y-122475000D03*
X191175000Y-120750000D03*
%TD*%
D39*
%TO.C,C3*%
X187775000Y-124212500D03*
X186050000Y-124212500D03*
%TD*%
D17*
%TO.C,U9*%
X119400000Y-133027500D03*
X120350000Y-133027500D03*
X121300000Y-133027500D03*
X121300000Y-130752500D03*
X120350000Y-130752500D03*
X119400000Y-130752500D03*
%TD*%
D24*
%TO.C,C10*%
X153037500Y-85875000D03*
X154762500Y-85875000D03*
%TD*%
D16*
%TO.C,R10*%
X175500000Y-134812500D03*
X175500000Y-132987500D03*
%TD*%
D30*
%TO.C,C9*%
X159300000Y-92362500D03*
X159300000Y-90637500D03*
%TD*%
%TO.C,C17*%
X154200000Y-76537500D03*
X154200000Y-74812500D03*
%TD*%
%TO.C,C16*%
X152600000Y-76462500D03*
X152600000Y-74737500D03*
%TD*%
D40*
%TO.C,U2*%
X149850000Y-54080000D03*
X149850000Y-55350000D03*
X149850000Y-56620000D03*
X149850000Y-57890000D03*
X149850000Y-59160000D03*
X149850000Y-60430000D03*
X149850000Y-61700000D03*
X149850000Y-62970000D03*
X149850000Y-64240000D03*
X149850000Y-65510000D03*
X149850000Y-66780000D03*
X149850000Y-68050000D03*
X149850000Y-69320000D03*
X149850000Y-70590000D03*
D41*
X152890000Y-71840000D03*
X154160000Y-71840000D03*
X155430000Y-71840000D03*
X156700000Y-71840000D03*
X157970000Y-71840000D03*
X159240000Y-71840000D03*
X160510000Y-71840000D03*
X161780000Y-71840000D03*
X163050000Y-71840000D03*
X164320000Y-71840000D03*
D40*
X167350000Y-70590000D03*
X167350000Y-69320000D03*
X167350000Y-68050000D03*
X167350000Y-66780000D03*
X167350000Y-65510000D03*
X167350000Y-64240000D03*
X167350000Y-62970000D03*
X167350000Y-61700000D03*
X167350000Y-60430000D03*
X167350000Y-59160000D03*
X167350000Y-57890000D03*
X167350000Y-56620000D03*
X167350000Y-55350000D03*
X167350000Y-54080000D03*
D42*
X155700000Y-60400000D03*
X155700000Y-61800000D03*
X155700000Y-63200000D03*
X157100000Y-60400000D03*
X157100000Y-61800000D03*
X157100000Y-63200000D03*
X158500000Y-60400000D03*
X158500000Y-61800000D03*
X158500000Y-63200000D03*
%TD*%
D33*
%TO.C,SW2*%
X151600000Y-94567618D03*
X155700000Y-94567618D03*
X151600000Y-96167618D03*
X155700000Y-96167618D03*
%TD*%
D43*
%TO.C,SW6*%
X190700000Y-116500000D03*
X188200000Y-116500000D03*
X185700000Y-116500000D03*
X190700000Y-114100000D03*
X188200000Y-114100000D03*
X185700000Y-114100000D03*
%TD*%
M02*
