%TF.GenerationSoftware,KiCad,Pcbnew,10.0.1*%
%TF.CreationDate,2026-05-07T18:18:31+07:00*%
%TF.ProjectId,Mp3Player,4d703350-6c61-4796-9572-2e6b69636164,rev?*%
%TF.SameCoordinates,Original*%
%TF.FileFunction,Copper,L2,Bot*%
%TF.FilePolarity,Positive*%
%FSLAX46Y46*%
G04 Gerber Fmt 4.6, Leading zero omitted, Abs format (unit mm)*
G04 Created by KiCad (PCBNEW 10.0.1) date 2026-05-07 18:18:31*
%MOMM*%
%LPD*%
G01*
G04 APERTURE LIST*
G04 Aperture macros list*
%AMRoundRect*
0 Rectangle with rounded corners*
0 $1 Rounding radius*
0 $2 $3 $4 $5 $6 $7 $8 $9 X,Y pos of 4 corners*
0 Add a 4 corners polygon primitive as box body*
4,1,4,$2,$3,$4,$5,$6,$7,$8,$9,$2,$3,0*
0 Add four circle primitives for the rounded corners*
1,1,$1+$1,$2,$3*
1,1,$1+$1,$4,$5*
1,1,$1+$1,$6,$7*
1,1,$1+$1,$8,$9*
0 Add four rect primitives between the rounded corners*
20,1,$1+$1,$2,$3,$4,$5,0*
20,1,$1+$1,$4,$5,$6,$7,0*
20,1,$1+$1,$6,$7,$8,$9,0*
20,1,$1+$1,$8,$9,$2,$3,0*%
G04 Aperture macros list end*
%TA.AperFunction,ComponentPad*%
%ADD10O,1.000000X2.100000*%
%TD*%
%TA.AperFunction,ComponentPad*%
%ADD11O,1.000000X1.800000*%
%TD*%
%TA.AperFunction,ComponentPad*%
%ADD12R,1.700000X1.700000*%
%TD*%
%TA.AperFunction,ComponentPad*%
%ADD13C,1.700000*%
%TD*%
%TA.AperFunction,ComponentPad*%
%ADD14RoundRect,0.250000X0.350000X0.625000X-0.350000X0.625000X-0.350000X-0.625000X0.350000X-0.625000X0*%
%TD*%
%TA.AperFunction,ComponentPad*%
%ADD15O,1.200000X1.750000*%
%TD*%
%TA.AperFunction,HeatsinkPad*%
%ADD16C,0.600000*%
%TD*%
%TA.AperFunction,ViaPad*%
%ADD17C,0.600000*%
%TD*%
%TA.AperFunction,Conductor*%
%ADD18C,0.200000*%
%TD*%
%TA.AperFunction,Conductor*%
%ADD19C,0.600000*%
%TD*%
%TA.AperFunction,Conductor*%
%ADD20C,0.300000*%
%TD*%
%TA.AperFunction,Conductor*%
%ADD21C,0.550000*%
%TD*%
G04 APERTURE END LIST*
D10*
%TO.P,J1,SH*%
%TO.N,N/C*%
X162060000Y-140170000D03*
D11*
X162060000Y-144350000D03*
D10*
X170700000Y-140170000D03*
D11*
X170700000Y-144350000D03*
%TD*%
D12*
%TO.P,J6,1,Pin_1_1*%
%TO.N,/SENSOR_VN*%
X197315000Y-56290000D03*
D13*
%TO.P,J6,2,Pin_2_2*%
%TO.N,unconnected-(J6-Pin_2-Pad2)*%
X197315000Y-58830000D03*
%TO.P,J6,3,Pin_3_3*%
%TO.N,+3V3*%
X197315000Y-61370000D03*
%TO.P,J6,4,Pin_4_4*%
%TO.N,GND*%
X197315000Y-63910000D03*
%TD*%
D10*
%TO.P,J3,SH*%
%TO.N,N/C*%
X113880000Y-140085000D03*
D11*
X113880000Y-144265000D03*
D10*
X122520000Y-140085000D03*
D11*
X122520000Y-144265000D03*
%TD*%
D14*
%TO.P,J2,1,Pin_1_1*%
%TO.N,Net-(J2-Pin_1)*%
X193675000Y-109112500D03*
D15*
%TO.P,J2,2,Pin_2_2*%
%TO.N,Net-(J2-Pin_2)*%
X191675000Y-109112500D03*
%TD*%
D12*
%TO.P,J4,1,Pin_1_1*%
%TO.N,/IO26*%
X197200000Y-70240000D03*
D13*
%TO.P,J4,2,Pin_2_2*%
%TO.N,/IO22*%
X197200000Y-72780000D03*
%TO.P,J4,3,Pin_3_3*%
%TO.N,/IO21*%
X197200000Y-75320000D03*
%TO.P,J4,4,Pin_4_4*%
%TO.N,/IO5*%
X197200000Y-77860000D03*
%TO.P,J4,5,Pin_5_5*%
%TO.N,/IO18*%
X197200000Y-80400000D03*
%TO.P,J4,6,Pin_6_6*%
%TO.N,/IO23*%
X197200000Y-82940000D03*
%TO.P,J4,7,Pin_7_7*%
%TO.N,GND*%
X197200000Y-85480000D03*
%TO.P,J4,8,Pin_8_8*%
%TO.N,+3V3*%
X197200000Y-88020000D03*
%TD*%
D16*
%TO.P,U2,39,GND_39*%
%TO.N,GND*%
X155700000Y-61100000D03*
X155700000Y-62500000D03*
X156400000Y-60400000D03*
X156400000Y-61800000D03*
X156400000Y-63200000D03*
X157075000Y-61100000D03*
X157075000Y-62500000D03*
X157800000Y-60400000D03*
X157800000Y-61800000D03*
X157800000Y-63200000D03*
X158500000Y-61100000D03*
X158500000Y-62500000D03*
%TD*%
D17*
%TO.N,GND*%
X140800000Y-145300000D03*
X136900000Y-141400000D03*
%TO.N,+3V3*%
X175400000Y-132987500D03*
X177862500Y-132850000D03*
%TO.N,GND*%
X165900000Y-88037500D03*
%TO.N,/IO35*%
X149900000Y-61700000D03*
%TO.N,+3V3*%
X149850000Y-55350000D03*
X145400000Y-57700000D03*
X150800000Y-79000000D03*
X152900000Y-77800000D03*
X152000000Y-84300000D03*
%TO.N,GND*%
X155400000Y-82600000D03*
%TO.N,+3V3*%
X148287500Y-94400000D03*
%TO.N,GND*%
X154200000Y-74812500D03*
%TO.N,/IO13*%
X154160000Y-71840000D03*
X154300000Y-73600000D03*
%TO.N,+3V3*%
X168600000Y-132200000D03*
X161500000Y-132400000D03*
X166550000Y-133250000D03*
%TO.N,Net-(U4-BAT_SNS)*%
X193200000Y-119400000D03*
X187700000Y-125500000D03*
%TO.N,+3V3*%
X146900000Y-130300000D03*
X125500000Y-131800000D03*
X172900000Y-104700000D03*
X186100000Y-97700000D03*
%TO.N,/IO4*%
X167350000Y-69320000D03*
X143200000Y-84800000D03*
X133700000Y-96500000D03*
X125900000Y-96400000D03*
%TO.N,+3.3VA*%
X172900000Y-91900000D03*
X176800000Y-92900000D03*
%TO.N,+3V3*%
X185900000Y-121900000D03*
X183662500Y-119962500D03*
X174787500Y-123952500D03*
%TO.N,/EN*%
X175500000Y-134812500D03*
X177000000Y-143700000D03*
%TO.N,/IO18*%
X167350000Y-64240000D03*
%TO.N,/IO5*%
X167350000Y-65510000D03*
%TO.N,/IO26*%
X162700000Y-68300000D03*
%TO.N,/IO23*%
X190500000Y-67400000D03*
%TO.N,/IO21*%
X167300000Y-60400000D03*
X171900000Y-59400000D03*
%TO.N,/IO22*%
X183700000Y-69500000D03*
%TO.N,/IO18*%
X189600000Y-73300000D03*
%TO.N,/IO5*%
X188700000Y-72600000D03*
%TO.N,/IO22*%
X183700000Y-71200000D03*
%TO.N,/IO26*%
X181960000Y-70240000D03*
%TO.N,/IO2*%
X164320000Y-71840000D03*
X134400000Y-84300000D03*
%TO.N,/IO27*%
X144900000Y-78700000D03*
%TO.N,/IO32*%
X140700000Y-78700000D03*
%TO.N,/IO33*%
X142000000Y-78800000D03*
X142300000Y-81200000D03*
%TO.N,/IO23*%
X151150000Y-59950000D03*
%TO.N,/IO19*%
X151450000Y-61950000D03*
%TO.N,/IO18*%
X151500000Y-64600000D03*
%TO.N,/IO25*%
X127000000Y-80500000D03*
%TO.N,/IO19*%
X130100000Y-80500000D03*
%TO.N,/IO18*%
X131300000Y-80900000D03*
%TO.N,/IO23*%
X132500000Y-81800000D03*
%TO.N,/IO27*%
X136000000Y-80600000D03*
%TO.N,/IO35*%
X137000000Y-80600000D03*
%TO.N,/IO25*%
X143000000Y-73000000D03*
%TO.N,/IO33*%
X142000000Y-78800000D03*
%TO.N,/IO34*%
X140200000Y-77500000D03*
%TO.N,/IO32*%
X138700000Y-85100000D03*
%TO.N,/IO34*%
X137900000Y-80500000D03*
%TO.N,/SENSOR_VP*%
X139400000Y-80500000D03*
X139500000Y-78900000D03*
%TO.N,GND*%
X119875000Y-80700000D03*
X192475000Y-55900000D03*
%TO.N,+3V3*%
X164100000Y-78800000D03*
X165800000Y-78400000D03*
%TO.N,GND*%
X163500000Y-74812500D03*
X166200000Y-74712500D03*
X166600000Y-131300000D03*
X139417618Y-108350000D03*
X155700000Y-96167618D03*
X167882382Y-108350000D03*
X155700000Y-111200000D03*
X176737500Y-119600000D03*
X155700000Y-124632382D03*
X185700000Y-114100000D03*
X199050000Y-114000000D03*
X152890000Y-71840000D03*
X149850000Y-54080000D03*
X167350000Y-54080000D03*
X151300000Y-88212500D03*
X159300000Y-92362500D03*
X161800000Y-88137500D03*
X150800000Y-77137500D03*
X155800000Y-76487500D03*
X152600000Y-76462500D03*
X124685000Y-85795000D03*
X109715000Y-80700000D03*
X110985000Y-80700000D03*
X124685000Y-93415000D03*
X113525000Y-94700000D03*
X120350000Y-133027500D03*
X113500000Y-135277500D03*
X115000000Y-139510000D03*
X121400000Y-139510000D03*
X122100000Y-137600000D03*
X151750000Y-130300000D03*
X144700000Y-130300000D03*
X163180000Y-139595000D03*
X169580000Y-139595000D03*
X166550000Y-137500000D03*
X163100000Y-135787500D03*
X170500000Y-135987500D03*
X172862500Y-129400000D03*
X176000000Y-127700000D03*
X189075000Y-131325000D03*
X191775000Y-131075000D03*
X191175000Y-120750000D03*
X186012500Y-127012500D03*
X186050000Y-124212500D03*
X181675000Y-127575000D03*
X182275000Y-122787500D03*
%TO.N,/IO23*%
X190300000Y-75100000D03*
%TD*%
%TO.N,GND*%
D18*
X137700000Y-143300000D02*
X138800000Y-143300000D01*
X138800000Y-143300000D02*
X140800000Y-145300000D01*
X137700000Y-142200000D02*
X137700000Y-143300000D01*
X136900000Y-141400000D02*
X137700000Y-142200000D01*
%TO.N,+3V3*%
D19*
X175537500Y-132850000D02*
X175400000Y-132987500D01*
X177862500Y-132850000D02*
X175537500Y-132850000D01*
%TO.N,/IO35*%
D18*
X150250000Y-61350000D02*
X149900000Y-61700000D01*
X151698529Y-61350000D02*
X150250000Y-61350000D01*
X152100000Y-61751471D02*
X151698529Y-61350000D01*
X152100000Y-64848529D02*
X152100000Y-61751471D01*
X143348529Y-73600000D02*
X152100000Y-64848529D01*
X143244365Y-73600000D02*
X143348529Y-73600000D01*
X137000000Y-79844365D02*
X143244365Y-73600000D01*
X137000000Y-80600000D02*
X137000000Y-79844365D01*
%TO.N,/IO23*%
D20*
X148350000Y-59950000D02*
X151150000Y-59950000D01*
X132500000Y-75800000D02*
X148350000Y-59950000D01*
X132500000Y-81800000D02*
X132500000Y-75800000D01*
%TO.N,+3V3*%
D19*
X126200000Y-79000000D02*
X126200000Y-80831371D01*
X134568629Y-89200000D02*
X148287500Y-89200000D01*
X149350000Y-55850000D02*
X126200000Y-79000000D01*
D21*
X148287500Y-89200000D02*
X148287500Y-94400000D01*
D19*
X149350000Y-55850000D02*
X149850000Y-55350000D01*
X126200000Y-80831371D02*
X134568629Y-89200000D01*
X145400000Y-57700000D02*
X147500000Y-57700000D01*
X147500000Y-57700000D02*
X149350000Y-55850000D01*
D18*
X151700000Y-79000000D02*
X150800000Y-79000000D01*
X152900000Y-77800000D02*
X151700000Y-79000000D01*
D21*
X148287500Y-88012500D02*
X152000000Y-84300000D01*
X148287500Y-88012500D02*
X148287500Y-89200000D01*
%TO.N,/IO13*%
D18*
X154300000Y-71980000D02*
X154160000Y-71840000D01*
X154300000Y-73600000D02*
X154300000Y-71980000D01*
%TO.N,+3V3*%
X167550000Y-133250000D02*
X166550000Y-133250000D01*
X168600000Y-132200000D02*
X167550000Y-133250000D01*
D19*
X165700000Y-132400000D02*
X166550000Y-133250000D01*
X161500000Y-132400000D02*
X165700000Y-132400000D01*
%TO.N,Net-(U4-BAT_SNS)*%
D18*
X193200000Y-120000000D02*
X193200000Y-119400000D01*
X187700000Y-125500000D02*
X193200000Y-120000000D01*
%TO.N,+3V3*%
D20*
X146900000Y-129600000D02*
X146900000Y-130100000D01*
X145800000Y-128500000D02*
X146900000Y-129600000D01*
X141300000Y-128600000D02*
X145700000Y-128600000D01*
X138100000Y-131800000D02*
X141300000Y-128600000D01*
X145700000Y-128600000D02*
X145800000Y-128500000D01*
X125500000Y-131800000D02*
X138100000Y-131800000D01*
D19*
X179100000Y-104700000D02*
X172900000Y-104700000D01*
X186100000Y-97700000D02*
X179100000Y-104700000D01*
%TO.N,/IO4*%
D20*
X167100000Y-69100000D02*
X167300000Y-69300000D01*
X153700000Y-69100000D02*
X167100000Y-69100000D01*
X149900000Y-72900000D02*
X153700000Y-69100000D01*
X149900000Y-78100000D02*
X149900000Y-72900000D01*
X143200000Y-84800000D02*
X149900000Y-78100000D01*
X133600000Y-96400000D02*
X133700000Y-96500000D01*
X125900000Y-96400000D02*
X133600000Y-96400000D01*
%TO.N,+3.3VA*%
D19*
X173900000Y-92900000D02*
X172900000Y-91900000D01*
X176800000Y-92900000D02*
X173900000Y-92900000D01*
%TO.N,+3V3*%
X183962500Y-119962500D02*
X185900000Y-121900000D01*
X183662500Y-119962500D02*
X183962500Y-119962500D01*
X179672500Y-123952500D02*
X183662500Y-119962500D01*
X174787500Y-123952500D02*
X179672500Y-123952500D01*
%TO.N,/EN*%
D18*
X175500000Y-142200000D02*
X177000000Y-143700000D01*
X175500000Y-134812500D02*
X175500000Y-142200000D01*
%TO.N,/IO18*%
D20*
X181259239Y-64240000D02*
X167350000Y-64240000D01*
X189600000Y-72580761D02*
X181259239Y-64240000D01*
X189600000Y-73300000D02*
X189600000Y-72580761D01*
%TO.N,/IO5*%
X181610000Y-65510000D02*
X167350000Y-65510000D01*
X188700000Y-72600000D02*
X181610000Y-65510000D01*
%TO.N,/IO26*%
X180020000Y-68300000D02*
X162700000Y-68300000D01*
X181960000Y-70240000D02*
X180020000Y-68300000D01*
%TO.N,/IO23*%
X190300000Y-67600000D02*
X190500000Y-67400000D01*
X190300000Y-75100000D02*
X190300000Y-67600000D01*
%TO.N,/IO21*%
X170900000Y-60400000D02*
X167300000Y-60400000D01*
X171900000Y-59400000D02*
X170900000Y-60400000D01*
%TO.N,/IO22*%
X183700000Y-71200000D02*
X183700000Y-69500000D01*
%TO.N,/IO2*%
X162960000Y-71840000D02*
X164320000Y-71840000D01*
X148550000Y-86250000D02*
X162960000Y-71840000D01*
X136350000Y-86250000D02*
X148550000Y-86250000D01*
X134400000Y-84300000D02*
X136350000Y-86250000D01*
%TO.N,/IO25*%
X135150000Y-80450000D02*
X142600000Y-73000000D01*
X135150000Y-81483453D02*
X135150000Y-80450000D01*
X133183453Y-83450000D02*
X135150000Y-81483453D01*
X129950000Y-83450000D02*
X133183453Y-83450000D01*
X142600000Y-73000000D02*
X143000000Y-73000000D01*
X127000000Y-80500000D02*
X129950000Y-83450000D01*
%TO.N,/IO18*%
X151400000Y-64500000D02*
X151500000Y-64600000D01*
X149780761Y-64500000D02*
X151400000Y-64500000D01*
X133650000Y-80630761D02*
X149780761Y-64500000D01*
X133650000Y-82276345D02*
X133650000Y-80630761D01*
X129450000Y-80769239D02*
X131630761Y-82950000D01*
X129450000Y-80230761D02*
X129450000Y-80769239D01*
X130369239Y-79850000D02*
X129830761Y-79850000D01*
X131300000Y-80780761D02*
X130369239Y-79850000D01*
X132976346Y-82950000D02*
X133650000Y-82276345D01*
X131630761Y-82950000D02*
X132976346Y-82950000D01*
X129830761Y-79850000D02*
X129450000Y-80230761D01*
X131300000Y-80900000D02*
X131300000Y-80780761D01*
%TO.N,/IO19*%
X133150000Y-82069239D02*
X133150000Y-80250000D01*
X132769239Y-82450000D02*
X133150000Y-82069239D01*
X130100000Y-80619239D02*
X131930761Y-82450000D01*
X131930761Y-82450000D02*
X132769239Y-82450000D01*
X130100000Y-80500000D02*
X130100000Y-80619239D01*
X133150000Y-80250000D02*
X151450000Y-61950000D01*
%TO.N,/IO27*%
X138969239Y-85750000D02*
X144900000Y-79819239D01*
X138430761Y-85750000D02*
X138969239Y-85750000D01*
X136000000Y-83319239D02*
X138430761Y-85750000D01*
X136000000Y-80600000D02*
X136000000Y-83319239D01*
X144900000Y-79819239D02*
X144900000Y-78700000D01*
%TO.N,/IO32*%
X140700000Y-83100000D02*
X138700000Y-85100000D01*
X140700000Y-78700000D02*
X140700000Y-83100000D01*
%TO.N,/IO33*%
X142000000Y-80900000D02*
X142300000Y-81200000D01*
X142000000Y-78800000D02*
X142000000Y-80900000D01*
%TO.N,/IO34*%
X137900000Y-79580761D02*
X137900000Y-80500000D01*
X139980761Y-77500000D02*
X137900000Y-79580761D01*
X140200000Y-77500000D02*
X139980761Y-77500000D01*
%TO.N,/SENSOR_VP*%
X139400000Y-79000000D02*
X139500000Y-78900000D01*
X139400000Y-80500000D02*
X139400000Y-79000000D01*
%TO.N,+3V3*%
X165400000Y-78800000D02*
X165800000Y-78400000D01*
X164100000Y-78800000D02*
X165400000Y-78800000D01*
%TD*%
%TA.AperFunction,Conductor*%
%TO.N,GND*%
G36*
X133569013Y-84072850D02*
G01*
X133604666Y-84132939D01*
X133606136Y-84187797D01*
X133599500Y-84221159D01*
X133599500Y-84378846D01*
X133630261Y-84533489D01*
X133630264Y-84533501D01*
X133690602Y-84679172D01*
X133690609Y-84679185D01*
X133778210Y-84810288D01*
X133778213Y-84810292D01*
X133889707Y-84921786D01*
X133889711Y-84921789D01*
X134020814Y-85009390D01*
X134020827Y-85009397D01*
X134108230Y-85045599D01*
X134166503Y-85069737D01*
X134233580Y-85083079D01*
X134295488Y-85115461D01*
X134297068Y-85117014D01*
X135935324Y-86755271D01*
X135935331Y-86755277D01*
X136041871Y-86826464D01*
X136041870Y-86826464D01*
X136076544Y-86840826D01*
X136160256Y-86875501D01*
X136160260Y-86875501D01*
X136160261Y-86875502D01*
X136285928Y-86900500D01*
X136285931Y-86900500D01*
X148003416Y-86900500D01*
X148070455Y-86920185D01*
X148116210Y-86972989D01*
X148126154Y-87042147D01*
X148097129Y-87105703D01*
X148091097Y-87112181D01*
X147793148Y-87410130D01*
X147739138Y-87464140D01*
X147685128Y-87518149D01*
X147600264Y-87645156D01*
X147600259Y-87645165D01*
X147541802Y-87786294D01*
X147541800Y-87786302D01*
X147512000Y-87936115D01*
X147512000Y-88275500D01*
X147492315Y-88342539D01*
X147439511Y-88388294D01*
X147388000Y-88399500D01*
X134951569Y-88399500D01*
X134884530Y-88379815D01*
X134863888Y-88363181D01*
X130812888Y-84312181D01*
X130779403Y-84250858D01*
X130784387Y-84181166D01*
X130826259Y-84125233D01*
X130891723Y-84100816D01*
X130900569Y-84100500D01*
X133247524Y-84100500D01*
X133332068Y-84083682D01*
X133373197Y-84075501D01*
X133437068Y-84049044D01*
X133506533Y-84041576D01*
X133569013Y-84072850D01*
G37*
%TD.AperFunction*%
%TA.AperFunction,Conductor*%
G36*
X135268833Y-82387079D02*
G01*
X135324767Y-82428951D01*
X135349184Y-82494415D01*
X135349500Y-82503261D01*
X135349500Y-83383308D01*
X135363816Y-83455276D01*
X135363972Y-83456063D01*
X135363977Y-83456087D01*
X135374497Y-83508976D01*
X135374499Y-83508983D01*
X135423535Y-83627366D01*
X135494723Y-83733908D01*
X135494726Y-83733912D01*
X135494727Y-83733913D01*
X137148635Y-85387819D01*
X137182120Y-85449142D01*
X137177136Y-85518833D01*
X137135264Y-85574767D01*
X137069800Y-85599184D01*
X137060954Y-85599500D01*
X136670808Y-85599500D01*
X136603769Y-85579815D01*
X136583127Y-85563181D01*
X135217015Y-84197069D01*
X135183530Y-84135746D01*
X135183093Y-84133652D01*
X135169737Y-84066503D01*
X135123666Y-83955277D01*
X135109397Y-83920827D01*
X135109390Y-83920814D01*
X135021789Y-83789711D01*
X135021786Y-83789707D01*
X134910292Y-83678213D01*
X134910288Y-83678210D01*
X134779185Y-83590609D01*
X134779172Y-83590602D01*
X134633501Y-83530264D01*
X134633489Y-83530261D01*
X134478845Y-83499500D01*
X134478842Y-83499500D01*
X134353262Y-83499500D01*
X134286223Y-83479815D01*
X134240468Y-83427011D01*
X134230524Y-83357853D01*
X134259549Y-83294297D01*
X134265581Y-83287819D01*
X135137819Y-82415580D01*
X135199142Y-82382095D01*
X135268833Y-82387079D01*
G37*
%TD.AperFunction*%
%TA.AperFunction,Conductor*%
G36*
X138667558Y-80919484D02*
G01*
X138669835Y-80919199D01*
X138699436Y-80933361D01*
X138729517Y-80946455D01*
X138731560Y-80948730D01*
X138732862Y-80949353D01*
X138753102Y-80972712D01*
X138778207Y-81010284D01*
X138778213Y-81010292D01*
X138889707Y-81121786D01*
X138889711Y-81121789D01*
X139020814Y-81209390D01*
X139020827Y-81209397D01*
X139114669Y-81248267D01*
X139166503Y-81269737D01*
X139310706Y-81298421D01*
X139321153Y-81300499D01*
X139321156Y-81300500D01*
X139321158Y-81300500D01*
X139478844Y-81300500D01*
X139478845Y-81300499D01*
X139633497Y-81269737D01*
X139779179Y-81209394D01*
X139856609Y-81157657D01*
X139923286Y-81136779D01*
X139990666Y-81155263D01*
X140037357Y-81207242D01*
X140049500Y-81260759D01*
X140049500Y-82779192D01*
X140029815Y-82846231D01*
X140013181Y-82866873D01*
X138597069Y-84282984D01*
X138535746Y-84316469D01*
X138533580Y-84316920D01*
X138466508Y-84330261D01*
X138466498Y-84330264D01*
X138320827Y-84390602D01*
X138320814Y-84390609D01*
X138207909Y-84466051D01*
X138141231Y-84486929D01*
X138073851Y-84468445D01*
X138051337Y-84450630D01*
X136686819Y-83086112D01*
X136653334Y-83024789D01*
X136650500Y-82998431D01*
X136650500Y-81497757D01*
X136670185Y-81430718D01*
X136722989Y-81384963D01*
X136792147Y-81375019D01*
X136798692Y-81376140D01*
X136921155Y-81400500D01*
X136921158Y-81400500D01*
X137078844Y-81400500D01*
X137078845Y-81400499D01*
X137233497Y-81369737D01*
X137379179Y-81309394D01*
X137395601Y-81298421D01*
X137470662Y-81248267D01*
X137537339Y-81227389D01*
X137587004Y-81236807D01*
X137666503Y-81269737D01*
X137810706Y-81298421D01*
X137821153Y-81300499D01*
X137821156Y-81300500D01*
X137821158Y-81300500D01*
X137978844Y-81300500D01*
X137978845Y-81300499D01*
X138133497Y-81269737D01*
X138279179Y-81209394D01*
X138410289Y-81121789D01*
X138521789Y-81010289D01*
X138529145Y-80999279D01*
X138546898Y-80972712D01*
X138572073Y-80951671D01*
X138596484Y-80929745D01*
X138598748Y-80929378D01*
X138600510Y-80927906D01*
X138633069Y-80923816D01*
X138665454Y-80918569D01*
X138667558Y-80919484D01*
G37*
%TD.AperFunction*%
%TA.AperFunction,Conductor*%
G36*
X141555703Y-81529189D02*
G01*
X141589062Y-81575451D01*
X141590605Y-81579178D01*
X141590609Y-81579185D01*
X141678210Y-81710288D01*
X141678213Y-81710292D01*
X141794018Y-81826097D01*
X141792514Y-81827600D01*
X141826428Y-81877379D01*
X141828305Y-81947223D01*
X141796113Y-82003178D01*
X141562181Y-82237111D01*
X141500858Y-82270596D01*
X141431167Y-82265612D01*
X141375233Y-82223741D01*
X141350816Y-82158276D01*
X141350500Y-82149430D01*
X141350500Y-81622902D01*
X141370185Y-81555863D01*
X141422989Y-81510108D01*
X141492147Y-81500164D01*
X141555703Y-81529189D01*
G37*
%TD.AperFunction*%
%TA.AperFunction,Conductor*%
G36*
X149885673Y-60600874D02*
G01*
X149886959Y-60600526D01*
X149919122Y-60610696D01*
X149951436Y-60620185D01*
X149952306Y-60621190D01*
X149953578Y-60621592D01*
X149975149Y-60647551D01*
X149997191Y-60672989D01*
X149997380Y-60674304D01*
X149998232Y-60675330D01*
X150002339Y-60708797D01*
X150007135Y-60742147D01*
X150006581Y-60743358D01*
X150006744Y-60744680D01*
X149992111Y-60775043D01*
X149978110Y-60805703D01*
X149976825Y-60806763D01*
X149976412Y-60807622D01*
X149949267Y-60830178D01*
X149947832Y-60831058D01*
X149881284Y-60869480D01*
X149874994Y-60875769D01*
X149862526Y-60883423D01*
X149821848Y-60899362D01*
X149666508Y-60930261D01*
X149666498Y-60930264D01*
X149520827Y-60990602D01*
X149520814Y-60990609D01*
X149389711Y-61078210D01*
X149389707Y-61078213D01*
X149278213Y-61189707D01*
X149278210Y-61189711D01*
X149190609Y-61320814D01*
X149190602Y-61320827D01*
X149130264Y-61466498D01*
X149130261Y-61466510D01*
X149099500Y-61621153D01*
X149099500Y-61778846D01*
X149130261Y-61933489D01*
X149130264Y-61933501D01*
X149190602Y-62079172D01*
X149190609Y-62079185D01*
X149278210Y-62210288D01*
X149278213Y-62210292D01*
X149389707Y-62321786D01*
X149389711Y-62321789D01*
X149520814Y-62409390D01*
X149520827Y-62409397D01*
X149666498Y-62469735D01*
X149666503Y-62469737D01*
X149697744Y-62475951D01*
X149725743Y-62481521D01*
X149787654Y-62513906D01*
X149822228Y-62574621D01*
X149818489Y-62644391D01*
X149789233Y-62690819D01*
X133362181Y-79117872D01*
X133300858Y-79151357D01*
X133231166Y-79146373D01*
X133175233Y-79104501D01*
X133150816Y-79039037D01*
X133150500Y-79030191D01*
X133150500Y-76120808D01*
X133170185Y-76053769D01*
X133186819Y-76033127D01*
X148583127Y-60636819D01*
X148644450Y-60603334D01*
X148670808Y-60600500D01*
X149884397Y-60600500D01*
X149885673Y-60600874D01*
G37*
%TD.AperFunction*%
%TA.AperFunction,Conductor*%
G36*
X150716471Y-65170185D02*
G01*
X150762226Y-65222989D01*
X150772170Y-65292147D01*
X150743145Y-65355703D01*
X150737113Y-65362181D01*
X143703367Y-72395926D01*
X143642044Y-72429411D01*
X143572352Y-72424427D01*
X143528005Y-72395926D01*
X143510292Y-72378213D01*
X143510288Y-72378210D01*
X143379185Y-72290609D01*
X143379172Y-72290602D01*
X143233496Y-72230262D01*
X143229632Y-72229090D01*
X143171196Y-72190788D01*
X143142744Y-72126974D01*
X143153310Y-72057908D01*
X143177952Y-72022754D01*
X150013888Y-65186819D01*
X150075211Y-65153334D01*
X150101569Y-65150500D01*
X150649432Y-65150500D01*
X150716471Y-65170185D01*
G37*
%TD.AperFunction*%
%TA.AperFunction,Conductor*%
G36*
X151418834Y-63003625D02*
G01*
X151474767Y-63045497D01*
X151499184Y-63110961D01*
X151499500Y-63119807D01*
X151499500Y-63682152D01*
X151491225Y-63710331D01*
X151485613Y-63739171D01*
X151481493Y-63743476D01*
X151479815Y-63749191D01*
X151457620Y-63768422D01*
X151437306Y-63789651D01*
X151429563Y-63792734D01*
X151427011Y-63794946D01*
X151411131Y-63800074D01*
X151404516Y-63802709D01*
X151402090Y-63803292D01*
X151266503Y-63830263D01*
X151233865Y-63843781D01*
X151224412Y-63846057D01*
X151195396Y-63849500D01*
X150769807Y-63849500D01*
X150702768Y-63829815D01*
X150657013Y-63777011D01*
X150647069Y-63707853D01*
X150676094Y-63644297D01*
X150682126Y-63637819D01*
X151287819Y-63032126D01*
X151349142Y-62998641D01*
X151418834Y-63003625D01*
G37*
%TD.AperFunction*%
%TD*%
%TA.AperFunction,Conductor*%
%TO.N,GND*%
G36*
X200942539Y-53220185D02*
G01*
X200988294Y-53272989D01*
X200999500Y-53324500D01*
X200999500Y-146275500D01*
X200979815Y-146342539D01*
X200927011Y-146388294D01*
X200875500Y-146399500D01*
X108574500Y-146399500D01*
X108507461Y-146379815D01*
X108461706Y-146327011D01*
X108450500Y-146275500D01*
X108450500Y-144763543D01*
X112879499Y-144763543D01*
X112917947Y-144956829D01*
X112917950Y-144956839D01*
X112993364Y-145138907D01*
X112993371Y-145138920D01*
X113102860Y-145302781D01*
X113102863Y-145302785D01*
X113242214Y-145442136D01*
X113242218Y-145442139D01*
X113406079Y-145551628D01*
X113406092Y-145551635D01*
X113588160Y-145627049D01*
X113588165Y-145627051D01*
X113588169Y-145627051D01*
X113588170Y-145627052D01*
X113781456Y-145665500D01*
X113781459Y-145665500D01*
X113978543Y-145665500D01*
X114108582Y-145639632D01*
X114171835Y-145627051D01*
X114353914Y-145551632D01*
X114517782Y-145442139D01*
X114657139Y-145302782D01*
X114766632Y-145138914D01*
X114842051Y-144956835D01*
X114880500Y-144763543D01*
X121519499Y-144763543D01*
X121557947Y-144956829D01*
X121557950Y-144956839D01*
X121633364Y-145138907D01*
X121633371Y-145138920D01*
X121742860Y-145302781D01*
X121742863Y-145302785D01*
X121882214Y-145442136D01*
X121882218Y-145442139D01*
X122046079Y-145551628D01*
X122046092Y-145551635D01*
X122228160Y-145627049D01*
X122228165Y-145627051D01*
X122228169Y-145627051D01*
X122228170Y-145627052D01*
X122421456Y-145665500D01*
X122421459Y-145665500D01*
X122618543Y-145665500D01*
X122748582Y-145639632D01*
X122811835Y-145627051D01*
X122993914Y-145551632D01*
X123157782Y-145442139D01*
X123297139Y-145302782D01*
X123406632Y-145138914D01*
X123482051Y-144956835D01*
X123503592Y-144848543D01*
X161059499Y-144848543D01*
X161097947Y-145041829D01*
X161097950Y-145041839D01*
X161173364Y-145223907D01*
X161173371Y-145223920D01*
X161282860Y-145387781D01*
X161282863Y-145387785D01*
X161422214Y-145527136D01*
X161422218Y-145527139D01*
X161586079Y-145636628D01*
X161586092Y-145636635D01*
X161768160Y-145712049D01*
X161768165Y-145712051D01*
X161768169Y-145712051D01*
X161768170Y-145712052D01*
X161961456Y-145750500D01*
X161961459Y-145750500D01*
X162158543Y-145750500D01*
X162288582Y-145724632D01*
X162351835Y-145712051D01*
X162533914Y-145636632D01*
X162697782Y-145527139D01*
X162837139Y-145387782D01*
X162946632Y-145223914D01*
X163022051Y-145041835D01*
X163060500Y-144848543D01*
X169699499Y-144848543D01*
X169737947Y-145041829D01*
X169737950Y-145041839D01*
X169813364Y-145223907D01*
X169813371Y-145223920D01*
X169922860Y-145387781D01*
X169922863Y-145387785D01*
X170062214Y-145527136D01*
X170062218Y-145527139D01*
X170226079Y-145636628D01*
X170226092Y-145636635D01*
X170408160Y-145712049D01*
X170408165Y-145712051D01*
X170408169Y-145712051D01*
X170408170Y-145712052D01*
X170601456Y-145750500D01*
X170601459Y-145750500D01*
X170798543Y-145750500D01*
X170928582Y-145724632D01*
X170991835Y-145712051D01*
X171173914Y-145636632D01*
X171337782Y-145527139D01*
X171477139Y-145387782D01*
X171586632Y-145223914D01*
X171662051Y-145041835D01*
X171700500Y-144848541D01*
X171700500Y-143851459D01*
X171700500Y-143851456D01*
X171662052Y-143658170D01*
X171662051Y-143658169D01*
X171662051Y-143658165D01*
X171626841Y-143573160D01*
X171586635Y-143476092D01*
X171586628Y-143476079D01*
X171477139Y-143312218D01*
X171477136Y-143312214D01*
X171337785Y-143172863D01*
X171337781Y-143172860D01*
X171173920Y-143063371D01*
X171173907Y-143063364D01*
X170991839Y-142987950D01*
X170991829Y-142987947D01*
X170798543Y-142949500D01*
X170798541Y-142949500D01*
X170601459Y-142949500D01*
X170601457Y-142949500D01*
X170408170Y-142987947D01*
X170408160Y-142987950D01*
X170226092Y-143063364D01*
X170226079Y-143063371D01*
X170062218Y-143172860D01*
X170062214Y-143172863D01*
X169922863Y-143312214D01*
X169922860Y-143312218D01*
X169813371Y-143476079D01*
X169813364Y-143476092D01*
X169737950Y-143658160D01*
X169737947Y-143658170D01*
X169699500Y-143851456D01*
X169699500Y-143851459D01*
X169699500Y-144848541D01*
X169699500Y-144848543D01*
X169699499Y-144848543D01*
X163060500Y-144848543D01*
X163060500Y-144848541D01*
X163060500Y-143851459D01*
X163060500Y-143851456D01*
X163022052Y-143658170D01*
X163022051Y-143658169D01*
X163022051Y-143658165D01*
X162986841Y-143573160D01*
X162946635Y-143476092D01*
X162946628Y-143476079D01*
X162837139Y-143312218D01*
X162837136Y-143312214D01*
X162697785Y-143172863D01*
X162697781Y-143172860D01*
X162533920Y-143063371D01*
X162533907Y-143063364D01*
X162351839Y-142987950D01*
X162351829Y-142987947D01*
X162158543Y-142949500D01*
X162158541Y-142949500D01*
X161961459Y-142949500D01*
X161961457Y-142949500D01*
X161768170Y-142987947D01*
X161768160Y-142987950D01*
X161586092Y-143063364D01*
X161586079Y-143063371D01*
X161422218Y-143172860D01*
X161422214Y-143172863D01*
X161282863Y-143312214D01*
X161282860Y-143312218D01*
X161173371Y-143476079D01*
X161173364Y-143476092D01*
X161097950Y-143658160D01*
X161097947Y-143658170D01*
X161059500Y-143851456D01*
X161059500Y-143851459D01*
X161059500Y-144848541D01*
X161059500Y-144848543D01*
X161059499Y-144848543D01*
X123503592Y-144848543D01*
X123520500Y-144763541D01*
X123520500Y-143766459D01*
X123520500Y-143766456D01*
X123482052Y-143573170D01*
X123482051Y-143573169D01*
X123482051Y-143573165D01*
X123482049Y-143573160D01*
X123406635Y-143391092D01*
X123406628Y-143391079D01*
X123297139Y-143227218D01*
X123297136Y-143227214D01*
X123157785Y-143087863D01*
X123157781Y-143087860D01*
X122993920Y-142978371D01*
X122993907Y-142978364D01*
X122811839Y-142902950D01*
X122811829Y-142902947D01*
X122618543Y-142864500D01*
X122618541Y-142864500D01*
X122421459Y-142864500D01*
X122421457Y-142864500D01*
X122228170Y-142902947D01*
X122228160Y-142902950D01*
X122046092Y-142978364D01*
X122046079Y-142978371D01*
X121882218Y-143087860D01*
X121882214Y-143087863D01*
X121742863Y-143227214D01*
X121742860Y-143227218D01*
X121633371Y-143391079D01*
X121633364Y-143391092D01*
X121557950Y-143573160D01*
X121557947Y-143573170D01*
X121519500Y-143766456D01*
X121519500Y-143766459D01*
X121519500Y-144763541D01*
X121519500Y-144763543D01*
X121519499Y-144763543D01*
X114880500Y-144763543D01*
X114880500Y-144763541D01*
X114880500Y-143766459D01*
X114880500Y-143766456D01*
X114842052Y-143573170D01*
X114842051Y-143573169D01*
X114842051Y-143573165D01*
X114842049Y-143573160D01*
X114766635Y-143391092D01*
X114766628Y-143391079D01*
X114657139Y-143227218D01*
X114657136Y-143227214D01*
X114517785Y-143087863D01*
X114517781Y-143087860D01*
X114353920Y-142978371D01*
X114353907Y-142978364D01*
X114171839Y-142902950D01*
X114171829Y-142902947D01*
X113978543Y-142864500D01*
X113978541Y-142864500D01*
X113781459Y-142864500D01*
X113781457Y-142864500D01*
X113588170Y-142902947D01*
X113588160Y-142902950D01*
X113406092Y-142978364D01*
X113406079Y-142978371D01*
X113242218Y-143087860D01*
X113242214Y-143087863D01*
X113102863Y-143227214D01*
X113102860Y-143227218D01*
X112993371Y-143391079D01*
X112993364Y-143391092D01*
X112917950Y-143573160D01*
X112917947Y-143573170D01*
X112879500Y-143766456D01*
X112879500Y-143766459D01*
X112879500Y-144763541D01*
X112879500Y-144763543D01*
X112879499Y-144763543D01*
X108450500Y-144763543D01*
X108450500Y-140733543D01*
X112879499Y-140733543D01*
X112917947Y-140926829D01*
X112917950Y-140926839D01*
X112993364Y-141108907D01*
X112993371Y-141108920D01*
X113102860Y-141272781D01*
X113102863Y-141272785D01*
X113242214Y-141412136D01*
X113242218Y-141412139D01*
X113406079Y-141521628D01*
X113406092Y-141521635D01*
X113588160Y-141597049D01*
X113588165Y-141597051D01*
X113588169Y-141597051D01*
X113588170Y-141597052D01*
X113781456Y-141635500D01*
X113781459Y-141635500D01*
X113978543Y-141635500D01*
X114108582Y-141609632D01*
X114171835Y-141597051D01*
X114353914Y-141521632D01*
X114517782Y-141412139D01*
X114657139Y-141272782D01*
X114766632Y-141108914D01*
X114770540Y-141099478D01*
X114814376Y-141045074D01*
X114880669Y-141023004D01*
X114948369Y-141040279D01*
X114953028Y-141043432D01*
X114956633Y-141045513D01*
X114956635Y-141045515D01*
X115087865Y-141121281D01*
X115234234Y-141160500D01*
X115234236Y-141160500D01*
X115385764Y-141160500D01*
X115385766Y-141160500D01*
X115532135Y-141121281D01*
X115663365Y-141045515D01*
X115770515Y-140938365D01*
X115846281Y-140807135D01*
X115885500Y-140660766D01*
X115885500Y-140509234D01*
X120514500Y-140509234D01*
X120514500Y-140660765D01*
X120553719Y-140807136D01*
X120560304Y-140818541D01*
X120629485Y-140938365D01*
X120736635Y-141045515D01*
X120867865Y-141121281D01*
X121014234Y-141160500D01*
X121014236Y-141160500D01*
X121165764Y-141160500D01*
X121165766Y-141160500D01*
X121312135Y-141121281D01*
X121443365Y-141045515D01*
X121443366Y-141045513D01*
X121450403Y-141041451D01*
X121451749Y-141043783D01*
X121504553Y-141023357D01*
X121573001Y-141037381D01*
X121623001Y-141086185D01*
X121629458Y-141099474D01*
X121633367Y-141108913D01*
X121633371Y-141108920D01*
X121742860Y-141272781D01*
X121742863Y-141272785D01*
X121882214Y-141412136D01*
X121882218Y-141412139D01*
X122046079Y-141521628D01*
X122046092Y-141521635D01*
X122228160Y-141597049D01*
X122228165Y-141597051D01*
X122228169Y-141597051D01*
X122228170Y-141597052D01*
X122421456Y-141635500D01*
X122421459Y-141635500D01*
X122618543Y-141635500D01*
X122748582Y-141609632D01*
X122811835Y-141597051D01*
X122993914Y-141521632D01*
X123157782Y-141412139D01*
X123297139Y-141272782D01*
X123406632Y-141108914D01*
X123482051Y-140926835D01*
X123503592Y-140818543D01*
X161059499Y-140818543D01*
X161097947Y-141011829D01*
X161097950Y-141011839D01*
X161173364Y-141193907D01*
X161173371Y-141193920D01*
X161282860Y-141357781D01*
X161282863Y-141357785D01*
X161422214Y-141497136D01*
X161422218Y-141497139D01*
X161586079Y-141606628D01*
X161586092Y-141606635D01*
X161768160Y-141682049D01*
X161768165Y-141682051D01*
X161768169Y-141682051D01*
X161768170Y-141682052D01*
X161961456Y-141720500D01*
X161961459Y-141720500D01*
X162158543Y-141720500D01*
X162288582Y-141694632D01*
X162351835Y-141682051D01*
X162533914Y-141606632D01*
X162697782Y-141497139D01*
X162837139Y-141357782D01*
X162946632Y-141193914D01*
X162950540Y-141184478D01*
X162994376Y-141130074D01*
X163060669Y-141108004D01*
X163128369Y-141125279D01*
X163133028Y-141128432D01*
X163136633Y-141130513D01*
X163136635Y-141130515D01*
X163267865Y-141206281D01*
X163414234Y-141245500D01*
X163414236Y-141245500D01*
X163565764Y-141245500D01*
X163565766Y-141245500D01*
X163712135Y-141206281D01*
X163843365Y-141130515D01*
X163950515Y-141023365D01*
X164026281Y-140892135D01*
X164065500Y-140745766D01*
X164065500Y-140594234D01*
X168694500Y-140594234D01*
X168694500Y-140745765D01*
X168733719Y-140892136D01*
X168753753Y-140926835D01*
X168809485Y-141023365D01*
X168916635Y-141130515D01*
X169047865Y-141206281D01*
X169194234Y-141245500D01*
X169194236Y-141245500D01*
X169345764Y-141245500D01*
X169345766Y-141245500D01*
X169492135Y-141206281D01*
X169623365Y-141130515D01*
X169623366Y-141130513D01*
X169630403Y-141126451D01*
X169631749Y-141128783D01*
X169684553Y-141108357D01*
X169753001Y-141122381D01*
X169803001Y-141171185D01*
X169809458Y-141184474D01*
X169813367Y-141193913D01*
X169813371Y-141193920D01*
X169922860Y-141357781D01*
X169922863Y-141357785D01*
X170062214Y-141497136D01*
X170062218Y-141497139D01*
X170226079Y-141606628D01*
X170226092Y-141606635D01*
X170408160Y-141682049D01*
X170408165Y-141682051D01*
X170408169Y-141682051D01*
X170408170Y-141682052D01*
X170601456Y-141720500D01*
X170601459Y-141720500D01*
X170798543Y-141720500D01*
X170928582Y-141694632D01*
X170991835Y-141682051D01*
X171173914Y-141606632D01*
X171337782Y-141497139D01*
X171477139Y-141357782D01*
X171586632Y-141193914D01*
X171662051Y-141011835D01*
X171700500Y-140818541D01*
X171700500Y-139521459D01*
X171700500Y-139521456D01*
X171662052Y-139328170D01*
X171662051Y-139328169D01*
X171662051Y-139328165D01*
X171626841Y-139243160D01*
X171586635Y-139146092D01*
X171586628Y-139146079D01*
X171477139Y-138982218D01*
X171477136Y-138982214D01*
X171337785Y-138842863D01*
X171337781Y-138842860D01*
X171173920Y-138733371D01*
X171173907Y-138733364D01*
X170991839Y-138657950D01*
X170991829Y-138657947D01*
X170798543Y-138619500D01*
X170798541Y-138619500D01*
X170601459Y-138619500D01*
X170601457Y-138619500D01*
X170408170Y-138657947D01*
X170408160Y-138657950D01*
X170226092Y-138733364D01*
X170226079Y-138733371D01*
X170062218Y-138842860D01*
X170062214Y-138842863D01*
X169922863Y-138982214D01*
X169922860Y-138982218D01*
X169813371Y-139146079D01*
X169813364Y-139146092D01*
X169737950Y-139328160D01*
X169737947Y-139328170D01*
X169699500Y-139521456D01*
X169699500Y-140038666D01*
X169679815Y-140105705D01*
X169627011Y-140151460D01*
X169557853Y-140161404D01*
X169513501Y-140146054D01*
X169492137Y-140133719D01*
X169387584Y-140105705D01*
X169345766Y-140094500D01*
X169194234Y-140094500D01*
X169047863Y-140133719D01*
X168916635Y-140209485D01*
X168916632Y-140209487D01*
X168809487Y-140316632D01*
X168809485Y-140316635D01*
X168733719Y-140447863D01*
X168694500Y-140594234D01*
X164065500Y-140594234D01*
X164026281Y-140447865D01*
X163950515Y-140316635D01*
X163843365Y-140209485D01*
X163760087Y-140161404D01*
X163712136Y-140133719D01*
X163607584Y-140105705D01*
X163565766Y-140094500D01*
X163414234Y-140094500D01*
X163267862Y-140133719D01*
X163246499Y-140146054D01*
X163178598Y-140162525D01*
X163112572Y-140139673D01*
X163069382Y-140084751D01*
X163060500Y-140038666D01*
X163060500Y-139521456D01*
X163022052Y-139328170D01*
X163022051Y-139328169D01*
X163022051Y-139328165D01*
X162986841Y-139243160D01*
X162946635Y-139146092D01*
X162946628Y-139146079D01*
X162837139Y-138982218D01*
X162837136Y-138982214D01*
X162697785Y-138842863D01*
X162697781Y-138842860D01*
X162533920Y-138733371D01*
X162533907Y-138733364D01*
X162351839Y-138657950D01*
X162351829Y-138657947D01*
X162158543Y-138619500D01*
X162158541Y-138619500D01*
X161961459Y-138619500D01*
X161961457Y-138619500D01*
X161768170Y-138657947D01*
X161768160Y-138657950D01*
X161586092Y-138733364D01*
X161586079Y-138733371D01*
X161422218Y-138842860D01*
X161422214Y-138842863D01*
X161282863Y-138982214D01*
X161282860Y-138982218D01*
X161173371Y-139146079D01*
X161173364Y-139146092D01*
X161097950Y-139328160D01*
X161097947Y-139328170D01*
X161059500Y-139521456D01*
X161059500Y-139521459D01*
X161059500Y-140818541D01*
X161059500Y-140818543D01*
X161059499Y-140818543D01*
X123503592Y-140818543D01*
X123505861Y-140807135D01*
X123520500Y-140733543D01*
X123520500Y-139436456D01*
X123482052Y-139243170D01*
X123482051Y-139243169D01*
X123482051Y-139243165D01*
X123482049Y-139243160D01*
X123406635Y-139061092D01*
X123406628Y-139061079D01*
X123297139Y-138897218D01*
X123297136Y-138897214D01*
X123157785Y-138757863D01*
X123157781Y-138757860D01*
X122993920Y-138648371D01*
X122993907Y-138648364D01*
X122811839Y-138572950D01*
X122811829Y-138572947D01*
X122618543Y-138534500D01*
X122618541Y-138534500D01*
X122421459Y-138534500D01*
X122421457Y-138534500D01*
X122228170Y-138572947D01*
X122228160Y-138572950D01*
X122046092Y-138648364D01*
X122046079Y-138648371D01*
X121882218Y-138757860D01*
X121882214Y-138757863D01*
X121742863Y-138897214D01*
X121742860Y-138897218D01*
X121633371Y-139061079D01*
X121633364Y-139061092D01*
X121557950Y-139243160D01*
X121557947Y-139243170D01*
X121519500Y-139436456D01*
X121519500Y-139953666D01*
X121499815Y-140020705D01*
X121447011Y-140066460D01*
X121377853Y-140076404D01*
X121333501Y-140061054D01*
X121312137Y-140048719D01*
X121207584Y-140020705D01*
X121165766Y-140009500D01*
X121014234Y-140009500D01*
X120867863Y-140048719D01*
X120736635Y-140124485D01*
X120736632Y-140124487D01*
X120629487Y-140231632D01*
X120629485Y-140231635D01*
X120553719Y-140362863D01*
X120514500Y-140509234D01*
X115885500Y-140509234D01*
X115846281Y-140362865D01*
X115770515Y-140231635D01*
X115663365Y-140124485D01*
X115580087Y-140076404D01*
X115532136Y-140048719D01*
X115427584Y-140020705D01*
X115385766Y-140009500D01*
X115234234Y-140009500D01*
X115087862Y-140048719D01*
X115066499Y-140061054D01*
X114998598Y-140077525D01*
X114932572Y-140054673D01*
X114889382Y-139999751D01*
X114880500Y-139953666D01*
X114880500Y-139436456D01*
X114842052Y-139243170D01*
X114842051Y-139243169D01*
X114842051Y-139243165D01*
X114842049Y-139243160D01*
X114766635Y-139061092D01*
X114766628Y-139061079D01*
X114657139Y-138897218D01*
X114657136Y-138897214D01*
X114517785Y-138757863D01*
X114517781Y-138757860D01*
X114353920Y-138648371D01*
X114353907Y-138648364D01*
X114171839Y-138572950D01*
X114171829Y-138572947D01*
X113978543Y-138534500D01*
X113978541Y-138534500D01*
X113781459Y-138534500D01*
X113781457Y-138534500D01*
X113588170Y-138572947D01*
X113588160Y-138572950D01*
X113406092Y-138648364D01*
X113406079Y-138648371D01*
X113242218Y-138757860D01*
X113242214Y-138757863D01*
X113102863Y-138897214D01*
X113102860Y-138897218D01*
X112993371Y-139061079D01*
X112993364Y-139061092D01*
X112917950Y-139243160D01*
X112917947Y-139243170D01*
X112879500Y-139436456D01*
X112879500Y-139436459D01*
X112879500Y-140733541D01*
X112879500Y-140733543D01*
X112879499Y-140733543D01*
X108450500Y-140733543D01*
X108450500Y-131721153D01*
X124699500Y-131721153D01*
X124699500Y-131878846D01*
X124730261Y-132033489D01*
X124730264Y-132033501D01*
X124790602Y-132179172D01*
X124790609Y-132179185D01*
X124878210Y-132310288D01*
X124878213Y-132310292D01*
X124989707Y-132421786D01*
X124989711Y-132421789D01*
X125120814Y-132509390D01*
X125120827Y-132509397D01*
X125266498Y-132569735D01*
X125266503Y-132569737D01*
X125421153Y-132600499D01*
X125421156Y-132600500D01*
X125421158Y-132600500D01*
X125578844Y-132600500D01*
X125578845Y-132600499D01*
X125733497Y-132569737D01*
X125879179Y-132509394D01*
X125936044Y-132471397D01*
X126002721Y-132450520D01*
X126004935Y-132450500D01*
X138164071Y-132450500D01*
X138249526Y-132433501D01*
X138289744Y-132425501D01*
X138408127Y-132376465D01*
X138455631Y-132344724D01*
X138490908Y-132321153D01*
X160699500Y-132321153D01*
X160699500Y-132478846D01*
X160730261Y-132633489D01*
X160730264Y-132633501D01*
X160790602Y-132779172D01*
X160790609Y-132779185D01*
X160878210Y-132910288D01*
X160878213Y-132910292D01*
X160989707Y-133021786D01*
X160989711Y-133021789D01*
X161120814Y-133109390D01*
X161120827Y-133109397D01*
X161266498Y-133169735D01*
X161266503Y-133169737D01*
X161421153Y-133200499D01*
X161421156Y-133200500D01*
X161421158Y-133200500D01*
X161578842Y-133200500D01*
X165317060Y-133200500D01*
X165384099Y-133220185D01*
X165404741Y-133236819D01*
X166039707Y-133871786D01*
X166039711Y-133871789D01*
X166170814Y-133959390D01*
X166170818Y-133959392D01*
X166170821Y-133959394D01*
X166316503Y-134019738D01*
X166432266Y-134042764D01*
X166471153Y-134050499D01*
X166471157Y-134050500D01*
X166471158Y-134050500D01*
X166628844Y-134050500D01*
X166628845Y-134050499D01*
X166783498Y-134019738D01*
X166929179Y-133959394D01*
X166929187Y-133959388D01*
X166929190Y-133959387D01*
X167060877Y-133871398D01*
X167127554Y-133850520D01*
X167129767Y-133850500D01*
X167463331Y-133850500D01*
X167463347Y-133850501D01*
X167470943Y-133850501D01*
X167629054Y-133850501D01*
X167629057Y-133850501D01*
X167781785Y-133809577D01*
X167867152Y-133760290D01*
X167918716Y-133730520D01*
X168030520Y-133618716D01*
X168030520Y-133618714D01*
X168040724Y-133608511D01*
X168040727Y-133608506D01*
X168614662Y-133034572D01*
X168675983Y-133001089D01*
X168678150Y-133000638D01*
X168736085Y-132989113D01*
X168833497Y-132969737D01*
X168979179Y-132909394D01*
X168980288Y-132908653D01*
X174599500Y-132908653D01*
X174599500Y-133066346D01*
X174630261Y-133220989D01*
X174630264Y-133221001D01*
X174690602Y-133366672D01*
X174690609Y-133366685D01*
X174778210Y-133497788D01*
X174778213Y-133497792D01*
X174889707Y-133609286D01*
X174889711Y-133609289D01*
X175020814Y-133696890D01*
X175020827Y-133696897D01*
X175166498Y-133757235D01*
X175166503Y-133757237D01*
X175321158Y-133788000D01*
X175322807Y-133788328D01*
X175384718Y-133820713D01*
X175419292Y-133881428D01*
X175415553Y-133951198D01*
X175374687Y-134007870D01*
X175322809Y-134031562D01*
X175266507Y-134042761D01*
X175266498Y-134042764D01*
X175120827Y-134103102D01*
X175120814Y-134103109D01*
X174989711Y-134190710D01*
X174989707Y-134190713D01*
X174878213Y-134302207D01*
X174878210Y-134302211D01*
X174790609Y-134433314D01*
X174790602Y-134433327D01*
X174730264Y-134578998D01*
X174730261Y-134579010D01*
X174699500Y-134733653D01*
X174699500Y-134891346D01*
X174730261Y-135045989D01*
X174730264Y-135046001D01*
X174790602Y-135191672D01*
X174790609Y-135191685D01*
X174878602Y-135323374D01*
X174899480Y-135390051D01*
X174899500Y-135392265D01*
X174899500Y-142113330D01*
X174899499Y-142113348D01*
X174899499Y-142279054D01*
X174899498Y-142279054D01*
X174940423Y-142431785D01*
X174969358Y-142481900D01*
X174969359Y-142481904D01*
X174969360Y-142481904D01*
X175019479Y-142568714D01*
X175019481Y-142568717D01*
X175138349Y-142687585D01*
X175138355Y-142687590D01*
X176165425Y-143714660D01*
X176198910Y-143775983D01*
X176199361Y-143778149D01*
X176230261Y-143933491D01*
X176230264Y-143933501D01*
X176290602Y-144079172D01*
X176290609Y-144079185D01*
X176378210Y-144210288D01*
X176378213Y-144210292D01*
X176489707Y-144321786D01*
X176489711Y-144321789D01*
X176620814Y-144409390D01*
X176620827Y-144409397D01*
X176766498Y-144469735D01*
X176766503Y-144469737D01*
X176921153Y-144500499D01*
X176921156Y-144500500D01*
X176921158Y-144500500D01*
X177078844Y-144500500D01*
X177078845Y-144500499D01*
X177233497Y-144469737D01*
X177379179Y-144409394D01*
X177510289Y-144321789D01*
X177621789Y-144210289D01*
X177709394Y-144079179D01*
X177769737Y-143933497D01*
X177800500Y-143778842D01*
X177800500Y-143621158D01*
X177800500Y-143621155D01*
X177800499Y-143621153D01*
X177769737Y-143466503D01*
X177738501Y-143391092D01*
X177709397Y-143320827D01*
X177709390Y-143320814D01*
X177621789Y-143189711D01*
X177621786Y-143189707D01*
X177510292Y-143078213D01*
X177510288Y-143078210D01*
X177379185Y-142990609D01*
X177379172Y-142990602D01*
X177233501Y-142930264D01*
X177233491Y-142930261D01*
X177078149Y-142899361D01*
X177016238Y-142866976D01*
X177014660Y-142865425D01*
X176136819Y-141987584D01*
X176103334Y-141926261D01*
X176100500Y-141899903D01*
X176100500Y-135392265D01*
X176120185Y-135325226D01*
X176121398Y-135323374D01*
X176209390Y-135191685D01*
X176209390Y-135191684D01*
X176209394Y-135191679D01*
X176269737Y-135045997D01*
X176300500Y-134891342D01*
X176300500Y-134733658D01*
X176300500Y-134733655D01*
X176300499Y-134733653D01*
X176269738Y-134579010D01*
X176269737Y-134579003D01*
X176269735Y-134578998D01*
X176209397Y-134433327D01*
X176209390Y-134433314D01*
X176121789Y-134302211D01*
X176121786Y-134302207D01*
X176010292Y-134190713D01*
X176010288Y-134190710D01*
X175879185Y-134103109D01*
X175879172Y-134103102D01*
X175733501Y-134042764D01*
X175733491Y-134042761D01*
X175577191Y-134011671D01*
X175515280Y-133979286D01*
X175480706Y-133918570D01*
X175484446Y-133848801D01*
X175525313Y-133792129D01*
X175577192Y-133768437D01*
X175589386Y-133766011D01*
X175633497Y-133757237D01*
X175779179Y-133696894D01*
X175817336Y-133671397D01*
X175884014Y-133650520D01*
X175886227Y-133650500D01*
X177941344Y-133650500D01*
X177941345Y-133650499D01*
X178095997Y-133619737D01*
X178241679Y-133559394D01*
X178372789Y-133471789D01*
X178484289Y-133360289D01*
X178571894Y-133229179D01*
X178632237Y-133083497D01*
X178663000Y-132928842D01*
X178663000Y-132771158D01*
X178663000Y-132771155D01*
X178662999Y-132771153D01*
X178650892Y-132710288D01*
X178632237Y-132616503D01*
X178630861Y-132613181D01*
X178571897Y-132470827D01*
X178571890Y-132470814D01*
X178484289Y-132339711D01*
X178484286Y-132339707D01*
X178372791Y-132228212D01*
X178372788Y-132228210D01*
X178241685Y-132140609D01*
X178241672Y-132140602D01*
X178096001Y-132080264D01*
X178095989Y-132080261D01*
X177941345Y-132049500D01*
X177941342Y-132049500D01*
X175616342Y-132049500D01*
X175458657Y-132049500D01*
X175458654Y-132049500D01*
X175304009Y-132080261D01*
X175303997Y-132080264D01*
X175261332Y-132097936D01*
X175261333Y-132097937D01*
X175158323Y-132140604D01*
X175158314Y-132140609D01*
X175027212Y-132228209D01*
X175027211Y-132228211D01*
X175027210Y-132228212D01*
X174889711Y-132365711D01*
X174833960Y-132421462D01*
X174778209Y-132477212D01*
X174690609Y-132608314D01*
X174690602Y-132608327D01*
X174630264Y-132753998D01*
X174630261Y-132754010D01*
X174599500Y-132908653D01*
X168980288Y-132908653D01*
X169110289Y-132821789D01*
X169110292Y-132821786D01*
X169117194Y-132814885D01*
X169221786Y-132710292D01*
X169221789Y-132710289D01*
X169309394Y-132579179D01*
X169369737Y-132433497D01*
X169400500Y-132278842D01*
X169400500Y-132121158D01*
X169400500Y-132121155D01*
X169400499Y-132121153D01*
X169380543Y-132020827D01*
X169369737Y-131966503D01*
X169337929Y-131889711D01*
X169309397Y-131820827D01*
X169309390Y-131820814D01*
X169221789Y-131689711D01*
X169221786Y-131689707D01*
X169110292Y-131578213D01*
X169110288Y-131578210D01*
X168979185Y-131490609D01*
X168979172Y-131490602D01*
X168833501Y-131430264D01*
X168833489Y-131430261D01*
X168678845Y-131399500D01*
X168678842Y-131399500D01*
X168521158Y-131399500D01*
X168521155Y-131399500D01*
X168366510Y-131430261D01*
X168366498Y-131430264D01*
X168220827Y-131490602D01*
X168220814Y-131490609D01*
X168089711Y-131578210D01*
X168089707Y-131578213D01*
X167978213Y-131689707D01*
X167978210Y-131689711D01*
X167890609Y-131820814D01*
X167890602Y-131820827D01*
X167830264Y-131966498D01*
X167830261Y-131966508D01*
X167799361Y-132121850D01*
X167766976Y-132183761D01*
X167765425Y-132185339D01*
X167337584Y-132613181D01*
X167310656Y-132627884D01*
X167284838Y-132644477D01*
X167278637Y-132645368D01*
X167276261Y-132646666D01*
X167249903Y-132649500D01*
X167132940Y-132649500D01*
X167065901Y-132629815D01*
X167045259Y-132613181D01*
X166210292Y-131778213D01*
X166210288Y-131778210D01*
X166079185Y-131690609D01*
X166079172Y-131690602D01*
X165933501Y-131630264D01*
X165933489Y-131630261D01*
X165778845Y-131599500D01*
X165778842Y-131599500D01*
X161578842Y-131599500D01*
X161421158Y-131599500D01*
X161421155Y-131599500D01*
X161266510Y-131630261D01*
X161266498Y-131630264D01*
X161120827Y-131690602D01*
X161120814Y-131690609D01*
X160989711Y-131778210D01*
X160989707Y-131778213D01*
X160878213Y-131889707D01*
X160878210Y-131889711D01*
X160790609Y-132020814D01*
X160790602Y-132020827D01*
X160730264Y-132166498D01*
X160730261Y-132166510D01*
X160699500Y-132321153D01*
X138490908Y-132321153D01*
X138514669Y-132305277D01*
X141533127Y-129286819D01*
X141594450Y-129253334D01*
X141620808Y-129250500D01*
X145579192Y-129250500D01*
X145646231Y-129270185D01*
X145666873Y-129286819D01*
X146164316Y-129784262D01*
X146197801Y-129845585D01*
X146192817Y-129915277D01*
X146191196Y-129919395D01*
X146130264Y-130066498D01*
X146130261Y-130066510D01*
X146099500Y-130221153D01*
X146099500Y-130378846D01*
X146130261Y-130533489D01*
X146130264Y-130533501D01*
X146190602Y-130679172D01*
X146190609Y-130679185D01*
X146278210Y-130810288D01*
X146278213Y-130810292D01*
X146389707Y-130921786D01*
X146389711Y-130921789D01*
X146520814Y-131009390D01*
X146520827Y-131009397D01*
X146666498Y-131069735D01*
X146666503Y-131069737D01*
X146821153Y-131100499D01*
X146821156Y-131100500D01*
X146821158Y-131100500D01*
X146978844Y-131100500D01*
X146978845Y-131100499D01*
X147133497Y-131069737D01*
X147279179Y-131009394D01*
X147410289Y-130921789D01*
X147521789Y-130810289D01*
X147609394Y-130679179D01*
X147669737Y-130533497D01*
X147700500Y-130378842D01*
X147700500Y-130221158D01*
X147700500Y-130221155D01*
X147700499Y-130221153D01*
X147669738Y-130066510D01*
X147669737Y-130066503D01*
X147609394Y-129920821D01*
X147571396Y-129863953D01*
X147550520Y-129797276D01*
X147550500Y-129795064D01*
X147550500Y-129535928D01*
X147525502Y-129410261D01*
X147525501Y-129410260D01*
X147525501Y-129410256D01*
X147476465Y-129291873D01*
X147405277Y-129185331D01*
X147405275Y-129185329D01*
X147405273Y-129185326D01*
X146214673Y-127994726D01*
X146184398Y-127974497D01*
X146108127Y-127923535D01*
X145989744Y-127874499D01*
X145989736Y-127874497D01*
X145864073Y-127849501D01*
X145864069Y-127849501D01*
X145735931Y-127849501D01*
X145735926Y-127849501D01*
X145610263Y-127874497D01*
X145610255Y-127874499D01*
X145491872Y-127923534D01*
X145484286Y-127928604D01*
X145417608Y-127949480D01*
X145415398Y-127949500D01*
X141235929Y-127949500D01*
X141110261Y-127974497D01*
X141110255Y-127974499D01*
X140991870Y-128023535D01*
X140885331Y-128094722D01*
X140885324Y-128094728D01*
X137866873Y-131113181D01*
X137805550Y-131146666D01*
X137779192Y-131149500D01*
X126004935Y-131149500D01*
X125937896Y-131129815D01*
X125936090Y-131128633D01*
X125879179Y-131090606D01*
X125879172Y-131090602D01*
X125733501Y-131030264D01*
X125733489Y-131030261D01*
X125578845Y-130999500D01*
X125578842Y-130999500D01*
X125421158Y-130999500D01*
X125421155Y-130999500D01*
X125266510Y-131030261D01*
X125266498Y-131030264D01*
X125120827Y-131090602D01*
X125120814Y-131090609D01*
X124989711Y-131178210D01*
X124989707Y-131178213D01*
X124878213Y-131289707D01*
X124878210Y-131289711D01*
X124790609Y-131420814D01*
X124790602Y-131420827D01*
X124730264Y-131566498D01*
X124730261Y-131566510D01*
X124699500Y-131721153D01*
X108450500Y-131721153D01*
X108450500Y-125421153D01*
X186899500Y-125421153D01*
X186899500Y-125578846D01*
X186930261Y-125733489D01*
X186930264Y-125733501D01*
X186990602Y-125879172D01*
X186990609Y-125879185D01*
X187078210Y-126010288D01*
X187078213Y-126010292D01*
X187189707Y-126121786D01*
X187189711Y-126121789D01*
X187320814Y-126209390D01*
X187320827Y-126209397D01*
X187466498Y-126269735D01*
X187466503Y-126269737D01*
X187621153Y-126300499D01*
X187621156Y-126300500D01*
X187621158Y-126300500D01*
X187778844Y-126300500D01*
X187778845Y-126300499D01*
X187933497Y-126269737D01*
X188079179Y-126209394D01*
X188210289Y-126121789D01*
X188321789Y-126010289D01*
X188409394Y-125879179D01*
X188469737Y-125733497D01*
X188489113Y-125636085D01*
X188500638Y-125578150D01*
X188533023Y-125516239D01*
X188534518Y-125514716D01*
X193680520Y-120368716D01*
X193759577Y-120231784D01*
X193800501Y-120079057D01*
X193800501Y-119979764D01*
X193820186Y-119912725D01*
X193821399Y-119910873D01*
X193909390Y-119779185D01*
X193909390Y-119779184D01*
X193909394Y-119779179D01*
X193969737Y-119633497D01*
X194000500Y-119478842D01*
X194000500Y-119321158D01*
X194000500Y-119321155D01*
X194000499Y-119321153D01*
X193986964Y-119253109D01*
X193969737Y-119166503D01*
X193967872Y-119162000D01*
X193909397Y-119020827D01*
X193909390Y-119020814D01*
X193821789Y-118889711D01*
X193821786Y-118889707D01*
X193710292Y-118778213D01*
X193710288Y-118778210D01*
X193579185Y-118690609D01*
X193579172Y-118690602D01*
X193433501Y-118630264D01*
X193433489Y-118630261D01*
X193278845Y-118599500D01*
X193278842Y-118599500D01*
X193121158Y-118599500D01*
X193121155Y-118599500D01*
X192966510Y-118630261D01*
X192966498Y-118630264D01*
X192820827Y-118690602D01*
X192820814Y-118690609D01*
X192689711Y-118778210D01*
X192689707Y-118778213D01*
X192578213Y-118889707D01*
X192578210Y-118889711D01*
X192490609Y-119020814D01*
X192490602Y-119020827D01*
X192430264Y-119166498D01*
X192430261Y-119166510D01*
X192399500Y-119321153D01*
X192399500Y-119478846D01*
X192430261Y-119633489D01*
X192430263Y-119633497D01*
X192482617Y-119759891D01*
X192490086Y-119829361D01*
X192458811Y-119891840D01*
X192455737Y-119895025D01*
X187685339Y-124665425D01*
X187624016Y-124698910D01*
X187621850Y-124699361D01*
X187466508Y-124730261D01*
X187466498Y-124730264D01*
X187320827Y-124790602D01*
X187320814Y-124790609D01*
X187189711Y-124878210D01*
X187189707Y-124878213D01*
X187078213Y-124989707D01*
X187078210Y-124989711D01*
X186990609Y-125120814D01*
X186990602Y-125120827D01*
X186930264Y-125266498D01*
X186930261Y-125266510D01*
X186899500Y-125421153D01*
X108450500Y-125421153D01*
X108450500Y-123873653D01*
X173987000Y-123873653D01*
X173987000Y-124031346D01*
X174017761Y-124185989D01*
X174017764Y-124186001D01*
X174078102Y-124331672D01*
X174078109Y-124331685D01*
X174165710Y-124462788D01*
X174165713Y-124462792D01*
X174277207Y-124574286D01*
X174277211Y-124574289D01*
X174408314Y-124661890D01*
X174408327Y-124661897D01*
X174553998Y-124722235D01*
X174554003Y-124722237D01*
X174708653Y-124752999D01*
X174708656Y-124753000D01*
X174708658Y-124753000D01*
X179751344Y-124753000D01*
X179751345Y-124752999D01*
X179905997Y-124722237D01*
X180018666Y-124675567D01*
X180051672Y-124661897D01*
X180051672Y-124661896D01*
X180051679Y-124661894D01*
X180182789Y-124574289D01*
X183724820Y-121032257D01*
X183786141Y-120998774D01*
X183855833Y-121003758D01*
X183900180Y-121032259D01*
X185389707Y-122521786D01*
X185389711Y-122521789D01*
X185520814Y-122609390D01*
X185520818Y-122609392D01*
X185520821Y-122609394D01*
X185666503Y-122669738D01*
X185821153Y-122700499D01*
X185821157Y-122700500D01*
X185821158Y-122700500D01*
X185978844Y-122700500D01*
X185978845Y-122700499D01*
X186133497Y-122669738D01*
X186279179Y-122609394D01*
X186410289Y-122521789D01*
X186521789Y-122410289D01*
X186609394Y-122279179D01*
X186669738Y-122133497D01*
X186700500Y-121978843D01*
X186700500Y-121821158D01*
X186669738Y-121666503D01*
X186609394Y-121520821D01*
X186609392Y-121520818D01*
X186609390Y-121520814D01*
X186521789Y-121389711D01*
X186521786Y-121389707D01*
X184472792Y-119340713D01*
X184472788Y-119340710D01*
X184341685Y-119253109D01*
X184341672Y-119253102D01*
X184196001Y-119192764D01*
X184195989Y-119192761D01*
X184041345Y-119162000D01*
X184041342Y-119162000D01*
X183741342Y-119162000D01*
X183583658Y-119162000D01*
X183583655Y-119162000D01*
X183429010Y-119192761D01*
X183428998Y-119192764D01*
X183283327Y-119253102D01*
X183283315Y-119253109D01*
X183195180Y-119312000D01*
X183195179Y-119312001D01*
X183152208Y-119340712D01*
X183152207Y-119340713D01*
X179377241Y-123115681D01*
X179315918Y-123149166D01*
X179289560Y-123152000D01*
X174708655Y-123152000D01*
X174554010Y-123182761D01*
X174553998Y-123182764D01*
X174408327Y-123243102D01*
X174408314Y-123243109D01*
X174277211Y-123330710D01*
X174277207Y-123330713D01*
X174165713Y-123442207D01*
X174165710Y-123442211D01*
X174078109Y-123573314D01*
X174078102Y-123573327D01*
X174017764Y-123718998D01*
X174017761Y-123719010D01*
X173987000Y-123873653D01*
X108450500Y-123873653D01*
X108450500Y-108750889D01*
X190574500Y-108750889D01*
X190574500Y-109474111D01*
X190601598Y-109645201D01*
X190655127Y-109809945D01*
X190733768Y-109964288D01*
X190835586Y-110104428D01*
X190958072Y-110226914D01*
X191098212Y-110328732D01*
X191252555Y-110407373D01*
X191417299Y-110460902D01*
X191588389Y-110488000D01*
X191588390Y-110488000D01*
X191761610Y-110488000D01*
X191761611Y-110488000D01*
X191932701Y-110460902D01*
X192097445Y-110407373D01*
X192251788Y-110328732D01*
X192391928Y-110226914D01*
X192499472Y-110119369D01*
X192560791Y-110085887D01*
X192630483Y-110090871D01*
X192686417Y-110132742D01*
X192692688Y-110141956D01*
X192732285Y-110206152D01*
X192732288Y-110206156D01*
X192856344Y-110330212D01*
X193005666Y-110422314D01*
X193172203Y-110477499D01*
X193274991Y-110488000D01*
X194075008Y-110487999D01*
X194075016Y-110487998D01*
X194075019Y-110487998D01*
X194131302Y-110482248D01*
X194177797Y-110477499D01*
X194344334Y-110422314D01*
X194493656Y-110330212D01*
X194617712Y-110206156D01*
X194709814Y-110056834D01*
X194764999Y-109890297D01*
X194775500Y-109787509D01*
X194775499Y-108437492D01*
X194764999Y-108334703D01*
X194709814Y-108168166D01*
X194617712Y-108018844D01*
X194493656Y-107894788D01*
X194368559Y-107817628D01*
X194344336Y-107802687D01*
X194344331Y-107802685D01*
X194342862Y-107802198D01*
X194177797Y-107747501D01*
X194177795Y-107747500D01*
X194075010Y-107737000D01*
X193274998Y-107737000D01*
X193274980Y-107737001D01*
X193172203Y-107747500D01*
X193172200Y-107747501D01*
X193005668Y-107802685D01*
X193005663Y-107802687D01*
X192856342Y-107894789D01*
X192732287Y-108018844D01*
X192692688Y-108083044D01*
X192640739Y-108129768D01*
X192571777Y-108140989D01*
X192507695Y-108113145D01*
X192499469Y-108105627D01*
X192391930Y-107998088D01*
X192391928Y-107998086D01*
X192251788Y-107896268D01*
X192097445Y-107817627D01*
X191932701Y-107764098D01*
X191932699Y-107764097D01*
X191932698Y-107764097D01*
X191801271Y-107743281D01*
X191761611Y-107737000D01*
X191588389Y-107737000D01*
X191548728Y-107743281D01*
X191417302Y-107764097D01*
X191252552Y-107817628D01*
X191098211Y-107896268D01*
X191018256Y-107954359D01*
X190958072Y-107998086D01*
X190958070Y-107998088D01*
X190958069Y-107998088D01*
X190835588Y-108120569D01*
X190835588Y-108120570D01*
X190835586Y-108120572D01*
X190828905Y-108129768D01*
X190733768Y-108260711D01*
X190655128Y-108415052D01*
X190601597Y-108579802D01*
X190574500Y-108750889D01*
X108450500Y-108750889D01*
X108450500Y-104621153D01*
X172099500Y-104621153D01*
X172099500Y-104778846D01*
X172130261Y-104933489D01*
X172130264Y-104933501D01*
X172190602Y-105079172D01*
X172190609Y-105079185D01*
X172278210Y-105210288D01*
X172278213Y-105210292D01*
X172389707Y-105321786D01*
X172389711Y-105321789D01*
X172520814Y-105409390D01*
X172520827Y-105409397D01*
X172666498Y-105469735D01*
X172666503Y-105469737D01*
X172821153Y-105500499D01*
X172821156Y-105500500D01*
X172821158Y-105500500D01*
X179178844Y-105500500D01*
X179178845Y-105500499D01*
X179333497Y-105469737D01*
X179479179Y-105409394D01*
X179610289Y-105321789D01*
X186721789Y-98210289D01*
X186809394Y-98079179D01*
X186869737Y-97933497D01*
X186900500Y-97778842D01*
X186900500Y-97621158D01*
X186900500Y-97621155D01*
X186900499Y-97621153D01*
X186869738Y-97466510D01*
X186869737Y-97466503D01*
X186869735Y-97466498D01*
X186809397Y-97320827D01*
X186809390Y-97320814D01*
X186721789Y-97189711D01*
X186721786Y-97189707D01*
X186610292Y-97078213D01*
X186610288Y-97078210D01*
X186479185Y-96990609D01*
X186479172Y-96990602D01*
X186333501Y-96930264D01*
X186333489Y-96930261D01*
X186178845Y-96899500D01*
X186178842Y-96899500D01*
X186021158Y-96899500D01*
X186021155Y-96899500D01*
X185866510Y-96930261D01*
X185866498Y-96930264D01*
X185720827Y-96990602D01*
X185720814Y-96990609D01*
X185589711Y-97078210D01*
X185589707Y-97078213D01*
X178804741Y-103863181D01*
X178743418Y-103896666D01*
X178717060Y-103899500D01*
X172821155Y-103899500D01*
X172666510Y-103930261D01*
X172666498Y-103930264D01*
X172520827Y-103990602D01*
X172520814Y-103990609D01*
X172389711Y-104078210D01*
X172389707Y-104078213D01*
X172278213Y-104189707D01*
X172278210Y-104189711D01*
X172190609Y-104320814D01*
X172190602Y-104320827D01*
X172130264Y-104466498D01*
X172130261Y-104466510D01*
X172099500Y-104621153D01*
X108450500Y-104621153D01*
X108450500Y-96321153D01*
X125099500Y-96321153D01*
X125099500Y-96478846D01*
X125130261Y-96633489D01*
X125130264Y-96633501D01*
X125190602Y-96779172D01*
X125190609Y-96779185D01*
X125278210Y-96910288D01*
X125278213Y-96910292D01*
X125389707Y-97021786D01*
X125389711Y-97021789D01*
X125520814Y-97109390D01*
X125520827Y-97109397D01*
X125666498Y-97169735D01*
X125666503Y-97169737D01*
X125821153Y-97200499D01*
X125821156Y-97200500D01*
X125821158Y-97200500D01*
X125978844Y-97200500D01*
X125978845Y-97200499D01*
X126133497Y-97169737D01*
X126279179Y-97109394D01*
X126336044Y-97071397D01*
X126402721Y-97050520D01*
X126404935Y-97050500D01*
X133067060Y-97050500D01*
X133134099Y-97070185D01*
X133154742Y-97086820D01*
X133189707Y-97121786D01*
X133189711Y-97121789D01*
X133320814Y-97209390D01*
X133320827Y-97209397D01*
X133466498Y-97269735D01*
X133466503Y-97269737D01*
X133621153Y-97300499D01*
X133621156Y-97300500D01*
X133621158Y-97300500D01*
X133778844Y-97300500D01*
X133778845Y-97300499D01*
X133933497Y-97269737D01*
X134079179Y-97209394D01*
X134210289Y-97121789D01*
X134321789Y-97010289D01*
X134409394Y-96879179D01*
X134469737Y-96733497D01*
X134500500Y-96578842D01*
X134500500Y-96421158D01*
X134500500Y-96421155D01*
X134500499Y-96421153D01*
X134469737Y-96266503D01*
X134428314Y-96166498D01*
X134409397Y-96120827D01*
X134409390Y-96120814D01*
X134321789Y-95989711D01*
X134321786Y-95989707D01*
X134210292Y-95878213D01*
X134210288Y-95878210D01*
X134079185Y-95790609D01*
X134079172Y-95790602D01*
X133933501Y-95730264D01*
X133933489Y-95730261D01*
X133778845Y-95699500D01*
X133778842Y-95699500D01*
X133621158Y-95699500D01*
X133621155Y-95699500D01*
X133466511Y-95730260D01*
X133466506Y-95730262D01*
X133466504Y-95730262D01*
X133466503Y-95730263D01*
X133442844Y-95740062D01*
X133395396Y-95749500D01*
X126404935Y-95749500D01*
X126337896Y-95729815D01*
X126336090Y-95728633D01*
X126279179Y-95690606D01*
X126279172Y-95690602D01*
X126133501Y-95630264D01*
X126133489Y-95630261D01*
X125978845Y-95599500D01*
X125978842Y-95599500D01*
X125821158Y-95599500D01*
X125821155Y-95599500D01*
X125666510Y-95630261D01*
X125666498Y-95630264D01*
X125520827Y-95690602D01*
X125520814Y-95690609D01*
X125389711Y-95778210D01*
X125389707Y-95778213D01*
X125278213Y-95889707D01*
X125278210Y-95889711D01*
X125190609Y-96020814D01*
X125190602Y-96020827D01*
X125130264Y-96166498D01*
X125130261Y-96166510D01*
X125099500Y-96321153D01*
X108450500Y-96321153D01*
X108450500Y-78921153D01*
X125399500Y-78921153D01*
X125399500Y-80910217D01*
X125430261Y-81064860D01*
X125430264Y-81064872D01*
X125490602Y-81210543D01*
X125490609Y-81210556D01*
X125578210Y-81341659D01*
X125578213Y-81341663D01*
X134058336Y-89821786D01*
X134058340Y-89821789D01*
X134189443Y-89909390D01*
X134189447Y-89909392D01*
X134189450Y-89909394D01*
X134335132Y-89969738D01*
X134489782Y-90000499D01*
X134489786Y-90000500D01*
X134489787Y-90000500D01*
X134647472Y-90000500D01*
X147388000Y-90000500D01*
X147455039Y-90020185D01*
X147500794Y-90072989D01*
X147512000Y-90124500D01*
X147512000Y-94183263D01*
X147509617Y-94207455D01*
X147487000Y-94321155D01*
X147487000Y-94478846D01*
X147517761Y-94633489D01*
X147517764Y-94633501D01*
X147578102Y-94779172D01*
X147578109Y-94779185D01*
X147665710Y-94910288D01*
X147665713Y-94910292D01*
X147777207Y-95021786D01*
X147777211Y-95021789D01*
X147908314Y-95109390D01*
X147908327Y-95109397D01*
X148053998Y-95169735D01*
X148054003Y-95169737D01*
X148208653Y-95200499D01*
X148208656Y-95200500D01*
X148208658Y-95200500D01*
X148366344Y-95200500D01*
X148366345Y-95200499D01*
X148520997Y-95169737D01*
X148666679Y-95109394D01*
X148797789Y-95021789D01*
X148909289Y-94910289D01*
X148996894Y-94779179D01*
X149057237Y-94633497D01*
X149088000Y-94478842D01*
X149088000Y-94321158D01*
X149088000Y-94321155D01*
X149065383Y-94207455D01*
X149063000Y-94183263D01*
X149063000Y-91821153D01*
X172099500Y-91821153D01*
X172099500Y-91978846D01*
X172130261Y-92133489D01*
X172130264Y-92133501D01*
X172190602Y-92279172D01*
X172190609Y-92279185D01*
X172278210Y-92410288D01*
X172278213Y-92410292D01*
X173389707Y-93521786D01*
X173389711Y-93521789D01*
X173520814Y-93609390D01*
X173520818Y-93609392D01*
X173520821Y-93609394D01*
X173666503Y-93669738D01*
X173821153Y-93700499D01*
X173821157Y-93700500D01*
X173821158Y-93700500D01*
X176878844Y-93700500D01*
X176878845Y-93700499D01*
X177033497Y-93669737D01*
X177179179Y-93609394D01*
X177310289Y-93521789D01*
X177421789Y-93410289D01*
X177509394Y-93279179D01*
X177569737Y-93133497D01*
X177600500Y-92978842D01*
X177600500Y-92821158D01*
X177600500Y-92821155D01*
X177600499Y-92821153D01*
X177569738Y-92666510D01*
X177569737Y-92666503D01*
X177569735Y-92666498D01*
X177509397Y-92520827D01*
X177509390Y-92520814D01*
X177421789Y-92389711D01*
X177421786Y-92389707D01*
X177310292Y-92278213D01*
X177310288Y-92278210D01*
X177179185Y-92190609D01*
X177179172Y-92190602D01*
X177033501Y-92130264D01*
X177033489Y-92130261D01*
X176878845Y-92099500D01*
X176878842Y-92099500D01*
X174282940Y-92099500D01*
X174215901Y-92079815D01*
X174195259Y-92063181D01*
X173410292Y-91278213D01*
X173410288Y-91278210D01*
X173279185Y-91190609D01*
X173279172Y-91190602D01*
X173133501Y-91130264D01*
X173133489Y-91130261D01*
X172978845Y-91099500D01*
X172978842Y-91099500D01*
X172821158Y-91099500D01*
X172821155Y-91099500D01*
X172666510Y-91130261D01*
X172666498Y-91130264D01*
X172520827Y-91190602D01*
X172520814Y-91190609D01*
X172389711Y-91278210D01*
X172389707Y-91278213D01*
X172278213Y-91389707D01*
X172278210Y-91389711D01*
X172190609Y-91520814D01*
X172190602Y-91520827D01*
X172130264Y-91666498D01*
X172130261Y-91666510D01*
X172099500Y-91821153D01*
X149063000Y-91821153D01*
X149063000Y-89416735D01*
X149065383Y-89392543D01*
X149088000Y-89278844D01*
X149088000Y-89121155D01*
X149065383Y-89007455D01*
X149063000Y-88983263D01*
X149063000Y-88385083D01*
X149082685Y-88318044D01*
X149099314Y-88297407D01*
X152395104Y-85001616D01*
X152413883Y-84986204D01*
X152510289Y-84921789D01*
X152621789Y-84810289D01*
X152709394Y-84679179D01*
X152769737Y-84533497D01*
X152800500Y-84378842D01*
X152800500Y-84221158D01*
X152800500Y-84221155D01*
X152800499Y-84221153D01*
X152776359Y-84099793D01*
X152769737Y-84066503D01*
X152759412Y-84041576D01*
X152709397Y-83920827D01*
X152709390Y-83920814D01*
X152621789Y-83789711D01*
X152621786Y-83789707D01*
X152510292Y-83678213D01*
X152510288Y-83678210D01*
X152379185Y-83590609D01*
X152379172Y-83590602D01*
X152373968Y-83588447D01*
X152319564Y-83544607D01*
X152297499Y-83478313D01*
X152314778Y-83410613D01*
X152333735Y-83386209D01*
X156998792Y-78721153D01*
X163299500Y-78721153D01*
X163299500Y-78878846D01*
X163330261Y-79033489D01*
X163330264Y-79033501D01*
X163390602Y-79179172D01*
X163390609Y-79179185D01*
X163478210Y-79310288D01*
X163478213Y-79310292D01*
X163589707Y-79421786D01*
X163589711Y-79421789D01*
X163720814Y-79509390D01*
X163720827Y-79509397D01*
X163841972Y-79559576D01*
X163866503Y-79569737D01*
X164021153Y-79600499D01*
X164021156Y-79600500D01*
X164021158Y-79600500D01*
X164178844Y-79600500D01*
X164178845Y-79600499D01*
X164333497Y-79569737D01*
X164453059Y-79520213D01*
X164479172Y-79509397D01*
X164479172Y-79509396D01*
X164479179Y-79509394D01*
X164536044Y-79471397D01*
X164602721Y-79450520D01*
X164604935Y-79450500D01*
X165464071Y-79450500D01*
X165548615Y-79433682D01*
X165589744Y-79425501D01*
X165708127Y-79376465D01*
X165727014Y-79363845D01*
X165814669Y-79305277D01*
X165902929Y-79217015D01*
X165964252Y-79183530D01*
X165966338Y-79183095D01*
X166033497Y-79169737D01*
X166179179Y-79109394D01*
X166310289Y-79021789D01*
X166421789Y-78910289D01*
X166509394Y-78779179D01*
X166569737Y-78633497D01*
X166600500Y-78478842D01*
X166600500Y-78321158D01*
X166600500Y-78321155D01*
X166600499Y-78321153D01*
X166582419Y-78230261D01*
X166569737Y-78166503D01*
X166562694Y-78149500D01*
X166509397Y-78020827D01*
X166509390Y-78020814D01*
X166421789Y-77889711D01*
X166421786Y-77889707D01*
X166310292Y-77778213D01*
X166310288Y-77778210D01*
X166179185Y-77690609D01*
X166179172Y-77690602D01*
X166033501Y-77630264D01*
X166033489Y-77630261D01*
X165878845Y-77599500D01*
X165878842Y-77599500D01*
X165721158Y-77599500D01*
X165721155Y-77599500D01*
X165566510Y-77630261D01*
X165566498Y-77630264D01*
X165420827Y-77690602D01*
X165420814Y-77690609D01*
X165289711Y-77778210D01*
X165289707Y-77778213D01*
X165178213Y-77889707D01*
X165178210Y-77889711D01*
X165090607Y-78020817D01*
X165090606Y-78020820D01*
X165069013Y-78072952D01*
X165025173Y-78127356D01*
X164958879Y-78149421D01*
X164954452Y-78149500D01*
X164604935Y-78149500D01*
X164537896Y-78129815D01*
X164536090Y-78128633D01*
X164479179Y-78090606D01*
X164479172Y-78090602D01*
X164333501Y-78030264D01*
X164333489Y-78030261D01*
X164178845Y-77999500D01*
X164178842Y-77999500D01*
X164021158Y-77999500D01*
X164021155Y-77999500D01*
X163866510Y-78030261D01*
X163866498Y-78030264D01*
X163720827Y-78090602D01*
X163720814Y-78090609D01*
X163589711Y-78178210D01*
X163589707Y-78178213D01*
X163478213Y-78289707D01*
X163478210Y-78289711D01*
X163390609Y-78420814D01*
X163390602Y-78420827D01*
X163330264Y-78566498D01*
X163330261Y-78566510D01*
X163299500Y-78721153D01*
X156998792Y-78721153D01*
X163193127Y-72526819D01*
X163254450Y-72493334D01*
X163280808Y-72490500D01*
X163815065Y-72490500D01*
X163882104Y-72510185D01*
X163883909Y-72511366D01*
X163940821Y-72549394D01*
X163940823Y-72549395D01*
X163940827Y-72549397D01*
X164043353Y-72591864D01*
X164086503Y-72609737D01*
X164241153Y-72640499D01*
X164241156Y-72640500D01*
X164241158Y-72640500D01*
X164398844Y-72640500D01*
X164398845Y-72640499D01*
X164553497Y-72609737D01*
X164699179Y-72549394D01*
X164830289Y-72461789D01*
X164941789Y-72350289D01*
X165029394Y-72219179D01*
X165089737Y-72073497D01*
X165120500Y-71918842D01*
X165120500Y-71761158D01*
X165120500Y-71761155D01*
X165120499Y-71761153D01*
X165113377Y-71725350D01*
X165089737Y-71606503D01*
X165089735Y-71606498D01*
X165029397Y-71460827D01*
X165029390Y-71460814D01*
X164941789Y-71329711D01*
X164941786Y-71329707D01*
X164830292Y-71218213D01*
X164830288Y-71218210D01*
X164699185Y-71130609D01*
X164699172Y-71130602D01*
X164553501Y-71070264D01*
X164553489Y-71070261D01*
X164398845Y-71039500D01*
X164398842Y-71039500D01*
X164241158Y-71039500D01*
X164241155Y-71039500D01*
X164086510Y-71070261D01*
X164086498Y-71070264D01*
X163940827Y-71130602D01*
X163940820Y-71130606D01*
X163929930Y-71137883D01*
X163883955Y-71168602D01*
X163817279Y-71189480D01*
X163815065Y-71189500D01*
X162895929Y-71189500D01*
X162770261Y-71214497D01*
X162770255Y-71214499D01*
X162651870Y-71263535D01*
X162545331Y-71334722D01*
X162545324Y-71334728D01*
X148316873Y-85563181D01*
X148255550Y-85596666D01*
X148229192Y-85599500D01*
X143831941Y-85599500D01*
X143764902Y-85579815D01*
X143719147Y-85527011D01*
X143709203Y-85457853D01*
X143738228Y-85394297D01*
X143744260Y-85387819D01*
X143821786Y-85310292D01*
X143821789Y-85310289D01*
X143909394Y-85179179D01*
X143969737Y-85033497D01*
X143983079Y-84966416D01*
X144015463Y-84904509D01*
X144016959Y-84902985D01*
X149809182Y-79110762D01*
X149870503Y-79077279D01*
X149940195Y-79082263D01*
X149996128Y-79124135D01*
X150018478Y-79174253D01*
X150030261Y-79233491D01*
X150030264Y-79233501D01*
X150090602Y-79379172D01*
X150090609Y-79379185D01*
X150178210Y-79510288D01*
X150178213Y-79510292D01*
X150289707Y-79621786D01*
X150289711Y-79621789D01*
X150420814Y-79709390D01*
X150420827Y-79709397D01*
X150566498Y-79769735D01*
X150566503Y-79769737D01*
X150721153Y-79800499D01*
X150721156Y-79800500D01*
X150721158Y-79800500D01*
X150878844Y-79800500D01*
X150878845Y-79800499D01*
X151033497Y-79769737D01*
X151179179Y-79709394D01*
X151187597Y-79703769D01*
X151310875Y-79621398D01*
X151328921Y-79615747D01*
X151344831Y-79605523D01*
X151375792Y-79601071D01*
X151377553Y-79600520D01*
X151379766Y-79600500D01*
X151613331Y-79600500D01*
X151613347Y-79600501D01*
X151620943Y-79600501D01*
X151779054Y-79600501D01*
X151779057Y-79600501D01*
X151931785Y-79559577D01*
X151997235Y-79521789D01*
X152068716Y-79480520D01*
X152180520Y-79368716D01*
X152180520Y-79368714D01*
X152190724Y-79358511D01*
X152190727Y-79358506D01*
X152914662Y-78634572D01*
X152975983Y-78601089D01*
X152978150Y-78600638D01*
X153036085Y-78589113D01*
X153133497Y-78569737D01*
X153279179Y-78509394D01*
X153410289Y-78421789D01*
X153521789Y-78310289D01*
X153609394Y-78179179D01*
X153669737Y-78033497D01*
X153700500Y-77878842D01*
X153700500Y-77721158D01*
X153700500Y-77721155D01*
X153700499Y-77721153D01*
X153682419Y-77630261D01*
X153669737Y-77566503D01*
X153660317Y-77543760D01*
X153609397Y-77420827D01*
X153609390Y-77420814D01*
X153521789Y-77289711D01*
X153521786Y-77289707D01*
X153410292Y-77178213D01*
X153410288Y-77178210D01*
X153279185Y-77090609D01*
X153279172Y-77090602D01*
X153133501Y-77030264D01*
X153133489Y-77030261D01*
X152978845Y-76999500D01*
X152978842Y-76999500D01*
X152821158Y-76999500D01*
X152821155Y-76999500D01*
X152666510Y-77030261D01*
X152666498Y-77030264D01*
X152520827Y-77090602D01*
X152520814Y-77090609D01*
X152389711Y-77178210D01*
X152389707Y-77178213D01*
X152278213Y-77289707D01*
X152278210Y-77289711D01*
X152190609Y-77420814D01*
X152190602Y-77420827D01*
X152130264Y-77566498D01*
X152130261Y-77566508D01*
X152099361Y-77721850D01*
X152066976Y-77783761D01*
X152065425Y-77785339D01*
X151487584Y-78363181D01*
X151460656Y-78377884D01*
X151434838Y-78394477D01*
X151428637Y-78395368D01*
X151426261Y-78396666D01*
X151399903Y-78399500D01*
X151379766Y-78399500D01*
X151312727Y-78379815D01*
X151310875Y-78378602D01*
X151179185Y-78290609D01*
X151179172Y-78290602D01*
X151033501Y-78230264D01*
X151033489Y-78230261D01*
X150878845Y-78199500D01*
X150878842Y-78199500D01*
X150721158Y-78199500D01*
X150698690Y-78203969D01*
X150629099Y-78197740D01*
X150573922Y-78154877D01*
X150550678Y-78088987D01*
X150550500Y-78082351D01*
X150550500Y-73220808D01*
X150570185Y-73153769D01*
X150586819Y-73133127D01*
X151958793Y-71761153D01*
X153359500Y-71761153D01*
X153359500Y-71918846D01*
X153390261Y-72073489D01*
X153390264Y-72073501D01*
X153450602Y-72219172D01*
X153450609Y-72219185D01*
X153538209Y-72350287D01*
X153538210Y-72350288D01*
X153538211Y-72350289D01*
X153649711Y-72461789D01*
X153649715Y-72461791D01*
X153654164Y-72465443D01*
X153693499Y-72523189D01*
X153699500Y-72561297D01*
X153699500Y-73020234D01*
X153679815Y-73087273D01*
X153678602Y-73089125D01*
X153590609Y-73220814D01*
X153590602Y-73220827D01*
X153530264Y-73366498D01*
X153530261Y-73366510D01*
X153499500Y-73521153D01*
X153499500Y-73678846D01*
X153530261Y-73833489D01*
X153530264Y-73833501D01*
X153590602Y-73979172D01*
X153590609Y-73979185D01*
X153678210Y-74110288D01*
X153678213Y-74110292D01*
X153789707Y-74221786D01*
X153789711Y-74221789D01*
X153920814Y-74309390D01*
X153920827Y-74309397D01*
X154066498Y-74369735D01*
X154066503Y-74369737D01*
X154221153Y-74400499D01*
X154221156Y-74400500D01*
X154221158Y-74400500D01*
X154378844Y-74400500D01*
X154378845Y-74400499D01*
X154533497Y-74369737D01*
X154679179Y-74309394D01*
X154810289Y-74221789D01*
X154921789Y-74110289D01*
X155009394Y-73979179D01*
X155069737Y-73833497D01*
X155100500Y-73678842D01*
X155100500Y-73521158D01*
X155100500Y-73521155D01*
X155100499Y-73521153D01*
X155093868Y-73487816D01*
X155069737Y-73366503D01*
X155009794Y-73221786D01*
X155009397Y-73220827D01*
X155009390Y-73220814D01*
X154921398Y-73089125D01*
X154900520Y-73022447D01*
X154900500Y-73020234D01*
X154900500Y-72168746D01*
X154909939Y-72121293D01*
X154929737Y-72073497D01*
X154960500Y-71918842D01*
X154960500Y-71761158D01*
X154960500Y-71761155D01*
X154960499Y-71761153D01*
X154953377Y-71725350D01*
X154929737Y-71606503D01*
X154929735Y-71606498D01*
X154869397Y-71460827D01*
X154869390Y-71460814D01*
X154781789Y-71329711D01*
X154781786Y-71329707D01*
X154670292Y-71218213D01*
X154670288Y-71218210D01*
X154539185Y-71130609D01*
X154539172Y-71130602D01*
X154393501Y-71070264D01*
X154393489Y-71070261D01*
X154238845Y-71039500D01*
X154238842Y-71039500D01*
X154081158Y-71039500D01*
X154081155Y-71039500D01*
X153926510Y-71070261D01*
X153926498Y-71070264D01*
X153780827Y-71130602D01*
X153780814Y-71130609D01*
X153649711Y-71218210D01*
X153649707Y-71218213D01*
X153538213Y-71329707D01*
X153538210Y-71329711D01*
X153450609Y-71460814D01*
X153450602Y-71460827D01*
X153390264Y-71606498D01*
X153390261Y-71606510D01*
X153359500Y-71761153D01*
X151958793Y-71761153D01*
X153933127Y-69786819D01*
X153994450Y-69753334D01*
X154020808Y-69750500D01*
X166608618Y-69750500D01*
X166675657Y-69770185D01*
X166711720Y-69805609D01*
X166728210Y-69830288D01*
X166728213Y-69830292D01*
X166839707Y-69941786D01*
X166839711Y-69941789D01*
X166970814Y-70029390D01*
X166970827Y-70029397D01*
X167116498Y-70089735D01*
X167116503Y-70089737D01*
X167271153Y-70120499D01*
X167271156Y-70120500D01*
X167271158Y-70120500D01*
X167428844Y-70120500D01*
X167428845Y-70120499D01*
X167583497Y-70089737D01*
X167729179Y-70029394D01*
X167860289Y-69941789D01*
X167971789Y-69830289D01*
X168059394Y-69699179D01*
X168119737Y-69553497D01*
X168150500Y-69398842D01*
X168150500Y-69241158D01*
X168150500Y-69241155D01*
X168150499Y-69241153D01*
X168122162Y-69098691D01*
X168128389Y-69029100D01*
X168171252Y-68973922D01*
X168237142Y-68950678D01*
X168243779Y-68950500D01*
X179699192Y-68950500D01*
X179766231Y-68970185D01*
X179786873Y-68986819D01*
X181142984Y-70342930D01*
X181176469Y-70404253D01*
X181176920Y-70406420D01*
X181190261Y-70473489D01*
X181190264Y-70473501D01*
X181250602Y-70619172D01*
X181250609Y-70619185D01*
X181338210Y-70750288D01*
X181338213Y-70750292D01*
X181449707Y-70861786D01*
X181449711Y-70861789D01*
X181580814Y-70949390D01*
X181580827Y-70949397D01*
X181726498Y-71009735D01*
X181726503Y-71009737D01*
X181876131Y-71039500D01*
X181881153Y-71040499D01*
X181881156Y-71040500D01*
X181881158Y-71040500D01*
X182038844Y-71040500D01*
X182038845Y-71040499D01*
X182193497Y-71009737D01*
X182339179Y-70949394D01*
X182470289Y-70861789D01*
X182581789Y-70750289D01*
X182669394Y-70619179D01*
X182729737Y-70473497D01*
X182760500Y-70318842D01*
X182760500Y-70161158D01*
X182760500Y-70161155D01*
X182760499Y-70161153D01*
X182729737Y-70006503D01*
X182729088Y-70004935D01*
X182669397Y-69860827D01*
X182669390Y-69860814D01*
X182581789Y-69729711D01*
X182581786Y-69729707D01*
X182470292Y-69618213D01*
X182470288Y-69618210D01*
X182339185Y-69530609D01*
X182339172Y-69530602D01*
X182193501Y-69470264D01*
X182193489Y-69470261D01*
X182126420Y-69456920D01*
X182064509Y-69424535D01*
X182062930Y-69422984D01*
X180434674Y-67794727D01*
X180434673Y-67794726D01*
X180434669Y-67794723D01*
X180328127Y-67723535D01*
X180209744Y-67674499D01*
X180209738Y-67674497D01*
X180084071Y-67649500D01*
X180084069Y-67649500D01*
X163204935Y-67649500D01*
X163137896Y-67629815D01*
X163136090Y-67628633D01*
X163079179Y-67590606D01*
X163079172Y-67590602D01*
X162933501Y-67530264D01*
X162933489Y-67530261D01*
X162778845Y-67499500D01*
X162778842Y-67499500D01*
X162621158Y-67499500D01*
X162621155Y-67499500D01*
X162466510Y-67530261D01*
X162466498Y-67530264D01*
X162320827Y-67590602D01*
X162320814Y-67590609D01*
X162189711Y-67678210D01*
X162189707Y-67678213D01*
X162078213Y-67789707D01*
X162078210Y-67789711D01*
X161990609Y-67920814D01*
X161990602Y-67920827D01*
X161930264Y-68066498D01*
X161930261Y-68066510D01*
X161899500Y-68221153D01*
X161899500Y-68325500D01*
X161879815Y-68392539D01*
X161827011Y-68438294D01*
X161775500Y-68449500D01*
X153635929Y-68449500D01*
X153510261Y-68474497D01*
X153510251Y-68474500D01*
X153461220Y-68494810D01*
X153391881Y-68523530D01*
X153391863Y-68523540D01*
X153285332Y-68594721D01*
X153285325Y-68594727D01*
X149394726Y-72485326D01*
X149388225Y-72495056D01*
X149327906Y-72585331D01*
X149327903Y-72585334D01*
X149327903Y-72585335D01*
X149323539Y-72591864D01*
X149323534Y-72591873D01*
X149274499Y-72710255D01*
X149274497Y-72710261D01*
X149249500Y-72835928D01*
X149249500Y-77779191D01*
X149229815Y-77846230D01*
X149213181Y-77866872D01*
X143097068Y-83982984D01*
X143035745Y-84016469D01*
X143033579Y-84016920D01*
X142966508Y-84030261D01*
X142966498Y-84030264D01*
X142820827Y-84090602D01*
X142820814Y-84090609D01*
X142689711Y-84178210D01*
X142689707Y-84178213D01*
X142578213Y-84289707D01*
X142578210Y-84289711D01*
X142490609Y-84420814D01*
X142490602Y-84420827D01*
X142430264Y-84566498D01*
X142430261Y-84566510D01*
X142399500Y-84721153D01*
X142399500Y-84878846D01*
X142430261Y-85033489D01*
X142430264Y-85033501D01*
X142490602Y-85179172D01*
X142490609Y-85179185D01*
X142578210Y-85310288D01*
X142578213Y-85310292D01*
X142655740Y-85387819D01*
X142689225Y-85449142D01*
X142684241Y-85518834D01*
X142642369Y-85574767D01*
X142576905Y-85599184D01*
X142568059Y-85599500D01*
X140339047Y-85599500D01*
X140272008Y-85579815D01*
X140226253Y-85527011D01*
X140216309Y-85457853D01*
X140245334Y-85394297D01*
X140251366Y-85387819D01*
X145405272Y-80233913D01*
X145405277Y-80233908D01*
X145476466Y-80127365D01*
X145514587Y-80035331D01*
X145525501Y-80008983D01*
X145529335Y-79989707D01*
X145550500Y-79883310D01*
X145550500Y-79204935D01*
X145570185Y-79137896D01*
X145571366Y-79136090D01*
X145609394Y-79079179D01*
X145669737Y-78933497D01*
X145700500Y-78778842D01*
X145700500Y-78621158D01*
X145700500Y-78621155D01*
X145700499Y-78621153D01*
X145689890Y-78567820D01*
X145669737Y-78466503D01*
X145633830Y-78379815D01*
X145609397Y-78320827D01*
X145609390Y-78320814D01*
X145521789Y-78189711D01*
X145521786Y-78189707D01*
X145410292Y-78078213D01*
X145410288Y-78078210D01*
X145279185Y-77990609D01*
X145279172Y-77990602D01*
X145133501Y-77930264D01*
X145133489Y-77930261D01*
X144978845Y-77899500D01*
X144978842Y-77899500D01*
X144821158Y-77899500D01*
X144821155Y-77899500D01*
X144666510Y-77930261D01*
X144666498Y-77930264D01*
X144520827Y-77990602D01*
X144520814Y-77990609D01*
X144389711Y-78078210D01*
X144389707Y-78078213D01*
X144278213Y-78189707D01*
X144278210Y-78189711D01*
X144190609Y-78320814D01*
X144190602Y-78320827D01*
X144130264Y-78466498D01*
X144130261Y-78466510D01*
X144099500Y-78621153D01*
X144099500Y-78778846D01*
X144130261Y-78933489D01*
X144130264Y-78933501D01*
X144190602Y-79079172D01*
X144190606Y-79079179D01*
X144228602Y-79136044D01*
X144249480Y-79202721D01*
X144249500Y-79204935D01*
X144249500Y-79498430D01*
X144229815Y-79565469D01*
X144213181Y-79586111D01*
X143103178Y-80696113D01*
X143041855Y-80729598D01*
X142972163Y-80724614D01*
X142927446Y-80692668D01*
X142926097Y-80694018D01*
X142810289Y-80578210D01*
X142705609Y-80508266D01*
X142660804Y-80454654D01*
X142650500Y-80405164D01*
X142650500Y-79304935D01*
X142670185Y-79237896D01*
X142671366Y-79236090D01*
X142709394Y-79179179D01*
X142769737Y-79033497D01*
X142800500Y-78878842D01*
X142800500Y-78721158D01*
X142800500Y-78721155D01*
X142800499Y-78721153D01*
X142781847Y-78627385D01*
X142769737Y-78566503D01*
X142746080Y-78509390D01*
X142709397Y-78420827D01*
X142709390Y-78420814D01*
X142621789Y-78289711D01*
X142621786Y-78289707D01*
X142510292Y-78178213D01*
X142510288Y-78178210D01*
X142379185Y-78090609D01*
X142379172Y-78090602D01*
X142233501Y-78030264D01*
X142233489Y-78030261D01*
X142078845Y-77999500D01*
X142078842Y-77999500D01*
X141921158Y-77999500D01*
X141921155Y-77999500D01*
X141766510Y-78030261D01*
X141766498Y-78030264D01*
X141620827Y-78090602D01*
X141620814Y-78090609D01*
X141489714Y-78178208D01*
X141489706Y-78178215D01*
X141487674Y-78180247D01*
X141486349Y-78180970D01*
X141485007Y-78182072D01*
X141484797Y-78181817D01*
X141426349Y-78213727D01*
X141356657Y-78208737D01*
X141312319Y-78180240D01*
X141210292Y-78078213D01*
X141210288Y-78078210D01*
X141079185Y-77990609D01*
X141079176Y-77990604D01*
X141009423Y-77961712D01*
X140955020Y-77917871D01*
X140932955Y-77851577D01*
X140942314Y-77799701D01*
X140969737Y-77733497D01*
X141000500Y-77578842D01*
X141000500Y-77421158D01*
X141000500Y-77421155D01*
X141000499Y-77421153D01*
X140974353Y-77289711D01*
X140969737Y-77266503D01*
X140969735Y-77266498D01*
X140909397Y-77120827D01*
X140909390Y-77120814D01*
X140831102Y-77003648D01*
X140810224Y-76936970D01*
X140828709Y-76869590D01*
X140846519Y-76847080D01*
X143493588Y-74200011D01*
X143530656Y-74174493D01*
X143539646Y-74170473D01*
X143580314Y-74159577D01*
X143630676Y-74130500D01*
X143717245Y-74080520D01*
X143829049Y-73968716D01*
X143829049Y-73968714D01*
X143839253Y-73958511D01*
X143839257Y-73958506D01*
X152458506Y-65339257D01*
X152458511Y-65339253D01*
X152468714Y-65329049D01*
X152468716Y-65329049D01*
X152580520Y-65217245D01*
X152645165Y-65105276D01*
X152659577Y-65080314D01*
X152700501Y-64927586D01*
X152700501Y-64769472D01*
X152700501Y-64761877D01*
X152700500Y-64761859D01*
X152700500Y-64161153D01*
X166549500Y-64161153D01*
X166549500Y-64318846D01*
X166580261Y-64473489D01*
X166580264Y-64473501D01*
X166640602Y-64619172D01*
X166640609Y-64619185D01*
X166728210Y-64750288D01*
X166728213Y-64750292D01*
X166765240Y-64787319D01*
X166798725Y-64848642D01*
X166793741Y-64918334D01*
X166765240Y-64962681D01*
X166728213Y-64999707D01*
X166728210Y-64999711D01*
X166640609Y-65130814D01*
X166640602Y-65130827D01*
X166580264Y-65276498D01*
X166580261Y-65276510D01*
X166549500Y-65431153D01*
X166549500Y-65588846D01*
X166580261Y-65743489D01*
X166580264Y-65743501D01*
X166640602Y-65889172D01*
X166640609Y-65889185D01*
X166728210Y-66020288D01*
X166728213Y-66020292D01*
X166839707Y-66131786D01*
X166839711Y-66131789D01*
X166970814Y-66219390D01*
X166970827Y-66219397D01*
X167116498Y-66279735D01*
X167116503Y-66279737D01*
X167271153Y-66310499D01*
X167271156Y-66310500D01*
X167271158Y-66310500D01*
X167428844Y-66310500D01*
X167428845Y-66310499D01*
X167583497Y-66279737D01*
X167729179Y-66219394D01*
X167786044Y-66181397D01*
X167852721Y-66160520D01*
X167854935Y-66160500D01*
X181289192Y-66160500D01*
X181356231Y-66180185D01*
X181376873Y-66196819D01*
X183672643Y-68492589D01*
X183706128Y-68553912D01*
X183701144Y-68623604D01*
X183659272Y-68679537D01*
X183609154Y-68701887D01*
X183466508Y-68730261D01*
X183466498Y-68730264D01*
X183320827Y-68790602D01*
X183320814Y-68790609D01*
X183189711Y-68878210D01*
X183189707Y-68878213D01*
X183078213Y-68989707D01*
X183078210Y-68989711D01*
X182990609Y-69120814D01*
X182990602Y-69120827D01*
X182930264Y-69266498D01*
X182930261Y-69266510D01*
X182899500Y-69421153D01*
X182899500Y-69578846D01*
X182930261Y-69733489D01*
X182930264Y-69733501D01*
X182990602Y-69879172D01*
X182990606Y-69879179D01*
X183028602Y-69936044D01*
X183049480Y-70002721D01*
X183049500Y-70004935D01*
X183049500Y-70695064D01*
X183029815Y-70762103D01*
X183028603Y-70763954D01*
X182990608Y-70820817D01*
X182990602Y-70820828D01*
X182930264Y-70966498D01*
X182930261Y-70966510D01*
X182899500Y-71121153D01*
X182899500Y-71278846D01*
X182930261Y-71433489D01*
X182930264Y-71433501D01*
X182990602Y-71579172D01*
X182990609Y-71579185D01*
X183078210Y-71710288D01*
X183078213Y-71710292D01*
X183189707Y-71821786D01*
X183189711Y-71821789D01*
X183320814Y-71909390D01*
X183320827Y-71909397D01*
X183466498Y-71969735D01*
X183466503Y-71969737D01*
X183621153Y-72000499D01*
X183621156Y-72000500D01*
X183621158Y-72000500D01*
X183778844Y-72000500D01*
X183778845Y-72000499D01*
X183933497Y-71969737D01*
X184079179Y-71909394D01*
X184210289Y-71821789D01*
X184321789Y-71710289D01*
X184409394Y-71579179D01*
X184469737Y-71433497D01*
X184500500Y-71278842D01*
X184500500Y-71121158D01*
X184500500Y-71121155D01*
X184500499Y-71121153D01*
X184469738Y-70966510D01*
X184469737Y-70966503D01*
X184409394Y-70820821D01*
X184371396Y-70763953D01*
X184350520Y-70697276D01*
X184350500Y-70695064D01*
X184350500Y-70004935D01*
X184370185Y-69937896D01*
X184371366Y-69936090D01*
X184409394Y-69879179D01*
X184469737Y-69733497D01*
X184498112Y-69590845D01*
X184530496Y-69528935D01*
X184591212Y-69494361D01*
X184660982Y-69498100D01*
X184707410Y-69527356D01*
X187882983Y-72702928D01*
X187916468Y-72764251D01*
X187916919Y-72766417D01*
X187930261Y-72833491D01*
X187930263Y-72833499D01*
X187990602Y-72979172D01*
X187990609Y-72979185D01*
X188078210Y-73110288D01*
X188078213Y-73110292D01*
X188189707Y-73221786D01*
X188189711Y-73221789D01*
X188320814Y-73309390D01*
X188320827Y-73309397D01*
X188458683Y-73366498D01*
X188466503Y-73369737D01*
X188597138Y-73395722D01*
X188621153Y-73400499D01*
X188621156Y-73400500D01*
X188702044Y-73400500D01*
X188769083Y-73420185D01*
X188814838Y-73472989D01*
X188823661Y-73500309D01*
X188830261Y-73533489D01*
X188830264Y-73533501D01*
X188890602Y-73679172D01*
X188890609Y-73679185D01*
X188978210Y-73810288D01*
X188978213Y-73810292D01*
X189089707Y-73921786D01*
X189089711Y-73921789D01*
X189220814Y-74009390D01*
X189220827Y-74009397D01*
X189363379Y-74068443D01*
X189366503Y-74069737D01*
X189521153Y-74100499D01*
X189521156Y-74100500D01*
X189521158Y-74100500D01*
X189525500Y-74100500D01*
X189592539Y-74120185D01*
X189638294Y-74172989D01*
X189649500Y-74224500D01*
X189649500Y-74595064D01*
X189629815Y-74662103D01*
X189628603Y-74663954D01*
X189590608Y-74720817D01*
X189590602Y-74720828D01*
X189530264Y-74866498D01*
X189530261Y-74866510D01*
X189499500Y-75021153D01*
X189499500Y-75178846D01*
X189530261Y-75333489D01*
X189530264Y-75333501D01*
X189590602Y-75479172D01*
X189590609Y-75479185D01*
X189678210Y-75610288D01*
X189678213Y-75610292D01*
X189789707Y-75721786D01*
X189789711Y-75721789D01*
X189920814Y-75809390D01*
X189920827Y-75809397D01*
X190066498Y-75869735D01*
X190066503Y-75869737D01*
X190221153Y-75900499D01*
X190221156Y-75900500D01*
X190221158Y-75900500D01*
X190378844Y-75900500D01*
X190378845Y-75900499D01*
X190533497Y-75869737D01*
X190679179Y-75809394D01*
X190810289Y-75721789D01*
X190921789Y-75610289D01*
X191009394Y-75479179D01*
X191069737Y-75333497D01*
X191100500Y-75178842D01*
X191100500Y-75021158D01*
X191100500Y-75021155D01*
X191100499Y-75021153D01*
X191069738Y-74866510D01*
X191069737Y-74866503D01*
X191009394Y-74720821D01*
X190971396Y-74663953D01*
X190950520Y-74597276D01*
X190950500Y-74595064D01*
X190950500Y-69342135D01*
X195849500Y-69342135D01*
X195849500Y-71137870D01*
X195849501Y-71137876D01*
X195855908Y-71197483D01*
X195906202Y-71332328D01*
X195906206Y-71332335D01*
X195992452Y-71447544D01*
X195992455Y-71447547D01*
X196107664Y-71533793D01*
X196107671Y-71533797D01*
X196239082Y-71582810D01*
X196295016Y-71624681D01*
X196319433Y-71690145D01*
X196304582Y-71758418D01*
X196283431Y-71786673D01*
X196169889Y-71900215D01*
X196044951Y-72072179D01*
X195948444Y-72261585D01*
X195882753Y-72463760D01*
X195849500Y-72673713D01*
X195849500Y-72886286D01*
X195881626Y-73089125D01*
X195882754Y-73096243D01*
X195906539Y-73169446D01*
X195948444Y-73298414D01*
X196044951Y-73487820D01*
X196169890Y-73659786D01*
X196320213Y-73810109D01*
X196492182Y-73935050D01*
X196500946Y-73939516D01*
X196551742Y-73987491D01*
X196568536Y-74055312D01*
X196545998Y-74121447D01*
X196500946Y-74160484D01*
X196492182Y-74164949D01*
X196320213Y-74289890D01*
X196169890Y-74440213D01*
X196044951Y-74612179D01*
X195948444Y-74801585D01*
X195882753Y-75003760D01*
X195849500Y-75213713D01*
X195849500Y-75426286D01*
X195878643Y-75610292D01*
X195882754Y-75636243D01*
X195939015Y-75809397D01*
X195948444Y-75838414D01*
X196044951Y-76027820D01*
X196169890Y-76199786D01*
X196320213Y-76350109D01*
X196492182Y-76475050D01*
X196500946Y-76479516D01*
X196551742Y-76527491D01*
X196568536Y-76595312D01*
X196545998Y-76661447D01*
X196500946Y-76700484D01*
X196492182Y-76704949D01*
X196320213Y-76829890D01*
X196169890Y-76980213D01*
X196044951Y-77152179D01*
X195948444Y-77341585D01*
X195882753Y-77543760D01*
X195859496Y-77690602D01*
X195849500Y-77753713D01*
X195849500Y-77966287D01*
X195858136Y-78020814D01*
X195881210Y-78166498D01*
X195882754Y-78176243D01*
X195948271Y-78377884D01*
X195948444Y-78378414D01*
X196044951Y-78567820D01*
X196169890Y-78739786D01*
X196320213Y-78890109D01*
X196492182Y-79015050D01*
X196500946Y-79019516D01*
X196551742Y-79067491D01*
X196568536Y-79135312D01*
X196545998Y-79201447D01*
X196500946Y-79240484D01*
X196492182Y-79244949D01*
X196320213Y-79369890D01*
X196169890Y-79520213D01*
X196044951Y-79692179D01*
X195948444Y-79881585D01*
X195948443Y-79881587D01*
X195948443Y-79881588D01*
X195946071Y-79888888D01*
X195882753Y-80083760D01*
X195858972Y-80233908D01*
X195849500Y-80293713D01*
X195849500Y-80506287D01*
X195859534Y-80569644D01*
X195880372Y-80701207D01*
X195882754Y-80716243D01*
X195945780Y-80910217D01*
X195948444Y-80918414D01*
X196044951Y-81107820D01*
X196169890Y-81279786D01*
X196320213Y-81430109D01*
X196492182Y-81555050D01*
X196500946Y-81559516D01*
X196551742Y-81607491D01*
X196568536Y-81675312D01*
X196545998Y-81741447D01*
X196500946Y-81780484D01*
X196492182Y-81784949D01*
X196320213Y-81909890D01*
X196169890Y-82060213D01*
X196044951Y-82232179D01*
X195948444Y-82421585D01*
X195882753Y-82623760D01*
X195858135Y-82779192D01*
X195849500Y-82833713D01*
X195849500Y-83046287D01*
X195882754Y-83256243D01*
X195924981Y-83386205D01*
X195948444Y-83458414D01*
X196044951Y-83647820D01*
X196169890Y-83819786D01*
X196320213Y-83970109D01*
X196492179Y-84095048D01*
X196492181Y-84095049D01*
X196492184Y-84095051D01*
X196501493Y-84099794D01*
X196552290Y-84147766D01*
X196569087Y-84215587D01*
X196546552Y-84281722D01*
X196501505Y-84320760D01*
X196492446Y-84325376D01*
X196492440Y-84325380D01*
X196438282Y-84364727D01*
X196438282Y-84364728D01*
X197070591Y-84997037D01*
X197007007Y-85014075D01*
X196892993Y-85079901D01*
X196799901Y-85172993D01*
X196734075Y-85287007D01*
X196717037Y-85350591D01*
X196084728Y-84718282D01*
X196084727Y-84718282D01*
X196045380Y-84772439D01*
X195948904Y-84961782D01*
X195883242Y-85163869D01*
X195883242Y-85163872D01*
X195850000Y-85373753D01*
X195850000Y-85586246D01*
X195883242Y-85796127D01*
X195883242Y-85796130D01*
X195948904Y-85998217D01*
X196045375Y-86187550D01*
X196084728Y-86241716D01*
X196717037Y-85609408D01*
X196734075Y-85672993D01*
X196799901Y-85787007D01*
X196892993Y-85880099D01*
X197007007Y-85945925D01*
X197070590Y-85962962D01*
X196438282Y-86595269D01*
X196438282Y-86595270D01*
X196492452Y-86634626D01*
X196492451Y-86634626D01*
X196501495Y-86639234D01*
X196552292Y-86687208D01*
X196569087Y-86755029D01*
X196546550Y-86821164D01*
X196501499Y-86860202D01*
X196492182Y-86864949D01*
X196320213Y-86989890D01*
X196169890Y-87140213D01*
X196044951Y-87312179D01*
X195948444Y-87501585D01*
X195882753Y-87703760D01*
X195849500Y-87913713D01*
X195849500Y-88126286D01*
X195882354Y-88333722D01*
X195882754Y-88336243D01*
X195899666Y-88388294D01*
X195948444Y-88538414D01*
X196044951Y-88727820D01*
X196169890Y-88899786D01*
X196320213Y-89050109D01*
X196492179Y-89175048D01*
X196492181Y-89175049D01*
X196492184Y-89175051D01*
X196681588Y-89271557D01*
X196883757Y-89337246D01*
X197093713Y-89370500D01*
X197093714Y-89370500D01*
X197306286Y-89370500D01*
X197306287Y-89370500D01*
X197516243Y-89337246D01*
X197718412Y-89271557D01*
X197907816Y-89175051D01*
X197981998Y-89121155D01*
X198079786Y-89050109D01*
X198079788Y-89050106D01*
X198079792Y-89050104D01*
X198230104Y-88899792D01*
X198230106Y-88899788D01*
X198230109Y-88899786D01*
X198355048Y-88727820D01*
X198355047Y-88727820D01*
X198355051Y-88727816D01*
X198451557Y-88538412D01*
X198517246Y-88336243D01*
X198550500Y-88126287D01*
X198550500Y-87913713D01*
X198517246Y-87703757D01*
X198451557Y-87501588D01*
X198355051Y-87312184D01*
X198355049Y-87312181D01*
X198355048Y-87312179D01*
X198230109Y-87140213D01*
X198079786Y-86989890D01*
X197907817Y-86864949D01*
X197898504Y-86860204D01*
X197847707Y-86812230D01*
X197830912Y-86744409D01*
X197853449Y-86678274D01*
X197898507Y-86639232D01*
X197907555Y-86634622D01*
X197961716Y-86595270D01*
X197961717Y-86595270D01*
X197329408Y-85962962D01*
X197392993Y-85945925D01*
X197507007Y-85880099D01*
X197600099Y-85787007D01*
X197665925Y-85672993D01*
X197682962Y-85609408D01*
X198315270Y-86241717D01*
X198315270Y-86241716D01*
X198354622Y-86187554D01*
X198451095Y-85998217D01*
X198516757Y-85796130D01*
X198516757Y-85796127D01*
X198550000Y-85586246D01*
X198550000Y-85373753D01*
X198516757Y-85163872D01*
X198516757Y-85163869D01*
X198451095Y-84961782D01*
X198354624Y-84772449D01*
X198315270Y-84718282D01*
X198315269Y-84718282D01*
X197682962Y-85350590D01*
X197665925Y-85287007D01*
X197600099Y-85172993D01*
X197507007Y-85079901D01*
X197392993Y-85014075D01*
X197329409Y-84997037D01*
X197961716Y-84364728D01*
X197907547Y-84325373D01*
X197907547Y-84325372D01*
X197898500Y-84320763D01*
X197847706Y-84272788D01*
X197830912Y-84204966D01*
X197853451Y-84138832D01*
X197898508Y-84099793D01*
X197907816Y-84095051D01*
X197996990Y-84030263D01*
X198079786Y-83970109D01*
X198079788Y-83970106D01*
X198079792Y-83970104D01*
X198230104Y-83819792D01*
X198230106Y-83819788D01*
X198230109Y-83819786D01*
X198355048Y-83647820D01*
X198355047Y-83647820D01*
X198355051Y-83647816D01*
X198451557Y-83458412D01*
X198517246Y-83256243D01*
X198550500Y-83046287D01*
X198550500Y-82833713D01*
X198517246Y-82623757D01*
X198451557Y-82421588D01*
X198355051Y-82232184D01*
X198355049Y-82232181D01*
X198355048Y-82232179D01*
X198230109Y-82060213D01*
X198079786Y-81909890D01*
X197907820Y-81784951D01*
X197907115Y-81784591D01*
X197899054Y-81780485D01*
X197848259Y-81732512D01*
X197831463Y-81664692D01*
X197853999Y-81598556D01*
X197899054Y-81559515D01*
X197907816Y-81555051D01*
X197986675Y-81497757D01*
X198079786Y-81430109D01*
X198079788Y-81430106D01*
X198079792Y-81430104D01*
X198230104Y-81279792D01*
X198230106Y-81279788D01*
X198230109Y-81279786D01*
X198355048Y-81107820D01*
X198355047Y-81107820D01*
X198355051Y-81107816D01*
X198451557Y-80918412D01*
X198517246Y-80716243D01*
X198550500Y-80506287D01*
X198550500Y-80293713D01*
X198517246Y-80083757D01*
X198451557Y-79881588D01*
X198355051Y-79692184D01*
X198355049Y-79692181D01*
X198355048Y-79692179D01*
X198230109Y-79520213D01*
X198079786Y-79369890D01*
X197907820Y-79244951D01*
X197907115Y-79244591D01*
X197899054Y-79240485D01*
X197848259Y-79192512D01*
X197831463Y-79124692D01*
X197853999Y-79058556D01*
X197899054Y-79019515D01*
X197907816Y-79015051D01*
X198020061Y-78933501D01*
X198079786Y-78890109D01*
X198079788Y-78890106D01*
X198079792Y-78890104D01*
X198230104Y-78739792D01*
X198230106Y-78739788D01*
X198230109Y-78739786D01*
X198355048Y-78567820D01*
X198355047Y-78567820D01*
X198355051Y-78567816D01*
X198451557Y-78378412D01*
X198517246Y-78176243D01*
X198550500Y-77966287D01*
X198550500Y-77753713D01*
X198517246Y-77543757D01*
X198451557Y-77341588D01*
X198355051Y-77152184D01*
X198355049Y-77152181D01*
X198355048Y-77152179D01*
X198230109Y-76980213D01*
X198079786Y-76829890D01*
X197907820Y-76704951D01*
X197907115Y-76704591D01*
X197899054Y-76700485D01*
X197848259Y-76652512D01*
X197831463Y-76584692D01*
X197853999Y-76518556D01*
X197899054Y-76479515D01*
X197907816Y-76475051D01*
X197929789Y-76459086D01*
X198079786Y-76350109D01*
X198079788Y-76350106D01*
X198079792Y-76350104D01*
X198230104Y-76199792D01*
X198230106Y-76199788D01*
X198230109Y-76199786D01*
X198355048Y-76027820D01*
X198355047Y-76027820D01*
X198355051Y-76027816D01*
X198451557Y-75838412D01*
X198517246Y-75636243D01*
X198550500Y-75426287D01*
X198550500Y-75213713D01*
X198517246Y-75003757D01*
X198451557Y-74801588D01*
X198355051Y-74612184D01*
X198355049Y-74612181D01*
X198355048Y-74612179D01*
X198230109Y-74440213D01*
X198079786Y-74289890D01*
X197907820Y-74164951D01*
X197907115Y-74164591D01*
X197899054Y-74160485D01*
X197848259Y-74112512D01*
X197831463Y-74044692D01*
X197853999Y-73978556D01*
X197899054Y-73939515D01*
X197907816Y-73935051D01*
X198047589Y-73833501D01*
X198079786Y-73810109D01*
X198079788Y-73810106D01*
X198079792Y-73810104D01*
X198230104Y-73659792D01*
X198230106Y-73659788D01*
X198230109Y-73659786D01*
X198355048Y-73487820D01*
X198355047Y-73487820D01*
X198355051Y-73487816D01*
X198451557Y-73298412D01*
X198517246Y-73096243D01*
X198550500Y-72886287D01*
X198550500Y-72673713D01*
X198517246Y-72463757D01*
X198451557Y-72261588D01*
X198355051Y-72072184D01*
X198355049Y-72072181D01*
X198355048Y-72072179D01*
X198230109Y-71900213D01*
X198116569Y-71786673D01*
X198083084Y-71725350D01*
X198088068Y-71655658D01*
X198129940Y-71599725D01*
X198160915Y-71582810D01*
X198292331Y-71533796D01*
X198407546Y-71447546D01*
X198493796Y-71332331D01*
X198544091Y-71197483D01*
X198550500Y-71137873D01*
X198550499Y-69342128D01*
X198544091Y-69282517D01*
X198538118Y-69266503D01*
X198493797Y-69147671D01*
X198493793Y-69147664D01*
X198407547Y-69032455D01*
X198407544Y-69032452D01*
X198292335Y-68946206D01*
X198292328Y-68946202D01*
X198157482Y-68895908D01*
X198157483Y-68895908D01*
X198097883Y-68889501D01*
X198097881Y-68889500D01*
X198097873Y-68889500D01*
X198097864Y-68889500D01*
X196302129Y-68889500D01*
X196302123Y-68889501D01*
X196242516Y-68895908D01*
X196107671Y-68946202D01*
X196107664Y-68946206D01*
X195992455Y-69032452D01*
X195992452Y-69032455D01*
X195906206Y-69147664D01*
X195906202Y-69147671D01*
X195855908Y-69282517D01*
X195849501Y-69342116D01*
X195849501Y-69342123D01*
X195849500Y-69342135D01*
X190950500Y-69342135D01*
X190950500Y-68128017D01*
X190970185Y-68060978D01*
X191005612Y-68024913D01*
X191010289Y-68021789D01*
X191121789Y-67910289D01*
X191209394Y-67779179D01*
X191269737Y-67633497D01*
X191300500Y-67478842D01*
X191300500Y-67321158D01*
X191300500Y-67321155D01*
X191300499Y-67321153D01*
X191269738Y-67166510D01*
X191269737Y-67166503D01*
X191269735Y-67166498D01*
X191209397Y-67020827D01*
X191209390Y-67020814D01*
X191121789Y-66889711D01*
X191121786Y-66889707D01*
X191010292Y-66778213D01*
X191010288Y-66778210D01*
X190879185Y-66690609D01*
X190879172Y-66690602D01*
X190733501Y-66630264D01*
X190733489Y-66630261D01*
X190578845Y-66599500D01*
X190578842Y-66599500D01*
X190421158Y-66599500D01*
X190421155Y-66599500D01*
X190266510Y-66630261D01*
X190266498Y-66630264D01*
X190120827Y-66690602D01*
X190120814Y-66690609D01*
X189989711Y-66778210D01*
X189989707Y-66778213D01*
X189878213Y-66889707D01*
X189878210Y-66889711D01*
X189790609Y-67020814D01*
X189790602Y-67020827D01*
X189730264Y-67166498D01*
X189730261Y-67166510D01*
X189699500Y-67321153D01*
X189699500Y-67325233D01*
X189690061Y-67372685D01*
X189674500Y-67410251D01*
X189674497Y-67410261D01*
X189649500Y-67535928D01*
X189649500Y-71410952D01*
X189629815Y-71477991D01*
X189577011Y-71523746D01*
X189507853Y-71533690D01*
X189444297Y-71504665D01*
X189437819Y-71498633D01*
X181673912Y-63734726D01*
X181673908Y-63734723D01*
X181567366Y-63663535D01*
X181448983Y-63614499D01*
X181448977Y-63614497D01*
X181323310Y-63589500D01*
X181323308Y-63589500D01*
X167854935Y-63589500D01*
X167787896Y-63569815D01*
X167786090Y-63568633D01*
X167729179Y-63530606D01*
X167729172Y-63530602D01*
X167583501Y-63470264D01*
X167583489Y-63470261D01*
X167428845Y-63439500D01*
X167428842Y-63439500D01*
X167271158Y-63439500D01*
X167271155Y-63439500D01*
X167116510Y-63470261D01*
X167116498Y-63470264D01*
X166970827Y-63530602D01*
X166970814Y-63530609D01*
X166839711Y-63618210D01*
X166839707Y-63618213D01*
X166728213Y-63729707D01*
X166728210Y-63729711D01*
X166640609Y-63860814D01*
X166640602Y-63860827D01*
X166580264Y-64006498D01*
X166580261Y-64006510D01*
X166549500Y-64161153D01*
X152700500Y-64161153D01*
X152700500Y-61840531D01*
X152700501Y-61840518D01*
X152700501Y-61672415D01*
X152700501Y-61672414D01*
X152659577Y-61519687D01*
X152628876Y-61466510D01*
X152580524Y-61382761D01*
X152580518Y-61382753D01*
X152067246Y-60869481D01*
X152067238Y-60869475D01*
X151972310Y-60814669D01*
X151972308Y-60814668D01*
X151930319Y-60790425D01*
X151930318Y-60790424D01*
X151777583Y-60749498D01*
X151769526Y-60748438D01*
X151769853Y-60745949D01*
X151714903Y-60729814D01*
X151669148Y-60677010D01*
X151659204Y-60607852D01*
X151688229Y-60544296D01*
X151694261Y-60537818D01*
X151771786Y-60460292D01*
X151771789Y-60460289D01*
X151859394Y-60329179D01*
X151859395Y-60329176D01*
X151859397Y-60329173D01*
X151862719Y-60321153D01*
X166499500Y-60321153D01*
X166499500Y-60478846D01*
X166530261Y-60633489D01*
X166530264Y-60633501D01*
X166590602Y-60779172D01*
X166590609Y-60779185D01*
X166678210Y-60910288D01*
X166678213Y-60910292D01*
X166789707Y-61021786D01*
X166789711Y-61021789D01*
X166920814Y-61109390D01*
X166920827Y-61109397D01*
X167066498Y-61169735D01*
X167066503Y-61169737D01*
X167221153Y-61200499D01*
X167221156Y-61200500D01*
X167221158Y-61200500D01*
X167378844Y-61200500D01*
X167378845Y-61200499D01*
X167533497Y-61169737D01*
X167679179Y-61109394D01*
X167736044Y-61071397D01*
X167802721Y-61050520D01*
X167804935Y-61050500D01*
X170964071Y-61050500D01*
X171048615Y-61033682D01*
X171089744Y-61025501D01*
X171208127Y-60976465D01*
X171314669Y-60905277D01*
X172002931Y-60217013D01*
X172064252Y-60183530D01*
X172066317Y-60183099D01*
X172133497Y-60169737D01*
X172279179Y-60109394D01*
X172410289Y-60021789D01*
X172521789Y-59910289D01*
X172609394Y-59779179D01*
X172669737Y-59633497D01*
X172700500Y-59478842D01*
X172700500Y-59321158D01*
X172700500Y-59321155D01*
X172700499Y-59321153D01*
X172690418Y-59270471D01*
X172669737Y-59166503D01*
X172661345Y-59146243D01*
X172609397Y-59020827D01*
X172609390Y-59020814D01*
X172521789Y-58889711D01*
X172521786Y-58889707D01*
X172410292Y-58778213D01*
X172410288Y-58778210D01*
X172279185Y-58690609D01*
X172279172Y-58690602D01*
X172133501Y-58630264D01*
X172133489Y-58630261D01*
X171978845Y-58599500D01*
X171978842Y-58599500D01*
X171821158Y-58599500D01*
X171821155Y-58599500D01*
X171666510Y-58630261D01*
X171666498Y-58630264D01*
X171520827Y-58690602D01*
X171520814Y-58690609D01*
X171389711Y-58778210D01*
X171389707Y-58778213D01*
X171278213Y-58889707D01*
X171278210Y-58889711D01*
X171190609Y-59020814D01*
X171190602Y-59020827D01*
X171130264Y-59166498D01*
X171130261Y-59166508D01*
X171116920Y-59233579D01*
X171084535Y-59295490D01*
X171082984Y-59297068D01*
X170666873Y-59713181D01*
X170605550Y-59746666D01*
X170579192Y-59749500D01*
X167804935Y-59749500D01*
X167737896Y-59729815D01*
X167736090Y-59728633D01*
X167679179Y-59690606D01*
X167679172Y-59690602D01*
X167533501Y-59630264D01*
X167533489Y-59630261D01*
X167378845Y-59599500D01*
X167378842Y-59599500D01*
X167221158Y-59599500D01*
X167221155Y-59599500D01*
X167066510Y-59630261D01*
X167066498Y-59630264D01*
X166920827Y-59690602D01*
X166920814Y-59690609D01*
X166789711Y-59778210D01*
X166789707Y-59778213D01*
X166678213Y-59889707D01*
X166678210Y-59889711D01*
X166590609Y-60020814D01*
X166590602Y-60020827D01*
X166530264Y-60166498D01*
X166530261Y-60166510D01*
X166499500Y-60321153D01*
X151862719Y-60321153D01*
X151884895Y-60267614D01*
X151884895Y-60267613D01*
X151906709Y-60214949D01*
X151919737Y-60183497D01*
X151950500Y-60028842D01*
X151950500Y-59871158D01*
X151950500Y-59871155D01*
X151950499Y-59871153D01*
X151932204Y-59779179D01*
X151919737Y-59716503D01*
X151916955Y-59709786D01*
X151859397Y-59570827D01*
X151859390Y-59570814D01*
X151771789Y-59439711D01*
X151771786Y-59439707D01*
X151660292Y-59328213D01*
X151660288Y-59328210D01*
X151529185Y-59240609D01*
X151529172Y-59240602D01*
X151383501Y-59180264D01*
X151383489Y-59180261D01*
X151228845Y-59149500D01*
X151228842Y-59149500D01*
X151071158Y-59149500D01*
X151071155Y-59149500D01*
X150916510Y-59180261D01*
X150916498Y-59180264D01*
X150770827Y-59240602D01*
X150770820Y-59240606D01*
X150741928Y-59259911D01*
X150713955Y-59278602D01*
X150647279Y-59299480D01*
X150645065Y-59299500D01*
X148285929Y-59299500D01*
X148160261Y-59324497D01*
X148160255Y-59324499D01*
X148041874Y-59373534D01*
X147935326Y-59444726D01*
X131994726Y-75385326D01*
X131932018Y-75479178D01*
X131923533Y-75491876D01*
X131874499Y-75610255D01*
X131874497Y-75610261D01*
X131849500Y-75735928D01*
X131849500Y-80075575D01*
X131840257Y-80107051D01*
X131832142Y-80138848D01*
X131830461Y-80140412D01*
X131829815Y-80142614D01*
X131805025Y-80164094D01*
X131781005Y-80186458D01*
X131778745Y-80186865D01*
X131777011Y-80188369D01*
X131744537Y-80193038D01*
X131712246Y-80198865D01*
X131709279Y-80198107D01*
X131707853Y-80198313D01*
X131678048Y-80190136D01*
X131617655Y-80165121D01*
X131577426Y-80138241D01*
X130783913Y-79344727D01*
X130783912Y-79344726D01*
X130783908Y-79344723D01*
X130677366Y-79273535D01*
X130608358Y-79244951D01*
X130558983Y-79224499D01*
X130558977Y-79224497D01*
X130433310Y-79199500D01*
X130433308Y-79199500D01*
X129766692Y-79199500D01*
X129766690Y-79199500D01*
X129641022Y-79224497D01*
X129641016Y-79224499D01*
X129522631Y-79273535D01*
X129416092Y-79344722D01*
X129416085Y-79344728D01*
X128944724Y-79816089D01*
X128896082Y-79888889D01*
X128873535Y-79922633D01*
X128824499Y-80041016D01*
X128824497Y-80041022D01*
X128799500Y-80166689D01*
X128799500Y-80166692D01*
X128799500Y-80833308D01*
X128816429Y-80918412D01*
X128824499Y-80958983D01*
X128873535Y-81077366D01*
X128925583Y-81155263D01*
X128931664Y-81164363D01*
X128952541Y-81231041D01*
X128934056Y-81298421D01*
X128882077Y-81345110D01*
X128813107Y-81356286D01*
X128749043Y-81328400D01*
X128740880Y-81320934D01*
X127817015Y-80397069D01*
X127783530Y-80335746D01*
X127783093Y-80333652D01*
X127769737Y-80266503D01*
X127727318Y-80164094D01*
X127709397Y-80120827D01*
X127709390Y-80120814D01*
X127621789Y-79989711D01*
X127621786Y-79989707D01*
X127510292Y-79878213D01*
X127510288Y-79878210D01*
X127379185Y-79790609D01*
X127379172Y-79790602D01*
X127233501Y-79730264D01*
X127233491Y-79730261D01*
X127100308Y-79703769D01*
X127072177Y-79689054D01*
X127043297Y-79675865D01*
X127041440Y-79672975D01*
X127038397Y-79671384D01*
X127022684Y-79643791D01*
X127005523Y-79617087D01*
X127004862Y-79612493D01*
X127003823Y-79610668D01*
X127000500Y-79582152D01*
X127000500Y-79382940D01*
X127020185Y-79315901D01*
X127036819Y-79295259D01*
X150471786Y-55860292D01*
X150471789Y-55860289D01*
X150559394Y-55729179D01*
X150619738Y-55583497D01*
X150650500Y-55428842D01*
X150650500Y-55392135D01*
X195964500Y-55392135D01*
X195964500Y-57187870D01*
X195964501Y-57187876D01*
X195970908Y-57247483D01*
X196021202Y-57382328D01*
X196021206Y-57382335D01*
X196107452Y-57497544D01*
X196107455Y-57497547D01*
X196222664Y-57583793D01*
X196222671Y-57583797D01*
X196354082Y-57632810D01*
X196410016Y-57674681D01*
X196434433Y-57740145D01*
X196419582Y-57808418D01*
X196398431Y-57836673D01*
X196284889Y-57950215D01*
X196159951Y-58122179D01*
X196063444Y-58311585D01*
X196063443Y-58311587D01*
X196063443Y-58311588D01*
X196031665Y-58409390D01*
X195997753Y-58513760D01*
X195979301Y-58630261D01*
X195964500Y-58723713D01*
X195964500Y-58936287D01*
X195997754Y-59146243D01*
X196056879Y-59328211D01*
X196063444Y-59348414D01*
X196159951Y-59537820D01*
X196284890Y-59709786D01*
X196435213Y-59860109D01*
X196607182Y-59985050D01*
X196615946Y-59989516D01*
X196666742Y-60037491D01*
X196683536Y-60105312D01*
X196660998Y-60171447D01*
X196615946Y-60210484D01*
X196607182Y-60214949D01*
X196435213Y-60339890D01*
X196284890Y-60490213D01*
X196159951Y-60662179D01*
X196063444Y-60851585D01*
X196063443Y-60851587D01*
X196063443Y-60851588D01*
X196030598Y-60952672D01*
X195997753Y-61053760D01*
X195964500Y-61263713D01*
X195964500Y-61476286D01*
X195995563Y-61672414D01*
X195997754Y-61686243D01*
X196047885Y-61840531D01*
X196063444Y-61888414D01*
X196159951Y-62077820D01*
X196284890Y-62249786D01*
X196435213Y-62400109D01*
X196607179Y-62525048D01*
X196607181Y-62525049D01*
X196607184Y-62525051D01*
X196616493Y-62529794D01*
X196667290Y-62577766D01*
X196684087Y-62645587D01*
X196661552Y-62711722D01*
X196616505Y-62750760D01*
X196607446Y-62755376D01*
X196607440Y-62755380D01*
X196553282Y-62794727D01*
X196553282Y-62794728D01*
X197185591Y-63427037D01*
X197122007Y-63444075D01*
X197007993Y-63509901D01*
X196914901Y-63602993D01*
X196849075Y-63717007D01*
X196832037Y-63780591D01*
X196199728Y-63148282D01*
X196199727Y-63148282D01*
X196160380Y-63202439D01*
X196063904Y-63391782D01*
X195998242Y-63593869D01*
X195998242Y-63593872D01*
X195965000Y-63803753D01*
X195965000Y-64016246D01*
X195998242Y-64226127D01*
X195998242Y-64226130D01*
X196063904Y-64428217D01*
X196160375Y-64617550D01*
X196199728Y-64671716D01*
X196832037Y-64039408D01*
X196849075Y-64102993D01*
X196914901Y-64217007D01*
X197007993Y-64310099D01*
X197122007Y-64375925D01*
X197185590Y-64392962D01*
X196553282Y-65025269D01*
X196553282Y-65025270D01*
X196607449Y-65064624D01*
X196796782Y-65161095D01*
X196998870Y-65226757D01*
X197208754Y-65260000D01*
X197421246Y-65260000D01*
X197631127Y-65226757D01*
X197631130Y-65226757D01*
X197833217Y-65161095D01*
X198022554Y-65064622D01*
X198076716Y-65025270D01*
X198076717Y-65025270D01*
X197444408Y-64392962D01*
X197507993Y-64375925D01*
X197622007Y-64310099D01*
X197715099Y-64217007D01*
X197780925Y-64102993D01*
X197797962Y-64039408D01*
X198430270Y-64671717D01*
X198430270Y-64671716D01*
X198469622Y-64617554D01*
X198566095Y-64428217D01*
X198631757Y-64226130D01*
X198631757Y-64226127D01*
X198665000Y-64016246D01*
X198665000Y-63803753D01*
X198631757Y-63593872D01*
X198631757Y-63593869D01*
X198566095Y-63391782D01*
X198469624Y-63202449D01*
X198430270Y-63148282D01*
X198430269Y-63148282D01*
X197797962Y-63780590D01*
X197780925Y-63717007D01*
X197715099Y-63602993D01*
X197622007Y-63509901D01*
X197507993Y-63444075D01*
X197444409Y-63427037D01*
X198076716Y-62794728D01*
X198022547Y-62755373D01*
X198022547Y-62755372D01*
X198013500Y-62750763D01*
X197962706Y-62702788D01*
X197945912Y-62634966D01*
X197968451Y-62568832D01*
X198013508Y-62529793D01*
X198022816Y-62525051D01*
X198102007Y-62467515D01*
X198194786Y-62400109D01*
X198194788Y-62400106D01*
X198194792Y-62400104D01*
X198345104Y-62249792D01*
X198345106Y-62249788D01*
X198345109Y-62249786D01*
X198470048Y-62077820D01*
X198470047Y-62077820D01*
X198470051Y-62077816D01*
X198566557Y-61888412D01*
X198632246Y-61686243D01*
X198665500Y-61476287D01*
X198665500Y-61263713D01*
X198632246Y-61053757D01*
X198566557Y-60851588D01*
X198470051Y-60662184D01*
X198470049Y-60662181D01*
X198470048Y-60662179D01*
X198345109Y-60490213D01*
X198194786Y-60339890D01*
X198022820Y-60214951D01*
X198022115Y-60214591D01*
X198014054Y-60210485D01*
X197963259Y-60162512D01*
X197946463Y-60094692D01*
X197968999Y-60028556D01*
X198014054Y-59989515D01*
X198022816Y-59985051D01*
X198125718Y-59910289D01*
X198194786Y-59860109D01*
X198194788Y-59860106D01*
X198194792Y-59860104D01*
X198345104Y-59709792D01*
X198345106Y-59709788D01*
X198345109Y-59709786D01*
X198470048Y-59537820D01*
X198470047Y-59537820D01*
X198470051Y-59537816D01*
X198566557Y-59348412D01*
X198632246Y-59146243D01*
X198665500Y-58936287D01*
X198665500Y-58723713D01*
X198632246Y-58513757D01*
X198566557Y-58311588D01*
X198470051Y-58122184D01*
X198470049Y-58122181D01*
X198470048Y-58122179D01*
X198345109Y-57950213D01*
X198231569Y-57836673D01*
X198198084Y-57775350D01*
X198203068Y-57705658D01*
X198244940Y-57649725D01*
X198275915Y-57632810D01*
X198407331Y-57583796D01*
X198522546Y-57497546D01*
X198608796Y-57382331D01*
X198659091Y-57247483D01*
X198665500Y-57187873D01*
X198665499Y-55392128D01*
X198659091Y-55332517D01*
X198636205Y-55271157D01*
X198608797Y-55197671D01*
X198608793Y-55197664D01*
X198522547Y-55082455D01*
X198522544Y-55082452D01*
X198407335Y-54996206D01*
X198407328Y-54996202D01*
X198272482Y-54945908D01*
X198272483Y-54945908D01*
X198212883Y-54939501D01*
X198212881Y-54939500D01*
X198212873Y-54939500D01*
X198212864Y-54939500D01*
X196417129Y-54939500D01*
X196417123Y-54939501D01*
X196357516Y-54945908D01*
X196222671Y-54996202D01*
X196222664Y-54996206D01*
X196107455Y-55082452D01*
X196107452Y-55082455D01*
X196021206Y-55197664D01*
X196021202Y-55197671D01*
X195970908Y-55332517D01*
X195964501Y-55392116D01*
X195964501Y-55392123D01*
X195964500Y-55392135D01*
X150650500Y-55392135D01*
X150650500Y-55271157D01*
X150619738Y-55116503D01*
X150559394Y-54970821D01*
X150559392Y-54970818D01*
X150559390Y-54970814D01*
X150471789Y-54839711D01*
X150471786Y-54839707D01*
X150360292Y-54728213D01*
X150360288Y-54728210D01*
X150229185Y-54640609D01*
X150229175Y-54640604D01*
X150083497Y-54580262D01*
X150083489Y-54580260D01*
X149928847Y-54549500D01*
X149928843Y-54549500D01*
X149771158Y-54549500D01*
X149771153Y-54549500D01*
X149616510Y-54580260D01*
X149616502Y-54580262D01*
X149470824Y-54640604D01*
X149470814Y-54640609D01*
X149339711Y-54728210D01*
X149339707Y-54728213D01*
X148839711Y-55228211D01*
X147204741Y-56863181D01*
X147143418Y-56896666D01*
X147117060Y-56899500D01*
X145321155Y-56899500D01*
X145166510Y-56930261D01*
X145166498Y-56930264D01*
X145020827Y-56990602D01*
X145020814Y-56990609D01*
X144889711Y-57078210D01*
X144889707Y-57078213D01*
X144778213Y-57189707D01*
X144778210Y-57189711D01*
X144690609Y-57320814D01*
X144690602Y-57320827D01*
X144630264Y-57466498D01*
X144630261Y-57466510D01*
X144599500Y-57621153D01*
X144599500Y-57778846D01*
X144630261Y-57933489D01*
X144630264Y-57933501D01*
X144690602Y-58079172D01*
X144690609Y-58079185D01*
X144778210Y-58210288D01*
X144778213Y-58210292D01*
X144889707Y-58321786D01*
X144889711Y-58321789D01*
X145020814Y-58409390D01*
X145020827Y-58409397D01*
X145166498Y-58469735D01*
X145166503Y-58469737D01*
X145299034Y-58496099D01*
X145360945Y-58528483D01*
X145395519Y-58589199D01*
X145391780Y-58658968D01*
X145362524Y-58705397D01*
X135514010Y-68553912D01*
X125689711Y-78378211D01*
X125647108Y-78420814D01*
X125578209Y-78489712D01*
X125490609Y-78620814D01*
X125490602Y-78620827D01*
X125430264Y-78766498D01*
X125430261Y-78766510D01*
X125399500Y-78921153D01*
X108450500Y-78921153D01*
X108450500Y-53324500D01*
X108470185Y-53257461D01*
X108522989Y-53211706D01*
X108574500Y-53200500D01*
X200875500Y-53200500D01*
X200942539Y-53220185D01*
G37*
%TD.AperFunction*%
%TD*%
M02*
