%TF.GenerationSoftware,KiCad,Pcbnew,10.0.1*%
%TF.CreationDate,2026-05-07T18:18:31+07:00*%
%TF.ProjectId,Mp3Player,4d703350-6c61-4796-9572-2e6b69636164,rev?*%
%TF.SameCoordinates,Original*%
%TF.FileFunction,Legend,Top*%
%TF.FilePolarity,Positive*%
%FSLAX46Y46*%
G04 Gerber Fmt 4.6, Leading zero omitted, Abs format (unit mm)*
G04 Created by KiCad (PCBNEW 10.0.1) date 2026-05-07 18:18:31*
%MOMM*%
%LPD*%
G01*
G04 APERTURE LIST*
%ADD10C,0.150000*%
%ADD11C,0.120000*%
%ADD12C,0.254000*%
G04 APERTURE END LIST*
D10*
X190438095Y-128692319D02*
X190438095Y-129501842D01*
X190438095Y-129501842D02*
X190485714Y-129597080D01*
X190485714Y-129597080D02*
X190533333Y-129644700D01*
X190533333Y-129644700D02*
X190628571Y-129692319D01*
X190628571Y-129692319D02*
X190819047Y-129692319D01*
X190819047Y-129692319D02*
X190914285Y-129644700D01*
X190914285Y-129644700D02*
X190961904Y-129597080D01*
X190961904Y-129597080D02*
X191009523Y-129501842D01*
X191009523Y-129501842D02*
X191009523Y-128692319D01*
X191914285Y-129025652D02*
X191914285Y-129692319D01*
X191676190Y-128644700D02*
X191438095Y-129358985D01*
X191438095Y-129358985D02*
X192057142Y-129358985D01*
X123984819Y-136854166D02*
X123508628Y-137187499D01*
X123984819Y-137425594D02*
X122984819Y-137425594D01*
X122984819Y-137425594D02*
X122984819Y-137044642D01*
X122984819Y-137044642D02*
X123032438Y-136949404D01*
X123032438Y-136949404D02*
X123080057Y-136901785D01*
X123080057Y-136901785D02*
X123175295Y-136854166D01*
X123175295Y-136854166D02*
X123318152Y-136854166D01*
X123318152Y-136854166D02*
X123413390Y-136901785D01*
X123413390Y-136901785D02*
X123461009Y-136949404D01*
X123461009Y-136949404D02*
X123508628Y-137044642D01*
X123508628Y-137044642D02*
X123508628Y-137425594D01*
X122984819Y-135997023D02*
X122984819Y-136187499D01*
X122984819Y-136187499D02*
X123032438Y-136282737D01*
X123032438Y-136282737D02*
X123080057Y-136330356D01*
X123080057Y-136330356D02*
X123222914Y-136425594D01*
X123222914Y-136425594D02*
X123413390Y-136473213D01*
X123413390Y-136473213D02*
X123794342Y-136473213D01*
X123794342Y-136473213D02*
X123889580Y-136425594D01*
X123889580Y-136425594D02*
X123937200Y-136377975D01*
X123937200Y-136377975D02*
X123984819Y-136282737D01*
X123984819Y-136282737D02*
X123984819Y-136092261D01*
X123984819Y-136092261D02*
X123937200Y-135997023D01*
X123937200Y-135997023D02*
X123889580Y-135949404D01*
X123889580Y-135949404D02*
X123794342Y-135901785D01*
X123794342Y-135901785D02*
X123556247Y-135901785D01*
X123556247Y-135901785D02*
X123461009Y-135949404D01*
X123461009Y-135949404D02*
X123413390Y-135997023D01*
X123413390Y-135997023D02*
X123365771Y-136092261D01*
X123365771Y-136092261D02*
X123365771Y-136282737D01*
X123365771Y-136282737D02*
X123413390Y-136377975D01*
X123413390Y-136377975D02*
X123461009Y-136425594D01*
X123461009Y-136425594D02*
X123556247Y-136473213D01*
X183559819Y-126829166D02*
X183083628Y-127162499D01*
X183559819Y-127400594D02*
X182559819Y-127400594D01*
X182559819Y-127400594D02*
X182559819Y-127019642D01*
X182559819Y-127019642D02*
X182607438Y-126924404D01*
X182607438Y-126924404D02*
X182655057Y-126876785D01*
X182655057Y-126876785D02*
X182750295Y-126829166D01*
X182750295Y-126829166D02*
X182893152Y-126829166D01*
X182893152Y-126829166D02*
X182988390Y-126876785D01*
X182988390Y-126876785D02*
X183036009Y-126924404D01*
X183036009Y-126924404D02*
X183083628Y-127019642D01*
X183083628Y-127019642D02*
X183083628Y-127400594D01*
X182655057Y-126448213D02*
X182607438Y-126400594D01*
X182607438Y-126400594D02*
X182559819Y-126305356D01*
X182559819Y-126305356D02*
X182559819Y-126067261D01*
X182559819Y-126067261D02*
X182607438Y-125972023D01*
X182607438Y-125972023D02*
X182655057Y-125924404D01*
X182655057Y-125924404D02*
X182750295Y-125876785D01*
X182750295Y-125876785D02*
X182845533Y-125876785D01*
X182845533Y-125876785D02*
X182988390Y-125924404D01*
X182988390Y-125924404D02*
X183559819Y-126495832D01*
X183559819Y-126495832D02*
X183559819Y-125876785D01*
X171539582Y-111733332D02*
X171587201Y-111590475D01*
X171587201Y-111590475D02*
X171587201Y-111352380D01*
X171587201Y-111352380D02*
X171539582Y-111257142D01*
X171539582Y-111257142D02*
X171491962Y-111209523D01*
X171491962Y-111209523D02*
X171396724Y-111161904D01*
X171396724Y-111161904D02*
X171301486Y-111161904D01*
X171301486Y-111161904D02*
X171206248Y-111209523D01*
X171206248Y-111209523D02*
X171158629Y-111257142D01*
X171158629Y-111257142D02*
X171111010Y-111352380D01*
X171111010Y-111352380D02*
X171063391Y-111542856D01*
X171063391Y-111542856D02*
X171015772Y-111638094D01*
X171015772Y-111638094D02*
X170968153Y-111685713D01*
X170968153Y-111685713D02*
X170872915Y-111733332D01*
X170872915Y-111733332D02*
X170777677Y-111733332D01*
X170777677Y-111733332D02*
X170682439Y-111685713D01*
X170682439Y-111685713D02*
X170634820Y-111638094D01*
X170634820Y-111638094D02*
X170587201Y-111542856D01*
X170587201Y-111542856D02*
X170587201Y-111304761D01*
X170587201Y-111304761D02*
X170634820Y-111161904D01*
X170587201Y-110828570D02*
X171587201Y-110590475D01*
X171587201Y-110590475D02*
X170872915Y-110399999D01*
X170872915Y-110399999D02*
X171587201Y-110209523D01*
X171587201Y-110209523D02*
X170587201Y-109971428D01*
X170587201Y-109685713D02*
X170587201Y-109066666D01*
X170587201Y-109066666D02*
X170968153Y-109399999D01*
X170968153Y-109399999D02*
X170968153Y-109257142D01*
X170968153Y-109257142D02*
X171015772Y-109161904D01*
X171015772Y-109161904D02*
X171063391Y-109114285D01*
X171063391Y-109114285D02*
X171158629Y-109066666D01*
X171158629Y-109066666D02*
X171396724Y-109066666D01*
X171396724Y-109066666D02*
X171491962Y-109114285D01*
X171491962Y-109114285D02*
X171539582Y-109161904D01*
X171539582Y-109161904D02*
X171587201Y-109257142D01*
X171587201Y-109257142D02*
X171587201Y-109542856D01*
X171587201Y-109542856D02*
X171539582Y-109638094D01*
X171539582Y-109638094D02*
X171491962Y-109685713D01*
X171384819Y-106555357D02*
X170908628Y-106888690D01*
X171384819Y-107126785D02*
X170384819Y-107126785D01*
X170384819Y-107126785D02*
X170384819Y-106745833D01*
X170384819Y-106745833D02*
X170432438Y-106650595D01*
X170432438Y-106650595D02*
X170480057Y-106602976D01*
X170480057Y-106602976D02*
X170575295Y-106555357D01*
X170575295Y-106555357D02*
X170718152Y-106555357D01*
X170718152Y-106555357D02*
X170813390Y-106602976D01*
X170813390Y-106602976D02*
X170861009Y-106650595D01*
X170861009Y-106650595D02*
X170908628Y-106745833D01*
X170908628Y-106745833D02*
X170908628Y-107126785D01*
X171384819Y-105602976D02*
X171384819Y-106174404D01*
X171384819Y-105888690D02*
X170384819Y-105888690D01*
X170384819Y-105888690D02*
X170527676Y-105983928D01*
X170527676Y-105983928D02*
X170622914Y-106079166D01*
X170622914Y-106079166D02*
X170670533Y-106174404D01*
X170384819Y-104745833D02*
X170384819Y-104936309D01*
X170384819Y-104936309D02*
X170432438Y-105031547D01*
X170432438Y-105031547D02*
X170480057Y-105079166D01*
X170480057Y-105079166D02*
X170622914Y-105174404D01*
X170622914Y-105174404D02*
X170813390Y-105222023D01*
X170813390Y-105222023D02*
X171194342Y-105222023D01*
X171194342Y-105222023D02*
X171289580Y-105174404D01*
X171289580Y-105174404D02*
X171337200Y-105126785D01*
X171337200Y-105126785D02*
X171384819Y-105031547D01*
X171384819Y-105031547D02*
X171384819Y-104841071D01*
X171384819Y-104841071D02*
X171337200Y-104745833D01*
X171337200Y-104745833D02*
X171289580Y-104698214D01*
X171289580Y-104698214D02*
X171194342Y-104650595D01*
X171194342Y-104650595D02*
X170956247Y-104650595D01*
X170956247Y-104650595D02*
X170861009Y-104698214D01*
X170861009Y-104698214D02*
X170813390Y-104745833D01*
X170813390Y-104745833D02*
X170765771Y-104841071D01*
X170765771Y-104841071D02*
X170765771Y-105031547D01*
X170765771Y-105031547D02*
X170813390Y-105126785D01*
X170813390Y-105126785D02*
X170861009Y-105174404D01*
X170861009Y-105174404D02*
X170956247Y-105222023D01*
X162133333Y-128524819D02*
X161800000Y-128048628D01*
X161561905Y-128524819D02*
X161561905Y-127524819D01*
X161561905Y-127524819D02*
X161942857Y-127524819D01*
X161942857Y-127524819D02*
X162038095Y-127572438D01*
X162038095Y-127572438D02*
X162085714Y-127620057D01*
X162085714Y-127620057D02*
X162133333Y-127715295D01*
X162133333Y-127715295D02*
X162133333Y-127858152D01*
X162133333Y-127858152D02*
X162085714Y-127953390D01*
X162085714Y-127953390D02*
X162038095Y-128001009D01*
X162038095Y-128001009D02*
X161942857Y-128048628D01*
X161942857Y-128048628D02*
X161561905Y-128048628D01*
X162466667Y-127524819D02*
X163133333Y-127524819D01*
X163133333Y-127524819D02*
X162704762Y-128524819D01*
X155424819Y-88742857D02*
X154948628Y-89076190D01*
X155424819Y-89314285D02*
X154424819Y-89314285D01*
X154424819Y-89314285D02*
X154424819Y-88933333D01*
X154424819Y-88933333D02*
X154472438Y-88838095D01*
X154472438Y-88838095D02*
X154520057Y-88790476D01*
X154520057Y-88790476D02*
X154615295Y-88742857D01*
X154615295Y-88742857D02*
X154758152Y-88742857D01*
X154758152Y-88742857D02*
X154853390Y-88790476D01*
X154853390Y-88790476D02*
X154901009Y-88838095D01*
X154901009Y-88838095D02*
X154948628Y-88933333D01*
X154948628Y-88933333D02*
X154948628Y-89314285D01*
X155424819Y-87790476D02*
X155424819Y-88361904D01*
X155424819Y-88076190D02*
X154424819Y-88076190D01*
X154424819Y-88076190D02*
X154567676Y-88171428D01*
X154567676Y-88171428D02*
X154662914Y-88266666D01*
X154662914Y-88266666D02*
X154710533Y-88361904D01*
X155424819Y-87314285D02*
X155424819Y-87123809D01*
X155424819Y-87123809D02*
X155377200Y-87028571D01*
X155377200Y-87028571D02*
X155329580Y-86980952D01*
X155329580Y-86980952D02*
X155186723Y-86885714D01*
X155186723Y-86885714D02*
X154996247Y-86838095D01*
X154996247Y-86838095D02*
X154615295Y-86838095D01*
X154615295Y-86838095D02*
X154520057Y-86885714D01*
X154520057Y-86885714D02*
X154472438Y-86933333D01*
X154472438Y-86933333D02*
X154424819Y-87028571D01*
X154424819Y-87028571D02*
X154424819Y-87219047D01*
X154424819Y-87219047D02*
X154472438Y-87314285D01*
X154472438Y-87314285D02*
X154520057Y-87361904D01*
X154520057Y-87361904D02*
X154615295Y-87409523D01*
X154615295Y-87409523D02*
X154853390Y-87409523D01*
X154853390Y-87409523D02*
X154948628Y-87361904D01*
X154948628Y-87361904D02*
X154996247Y-87314285D01*
X154996247Y-87314285D02*
X155043866Y-87219047D01*
X155043866Y-87219047D02*
X155043866Y-87028571D01*
X155043866Y-87028571D02*
X154996247Y-86933333D01*
X154996247Y-86933333D02*
X154948628Y-86885714D01*
X154948628Y-86885714D02*
X154853390Y-86838095D01*
X136574818Y-111733332D02*
X136622437Y-111590475D01*
X136622437Y-111590475D02*
X136622437Y-111352380D01*
X136622437Y-111352380D02*
X136574818Y-111257142D01*
X136574818Y-111257142D02*
X136527198Y-111209523D01*
X136527198Y-111209523D02*
X136431960Y-111161904D01*
X136431960Y-111161904D02*
X136336722Y-111161904D01*
X136336722Y-111161904D02*
X136241484Y-111209523D01*
X136241484Y-111209523D02*
X136193865Y-111257142D01*
X136193865Y-111257142D02*
X136146246Y-111352380D01*
X136146246Y-111352380D02*
X136098627Y-111542856D01*
X136098627Y-111542856D02*
X136051008Y-111638094D01*
X136051008Y-111638094D02*
X136003389Y-111685713D01*
X136003389Y-111685713D02*
X135908151Y-111733332D01*
X135908151Y-111733332D02*
X135812913Y-111733332D01*
X135812913Y-111733332D02*
X135717675Y-111685713D01*
X135717675Y-111685713D02*
X135670056Y-111638094D01*
X135670056Y-111638094D02*
X135622437Y-111542856D01*
X135622437Y-111542856D02*
X135622437Y-111304761D01*
X135622437Y-111304761D02*
X135670056Y-111161904D01*
X135622437Y-110828570D02*
X136622437Y-110590475D01*
X136622437Y-110590475D02*
X135908151Y-110399999D01*
X135908151Y-110399999D02*
X136622437Y-110209523D01*
X136622437Y-110209523D02*
X135622437Y-109971428D01*
X135622437Y-109114285D02*
X135622437Y-109590475D01*
X135622437Y-109590475D02*
X136098627Y-109638094D01*
X136098627Y-109638094D02*
X136051008Y-109590475D01*
X136051008Y-109590475D02*
X136003389Y-109495237D01*
X136003389Y-109495237D02*
X136003389Y-109257142D01*
X136003389Y-109257142D02*
X136051008Y-109161904D01*
X136051008Y-109161904D02*
X136098627Y-109114285D01*
X136098627Y-109114285D02*
X136193865Y-109066666D01*
X136193865Y-109066666D02*
X136431960Y-109066666D01*
X136431960Y-109066666D02*
X136527198Y-109114285D01*
X136527198Y-109114285D02*
X136574818Y-109161904D01*
X136574818Y-109161904D02*
X136622437Y-109257142D01*
X136622437Y-109257142D02*
X136622437Y-109495237D01*
X136622437Y-109495237D02*
X136574818Y-109590475D01*
X136574818Y-109590475D02*
X136527198Y-109638094D01*
X163604819Y-137124404D02*
X164414342Y-137124404D01*
X164414342Y-137124404D02*
X164509580Y-137076785D01*
X164509580Y-137076785D02*
X164557200Y-137029166D01*
X164557200Y-137029166D02*
X164604819Y-136933928D01*
X164604819Y-136933928D02*
X164604819Y-136743452D01*
X164604819Y-136743452D02*
X164557200Y-136648214D01*
X164557200Y-136648214D02*
X164509580Y-136600595D01*
X164509580Y-136600595D02*
X164414342Y-136552976D01*
X164414342Y-136552976D02*
X163604819Y-136552976D01*
X164033390Y-135933928D02*
X163985771Y-136029166D01*
X163985771Y-136029166D02*
X163938152Y-136076785D01*
X163938152Y-136076785D02*
X163842914Y-136124404D01*
X163842914Y-136124404D02*
X163795295Y-136124404D01*
X163795295Y-136124404D02*
X163700057Y-136076785D01*
X163700057Y-136076785D02*
X163652438Y-136029166D01*
X163652438Y-136029166D02*
X163604819Y-135933928D01*
X163604819Y-135933928D02*
X163604819Y-135743452D01*
X163604819Y-135743452D02*
X163652438Y-135648214D01*
X163652438Y-135648214D02*
X163700057Y-135600595D01*
X163700057Y-135600595D02*
X163795295Y-135552976D01*
X163795295Y-135552976D02*
X163842914Y-135552976D01*
X163842914Y-135552976D02*
X163938152Y-135600595D01*
X163938152Y-135600595D02*
X163985771Y-135648214D01*
X163985771Y-135648214D02*
X164033390Y-135743452D01*
X164033390Y-135743452D02*
X164033390Y-135933928D01*
X164033390Y-135933928D02*
X164081009Y-136029166D01*
X164081009Y-136029166D02*
X164128628Y-136076785D01*
X164128628Y-136076785D02*
X164223866Y-136124404D01*
X164223866Y-136124404D02*
X164414342Y-136124404D01*
X164414342Y-136124404D02*
X164509580Y-136076785D01*
X164509580Y-136076785D02*
X164557200Y-136029166D01*
X164557200Y-136029166D02*
X164604819Y-135933928D01*
X164604819Y-135933928D02*
X164604819Y-135743452D01*
X164604819Y-135743452D02*
X164557200Y-135648214D01*
X164557200Y-135648214D02*
X164509580Y-135600595D01*
X164509580Y-135600595D02*
X164414342Y-135552976D01*
X164414342Y-135552976D02*
X164223866Y-135552976D01*
X164223866Y-135552976D02*
X164128628Y-135600595D01*
X164128628Y-135600595D02*
X164081009Y-135648214D01*
X164081009Y-135648214D02*
X164033390Y-135743452D01*
X147016666Y-127954819D02*
X147016666Y-128669104D01*
X147016666Y-128669104D02*
X146969047Y-128811961D01*
X146969047Y-128811961D02*
X146873809Y-128907200D01*
X146873809Y-128907200D02*
X146730952Y-128954819D01*
X146730952Y-128954819D02*
X146635714Y-128954819D01*
X147397619Y-127954819D02*
X148064285Y-127954819D01*
X148064285Y-127954819D02*
X147635714Y-128954819D01*
X167989580Y-76217857D02*
X168037200Y-76265476D01*
X168037200Y-76265476D02*
X168084819Y-76408333D01*
X168084819Y-76408333D02*
X168084819Y-76503571D01*
X168084819Y-76503571D02*
X168037200Y-76646428D01*
X168037200Y-76646428D02*
X167941961Y-76741666D01*
X167941961Y-76741666D02*
X167846723Y-76789285D01*
X167846723Y-76789285D02*
X167656247Y-76836904D01*
X167656247Y-76836904D02*
X167513390Y-76836904D01*
X167513390Y-76836904D02*
X167322914Y-76789285D01*
X167322914Y-76789285D02*
X167227676Y-76741666D01*
X167227676Y-76741666D02*
X167132438Y-76646428D01*
X167132438Y-76646428D02*
X167084819Y-76503571D01*
X167084819Y-76503571D02*
X167084819Y-76408333D01*
X167084819Y-76408333D02*
X167132438Y-76265476D01*
X167132438Y-76265476D02*
X167180057Y-76217857D01*
X168084819Y-75265476D02*
X168084819Y-75836904D01*
X168084819Y-75551190D02*
X167084819Y-75551190D01*
X167084819Y-75551190D02*
X167227676Y-75646428D01*
X167227676Y-75646428D02*
X167322914Y-75741666D01*
X167322914Y-75741666D02*
X167370533Y-75836904D01*
X168084819Y-74313095D02*
X168084819Y-74884523D01*
X168084819Y-74598809D02*
X167084819Y-74598809D01*
X167084819Y-74598809D02*
X167227676Y-74694047D01*
X167227676Y-74694047D02*
X167322914Y-74789285D01*
X167322914Y-74789285D02*
X167370533Y-74884523D01*
X186708333Y-125942080D02*
X186660714Y-125989700D01*
X186660714Y-125989700D02*
X186517857Y-126037319D01*
X186517857Y-126037319D02*
X186422619Y-126037319D01*
X186422619Y-126037319D02*
X186279762Y-125989700D01*
X186279762Y-125989700D02*
X186184524Y-125894461D01*
X186184524Y-125894461D02*
X186136905Y-125799223D01*
X186136905Y-125799223D02*
X186089286Y-125608747D01*
X186089286Y-125608747D02*
X186089286Y-125465890D01*
X186089286Y-125465890D02*
X186136905Y-125275414D01*
X186136905Y-125275414D02*
X186184524Y-125180176D01*
X186184524Y-125180176D02*
X186279762Y-125084938D01*
X186279762Y-125084938D02*
X186422619Y-125037319D01*
X186422619Y-125037319D02*
X186517857Y-125037319D01*
X186517857Y-125037319D02*
X186660714Y-125084938D01*
X186660714Y-125084938D02*
X186708333Y-125132557D01*
X187565476Y-125370652D02*
X187565476Y-126037319D01*
X187327381Y-124989700D02*
X187089286Y-125703985D01*
X187089286Y-125703985D02*
X187708333Y-125703985D01*
X115384819Y-136356666D02*
X114908628Y-136689999D01*
X115384819Y-136928094D02*
X114384819Y-136928094D01*
X114384819Y-136928094D02*
X114384819Y-136547142D01*
X114384819Y-136547142D02*
X114432438Y-136451904D01*
X114432438Y-136451904D02*
X114480057Y-136404285D01*
X114480057Y-136404285D02*
X114575295Y-136356666D01*
X114575295Y-136356666D02*
X114718152Y-136356666D01*
X114718152Y-136356666D02*
X114813390Y-136404285D01*
X114813390Y-136404285D02*
X114861009Y-136451904D01*
X114861009Y-136451904D02*
X114908628Y-136547142D01*
X114908628Y-136547142D02*
X114908628Y-136928094D01*
X114384819Y-135451904D02*
X114384819Y-135928094D01*
X114384819Y-135928094D02*
X114861009Y-135975713D01*
X114861009Y-135975713D02*
X114813390Y-135928094D01*
X114813390Y-135928094D02*
X114765771Y-135832856D01*
X114765771Y-135832856D02*
X114765771Y-135594761D01*
X114765771Y-135594761D02*
X114813390Y-135499523D01*
X114813390Y-135499523D02*
X114861009Y-135451904D01*
X114861009Y-135451904D02*
X114956247Y-135404285D01*
X114956247Y-135404285D02*
X115194342Y-135404285D01*
X115194342Y-135404285D02*
X115289580Y-135451904D01*
X115289580Y-135451904D02*
X115337200Y-135499523D01*
X115337200Y-135499523D02*
X115384819Y-135594761D01*
X115384819Y-135594761D02*
X115384819Y-135832856D01*
X115384819Y-135832856D02*
X115337200Y-135928094D01*
X115337200Y-135928094D02*
X115289580Y-135975713D01*
X188099819Y-130579166D02*
X187623628Y-130912499D01*
X188099819Y-131150594D02*
X187099819Y-131150594D01*
X187099819Y-131150594D02*
X187099819Y-130769642D01*
X187099819Y-130769642D02*
X187147438Y-130674404D01*
X187147438Y-130674404D02*
X187195057Y-130626785D01*
X187195057Y-130626785D02*
X187290295Y-130579166D01*
X187290295Y-130579166D02*
X187433152Y-130579166D01*
X187433152Y-130579166D02*
X187528390Y-130626785D01*
X187528390Y-130626785D02*
X187576009Y-130674404D01*
X187576009Y-130674404D02*
X187623628Y-130769642D01*
X187623628Y-130769642D02*
X187623628Y-131150594D01*
X188099819Y-129626785D02*
X188099819Y-130198213D01*
X188099819Y-129912499D02*
X187099819Y-129912499D01*
X187099819Y-129912499D02*
X187242676Y-130007737D01*
X187242676Y-130007737D02*
X187337914Y-130102975D01*
X187337914Y-130102975D02*
X187385533Y-130198213D01*
X153089580Y-89717857D02*
X153137200Y-89765476D01*
X153137200Y-89765476D02*
X153184819Y-89908333D01*
X153184819Y-89908333D02*
X153184819Y-90003571D01*
X153184819Y-90003571D02*
X153137200Y-90146428D01*
X153137200Y-90146428D02*
X153041961Y-90241666D01*
X153041961Y-90241666D02*
X152946723Y-90289285D01*
X152946723Y-90289285D02*
X152756247Y-90336904D01*
X152756247Y-90336904D02*
X152613390Y-90336904D01*
X152613390Y-90336904D02*
X152422914Y-90289285D01*
X152422914Y-90289285D02*
X152327676Y-90241666D01*
X152327676Y-90241666D02*
X152232438Y-90146428D01*
X152232438Y-90146428D02*
X152184819Y-90003571D01*
X152184819Y-90003571D02*
X152184819Y-89908333D01*
X152184819Y-89908333D02*
X152232438Y-89765476D01*
X152232438Y-89765476D02*
X152280057Y-89717857D01*
X153184819Y-88765476D02*
X153184819Y-89336904D01*
X153184819Y-89051190D02*
X152184819Y-89051190D01*
X152184819Y-89051190D02*
X152327676Y-89146428D01*
X152327676Y-89146428D02*
X152422914Y-89241666D01*
X152422914Y-89241666D02*
X152470533Y-89336904D01*
X152184819Y-88432142D02*
X152184819Y-87813095D01*
X152184819Y-87813095D02*
X152565771Y-88146428D01*
X152565771Y-88146428D02*
X152565771Y-88003571D01*
X152565771Y-88003571D02*
X152613390Y-87908333D01*
X152613390Y-87908333D02*
X152661009Y-87860714D01*
X152661009Y-87860714D02*
X152756247Y-87813095D01*
X152756247Y-87813095D02*
X152994342Y-87813095D01*
X152994342Y-87813095D02*
X153089580Y-87860714D01*
X153089580Y-87860714D02*
X153137200Y-87908333D01*
X153137200Y-87908333D02*
X153184819Y-88003571D01*
X153184819Y-88003571D02*
X153184819Y-88289285D01*
X153184819Y-88289285D02*
X153137200Y-88384523D01*
X153137200Y-88384523D02*
X153089580Y-88432142D01*
X178704761Y-131950057D02*
X178609523Y-131902438D01*
X178609523Y-131902438D02*
X178514285Y-131807200D01*
X178514285Y-131807200D02*
X178371428Y-131664342D01*
X178371428Y-131664342D02*
X178276190Y-131616723D01*
X178276190Y-131616723D02*
X178180952Y-131616723D01*
X178228571Y-131854819D02*
X178133333Y-131807200D01*
X178133333Y-131807200D02*
X178038095Y-131711961D01*
X178038095Y-131711961D02*
X177990476Y-131521485D01*
X177990476Y-131521485D02*
X177990476Y-131188152D01*
X177990476Y-131188152D02*
X178038095Y-130997676D01*
X178038095Y-130997676D02*
X178133333Y-130902438D01*
X178133333Y-130902438D02*
X178228571Y-130854819D01*
X178228571Y-130854819D02*
X178419047Y-130854819D01*
X178419047Y-130854819D02*
X178514285Y-130902438D01*
X178514285Y-130902438D02*
X178609523Y-130997676D01*
X178609523Y-130997676D02*
X178657142Y-131188152D01*
X178657142Y-131188152D02*
X178657142Y-131521485D01*
X178657142Y-131521485D02*
X178609523Y-131711961D01*
X178609523Y-131711961D02*
X178514285Y-131807200D01*
X178514285Y-131807200D02*
X178419047Y-131854819D01*
X178419047Y-131854819D02*
X178228571Y-131854819D01*
X179609523Y-131854819D02*
X179038095Y-131854819D01*
X179323809Y-131854819D02*
X179323809Y-130854819D01*
X179323809Y-130854819D02*
X179228571Y-130997676D01*
X179228571Y-130997676D02*
X179133333Y-131092914D01*
X179133333Y-131092914D02*
X179038095Y-131140533D01*
X175024819Y-129255357D02*
X174548628Y-129588690D01*
X175024819Y-129826785D02*
X174024819Y-129826785D01*
X174024819Y-129826785D02*
X174024819Y-129445833D01*
X174024819Y-129445833D02*
X174072438Y-129350595D01*
X174072438Y-129350595D02*
X174120057Y-129302976D01*
X174120057Y-129302976D02*
X174215295Y-129255357D01*
X174215295Y-129255357D02*
X174358152Y-129255357D01*
X174358152Y-129255357D02*
X174453390Y-129302976D01*
X174453390Y-129302976D02*
X174501009Y-129350595D01*
X174501009Y-129350595D02*
X174548628Y-129445833D01*
X174548628Y-129445833D02*
X174548628Y-129826785D01*
X175024819Y-128302976D02*
X175024819Y-128874404D01*
X175024819Y-128588690D02*
X174024819Y-128588690D01*
X174024819Y-128588690D02*
X174167676Y-128683928D01*
X174167676Y-128683928D02*
X174262914Y-128779166D01*
X174262914Y-128779166D02*
X174310533Y-128874404D01*
X174024819Y-127969642D02*
X174024819Y-127350595D01*
X174024819Y-127350595D02*
X174405771Y-127683928D01*
X174405771Y-127683928D02*
X174405771Y-127541071D01*
X174405771Y-127541071D02*
X174453390Y-127445833D01*
X174453390Y-127445833D02*
X174501009Y-127398214D01*
X174501009Y-127398214D02*
X174596247Y-127350595D01*
X174596247Y-127350595D02*
X174834342Y-127350595D01*
X174834342Y-127350595D02*
X174929580Y-127398214D01*
X174929580Y-127398214D02*
X174977200Y-127445833D01*
X174977200Y-127445833D02*
X175024819Y-127541071D01*
X175024819Y-127541071D02*
X175024819Y-127826785D01*
X175024819Y-127826785D02*
X174977200Y-127922023D01*
X174977200Y-127922023D02*
X174929580Y-127969642D01*
X166046666Y-137229819D02*
X166046666Y-137944104D01*
X166046666Y-137944104D02*
X165999047Y-138086961D01*
X165999047Y-138086961D02*
X165903809Y-138182200D01*
X165903809Y-138182200D02*
X165760952Y-138229819D01*
X165760952Y-138229819D02*
X165665714Y-138229819D01*
X167046666Y-138229819D02*
X166475238Y-138229819D01*
X166760952Y-138229819D02*
X166760952Y-137229819D01*
X166760952Y-137229819D02*
X166665714Y-137372676D01*
X166665714Y-137372676D02*
X166570476Y-137467914D01*
X166570476Y-137467914D02*
X166475238Y-137515533D01*
X179584819Y-129155357D02*
X179108628Y-129488690D01*
X179584819Y-129726785D02*
X178584819Y-129726785D01*
X178584819Y-129726785D02*
X178584819Y-129345833D01*
X178584819Y-129345833D02*
X178632438Y-129250595D01*
X178632438Y-129250595D02*
X178680057Y-129202976D01*
X178680057Y-129202976D02*
X178775295Y-129155357D01*
X178775295Y-129155357D02*
X178918152Y-129155357D01*
X178918152Y-129155357D02*
X179013390Y-129202976D01*
X179013390Y-129202976D02*
X179061009Y-129250595D01*
X179061009Y-129250595D02*
X179108628Y-129345833D01*
X179108628Y-129345833D02*
X179108628Y-129726785D01*
X179584819Y-128202976D02*
X179584819Y-128774404D01*
X179584819Y-128488690D02*
X178584819Y-128488690D01*
X178584819Y-128488690D02*
X178727676Y-128583928D01*
X178727676Y-128583928D02*
X178822914Y-128679166D01*
X178822914Y-128679166D02*
X178870533Y-128774404D01*
X178680057Y-127822023D02*
X178632438Y-127774404D01*
X178632438Y-127774404D02*
X178584819Y-127679166D01*
X178584819Y-127679166D02*
X178584819Y-127441071D01*
X178584819Y-127441071D02*
X178632438Y-127345833D01*
X178632438Y-127345833D02*
X178680057Y-127298214D01*
X178680057Y-127298214D02*
X178775295Y-127250595D01*
X178775295Y-127250595D02*
X178870533Y-127250595D01*
X178870533Y-127250595D02*
X179013390Y-127298214D01*
X179013390Y-127298214D02*
X179584819Y-127869642D01*
X179584819Y-127869642D02*
X179584819Y-127250595D01*
X149729580Y-78642857D02*
X149777200Y-78690476D01*
X149777200Y-78690476D02*
X149824819Y-78833333D01*
X149824819Y-78833333D02*
X149824819Y-78928571D01*
X149824819Y-78928571D02*
X149777200Y-79071428D01*
X149777200Y-79071428D02*
X149681961Y-79166666D01*
X149681961Y-79166666D02*
X149586723Y-79214285D01*
X149586723Y-79214285D02*
X149396247Y-79261904D01*
X149396247Y-79261904D02*
X149253390Y-79261904D01*
X149253390Y-79261904D02*
X149062914Y-79214285D01*
X149062914Y-79214285D02*
X148967676Y-79166666D01*
X148967676Y-79166666D02*
X148872438Y-79071428D01*
X148872438Y-79071428D02*
X148824819Y-78928571D01*
X148824819Y-78928571D02*
X148824819Y-78833333D01*
X148824819Y-78833333D02*
X148872438Y-78690476D01*
X148872438Y-78690476D02*
X148920057Y-78642857D01*
X149824819Y-77690476D02*
X149824819Y-78261904D01*
X149824819Y-77976190D02*
X148824819Y-77976190D01*
X148824819Y-77976190D02*
X148967676Y-78071428D01*
X148967676Y-78071428D02*
X149062914Y-78166666D01*
X149062914Y-78166666D02*
X149110533Y-78261904D01*
X148824819Y-76785714D02*
X148824819Y-77261904D01*
X148824819Y-77261904D02*
X149301009Y-77309523D01*
X149301009Y-77309523D02*
X149253390Y-77261904D01*
X149253390Y-77261904D02*
X149205771Y-77166666D01*
X149205771Y-77166666D02*
X149205771Y-76928571D01*
X149205771Y-76928571D02*
X149253390Y-76833333D01*
X149253390Y-76833333D02*
X149301009Y-76785714D01*
X149301009Y-76785714D02*
X149396247Y-76738095D01*
X149396247Y-76738095D02*
X149634342Y-76738095D01*
X149634342Y-76738095D02*
X149729580Y-76785714D01*
X149729580Y-76785714D02*
X149777200Y-76833333D01*
X149777200Y-76833333D02*
X149824819Y-76928571D01*
X149824819Y-76928571D02*
X149824819Y-77166666D01*
X149824819Y-77166666D02*
X149777200Y-77261904D01*
X149777200Y-77261904D02*
X149729580Y-77309523D01*
X167689580Y-87817857D02*
X167737200Y-87865476D01*
X167737200Y-87865476D02*
X167784819Y-88008333D01*
X167784819Y-88008333D02*
X167784819Y-88103571D01*
X167784819Y-88103571D02*
X167737200Y-88246428D01*
X167737200Y-88246428D02*
X167641961Y-88341666D01*
X167641961Y-88341666D02*
X167546723Y-88389285D01*
X167546723Y-88389285D02*
X167356247Y-88436904D01*
X167356247Y-88436904D02*
X167213390Y-88436904D01*
X167213390Y-88436904D02*
X167022914Y-88389285D01*
X167022914Y-88389285D02*
X166927676Y-88341666D01*
X166927676Y-88341666D02*
X166832438Y-88246428D01*
X166832438Y-88246428D02*
X166784819Y-88103571D01*
X166784819Y-88103571D02*
X166784819Y-88008333D01*
X166784819Y-88008333D02*
X166832438Y-87865476D01*
X166832438Y-87865476D02*
X166880057Y-87817857D01*
X167784819Y-86865476D02*
X167784819Y-87436904D01*
X167784819Y-87151190D02*
X166784819Y-87151190D01*
X166784819Y-87151190D02*
X166927676Y-87246428D01*
X166927676Y-87246428D02*
X167022914Y-87341666D01*
X167022914Y-87341666D02*
X167070533Y-87436904D01*
X167784819Y-86389285D02*
X167784819Y-86198809D01*
X167784819Y-86198809D02*
X167737200Y-86103571D01*
X167737200Y-86103571D02*
X167689580Y-86055952D01*
X167689580Y-86055952D02*
X167546723Y-85960714D01*
X167546723Y-85960714D02*
X167356247Y-85913095D01*
X167356247Y-85913095D02*
X166975295Y-85913095D01*
X166975295Y-85913095D02*
X166880057Y-85960714D01*
X166880057Y-85960714D02*
X166832438Y-86008333D01*
X166832438Y-86008333D02*
X166784819Y-86103571D01*
X166784819Y-86103571D02*
X166784819Y-86294047D01*
X166784819Y-86294047D02*
X166832438Y-86389285D01*
X166832438Y-86389285D02*
X166880057Y-86436904D01*
X166880057Y-86436904D02*
X166975295Y-86484523D01*
X166975295Y-86484523D02*
X167213390Y-86484523D01*
X167213390Y-86484523D02*
X167308628Y-86436904D01*
X167308628Y-86436904D02*
X167356247Y-86389285D01*
X167356247Y-86389285D02*
X167403866Y-86294047D01*
X167403866Y-86294047D02*
X167403866Y-86103571D01*
X167403866Y-86103571D02*
X167356247Y-86008333D01*
X167356247Y-86008333D02*
X167308628Y-85960714D01*
X167308628Y-85960714D02*
X167213390Y-85913095D01*
X171870833Y-126729580D02*
X171823214Y-126777200D01*
X171823214Y-126777200D02*
X171680357Y-126824819D01*
X171680357Y-126824819D02*
X171585119Y-126824819D01*
X171585119Y-126824819D02*
X171442262Y-126777200D01*
X171442262Y-126777200D02*
X171347024Y-126681961D01*
X171347024Y-126681961D02*
X171299405Y-126586723D01*
X171299405Y-126586723D02*
X171251786Y-126396247D01*
X171251786Y-126396247D02*
X171251786Y-126253390D01*
X171251786Y-126253390D02*
X171299405Y-126062914D01*
X171299405Y-126062914D02*
X171347024Y-125967676D01*
X171347024Y-125967676D02*
X171442262Y-125872438D01*
X171442262Y-125872438D02*
X171585119Y-125824819D01*
X171585119Y-125824819D02*
X171680357Y-125824819D01*
X171680357Y-125824819D02*
X171823214Y-125872438D01*
X171823214Y-125872438D02*
X171870833Y-125920057D01*
X172775595Y-125824819D02*
X172299405Y-125824819D01*
X172299405Y-125824819D02*
X172251786Y-126301009D01*
X172251786Y-126301009D02*
X172299405Y-126253390D01*
X172299405Y-126253390D02*
X172394643Y-126205771D01*
X172394643Y-126205771D02*
X172632738Y-126205771D01*
X172632738Y-126205771D02*
X172727976Y-126253390D01*
X172727976Y-126253390D02*
X172775595Y-126301009D01*
X172775595Y-126301009D02*
X172823214Y-126396247D01*
X172823214Y-126396247D02*
X172823214Y-126634342D01*
X172823214Y-126634342D02*
X172775595Y-126729580D01*
X172775595Y-126729580D02*
X172727976Y-126777200D01*
X172727976Y-126777200D02*
X172632738Y-126824819D01*
X172632738Y-126824819D02*
X172394643Y-126824819D01*
X172394643Y-126824819D02*
X172299405Y-126777200D01*
X172299405Y-126777200D02*
X172251786Y-126729580D01*
X121084819Y-136954166D02*
X120608628Y-137287499D01*
X121084819Y-137525594D02*
X120084819Y-137525594D01*
X120084819Y-137525594D02*
X120084819Y-137144642D01*
X120084819Y-137144642D02*
X120132438Y-137049404D01*
X120132438Y-137049404D02*
X120180057Y-137001785D01*
X120180057Y-137001785D02*
X120275295Y-136954166D01*
X120275295Y-136954166D02*
X120418152Y-136954166D01*
X120418152Y-136954166D02*
X120513390Y-137001785D01*
X120513390Y-137001785D02*
X120561009Y-137049404D01*
X120561009Y-137049404D02*
X120608628Y-137144642D01*
X120608628Y-137144642D02*
X120608628Y-137525594D01*
X120418152Y-136097023D02*
X121084819Y-136097023D01*
X120037200Y-136335118D02*
X120751485Y-136573213D01*
X120751485Y-136573213D02*
X120751485Y-135954166D01*
X162429580Y-87717857D02*
X162477200Y-87765476D01*
X162477200Y-87765476D02*
X162524819Y-87908333D01*
X162524819Y-87908333D02*
X162524819Y-88003571D01*
X162524819Y-88003571D02*
X162477200Y-88146428D01*
X162477200Y-88146428D02*
X162381961Y-88241666D01*
X162381961Y-88241666D02*
X162286723Y-88289285D01*
X162286723Y-88289285D02*
X162096247Y-88336904D01*
X162096247Y-88336904D02*
X161953390Y-88336904D01*
X161953390Y-88336904D02*
X161762914Y-88289285D01*
X161762914Y-88289285D02*
X161667676Y-88241666D01*
X161667676Y-88241666D02*
X161572438Y-88146428D01*
X161572438Y-88146428D02*
X161524819Y-88003571D01*
X161524819Y-88003571D02*
X161524819Y-87908333D01*
X161524819Y-87908333D02*
X161572438Y-87765476D01*
X161572438Y-87765476D02*
X161620057Y-87717857D01*
X162524819Y-86765476D02*
X162524819Y-87336904D01*
X162524819Y-87051190D02*
X161524819Y-87051190D01*
X161524819Y-87051190D02*
X161667676Y-87146428D01*
X161667676Y-87146428D02*
X161762914Y-87241666D01*
X161762914Y-87241666D02*
X161810533Y-87336904D01*
X161953390Y-86194047D02*
X161905771Y-86289285D01*
X161905771Y-86289285D02*
X161858152Y-86336904D01*
X161858152Y-86336904D02*
X161762914Y-86384523D01*
X161762914Y-86384523D02*
X161715295Y-86384523D01*
X161715295Y-86384523D02*
X161620057Y-86336904D01*
X161620057Y-86336904D02*
X161572438Y-86289285D01*
X161572438Y-86289285D02*
X161524819Y-86194047D01*
X161524819Y-86194047D02*
X161524819Y-86003571D01*
X161524819Y-86003571D02*
X161572438Y-85908333D01*
X161572438Y-85908333D02*
X161620057Y-85860714D01*
X161620057Y-85860714D02*
X161715295Y-85813095D01*
X161715295Y-85813095D02*
X161762914Y-85813095D01*
X161762914Y-85813095D02*
X161858152Y-85860714D01*
X161858152Y-85860714D02*
X161905771Y-85908333D01*
X161905771Y-85908333D02*
X161953390Y-86003571D01*
X161953390Y-86003571D02*
X161953390Y-86194047D01*
X161953390Y-86194047D02*
X162001009Y-86289285D01*
X162001009Y-86289285D02*
X162048628Y-86336904D01*
X162048628Y-86336904D02*
X162143866Y-86384523D01*
X162143866Y-86384523D02*
X162334342Y-86384523D01*
X162334342Y-86384523D02*
X162429580Y-86336904D01*
X162429580Y-86336904D02*
X162477200Y-86289285D01*
X162477200Y-86289285D02*
X162524819Y-86194047D01*
X162524819Y-86194047D02*
X162524819Y-86003571D01*
X162524819Y-86003571D02*
X162477200Y-85908333D01*
X162477200Y-85908333D02*
X162429580Y-85860714D01*
X162429580Y-85860714D02*
X162334342Y-85813095D01*
X162334342Y-85813095D02*
X162143866Y-85813095D01*
X162143866Y-85813095D02*
X162048628Y-85860714D01*
X162048628Y-85860714D02*
X162001009Y-85908333D01*
X162001009Y-85908333D02*
X161953390Y-86003571D01*
X116438095Y-87154819D02*
X116438095Y-87964342D01*
X116438095Y-87964342D02*
X116485714Y-88059580D01*
X116485714Y-88059580D02*
X116533333Y-88107200D01*
X116533333Y-88107200D02*
X116628571Y-88154819D01*
X116628571Y-88154819D02*
X116819047Y-88154819D01*
X116819047Y-88154819D02*
X116914285Y-88107200D01*
X116914285Y-88107200D02*
X116961904Y-88059580D01*
X116961904Y-88059580D02*
X117009523Y-87964342D01*
X117009523Y-87964342D02*
X117009523Y-87154819D01*
X118009523Y-88154819D02*
X117438095Y-88154819D01*
X117723809Y-88154819D02*
X117723809Y-87154819D01*
X117723809Y-87154819D02*
X117628571Y-87297676D01*
X117628571Y-87297676D02*
X117533333Y-87392914D01*
X117533333Y-87392914D02*
X117438095Y-87440533D01*
X155529580Y-91566666D02*
X155577200Y-91614285D01*
X155577200Y-91614285D02*
X155624819Y-91757142D01*
X155624819Y-91757142D02*
X155624819Y-91852380D01*
X155624819Y-91852380D02*
X155577200Y-91995237D01*
X155577200Y-91995237D02*
X155481961Y-92090475D01*
X155481961Y-92090475D02*
X155386723Y-92138094D01*
X155386723Y-92138094D02*
X155196247Y-92185713D01*
X155196247Y-92185713D02*
X155053390Y-92185713D01*
X155053390Y-92185713D02*
X154862914Y-92138094D01*
X154862914Y-92138094D02*
X154767676Y-92090475D01*
X154767676Y-92090475D02*
X154672438Y-91995237D01*
X154672438Y-91995237D02*
X154624819Y-91852380D01*
X154624819Y-91852380D02*
X154624819Y-91757142D01*
X154624819Y-91757142D02*
X154672438Y-91614285D01*
X154672438Y-91614285D02*
X154720057Y-91566666D01*
X155053390Y-90995237D02*
X155005771Y-91090475D01*
X155005771Y-91090475D02*
X154958152Y-91138094D01*
X154958152Y-91138094D02*
X154862914Y-91185713D01*
X154862914Y-91185713D02*
X154815295Y-91185713D01*
X154815295Y-91185713D02*
X154720057Y-91138094D01*
X154720057Y-91138094D02*
X154672438Y-91090475D01*
X154672438Y-91090475D02*
X154624819Y-90995237D01*
X154624819Y-90995237D02*
X154624819Y-90804761D01*
X154624819Y-90804761D02*
X154672438Y-90709523D01*
X154672438Y-90709523D02*
X154720057Y-90661904D01*
X154720057Y-90661904D02*
X154815295Y-90614285D01*
X154815295Y-90614285D02*
X154862914Y-90614285D01*
X154862914Y-90614285D02*
X154958152Y-90661904D01*
X154958152Y-90661904D02*
X155005771Y-90709523D01*
X155005771Y-90709523D02*
X155053390Y-90804761D01*
X155053390Y-90804761D02*
X155053390Y-90995237D01*
X155053390Y-90995237D02*
X155101009Y-91090475D01*
X155101009Y-91090475D02*
X155148628Y-91138094D01*
X155148628Y-91138094D02*
X155243866Y-91185713D01*
X155243866Y-91185713D02*
X155434342Y-91185713D01*
X155434342Y-91185713D02*
X155529580Y-91138094D01*
X155529580Y-91138094D02*
X155577200Y-91090475D01*
X155577200Y-91090475D02*
X155624819Y-90995237D01*
X155624819Y-90995237D02*
X155624819Y-90804761D01*
X155624819Y-90804761D02*
X155577200Y-90709523D01*
X155577200Y-90709523D02*
X155529580Y-90661904D01*
X155529580Y-90661904D02*
X155434342Y-90614285D01*
X155434342Y-90614285D02*
X155243866Y-90614285D01*
X155243866Y-90614285D02*
X155148628Y-90661904D01*
X155148628Y-90661904D02*
X155101009Y-90709523D01*
X155101009Y-90709523D02*
X155053390Y-90804761D01*
X152316667Y-128289582D02*
X152459524Y-128337201D01*
X152459524Y-128337201D02*
X152697619Y-128337201D01*
X152697619Y-128337201D02*
X152792857Y-128289582D01*
X152792857Y-128289582D02*
X152840476Y-128241962D01*
X152840476Y-128241962D02*
X152888095Y-128146724D01*
X152888095Y-128146724D02*
X152888095Y-128051486D01*
X152888095Y-128051486D02*
X152840476Y-127956248D01*
X152840476Y-127956248D02*
X152792857Y-127908629D01*
X152792857Y-127908629D02*
X152697619Y-127861010D01*
X152697619Y-127861010D02*
X152507143Y-127813391D01*
X152507143Y-127813391D02*
X152411905Y-127765772D01*
X152411905Y-127765772D02*
X152364286Y-127718153D01*
X152364286Y-127718153D02*
X152316667Y-127622915D01*
X152316667Y-127622915D02*
X152316667Y-127527677D01*
X152316667Y-127527677D02*
X152364286Y-127432439D01*
X152364286Y-127432439D02*
X152411905Y-127384820D01*
X152411905Y-127384820D02*
X152507143Y-127337201D01*
X152507143Y-127337201D02*
X152745238Y-127337201D01*
X152745238Y-127337201D02*
X152888095Y-127384820D01*
X153221429Y-127337201D02*
X153459524Y-128337201D01*
X153459524Y-128337201D02*
X153650000Y-127622915D01*
X153650000Y-127622915D02*
X153840476Y-128337201D01*
X153840476Y-128337201D02*
X154078572Y-127337201D01*
X154888095Y-127670534D02*
X154888095Y-128337201D01*
X154650000Y-127289582D02*
X154411905Y-128003867D01*
X154411905Y-128003867D02*
X155030952Y-128003867D01*
X148457142Y-108524819D02*
X148123809Y-108048628D01*
X147885714Y-108524819D02*
X147885714Y-107524819D01*
X147885714Y-107524819D02*
X148266666Y-107524819D01*
X148266666Y-107524819D02*
X148361904Y-107572438D01*
X148361904Y-107572438D02*
X148409523Y-107620057D01*
X148409523Y-107620057D02*
X148457142Y-107715295D01*
X148457142Y-107715295D02*
X148457142Y-107858152D01*
X148457142Y-107858152D02*
X148409523Y-107953390D01*
X148409523Y-107953390D02*
X148361904Y-108001009D01*
X148361904Y-108001009D02*
X148266666Y-108048628D01*
X148266666Y-108048628D02*
X147885714Y-108048628D01*
X149409523Y-108524819D02*
X148838095Y-108524819D01*
X149123809Y-108524819D02*
X149123809Y-107524819D01*
X149123809Y-107524819D02*
X149028571Y-107667676D01*
X149028571Y-107667676D02*
X148933333Y-107762914D01*
X148933333Y-107762914D02*
X148838095Y-107810533D01*
X149980952Y-107953390D02*
X149885714Y-107905771D01*
X149885714Y-107905771D02*
X149838095Y-107858152D01*
X149838095Y-107858152D02*
X149790476Y-107762914D01*
X149790476Y-107762914D02*
X149790476Y-107715295D01*
X149790476Y-107715295D02*
X149838095Y-107620057D01*
X149838095Y-107620057D02*
X149885714Y-107572438D01*
X149885714Y-107572438D02*
X149980952Y-107524819D01*
X149980952Y-107524819D02*
X150171428Y-107524819D01*
X150171428Y-107524819D02*
X150266666Y-107572438D01*
X150266666Y-107572438D02*
X150314285Y-107620057D01*
X150314285Y-107620057D02*
X150361904Y-107715295D01*
X150361904Y-107715295D02*
X150361904Y-107762914D01*
X150361904Y-107762914D02*
X150314285Y-107858152D01*
X150314285Y-107858152D02*
X150266666Y-107905771D01*
X150266666Y-107905771D02*
X150171428Y-107953390D01*
X150171428Y-107953390D02*
X149980952Y-107953390D01*
X149980952Y-107953390D02*
X149885714Y-108001009D01*
X149885714Y-108001009D02*
X149838095Y-108048628D01*
X149838095Y-108048628D02*
X149790476Y-108143866D01*
X149790476Y-108143866D02*
X149790476Y-108334342D01*
X149790476Y-108334342D02*
X149838095Y-108429580D01*
X149838095Y-108429580D02*
X149885714Y-108477200D01*
X149885714Y-108477200D02*
X149980952Y-108524819D01*
X149980952Y-108524819D02*
X150171428Y-108524819D01*
X150171428Y-108524819D02*
X150266666Y-108477200D01*
X150266666Y-108477200D02*
X150314285Y-108429580D01*
X150314285Y-108429580D02*
X150361904Y-108334342D01*
X150361904Y-108334342D02*
X150361904Y-108143866D01*
X150361904Y-108143866D02*
X150314285Y-108048628D01*
X150314285Y-108048628D02*
X150266666Y-108001009D01*
X150266666Y-108001009D02*
X150171428Y-107953390D01*
X148557142Y-93424819D02*
X148223809Y-92948628D01*
X147985714Y-93424819D02*
X147985714Y-92424819D01*
X147985714Y-92424819D02*
X148366666Y-92424819D01*
X148366666Y-92424819D02*
X148461904Y-92472438D01*
X148461904Y-92472438D02*
X148509523Y-92520057D01*
X148509523Y-92520057D02*
X148557142Y-92615295D01*
X148557142Y-92615295D02*
X148557142Y-92758152D01*
X148557142Y-92758152D02*
X148509523Y-92853390D01*
X148509523Y-92853390D02*
X148461904Y-92901009D01*
X148461904Y-92901009D02*
X148366666Y-92948628D01*
X148366666Y-92948628D02*
X147985714Y-92948628D01*
X149509523Y-93424819D02*
X148938095Y-93424819D01*
X149223809Y-93424819D02*
X149223809Y-92424819D01*
X149223809Y-92424819D02*
X149128571Y-92567676D01*
X149128571Y-92567676D02*
X149033333Y-92662914D01*
X149033333Y-92662914D02*
X148938095Y-92710533D01*
X149842857Y-92424819D02*
X150509523Y-92424819D01*
X150509523Y-92424819D02*
X150080952Y-93424819D01*
X195666667Y-112757200D02*
X195809524Y-112804819D01*
X195809524Y-112804819D02*
X196047619Y-112804819D01*
X196047619Y-112804819D02*
X196142857Y-112757200D01*
X196142857Y-112757200D02*
X196190476Y-112709580D01*
X196190476Y-112709580D02*
X196238095Y-112614342D01*
X196238095Y-112614342D02*
X196238095Y-112519104D01*
X196238095Y-112519104D02*
X196190476Y-112423866D01*
X196190476Y-112423866D02*
X196142857Y-112376247D01*
X196142857Y-112376247D02*
X196047619Y-112328628D01*
X196047619Y-112328628D02*
X195857143Y-112281009D01*
X195857143Y-112281009D02*
X195761905Y-112233390D01*
X195761905Y-112233390D02*
X195714286Y-112185771D01*
X195714286Y-112185771D02*
X195666667Y-112090533D01*
X195666667Y-112090533D02*
X195666667Y-111995295D01*
X195666667Y-111995295D02*
X195714286Y-111900057D01*
X195714286Y-111900057D02*
X195761905Y-111852438D01*
X195761905Y-111852438D02*
X195857143Y-111804819D01*
X195857143Y-111804819D02*
X196095238Y-111804819D01*
X196095238Y-111804819D02*
X196238095Y-111852438D01*
X196571429Y-111804819D02*
X196809524Y-112804819D01*
X196809524Y-112804819D02*
X197000000Y-112090533D01*
X197000000Y-112090533D02*
X197190476Y-112804819D01*
X197190476Y-112804819D02*
X197428572Y-111804819D01*
X197714286Y-111804819D02*
X198380952Y-111804819D01*
X198380952Y-111804819D02*
X197952381Y-112804819D01*
X175704761Y-117750057D02*
X175609523Y-117702438D01*
X175609523Y-117702438D02*
X175514285Y-117607200D01*
X175514285Y-117607200D02*
X175371428Y-117464342D01*
X175371428Y-117464342D02*
X175276190Y-117416723D01*
X175276190Y-117416723D02*
X175180952Y-117416723D01*
X175228571Y-117654819D02*
X175133333Y-117607200D01*
X175133333Y-117607200D02*
X175038095Y-117511961D01*
X175038095Y-117511961D02*
X174990476Y-117321485D01*
X174990476Y-117321485D02*
X174990476Y-116988152D01*
X174990476Y-116988152D02*
X175038095Y-116797676D01*
X175038095Y-116797676D02*
X175133333Y-116702438D01*
X175133333Y-116702438D02*
X175228571Y-116654819D01*
X175228571Y-116654819D02*
X175419047Y-116654819D01*
X175419047Y-116654819D02*
X175514285Y-116702438D01*
X175514285Y-116702438D02*
X175609523Y-116797676D01*
X175609523Y-116797676D02*
X175657142Y-116988152D01*
X175657142Y-116988152D02*
X175657142Y-117321485D01*
X175657142Y-117321485D02*
X175609523Y-117511961D01*
X175609523Y-117511961D02*
X175514285Y-117607200D01*
X175514285Y-117607200D02*
X175419047Y-117654819D01*
X175419047Y-117654819D02*
X175228571Y-117654819D01*
X176038095Y-116750057D02*
X176085714Y-116702438D01*
X176085714Y-116702438D02*
X176180952Y-116654819D01*
X176180952Y-116654819D02*
X176419047Y-116654819D01*
X176419047Y-116654819D02*
X176514285Y-116702438D01*
X176514285Y-116702438D02*
X176561904Y-116750057D01*
X176561904Y-116750057D02*
X176609523Y-116845295D01*
X176609523Y-116845295D02*
X176609523Y-116940533D01*
X176609523Y-116940533D02*
X176561904Y-117083390D01*
X176561904Y-117083390D02*
X175990476Y-117654819D01*
X175990476Y-117654819D02*
X176609523Y-117654819D01*
X157757142Y-128554819D02*
X157423809Y-128078628D01*
X157185714Y-128554819D02*
X157185714Y-127554819D01*
X157185714Y-127554819D02*
X157566666Y-127554819D01*
X157566666Y-127554819D02*
X157661904Y-127602438D01*
X157661904Y-127602438D02*
X157709523Y-127650057D01*
X157709523Y-127650057D02*
X157757142Y-127745295D01*
X157757142Y-127745295D02*
X157757142Y-127888152D01*
X157757142Y-127888152D02*
X157709523Y-127983390D01*
X157709523Y-127983390D02*
X157661904Y-128031009D01*
X157661904Y-128031009D02*
X157566666Y-128078628D01*
X157566666Y-128078628D02*
X157185714Y-128078628D01*
X158709523Y-128554819D02*
X158138095Y-128554819D01*
X158423809Y-128554819D02*
X158423809Y-127554819D01*
X158423809Y-127554819D02*
X158328571Y-127697676D01*
X158328571Y-127697676D02*
X158233333Y-127792914D01*
X158233333Y-127792914D02*
X158138095Y-127840533D01*
X159614285Y-127554819D02*
X159138095Y-127554819D01*
X159138095Y-127554819D02*
X159090476Y-128031009D01*
X159090476Y-128031009D02*
X159138095Y-127983390D01*
X159138095Y-127983390D02*
X159233333Y-127935771D01*
X159233333Y-127935771D02*
X159471428Y-127935771D01*
X159471428Y-127935771D02*
X159566666Y-127983390D01*
X159566666Y-127983390D02*
X159614285Y-128031009D01*
X159614285Y-128031009D02*
X159661904Y-128126247D01*
X159661904Y-128126247D02*
X159661904Y-128364342D01*
X159661904Y-128364342D02*
X159614285Y-128459580D01*
X159614285Y-128459580D02*
X159566666Y-128507200D01*
X159566666Y-128507200D02*
X159471428Y-128554819D01*
X159471428Y-128554819D02*
X159233333Y-128554819D01*
X159233333Y-128554819D02*
X159138095Y-128507200D01*
X159138095Y-128507200D02*
X159090476Y-128459580D01*
X159854819Y-88842857D02*
X159378628Y-89176190D01*
X159854819Y-89414285D02*
X158854819Y-89414285D01*
X158854819Y-89414285D02*
X158854819Y-89033333D01*
X158854819Y-89033333D02*
X158902438Y-88938095D01*
X158902438Y-88938095D02*
X158950057Y-88890476D01*
X158950057Y-88890476D02*
X159045295Y-88842857D01*
X159045295Y-88842857D02*
X159188152Y-88842857D01*
X159188152Y-88842857D02*
X159283390Y-88890476D01*
X159283390Y-88890476D02*
X159331009Y-88938095D01*
X159331009Y-88938095D02*
X159378628Y-89033333D01*
X159378628Y-89033333D02*
X159378628Y-89414285D01*
X158950057Y-88461904D02*
X158902438Y-88414285D01*
X158902438Y-88414285D02*
X158854819Y-88319047D01*
X158854819Y-88319047D02*
X158854819Y-88080952D01*
X158854819Y-88080952D02*
X158902438Y-87985714D01*
X158902438Y-87985714D02*
X158950057Y-87938095D01*
X158950057Y-87938095D02*
X159045295Y-87890476D01*
X159045295Y-87890476D02*
X159140533Y-87890476D01*
X159140533Y-87890476D02*
X159283390Y-87938095D01*
X159283390Y-87938095D02*
X159854819Y-88509523D01*
X159854819Y-88509523D02*
X159854819Y-87890476D01*
X158854819Y-87271428D02*
X158854819Y-87176190D01*
X158854819Y-87176190D02*
X158902438Y-87080952D01*
X158902438Y-87080952D02*
X158950057Y-87033333D01*
X158950057Y-87033333D02*
X159045295Y-86985714D01*
X159045295Y-86985714D02*
X159235771Y-86938095D01*
X159235771Y-86938095D02*
X159473866Y-86938095D01*
X159473866Y-86938095D02*
X159664342Y-86985714D01*
X159664342Y-86985714D02*
X159759580Y-87033333D01*
X159759580Y-87033333D02*
X159807200Y-87080952D01*
X159807200Y-87080952D02*
X159854819Y-87176190D01*
X159854819Y-87176190D02*
X159854819Y-87271428D01*
X159854819Y-87271428D02*
X159807200Y-87366666D01*
X159807200Y-87366666D02*
X159759580Y-87414285D01*
X159759580Y-87414285D02*
X159664342Y-87461904D01*
X159664342Y-87461904D02*
X159473866Y-87509523D01*
X159473866Y-87509523D02*
X159235771Y-87509523D01*
X159235771Y-87509523D02*
X159045295Y-87461904D01*
X159045295Y-87461904D02*
X158950057Y-87414285D01*
X158950057Y-87414285D02*
X158902438Y-87366666D01*
X158902438Y-87366666D02*
X158854819Y-87271428D01*
X118184819Y-136456666D02*
X117708628Y-136789999D01*
X118184819Y-137028094D02*
X117184819Y-137028094D01*
X117184819Y-137028094D02*
X117184819Y-136647142D01*
X117184819Y-136647142D02*
X117232438Y-136551904D01*
X117232438Y-136551904D02*
X117280057Y-136504285D01*
X117280057Y-136504285D02*
X117375295Y-136456666D01*
X117375295Y-136456666D02*
X117518152Y-136456666D01*
X117518152Y-136456666D02*
X117613390Y-136504285D01*
X117613390Y-136504285D02*
X117661009Y-136551904D01*
X117661009Y-136551904D02*
X117708628Y-136647142D01*
X117708628Y-136647142D02*
X117708628Y-137028094D01*
X117184819Y-136123332D02*
X117184819Y-135504285D01*
X117184819Y-135504285D02*
X117565771Y-135837618D01*
X117565771Y-135837618D02*
X117565771Y-135694761D01*
X117565771Y-135694761D02*
X117613390Y-135599523D01*
X117613390Y-135599523D02*
X117661009Y-135551904D01*
X117661009Y-135551904D02*
X117756247Y-135504285D01*
X117756247Y-135504285D02*
X117994342Y-135504285D01*
X117994342Y-135504285D02*
X118089580Y-135551904D01*
X118089580Y-135551904D02*
X118137200Y-135599523D01*
X118137200Y-135599523D02*
X118184819Y-135694761D01*
X118184819Y-135694761D02*
X118184819Y-135980475D01*
X118184819Y-135980475D02*
X118137200Y-136075713D01*
X118137200Y-136075713D02*
X118089580Y-136123332D01*
X162124819Y-136866666D02*
X161648628Y-137199999D01*
X162124819Y-137438094D02*
X161124819Y-137438094D01*
X161124819Y-137438094D02*
X161124819Y-137057142D01*
X161124819Y-137057142D02*
X161172438Y-136961904D01*
X161172438Y-136961904D02*
X161220057Y-136914285D01*
X161220057Y-136914285D02*
X161315295Y-136866666D01*
X161315295Y-136866666D02*
X161458152Y-136866666D01*
X161458152Y-136866666D02*
X161553390Y-136914285D01*
X161553390Y-136914285D02*
X161601009Y-136961904D01*
X161601009Y-136961904D02*
X161648628Y-137057142D01*
X161648628Y-137057142D02*
X161648628Y-137438094D01*
X161553390Y-136295237D02*
X161505771Y-136390475D01*
X161505771Y-136390475D02*
X161458152Y-136438094D01*
X161458152Y-136438094D02*
X161362914Y-136485713D01*
X161362914Y-136485713D02*
X161315295Y-136485713D01*
X161315295Y-136485713D02*
X161220057Y-136438094D01*
X161220057Y-136438094D02*
X161172438Y-136390475D01*
X161172438Y-136390475D02*
X161124819Y-136295237D01*
X161124819Y-136295237D02*
X161124819Y-136104761D01*
X161124819Y-136104761D02*
X161172438Y-136009523D01*
X161172438Y-136009523D02*
X161220057Y-135961904D01*
X161220057Y-135961904D02*
X161315295Y-135914285D01*
X161315295Y-135914285D02*
X161362914Y-135914285D01*
X161362914Y-135914285D02*
X161458152Y-135961904D01*
X161458152Y-135961904D02*
X161505771Y-136009523D01*
X161505771Y-136009523D02*
X161553390Y-136104761D01*
X161553390Y-136104761D02*
X161553390Y-136295237D01*
X161553390Y-136295237D02*
X161601009Y-136390475D01*
X161601009Y-136390475D02*
X161648628Y-136438094D01*
X161648628Y-136438094D02*
X161743866Y-136485713D01*
X161743866Y-136485713D02*
X161934342Y-136485713D01*
X161934342Y-136485713D02*
X162029580Y-136438094D01*
X162029580Y-136438094D02*
X162077200Y-136390475D01*
X162077200Y-136390475D02*
X162124819Y-136295237D01*
X162124819Y-136295237D02*
X162124819Y-136104761D01*
X162124819Y-136104761D02*
X162077200Y-136009523D01*
X162077200Y-136009523D02*
X162029580Y-135961904D01*
X162029580Y-135961904D02*
X161934342Y-135914285D01*
X161934342Y-135914285D02*
X161743866Y-135914285D01*
X161743866Y-135914285D02*
X161648628Y-135961904D01*
X161648628Y-135961904D02*
X161601009Y-136009523D01*
X161601009Y-136009523D02*
X161553390Y-136104761D01*
X193170833Y-54829580D02*
X193123214Y-54877200D01*
X193123214Y-54877200D02*
X192980357Y-54924819D01*
X192980357Y-54924819D02*
X192885119Y-54924819D01*
X192885119Y-54924819D02*
X192742262Y-54877200D01*
X192742262Y-54877200D02*
X192647024Y-54781961D01*
X192647024Y-54781961D02*
X192599405Y-54686723D01*
X192599405Y-54686723D02*
X192551786Y-54496247D01*
X192551786Y-54496247D02*
X192551786Y-54353390D01*
X192551786Y-54353390D02*
X192599405Y-54162914D01*
X192599405Y-54162914D02*
X192647024Y-54067676D01*
X192647024Y-54067676D02*
X192742262Y-53972438D01*
X192742262Y-53972438D02*
X192885119Y-53924819D01*
X192885119Y-53924819D02*
X192980357Y-53924819D01*
X192980357Y-53924819D02*
X193123214Y-53972438D01*
X193123214Y-53972438D02*
X193170833Y-54020057D01*
X193504167Y-53924819D02*
X194170833Y-53924819D01*
X194170833Y-53924819D02*
X193742262Y-54924819D01*
X171833333Y-131259580D02*
X171785714Y-131307200D01*
X171785714Y-131307200D02*
X171642857Y-131354819D01*
X171642857Y-131354819D02*
X171547619Y-131354819D01*
X171547619Y-131354819D02*
X171404762Y-131307200D01*
X171404762Y-131307200D02*
X171309524Y-131211961D01*
X171309524Y-131211961D02*
X171261905Y-131116723D01*
X171261905Y-131116723D02*
X171214286Y-130926247D01*
X171214286Y-130926247D02*
X171214286Y-130783390D01*
X171214286Y-130783390D02*
X171261905Y-130592914D01*
X171261905Y-130592914D02*
X171309524Y-130497676D01*
X171309524Y-130497676D02*
X171404762Y-130402438D01*
X171404762Y-130402438D02*
X171547619Y-130354819D01*
X171547619Y-130354819D02*
X171642857Y-130354819D01*
X171642857Y-130354819D02*
X171785714Y-130402438D01*
X171785714Y-130402438D02*
X171833333Y-130450057D01*
X172690476Y-130354819D02*
X172500000Y-130354819D01*
X172500000Y-130354819D02*
X172404762Y-130402438D01*
X172404762Y-130402438D02*
X172357143Y-130450057D01*
X172357143Y-130450057D02*
X172261905Y-130592914D01*
X172261905Y-130592914D02*
X172214286Y-130783390D01*
X172214286Y-130783390D02*
X172214286Y-131164342D01*
X172214286Y-131164342D02*
X172261905Y-131259580D01*
X172261905Y-131259580D02*
X172309524Y-131307200D01*
X172309524Y-131307200D02*
X172404762Y-131354819D01*
X172404762Y-131354819D02*
X172595238Y-131354819D01*
X172595238Y-131354819D02*
X172690476Y-131307200D01*
X172690476Y-131307200D02*
X172738095Y-131259580D01*
X172738095Y-131259580D02*
X172785714Y-131164342D01*
X172785714Y-131164342D02*
X172785714Y-130926247D01*
X172785714Y-130926247D02*
X172738095Y-130831009D01*
X172738095Y-130831009D02*
X172690476Y-130783390D01*
X172690476Y-130783390D02*
X172595238Y-130735771D01*
X172595238Y-130735771D02*
X172404762Y-130735771D01*
X172404762Y-130735771D02*
X172309524Y-130783390D01*
X172309524Y-130783390D02*
X172261905Y-130831009D01*
X172261905Y-130831009D02*
X172214286Y-130926247D01*
X190704580Y-130379166D02*
X190752200Y-130426785D01*
X190752200Y-130426785D02*
X190799819Y-130569642D01*
X190799819Y-130569642D02*
X190799819Y-130664880D01*
X190799819Y-130664880D02*
X190752200Y-130807737D01*
X190752200Y-130807737D02*
X190656961Y-130902975D01*
X190656961Y-130902975D02*
X190561723Y-130950594D01*
X190561723Y-130950594D02*
X190371247Y-130998213D01*
X190371247Y-130998213D02*
X190228390Y-130998213D01*
X190228390Y-130998213D02*
X190037914Y-130950594D01*
X190037914Y-130950594D02*
X189942676Y-130902975D01*
X189942676Y-130902975D02*
X189847438Y-130807737D01*
X189847438Y-130807737D02*
X189799819Y-130664880D01*
X189799819Y-130664880D02*
X189799819Y-130569642D01*
X189799819Y-130569642D02*
X189847438Y-130426785D01*
X189847438Y-130426785D02*
X189895057Y-130379166D01*
X190799819Y-129426785D02*
X190799819Y-129998213D01*
X190799819Y-129712499D02*
X189799819Y-129712499D01*
X189799819Y-129712499D02*
X189942676Y-129807737D01*
X189942676Y-129807737D02*
X190037914Y-129902975D01*
X190037914Y-129902975D02*
X190085533Y-129998213D01*
X179154819Y-123549404D02*
X179964342Y-123549404D01*
X179964342Y-123549404D02*
X180059580Y-123501785D01*
X180059580Y-123501785D02*
X180107200Y-123454166D01*
X180107200Y-123454166D02*
X180154819Y-123358928D01*
X180154819Y-123358928D02*
X180154819Y-123168452D01*
X180154819Y-123168452D02*
X180107200Y-123073214D01*
X180107200Y-123073214D02*
X180059580Y-123025595D01*
X180059580Y-123025595D02*
X179964342Y-122977976D01*
X179964342Y-122977976D02*
X179154819Y-122977976D01*
X179154819Y-122025595D02*
X179154819Y-122501785D01*
X179154819Y-122501785D02*
X179631009Y-122549404D01*
X179631009Y-122549404D02*
X179583390Y-122501785D01*
X179583390Y-122501785D02*
X179535771Y-122406547D01*
X179535771Y-122406547D02*
X179535771Y-122168452D01*
X179535771Y-122168452D02*
X179583390Y-122073214D01*
X179583390Y-122073214D02*
X179631009Y-122025595D01*
X179631009Y-122025595D02*
X179726247Y-121977976D01*
X179726247Y-121977976D02*
X179964342Y-121977976D01*
X179964342Y-121977976D02*
X180059580Y-122025595D01*
X180059580Y-122025595D02*
X180107200Y-122073214D01*
X180107200Y-122073214D02*
X180154819Y-122168452D01*
X180154819Y-122168452D02*
X180154819Y-122406547D01*
X180154819Y-122406547D02*
X180107200Y-122501785D01*
X180107200Y-122501785D02*
X180059580Y-122549404D01*
X157379819Y-81999404D02*
X158189342Y-81999404D01*
X158189342Y-81999404D02*
X158284580Y-81951785D01*
X158284580Y-81951785D02*
X158332200Y-81904166D01*
X158332200Y-81904166D02*
X158379819Y-81808928D01*
X158379819Y-81808928D02*
X158379819Y-81618452D01*
X158379819Y-81618452D02*
X158332200Y-81523214D01*
X158332200Y-81523214D02*
X158284580Y-81475595D01*
X158284580Y-81475595D02*
X158189342Y-81427976D01*
X158189342Y-81427976D02*
X157379819Y-81427976D01*
X157379819Y-81047023D02*
X157379819Y-80427976D01*
X157379819Y-80427976D02*
X157760771Y-80761309D01*
X157760771Y-80761309D02*
X157760771Y-80618452D01*
X157760771Y-80618452D02*
X157808390Y-80523214D01*
X157808390Y-80523214D02*
X157856009Y-80475595D01*
X157856009Y-80475595D02*
X157951247Y-80427976D01*
X157951247Y-80427976D02*
X158189342Y-80427976D01*
X158189342Y-80427976D02*
X158284580Y-80475595D01*
X158284580Y-80475595D02*
X158332200Y-80523214D01*
X158332200Y-80523214D02*
X158379819Y-80618452D01*
X158379819Y-80618452D02*
X158379819Y-80904166D01*
X158379819Y-80904166D02*
X158332200Y-80999404D01*
X158332200Y-80999404D02*
X158284580Y-81047023D01*
X139484819Y-106542857D02*
X139008628Y-106876190D01*
X139484819Y-107114285D02*
X138484819Y-107114285D01*
X138484819Y-107114285D02*
X138484819Y-106733333D01*
X138484819Y-106733333D02*
X138532438Y-106638095D01*
X138532438Y-106638095D02*
X138580057Y-106590476D01*
X138580057Y-106590476D02*
X138675295Y-106542857D01*
X138675295Y-106542857D02*
X138818152Y-106542857D01*
X138818152Y-106542857D02*
X138913390Y-106590476D01*
X138913390Y-106590476D02*
X138961009Y-106638095D01*
X138961009Y-106638095D02*
X139008628Y-106733333D01*
X139008628Y-106733333D02*
X139008628Y-107114285D01*
X139484819Y-105590476D02*
X139484819Y-106161904D01*
X139484819Y-105876190D02*
X138484819Y-105876190D01*
X138484819Y-105876190D02*
X138627676Y-105971428D01*
X138627676Y-105971428D02*
X138722914Y-106066666D01*
X138722914Y-106066666D02*
X138770533Y-106161904D01*
X138818152Y-104733333D02*
X139484819Y-104733333D01*
X138437200Y-104971428D02*
X139151485Y-105209523D01*
X139151485Y-105209523D02*
X139151485Y-104590476D01*
X165289580Y-76317857D02*
X165337200Y-76365476D01*
X165337200Y-76365476D02*
X165384819Y-76508333D01*
X165384819Y-76508333D02*
X165384819Y-76603571D01*
X165384819Y-76603571D02*
X165337200Y-76746428D01*
X165337200Y-76746428D02*
X165241961Y-76841666D01*
X165241961Y-76841666D02*
X165146723Y-76889285D01*
X165146723Y-76889285D02*
X164956247Y-76936904D01*
X164956247Y-76936904D02*
X164813390Y-76936904D01*
X164813390Y-76936904D02*
X164622914Y-76889285D01*
X164622914Y-76889285D02*
X164527676Y-76841666D01*
X164527676Y-76841666D02*
X164432438Y-76746428D01*
X164432438Y-76746428D02*
X164384819Y-76603571D01*
X164384819Y-76603571D02*
X164384819Y-76508333D01*
X164384819Y-76508333D02*
X164432438Y-76365476D01*
X164432438Y-76365476D02*
X164480057Y-76317857D01*
X165384819Y-75365476D02*
X165384819Y-75936904D01*
X165384819Y-75651190D02*
X164384819Y-75651190D01*
X164384819Y-75651190D02*
X164527676Y-75746428D01*
X164527676Y-75746428D02*
X164622914Y-75841666D01*
X164622914Y-75841666D02*
X164670533Y-75936904D01*
X164480057Y-74984523D02*
X164432438Y-74936904D01*
X164432438Y-74936904D02*
X164384819Y-74841666D01*
X164384819Y-74841666D02*
X164384819Y-74603571D01*
X164384819Y-74603571D02*
X164432438Y-74508333D01*
X164432438Y-74508333D02*
X164480057Y-74460714D01*
X164480057Y-74460714D02*
X164575295Y-74413095D01*
X164575295Y-74413095D02*
X164670533Y-74413095D01*
X164670533Y-74413095D02*
X164813390Y-74460714D01*
X164813390Y-74460714D02*
X165384819Y-75032142D01*
X165384819Y-75032142D02*
X165384819Y-74413095D01*
X157684819Y-76217857D02*
X157208628Y-76551190D01*
X157684819Y-76789285D02*
X156684819Y-76789285D01*
X156684819Y-76789285D02*
X156684819Y-76408333D01*
X156684819Y-76408333D02*
X156732438Y-76313095D01*
X156732438Y-76313095D02*
X156780057Y-76265476D01*
X156780057Y-76265476D02*
X156875295Y-76217857D01*
X156875295Y-76217857D02*
X157018152Y-76217857D01*
X157018152Y-76217857D02*
X157113390Y-76265476D01*
X157113390Y-76265476D02*
X157161009Y-76313095D01*
X157161009Y-76313095D02*
X157208628Y-76408333D01*
X157208628Y-76408333D02*
X157208628Y-76789285D01*
X156780057Y-75836904D02*
X156732438Y-75789285D01*
X156732438Y-75789285D02*
X156684819Y-75694047D01*
X156684819Y-75694047D02*
X156684819Y-75455952D01*
X156684819Y-75455952D02*
X156732438Y-75360714D01*
X156732438Y-75360714D02*
X156780057Y-75313095D01*
X156780057Y-75313095D02*
X156875295Y-75265476D01*
X156875295Y-75265476D02*
X156970533Y-75265476D01*
X156970533Y-75265476D02*
X157113390Y-75313095D01*
X157113390Y-75313095D02*
X157684819Y-75884523D01*
X157684819Y-75884523D02*
X157684819Y-75265476D01*
X157684819Y-74313095D02*
X157684819Y-74884523D01*
X157684819Y-74598809D02*
X156684819Y-74598809D01*
X156684819Y-74598809D02*
X156827676Y-74694047D01*
X156827676Y-74694047D02*
X156922914Y-74789285D01*
X156922914Y-74789285D02*
X156970533Y-74884523D01*
X201366666Y-53474819D02*
X201366666Y-54189104D01*
X201366666Y-54189104D02*
X201319047Y-54331961D01*
X201319047Y-54331961D02*
X201223809Y-54427200D01*
X201223809Y-54427200D02*
X201080952Y-54474819D01*
X201080952Y-54474819D02*
X200985714Y-54474819D01*
X202271428Y-53474819D02*
X202080952Y-53474819D01*
X202080952Y-53474819D02*
X201985714Y-53522438D01*
X201985714Y-53522438D02*
X201938095Y-53570057D01*
X201938095Y-53570057D02*
X201842857Y-53712914D01*
X201842857Y-53712914D02*
X201795238Y-53903390D01*
X201795238Y-53903390D02*
X201795238Y-54284342D01*
X201795238Y-54284342D02*
X201842857Y-54379580D01*
X201842857Y-54379580D02*
X201890476Y-54427200D01*
X201890476Y-54427200D02*
X201985714Y-54474819D01*
X201985714Y-54474819D02*
X202176190Y-54474819D01*
X202176190Y-54474819D02*
X202271428Y-54427200D01*
X202271428Y-54427200D02*
X202319047Y-54379580D01*
X202319047Y-54379580D02*
X202366666Y-54284342D01*
X202366666Y-54284342D02*
X202366666Y-54046247D01*
X202366666Y-54046247D02*
X202319047Y-53951009D01*
X202319047Y-53951009D02*
X202271428Y-53903390D01*
X202271428Y-53903390D02*
X202176190Y-53855771D01*
X202176190Y-53855771D02*
X201985714Y-53855771D01*
X201985714Y-53855771D02*
X201890476Y-53903390D01*
X201890476Y-53903390D02*
X201842857Y-53951009D01*
X201842857Y-53951009D02*
X201795238Y-54046247D01*
X172384819Y-136966666D02*
X171908628Y-137299999D01*
X172384819Y-137538094D02*
X171384819Y-137538094D01*
X171384819Y-137538094D02*
X171384819Y-137157142D01*
X171384819Y-137157142D02*
X171432438Y-137061904D01*
X171432438Y-137061904D02*
X171480057Y-137014285D01*
X171480057Y-137014285D02*
X171575295Y-136966666D01*
X171575295Y-136966666D02*
X171718152Y-136966666D01*
X171718152Y-136966666D02*
X171813390Y-137014285D01*
X171813390Y-137014285D02*
X171861009Y-137061904D01*
X171861009Y-137061904D02*
X171908628Y-137157142D01*
X171908628Y-137157142D02*
X171908628Y-137538094D01*
X172384819Y-136490475D02*
X172384819Y-136299999D01*
X172384819Y-136299999D02*
X172337200Y-136204761D01*
X172337200Y-136204761D02*
X172289580Y-136157142D01*
X172289580Y-136157142D02*
X172146723Y-136061904D01*
X172146723Y-136061904D02*
X171956247Y-136014285D01*
X171956247Y-136014285D02*
X171575295Y-136014285D01*
X171575295Y-136014285D02*
X171480057Y-136061904D01*
X171480057Y-136061904D02*
X171432438Y-136109523D01*
X171432438Y-136109523D02*
X171384819Y-136204761D01*
X171384819Y-136204761D02*
X171384819Y-136395237D01*
X171384819Y-136395237D02*
X171432438Y-136490475D01*
X171432438Y-136490475D02*
X171480057Y-136538094D01*
X171480057Y-136538094D02*
X171575295Y-136585713D01*
X171575295Y-136585713D02*
X171813390Y-136585713D01*
X171813390Y-136585713D02*
X171908628Y-136538094D01*
X171908628Y-136538094D02*
X171956247Y-136490475D01*
X171956247Y-136490475D02*
X172003866Y-136395237D01*
X172003866Y-136395237D02*
X172003866Y-136204761D01*
X172003866Y-136204761D02*
X171956247Y-136109523D01*
X171956247Y-136109523D02*
X171908628Y-136061904D01*
X171908628Y-136061904D02*
X171813390Y-136014285D01*
X166338095Y-126104819D02*
X166338095Y-126914342D01*
X166338095Y-126914342D02*
X166385714Y-127009580D01*
X166385714Y-127009580D02*
X166433333Y-127057200D01*
X166433333Y-127057200D02*
X166528571Y-127104819D01*
X166528571Y-127104819D02*
X166719047Y-127104819D01*
X166719047Y-127104819D02*
X166814285Y-127057200D01*
X166814285Y-127057200D02*
X166861904Y-127009580D01*
X166861904Y-127009580D02*
X166909523Y-126914342D01*
X166909523Y-126914342D02*
X166909523Y-126104819D01*
X167814285Y-126104819D02*
X167623809Y-126104819D01*
X167623809Y-126104819D02*
X167528571Y-126152438D01*
X167528571Y-126152438D02*
X167480952Y-126200057D01*
X167480952Y-126200057D02*
X167385714Y-126342914D01*
X167385714Y-126342914D02*
X167338095Y-126533390D01*
X167338095Y-126533390D02*
X167338095Y-126914342D01*
X167338095Y-126914342D02*
X167385714Y-127009580D01*
X167385714Y-127009580D02*
X167433333Y-127057200D01*
X167433333Y-127057200D02*
X167528571Y-127104819D01*
X167528571Y-127104819D02*
X167719047Y-127104819D01*
X167719047Y-127104819D02*
X167814285Y-127057200D01*
X167814285Y-127057200D02*
X167861904Y-127009580D01*
X167861904Y-127009580D02*
X167909523Y-126914342D01*
X167909523Y-126914342D02*
X167909523Y-126676247D01*
X167909523Y-126676247D02*
X167861904Y-126581009D01*
X167861904Y-126581009D02*
X167814285Y-126533390D01*
X167814285Y-126533390D02*
X167719047Y-126485771D01*
X167719047Y-126485771D02*
X167528571Y-126485771D01*
X167528571Y-126485771D02*
X167433333Y-126533390D01*
X167433333Y-126533390D02*
X167385714Y-126581009D01*
X167385714Y-126581009D02*
X167338095Y-126676247D01*
X163589580Y-87917857D02*
X163637200Y-87965476D01*
X163637200Y-87965476D02*
X163684819Y-88108333D01*
X163684819Y-88108333D02*
X163684819Y-88203571D01*
X163684819Y-88203571D02*
X163637200Y-88346428D01*
X163637200Y-88346428D02*
X163541961Y-88441666D01*
X163541961Y-88441666D02*
X163446723Y-88489285D01*
X163446723Y-88489285D02*
X163256247Y-88536904D01*
X163256247Y-88536904D02*
X163113390Y-88536904D01*
X163113390Y-88536904D02*
X162922914Y-88489285D01*
X162922914Y-88489285D02*
X162827676Y-88441666D01*
X162827676Y-88441666D02*
X162732438Y-88346428D01*
X162732438Y-88346428D02*
X162684819Y-88203571D01*
X162684819Y-88203571D02*
X162684819Y-88108333D01*
X162684819Y-88108333D02*
X162732438Y-87965476D01*
X162732438Y-87965476D02*
X162780057Y-87917857D01*
X162780057Y-87536904D02*
X162732438Y-87489285D01*
X162732438Y-87489285D02*
X162684819Y-87394047D01*
X162684819Y-87394047D02*
X162684819Y-87155952D01*
X162684819Y-87155952D02*
X162732438Y-87060714D01*
X162732438Y-87060714D02*
X162780057Y-87013095D01*
X162780057Y-87013095D02*
X162875295Y-86965476D01*
X162875295Y-86965476D02*
X162970533Y-86965476D01*
X162970533Y-86965476D02*
X163113390Y-87013095D01*
X163113390Y-87013095D02*
X163684819Y-87584523D01*
X163684819Y-87584523D02*
X163684819Y-86965476D01*
X162684819Y-86346428D02*
X162684819Y-86251190D01*
X162684819Y-86251190D02*
X162732438Y-86155952D01*
X162732438Y-86155952D02*
X162780057Y-86108333D01*
X162780057Y-86108333D02*
X162875295Y-86060714D01*
X162875295Y-86060714D02*
X163065771Y-86013095D01*
X163065771Y-86013095D02*
X163303866Y-86013095D01*
X163303866Y-86013095D02*
X163494342Y-86060714D01*
X163494342Y-86060714D02*
X163589580Y-86108333D01*
X163589580Y-86108333D02*
X163637200Y-86155952D01*
X163637200Y-86155952D02*
X163684819Y-86251190D01*
X163684819Y-86251190D02*
X163684819Y-86346428D01*
X163684819Y-86346428D02*
X163637200Y-86441666D01*
X163637200Y-86441666D02*
X163589580Y-86489285D01*
X163589580Y-86489285D02*
X163494342Y-86536904D01*
X163494342Y-86536904D02*
X163303866Y-86584523D01*
X163303866Y-86584523D02*
X163065771Y-86584523D01*
X163065771Y-86584523D02*
X162875295Y-86536904D01*
X162875295Y-86536904D02*
X162780057Y-86489285D01*
X162780057Y-86489285D02*
X162732438Y-86441666D01*
X162732438Y-86441666D02*
X162684819Y-86346428D01*
X183741666Y-118463509D02*
X183408333Y-118463509D01*
X183408333Y-118987319D02*
X183408333Y-117987319D01*
X183408333Y-117987319D02*
X183884523Y-117987319D01*
X184598809Y-118463509D02*
X184741666Y-118511128D01*
X184741666Y-118511128D02*
X184789285Y-118558747D01*
X184789285Y-118558747D02*
X184836904Y-118653985D01*
X184836904Y-118653985D02*
X184836904Y-118796842D01*
X184836904Y-118796842D02*
X184789285Y-118892080D01*
X184789285Y-118892080D02*
X184741666Y-118939700D01*
X184741666Y-118939700D02*
X184646428Y-118987319D01*
X184646428Y-118987319D02*
X184265476Y-118987319D01*
X184265476Y-118987319D02*
X184265476Y-117987319D01*
X184265476Y-117987319D02*
X184598809Y-117987319D01*
X184598809Y-117987319D02*
X184694047Y-118034938D01*
X184694047Y-118034938D02*
X184741666Y-118082557D01*
X184741666Y-118082557D02*
X184789285Y-118177795D01*
X184789285Y-118177795D02*
X184789285Y-118273033D01*
X184789285Y-118273033D02*
X184741666Y-118368271D01*
X184741666Y-118368271D02*
X184694047Y-118415890D01*
X184694047Y-118415890D02*
X184598809Y-118463509D01*
X184598809Y-118463509D02*
X184265476Y-118463509D01*
X185789285Y-118987319D02*
X185217857Y-118987319D01*
X185503571Y-118987319D02*
X185503571Y-117987319D01*
X185503571Y-117987319D02*
X185408333Y-118130176D01*
X185408333Y-118130176D02*
X185313095Y-118225414D01*
X185313095Y-118225414D02*
X185217857Y-118273033D01*
X119866666Y-126732319D02*
X119866666Y-127446604D01*
X119866666Y-127446604D02*
X119819047Y-127589461D01*
X119819047Y-127589461D02*
X119723809Y-127684700D01*
X119723809Y-127684700D02*
X119580952Y-127732319D01*
X119580952Y-127732319D02*
X119485714Y-127732319D01*
X120247619Y-126732319D02*
X120866666Y-126732319D01*
X120866666Y-126732319D02*
X120533333Y-127113271D01*
X120533333Y-127113271D02*
X120676190Y-127113271D01*
X120676190Y-127113271D02*
X120771428Y-127160890D01*
X120771428Y-127160890D02*
X120819047Y-127208509D01*
X120819047Y-127208509D02*
X120866666Y-127303747D01*
X120866666Y-127303747D02*
X120866666Y-127541842D01*
X120866666Y-127541842D02*
X120819047Y-127637080D01*
X120819047Y-127637080D02*
X120771428Y-127684700D01*
X120771428Y-127684700D02*
X120676190Y-127732319D01*
X120676190Y-127732319D02*
X120390476Y-127732319D01*
X120390476Y-127732319D02*
X120295238Y-127684700D01*
X120295238Y-127684700D02*
X120247619Y-127637080D01*
X176672319Y-123682857D02*
X176196128Y-124016190D01*
X176672319Y-124254285D02*
X175672319Y-124254285D01*
X175672319Y-124254285D02*
X175672319Y-123873333D01*
X175672319Y-123873333D02*
X175719938Y-123778095D01*
X175719938Y-123778095D02*
X175767557Y-123730476D01*
X175767557Y-123730476D02*
X175862795Y-123682857D01*
X175862795Y-123682857D02*
X176005652Y-123682857D01*
X176005652Y-123682857D02*
X176100890Y-123730476D01*
X176100890Y-123730476D02*
X176148509Y-123778095D01*
X176148509Y-123778095D02*
X176196128Y-123873333D01*
X176196128Y-123873333D02*
X176196128Y-124254285D01*
X176672319Y-122730476D02*
X176672319Y-123301904D01*
X176672319Y-123016190D02*
X175672319Y-123016190D01*
X175672319Y-123016190D02*
X175815176Y-123111428D01*
X175815176Y-123111428D02*
X175910414Y-123206666D01*
X175910414Y-123206666D02*
X175958033Y-123301904D01*
X176672319Y-121778095D02*
X176672319Y-122349523D01*
X176672319Y-122063809D02*
X175672319Y-122063809D01*
X175672319Y-122063809D02*
X175815176Y-122159047D01*
X175815176Y-122159047D02*
X175910414Y-122254285D01*
X175910414Y-122254285D02*
X175958033Y-122349523D01*
X152316667Y-108357200D02*
X152459524Y-108404819D01*
X152459524Y-108404819D02*
X152697619Y-108404819D01*
X152697619Y-108404819D02*
X152792857Y-108357200D01*
X152792857Y-108357200D02*
X152840476Y-108309580D01*
X152840476Y-108309580D02*
X152888095Y-108214342D01*
X152888095Y-108214342D02*
X152888095Y-108119104D01*
X152888095Y-108119104D02*
X152840476Y-108023866D01*
X152840476Y-108023866D02*
X152792857Y-107976247D01*
X152792857Y-107976247D02*
X152697619Y-107928628D01*
X152697619Y-107928628D02*
X152507143Y-107881009D01*
X152507143Y-107881009D02*
X152411905Y-107833390D01*
X152411905Y-107833390D02*
X152364286Y-107785771D01*
X152364286Y-107785771D02*
X152316667Y-107690533D01*
X152316667Y-107690533D02*
X152316667Y-107595295D01*
X152316667Y-107595295D02*
X152364286Y-107500057D01*
X152364286Y-107500057D02*
X152411905Y-107452438D01*
X152411905Y-107452438D02*
X152507143Y-107404819D01*
X152507143Y-107404819D02*
X152745238Y-107404819D01*
X152745238Y-107404819D02*
X152888095Y-107452438D01*
X153221429Y-107404819D02*
X153459524Y-108404819D01*
X153459524Y-108404819D02*
X153650000Y-107690533D01*
X153650000Y-107690533D02*
X153840476Y-108404819D01*
X153840476Y-108404819D02*
X154078572Y-107404819D01*
X154983333Y-108404819D02*
X154411905Y-108404819D01*
X154697619Y-108404819D02*
X154697619Y-107404819D01*
X154697619Y-107404819D02*
X154602381Y-107547676D01*
X154602381Y-107547676D02*
X154507143Y-107642914D01*
X154507143Y-107642914D02*
X154411905Y-107690533D01*
X160729580Y-76217857D02*
X160777200Y-76265476D01*
X160777200Y-76265476D02*
X160824819Y-76408333D01*
X160824819Y-76408333D02*
X160824819Y-76503571D01*
X160824819Y-76503571D02*
X160777200Y-76646428D01*
X160777200Y-76646428D02*
X160681961Y-76741666D01*
X160681961Y-76741666D02*
X160586723Y-76789285D01*
X160586723Y-76789285D02*
X160396247Y-76836904D01*
X160396247Y-76836904D02*
X160253390Y-76836904D01*
X160253390Y-76836904D02*
X160062914Y-76789285D01*
X160062914Y-76789285D02*
X159967676Y-76741666D01*
X159967676Y-76741666D02*
X159872438Y-76646428D01*
X159872438Y-76646428D02*
X159824819Y-76503571D01*
X159824819Y-76503571D02*
X159824819Y-76408333D01*
X159824819Y-76408333D02*
X159872438Y-76265476D01*
X159872438Y-76265476D02*
X159920057Y-76217857D01*
X160824819Y-75265476D02*
X160824819Y-75836904D01*
X160824819Y-75551190D02*
X159824819Y-75551190D01*
X159824819Y-75551190D02*
X159967676Y-75646428D01*
X159967676Y-75646428D02*
X160062914Y-75741666D01*
X160062914Y-75741666D02*
X160110533Y-75836904D01*
X160158152Y-74408333D02*
X160824819Y-74408333D01*
X159777200Y-74646428D02*
X160491485Y-74884523D01*
X160491485Y-74884523D02*
X160491485Y-74265476D01*
X190104580Y-121779166D02*
X190152200Y-121826785D01*
X190152200Y-121826785D02*
X190199819Y-121969642D01*
X190199819Y-121969642D02*
X190199819Y-122064880D01*
X190199819Y-122064880D02*
X190152200Y-122207737D01*
X190152200Y-122207737D02*
X190056961Y-122302975D01*
X190056961Y-122302975D02*
X189961723Y-122350594D01*
X189961723Y-122350594D02*
X189771247Y-122398213D01*
X189771247Y-122398213D02*
X189628390Y-122398213D01*
X189628390Y-122398213D02*
X189437914Y-122350594D01*
X189437914Y-122350594D02*
X189342676Y-122302975D01*
X189342676Y-122302975D02*
X189247438Y-122207737D01*
X189247438Y-122207737D02*
X189199819Y-122064880D01*
X189199819Y-122064880D02*
X189199819Y-121969642D01*
X189199819Y-121969642D02*
X189247438Y-121826785D01*
X189247438Y-121826785D02*
X189295057Y-121779166D01*
X189295057Y-121398213D02*
X189247438Y-121350594D01*
X189247438Y-121350594D02*
X189199819Y-121255356D01*
X189199819Y-121255356D02*
X189199819Y-121017261D01*
X189199819Y-121017261D02*
X189247438Y-120922023D01*
X189247438Y-120922023D02*
X189295057Y-120874404D01*
X189295057Y-120874404D02*
X189390295Y-120826785D01*
X189390295Y-120826785D02*
X189485533Y-120826785D01*
X189485533Y-120826785D02*
X189628390Y-120874404D01*
X189628390Y-120874404D02*
X190199819Y-121445832D01*
X190199819Y-121445832D02*
X190199819Y-120826785D01*
X186745833Y-122872080D02*
X186698214Y-122919700D01*
X186698214Y-122919700D02*
X186555357Y-122967319D01*
X186555357Y-122967319D02*
X186460119Y-122967319D01*
X186460119Y-122967319D02*
X186317262Y-122919700D01*
X186317262Y-122919700D02*
X186222024Y-122824461D01*
X186222024Y-122824461D02*
X186174405Y-122729223D01*
X186174405Y-122729223D02*
X186126786Y-122538747D01*
X186126786Y-122538747D02*
X186126786Y-122395890D01*
X186126786Y-122395890D02*
X186174405Y-122205414D01*
X186174405Y-122205414D02*
X186222024Y-122110176D01*
X186222024Y-122110176D02*
X186317262Y-122014938D01*
X186317262Y-122014938D02*
X186460119Y-121967319D01*
X186460119Y-121967319D02*
X186555357Y-121967319D01*
X186555357Y-121967319D02*
X186698214Y-122014938D01*
X186698214Y-122014938D02*
X186745833Y-122062557D01*
X187079167Y-121967319D02*
X187698214Y-121967319D01*
X187698214Y-121967319D02*
X187364881Y-122348271D01*
X187364881Y-122348271D02*
X187507738Y-122348271D01*
X187507738Y-122348271D02*
X187602976Y-122395890D01*
X187602976Y-122395890D02*
X187650595Y-122443509D01*
X187650595Y-122443509D02*
X187698214Y-122538747D01*
X187698214Y-122538747D02*
X187698214Y-122776842D01*
X187698214Y-122776842D02*
X187650595Y-122872080D01*
X187650595Y-122872080D02*
X187602976Y-122919700D01*
X187602976Y-122919700D02*
X187507738Y-122967319D01*
X187507738Y-122967319D02*
X187222024Y-122967319D01*
X187222024Y-122967319D02*
X187126786Y-122919700D01*
X187126786Y-122919700D02*
X187079167Y-122872080D01*
X117404819Y-132651904D02*
X118214342Y-132651904D01*
X118214342Y-132651904D02*
X118309580Y-132604285D01*
X118309580Y-132604285D02*
X118357200Y-132556666D01*
X118357200Y-132556666D02*
X118404819Y-132461428D01*
X118404819Y-132461428D02*
X118404819Y-132270952D01*
X118404819Y-132270952D02*
X118357200Y-132175714D01*
X118357200Y-132175714D02*
X118309580Y-132128095D01*
X118309580Y-132128095D02*
X118214342Y-132080476D01*
X118214342Y-132080476D02*
X117404819Y-132080476D01*
X118404819Y-131556666D02*
X118404819Y-131366190D01*
X118404819Y-131366190D02*
X118357200Y-131270952D01*
X118357200Y-131270952D02*
X118309580Y-131223333D01*
X118309580Y-131223333D02*
X118166723Y-131128095D01*
X118166723Y-131128095D02*
X117976247Y-131080476D01*
X117976247Y-131080476D02*
X117595295Y-131080476D01*
X117595295Y-131080476D02*
X117500057Y-131128095D01*
X117500057Y-131128095D02*
X117452438Y-131175714D01*
X117452438Y-131175714D02*
X117404819Y-131270952D01*
X117404819Y-131270952D02*
X117404819Y-131461428D01*
X117404819Y-131461428D02*
X117452438Y-131556666D01*
X117452438Y-131556666D02*
X117500057Y-131604285D01*
X117500057Y-131604285D02*
X117595295Y-131651904D01*
X117595295Y-131651904D02*
X117833390Y-131651904D01*
X117833390Y-131651904D02*
X117928628Y-131604285D01*
X117928628Y-131604285D02*
X117976247Y-131556666D01*
X117976247Y-131556666D02*
X118023866Y-131461428D01*
X118023866Y-131461428D02*
X118023866Y-131270952D01*
X118023866Y-131270952D02*
X117976247Y-131175714D01*
X117976247Y-131175714D02*
X117928628Y-131128095D01*
X117928628Y-131128095D02*
X117833390Y-131080476D01*
X193041666Y-112167319D02*
X193041666Y-112881604D01*
X193041666Y-112881604D02*
X192994047Y-113024461D01*
X192994047Y-113024461D02*
X192898809Y-113119700D01*
X192898809Y-113119700D02*
X192755952Y-113167319D01*
X192755952Y-113167319D02*
X192660714Y-113167319D01*
X193470238Y-112262557D02*
X193517857Y-112214938D01*
X193517857Y-112214938D02*
X193613095Y-112167319D01*
X193613095Y-112167319D02*
X193851190Y-112167319D01*
X193851190Y-112167319D02*
X193946428Y-112214938D01*
X193946428Y-112214938D02*
X193994047Y-112262557D01*
X193994047Y-112262557D02*
X194041666Y-112357795D01*
X194041666Y-112357795D02*
X194041666Y-112453033D01*
X194041666Y-112453033D02*
X193994047Y-112595890D01*
X193994047Y-112595890D02*
X193422619Y-113167319D01*
X193422619Y-113167319D02*
X194041666Y-113167319D01*
X201251666Y-67424819D02*
X201251666Y-68139104D01*
X201251666Y-68139104D02*
X201204047Y-68281961D01*
X201204047Y-68281961D02*
X201108809Y-68377200D01*
X201108809Y-68377200D02*
X200965952Y-68424819D01*
X200965952Y-68424819D02*
X200870714Y-68424819D01*
X202156428Y-67758152D02*
X202156428Y-68424819D01*
X201918333Y-67377200D02*
X201680238Y-68091485D01*
X201680238Y-68091485D02*
X202299285Y-68091485D01*
X153257142Y-84804580D02*
X153209523Y-84852200D01*
X153209523Y-84852200D02*
X153066666Y-84899819D01*
X153066666Y-84899819D02*
X152971428Y-84899819D01*
X152971428Y-84899819D02*
X152828571Y-84852200D01*
X152828571Y-84852200D02*
X152733333Y-84756961D01*
X152733333Y-84756961D02*
X152685714Y-84661723D01*
X152685714Y-84661723D02*
X152638095Y-84471247D01*
X152638095Y-84471247D02*
X152638095Y-84328390D01*
X152638095Y-84328390D02*
X152685714Y-84137914D01*
X152685714Y-84137914D02*
X152733333Y-84042676D01*
X152733333Y-84042676D02*
X152828571Y-83947438D01*
X152828571Y-83947438D02*
X152971428Y-83899819D01*
X152971428Y-83899819D02*
X153066666Y-83899819D01*
X153066666Y-83899819D02*
X153209523Y-83947438D01*
X153209523Y-83947438D02*
X153257142Y-83995057D01*
X154209523Y-84899819D02*
X153638095Y-84899819D01*
X153923809Y-84899819D02*
X153923809Y-83899819D01*
X153923809Y-83899819D02*
X153828571Y-84042676D01*
X153828571Y-84042676D02*
X153733333Y-84137914D01*
X153733333Y-84137914D02*
X153638095Y-84185533D01*
X154828571Y-83899819D02*
X154923809Y-83899819D01*
X154923809Y-83899819D02*
X155019047Y-83947438D01*
X155019047Y-83947438D02*
X155066666Y-83995057D01*
X155066666Y-83995057D02*
X155114285Y-84090295D01*
X155114285Y-84090295D02*
X155161904Y-84280771D01*
X155161904Y-84280771D02*
X155161904Y-84518866D01*
X155161904Y-84518866D02*
X155114285Y-84709342D01*
X155114285Y-84709342D02*
X155066666Y-84804580D01*
X155066666Y-84804580D02*
X155019047Y-84852200D01*
X155019047Y-84852200D02*
X154923809Y-84899819D01*
X154923809Y-84899819D02*
X154828571Y-84899819D01*
X154828571Y-84899819D02*
X154733333Y-84852200D01*
X154733333Y-84852200D02*
X154685714Y-84804580D01*
X154685714Y-84804580D02*
X154638095Y-84709342D01*
X154638095Y-84709342D02*
X154590476Y-84518866D01*
X154590476Y-84518866D02*
X154590476Y-84280771D01*
X154590476Y-84280771D02*
X154638095Y-84090295D01*
X154638095Y-84090295D02*
X154685714Y-83995057D01*
X154685714Y-83995057D02*
X154733333Y-83947438D01*
X154733333Y-83947438D02*
X154828571Y-83899819D01*
X174524819Y-134542857D02*
X174048628Y-134876190D01*
X174524819Y-135114285D02*
X173524819Y-135114285D01*
X173524819Y-135114285D02*
X173524819Y-134733333D01*
X173524819Y-134733333D02*
X173572438Y-134638095D01*
X173572438Y-134638095D02*
X173620057Y-134590476D01*
X173620057Y-134590476D02*
X173715295Y-134542857D01*
X173715295Y-134542857D02*
X173858152Y-134542857D01*
X173858152Y-134542857D02*
X173953390Y-134590476D01*
X173953390Y-134590476D02*
X174001009Y-134638095D01*
X174001009Y-134638095D02*
X174048628Y-134733333D01*
X174048628Y-134733333D02*
X174048628Y-135114285D01*
X174524819Y-133590476D02*
X174524819Y-134161904D01*
X174524819Y-133876190D02*
X173524819Y-133876190D01*
X173524819Y-133876190D02*
X173667676Y-133971428D01*
X173667676Y-133971428D02*
X173762914Y-134066666D01*
X173762914Y-134066666D02*
X173810533Y-134161904D01*
X173524819Y-132971428D02*
X173524819Y-132876190D01*
X173524819Y-132876190D02*
X173572438Y-132780952D01*
X173572438Y-132780952D02*
X173620057Y-132733333D01*
X173620057Y-132733333D02*
X173715295Y-132685714D01*
X173715295Y-132685714D02*
X173905771Y-132638095D01*
X173905771Y-132638095D02*
X174143866Y-132638095D01*
X174143866Y-132638095D02*
X174334342Y-132685714D01*
X174334342Y-132685714D02*
X174429580Y-132733333D01*
X174429580Y-132733333D02*
X174477200Y-132780952D01*
X174477200Y-132780952D02*
X174524819Y-132876190D01*
X174524819Y-132876190D02*
X174524819Y-132971428D01*
X174524819Y-132971428D02*
X174477200Y-133066666D01*
X174477200Y-133066666D02*
X174429580Y-133114285D01*
X174429580Y-133114285D02*
X174334342Y-133161904D01*
X174334342Y-133161904D02*
X174143866Y-133209523D01*
X174143866Y-133209523D02*
X173905771Y-133209523D01*
X173905771Y-133209523D02*
X173715295Y-133161904D01*
X173715295Y-133161904D02*
X173620057Y-133114285D01*
X173620057Y-133114285D02*
X173572438Y-133066666D01*
X173572438Y-133066666D02*
X173524819Y-132971428D01*
X158229580Y-91666666D02*
X158277200Y-91714285D01*
X158277200Y-91714285D02*
X158324819Y-91857142D01*
X158324819Y-91857142D02*
X158324819Y-91952380D01*
X158324819Y-91952380D02*
X158277200Y-92095237D01*
X158277200Y-92095237D02*
X158181961Y-92190475D01*
X158181961Y-92190475D02*
X158086723Y-92238094D01*
X158086723Y-92238094D02*
X157896247Y-92285713D01*
X157896247Y-92285713D02*
X157753390Y-92285713D01*
X157753390Y-92285713D02*
X157562914Y-92238094D01*
X157562914Y-92238094D02*
X157467676Y-92190475D01*
X157467676Y-92190475D02*
X157372438Y-92095237D01*
X157372438Y-92095237D02*
X157324819Y-91952380D01*
X157324819Y-91952380D02*
X157324819Y-91857142D01*
X157324819Y-91857142D02*
X157372438Y-91714285D01*
X157372438Y-91714285D02*
X157420057Y-91666666D01*
X158324819Y-91190475D02*
X158324819Y-90999999D01*
X158324819Y-90999999D02*
X158277200Y-90904761D01*
X158277200Y-90904761D02*
X158229580Y-90857142D01*
X158229580Y-90857142D02*
X158086723Y-90761904D01*
X158086723Y-90761904D02*
X157896247Y-90714285D01*
X157896247Y-90714285D02*
X157515295Y-90714285D01*
X157515295Y-90714285D02*
X157420057Y-90761904D01*
X157420057Y-90761904D02*
X157372438Y-90809523D01*
X157372438Y-90809523D02*
X157324819Y-90904761D01*
X157324819Y-90904761D02*
X157324819Y-91095237D01*
X157324819Y-91095237D02*
X157372438Y-91190475D01*
X157372438Y-91190475D02*
X157420057Y-91238094D01*
X157420057Y-91238094D02*
X157515295Y-91285713D01*
X157515295Y-91285713D02*
X157753390Y-91285713D01*
X157753390Y-91285713D02*
X157848628Y-91238094D01*
X157848628Y-91238094D02*
X157896247Y-91190475D01*
X157896247Y-91190475D02*
X157943866Y-91095237D01*
X157943866Y-91095237D02*
X157943866Y-90904761D01*
X157943866Y-90904761D02*
X157896247Y-90809523D01*
X157896247Y-90809523D02*
X157848628Y-90761904D01*
X157848628Y-90761904D02*
X157753390Y-90714285D01*
X154257142Y-73859580D02*
X154209523Y-73907200D01*
X154209523Y-73907200D02*
X154066666Y-73954819D01*
X154066666Y-73954819D02*
X153971428Y-73954819D01*
X153971428Y-73954819D02*
X153828571Y-73907200D01*
X153828571Y-73907200D02*
X153733333Y-73811961D01*
X153733333Y-73811961D02*
X153685714Y-73716723D01*
X153685714Y-73716723D02*
X153638095Y-73526247D01*
X153638095Y-73526247D02*
X153638095Y-73383390D01*
X153638095Y-73383390D02*
X153685714Y-73192914D01*
X153685714Y-73192914D02*
X153733333Y-73097676D01*
X153733333Y-73097676D02*
X153828571Y-73002438D01*
X153828571Y-73002438D02*
X153971428Y-72954819D01*
X153971428Y-72954819D02*
X154066666Y-72954819D01*
X154066666Y-72954819D02*
X154209523Y-73002438D01*
X154209523Y-73002438D02*
X154257142Y-73050057D01*
X155209523Y-73954819D02*
X154638095Y-73954819D01*
X154923809Y-73954819D02*
X154923809Y-72954819D01*
X154923809Y-72954819D02*
X154828571Y-73097676D01*
X154828571Y-73097676D02*
X154733333Y-73192914D01*
X154733333Y-73192914D02*
X154638095Y-73240533D01*
X155542857Y-72954819D02*
X156209523Y-72954819D01*
X156209523Y-72954819D02*
X155780952Y-73954819D01*
X151657142Y-73759580D02*
X151609523Y-73807200D01*
X151609523Y-73807200D02*
X151466666Y-73854819D01*
X151466666Y-73854819D02*
X151371428Y-73854819D01*
X151371428Y-73854819D02*
X151228571Y-73807200D01*
X151228571Y-73807200D02*
X151133333Y-73711961D01*
X151133333Y-73711961D02*
X151085714Y-73616723D01*
X151085714Y-73616723D02*
X151038095Y-73426247D01*
X151038095Y-73426247D02*
X151038095Y-73283390D01*
X151038095Y-73283390D02*
X151085714Y-73092914D01*
X151085714Y-73092914D02*
X151133333Y-72997676D01*
X151133333Y-72997676D02*
X151228571Y-72902438D01*
X151228571Y-72902438D02*
X151371428Y-72854819D01*
X151371428Y-72854819D02*
X151466666Y-72854819D01*
X151466666Y-72854819D02*
X151609523Y-72902438D01*
X151609523Y-72902438D02*
X151657142Y-72950057D01*
X152609523Y-73854819D02*
X152038095Y-73854819D01*
X152323809Y-73854819D02*
X152323809Y-72854819D01*
X152323809Y-72854819D02*
X152228571Y-72997676D01*
X152228571Y-72997676D02*
X152133333Y-73092914D01*
X152133333Y-73092914D02*
X152038095Y-73140533D01*
X153466666Y-72854819D02*
X153276190Y-72854819D01*
X153276190Y-72854819D02*
X153180952Y-72902438D01*
X153180952Y-72902438D02*
X153133333Y-72950057D01*
X153133333Y-72950057D02*
X153038095Y-73092914D01*
X153038095Y-73092914D02*
X152990476Y-73283390D01*
X152990476Y-73283390D02*
X152990476Y-73664342D01*
X152990476Y-73664342D02*
X153038095Y-73759580D01*
X153038095Y-73759580D02*
X153085714Y-73807200D01*
X153085714Y-73807200D02*
X153180952Y-73854819D01*
X153180952Y-73854819D02*
X153371428Y-73854819D01*
X153371428Y-73854819D02*
X153466666Y-73807200D01*
X153466666Y-73807200D02*
X153514285Y-73759580D01*
X153514285Y-73759580D02*
X153561904Y-73664342D01*
X153561904Y-73664342D02*
X153561904Y-73426247D01*
X153561904Y-73426247D02*
X153514285Y-73331009D01*
X153514285Y-73331009D02*
X153466666Y-73283390D01*
X153466666Y-73283390D02*
X153371428Y-73235771D01*
X153371428Y-73235771D02*
X153180952Y-73235771D01*
X153180952Y-73235771D02*
X153085714Y-73283390D01*
X153085714Y-73283390D02*
X153038095Y-73331009D01*
X153038095Y-73331009D02*
X152990476Y-73426247D01*
X147444819Y-71521904D02*
X148254342Y-71521904D01*
X148254342Y-71521904D02*
X148349580Y-71474285D01*
X148349580Y-71474285D02*
X148397200Y-71426666D01*
X148397200Y-71426666D02*
X148444819Y-71331428D01*
X148444819Y-71331428D02*
X148444819Y-71140952D01*
X148444819Y-71140952D02*
X148397200Y-71045714D01*
X148397200Y-71045714D02*
X148349580Y-70998095D01*
X148349580Y-70998095D02*
X148254342Y-70950476D01*
X148254342Y-70950476D02*
X147444819Y-70950476D01*
X147540057Y-70521904D02*
X147492438Y-70474285D01*
X147492438Y-70474285D02*
X147444819Y-70379047D01*
X147444819Y-70379047D02*
X147444819Y-70140952D01*
X147444819Y-70140952D02*
X147492438Y-70045714D01*
X147492438Y-70045714D02*
X147540057Y-69998095D01*
X147540057Y-69998095D02*
X147635295Y-69950476D01*
X147635295Y-69950476D02*
X147730533Y-69950476D01*
X147730533Y-69950476D02*
X147873390Y-69998095D01*
X147873390Y-69998095D02*
X148444819Y-70569523D01*
X148444819Y-70569523D02*
X148444819Y-69950476D01*
X153266667Y-93424818D02*
X153409524Y-93472437D01*
X153409524Y-93472437D02*
X153647619Y-93472437D01*
X153647619Y-93472437D02*
X153742857Y-93424818D01*
X153742857Y-93424818D02*
X153790476Y-93377198D01*
X153790476Y-93377198D02*
X153838095Y-93281960D01*
X153838095Y-93281960D02*
X153838095Y-93186722D01*
X153838095Y-93186722D02*
X153790476Y-93091484D01*
X153790476Y-93091484D02*
X153742857Y-93043865D01*
X153742857Y-93043865D02*
X153647619Y-92996246D01*
X153647619Y-92996246D02*
X153457143Y-92948627D01*
X153457143Y-92948627D02*
X153361905Y-92901008D01*
X153361905Y-92901008D02*
X153314286Y-92853389D01*
X153314286Y-92853389D02*
X153266667Y-92758151D01*
X153266667Y-92758151D02*
X153266667Y-92662913D01*
X153266667Y-92662913D02*
X153314286Y-92567675D01*
X153314286Y-92567675D02*
X153361905Y-92520056D01*
X153361905Y-92520056D02*
X153457143Y-92472437D01*
X153457143Y-92472437D02*
X153695238Y-92472437D01*
X153695238Y-92472437D02*
X153838095Y-92520056D01*
X154171429Y-92472437D02*
X154409524Y-93472437D01*
X154409524Y-93472437D02*
X154600000Y-92758151D01*
X154600000Y-92758151D02*
X154790476Y-93472437D01*
X154790476Y-93472437D02*
X155028572Y-92472437D01*
X155361905Y-92567675D02*
X155409524Y-92520056D01*
X155409524Y-92520056D02*
X155504762Y-92472437D01*
X155504762Y-92472437D02*
X155742857Y-92472437D01*
X155742857Y-92472437D02*
X155838095Y-92520056D01*
X155838095Y-92520056D02*
X155885714Y-92567675D01*
X155885714Y-92567675D02*
X155933333Y-92662913D01*
X155933333Y-92662913D02*
X155933333Y-92758151D01*
X155933333Y-92758151D02*
X155885714Y-92901008D01*
X155885714Y-92901008D02*
X155314286Y-93472437D01*
X155314286Y-93472437D02*
X155933333Y-93472437D01*
X186866667Y-118757200D02*
X187009524Y-118804819D01*
X187009524Y-118804819D02*
X187247619Y-118804819D01*
X187247619Y-118804819D02*
X187342857Y-118757200D01*
X187342857Y-118757200D02*
X187390476Y-118709580D01*
X187390476Y-118709580D02*
X187438095Y-118614342D01*
X187438095Y-118614342D02*
X187438095Y-118519104D01*
X187438095Y-118519104D02*
X187390476Y-118423866D01*
X187390476Y-118423866D02*
X187342857Y-118376247D01*
X187342857Y-118376247D02*
X187247619Y-118328628D01*
X187247619Y-118328628D02*
X187057143Y-118281009D01*
X187057143Y-118281009D02*
X186961905Y-118233390D01*
X186961905Y-118233390D02*
X186914286Y-118185771D01*
X186914286Y-118185771D02*
X186866667Y-118090533D01*
X186866667Y-118090533D02*
X186866667Y-117995295D01*
X186866667Y-117995295D02*
X186914286Y-117900057D01*
X186914286Y-117900057D02*
X186961905Y-117852438D01*
X186961905Y-117852438D02*
X187057143Y-117804819D01*
X187057143Y-117804819D02*
X187295238Y-117804819D01*
X187295238Y-117804819D02*
X187438095Y-117852438D01*
X187771429Y-117804819D02*
X188009524Y-118804819D01*
X188009524Y-118804819D02*
X188200000Y-118090533D01*
X188200000Y-118090533D02*
X188390476Y-118804819D01*
X188390476Y-118804819D02*
X188628572Y-117804819D01*
X189438095Y-117804819D02*
X189247619Y-117804819D01*
X189247619Y-117804819D02*
X189152381Y-117852438D01*
X189152381Y-117852438D02*
X189104762Y-117900057D01*
X189104762Y-117900057D02*
X189009524Y-118042914D01*
X189009524Y-118042914D02*
X188961905Y-118233390D01*
X188961905Y-118233390D02*
X188961905Y-118614342D01*
X188961905Y-118614342D02*
X189009524Y-118709580D01*
X189009524Y-118709580D02*
X189057143Y-118757200D01*
X189057143Y-118757200D02*
X189152381Y-118804819D01*
X189152381Y-118804819D02*
X189342857Y-118804819D01*
X189342857Y-118804819D02*
X189438095Y-118757200D01*
X189438095Y-118757200D02*
X189485714Y-118709580D01*
X189485714Y-118709580D02*
X189533333Y-118614342D01*
X189533333Y-118614342D02*
X189533333Y-118376247D01*
X189533333Y-118376247D02*
X189485714Y-118281009D01*
X189485714Y-118281009D02*
X189438095Y-118233390D01*
X189438095Y-118233390D02*
X189342857Y-118185771D01*
X189342857Y-118185771D02*
X189152381Y-118185771D01*
X189152381Y-118185771D02*
X189057143Y-118233390D01*
X189057143Y-118233390D02*
X189009524Y-118281009D01*
X189009524Y-118281009D02*
X188961905Y-118376247D01*
D11*
%TO.C,U4*%
X194140000Y-127177500D02*
X193810000Y-126937500D01*
X194140000Y-126697500D01*
X194140000Y-127177500D01*
G36*
X194140000Y-127177500D02*
G01*
X193810000Y-126937500D01*
X194140000Y-126697500D01*
X194140000Y-127177500D01*
G37*
X193310000Y-128047500D02*
X192585000Y-128047500D01*
X193310000Y-127322500D02*
X193310000Y-128047500D01*
X193310000Y-123827500D02*
X193310000Y-124552500D01*
X192585000Y-123827500D02*
X193310000Y-123827500D01*
X189815000Y-128047500D02*
X189090000Y-128047500D01*
X189090000Y-128047500D02*
X189090000Y-127322500D01*
X189090000Y-124552500D02*
X189090000Y-123827500D01*
X189090000Y-123827500D02*
X189815000Y-123827500D01*
%TO.C,R6*%
X121577500Y-136432776D02*
X121577500Y-136942224D01*
X122622500Y-136432776D02*
X122622500Y-136942224D01*
%TO.C,R2*%
X181152500Y-126407776D02*
X181152500Y-126917224D01*
X182197500Y-126407776D02*
X182197500Y-126917224D01*
%TO.C,SW3*%
X167132382Y-108200000D02*
X167132382Y-112600000D01*
X168632382Y-108200000D02*
X168732382Y-108200000D01*
X168632382Y-112600000D02*
X168732382Y-112600000D01*
X170232382Y-112600000D02*
X170232382Y-108200000D01*
%TO.C,R16*%
X168977500Y-105657776D02*
X168977500Y-106167224D01*
X170022500Y-105657776D02*
X170022500Y-106167224D01*
%TO.C,R7*%
X162045276Y-128977500D02*
X162554724Y-128977500D01*
X162045276Y-130022500D02*
X162554724Y-130022500D01*
%TO.C,R19*%
X155877500Y-88354724D02*
X155877500Y-87845276D01*
X156922500Y-88354724D02*
X156922500Y-87845276D01*
%TO.C,SW5*%
X137067618Y-108200000D02*
X137067618Y-112600000D01*
X138667618Y-108200000D02*
X138567618Y-108200000D01*
X138667618Y-112600000D02*
X138567618Y-112600000D01*
X140167618Y-112600000D02*
X140167618Y-108200000D01*
%TO.C,U8*%
X164990000Y-135452500D02*
X165040000Y-135452500D01*
X164990000Y-137272500D02*
X164990000Y-135452500D01*
X165040000Y-137272500D02*
X164990000Y-137272500D01*
X168060000Y-135452500D02*
X168110000Y-135452500D01*
X168110000Y-135452500D02*
X168110000Y-137272500D01*
X168110000Y-137272500D02*
X168060000Y-137272500D01*
X165040000Y-137812500D02*
X164710000Y-138052500D01*
X164710000Y-137572500D01*
X165040000Y-137812500D01*
G36*
X165040000Y-137812500D02*
G01*
X164710000Y-138052500D01*
X164710000Y-137572500D01*
X165040000Y-137812500D01*
G37*
%TO.C,J7*%
X140450000Y-130140000D02*
X140450000Y-133750000D01*
X140450000Y-135450000D02*
X140450000Y-140150000D01*
X140450000Y-141450000D02*
X140450000Y-143250000D01*
X140900000Y-130140000D02*
X140450000Y-130140000D01*
X141480000Y-146410000D02*
X141280000Y-146210000D01*
X141480000Y-146410000D02*
X143340000Y-146410000D01*
X143340000Y-146410000D02*
X143550000Y-146210000D01*
X143550000Y-146060000D02*
X143550000Y-146210000D01*
X143550000Y-146060000D02*
X149920000Y-146060000D01*
X150430000Y-146410000D02*
X149920000Y-146060000D01*
X152500000Y-130140000D02*
X154420000Y-130140000D01*
X152740000Y-146410000D02*
X150430000Y-146410000D01*
X152740000Y-146410000D02*
X152940000Y-146210000D01*
X152940000Y-146210000D02*
X153200000Y-146210000D01*
X154420000Y-130140000D02*
X154420000Y-144150000D01*
%TO.C,C11*%
X165690000Y-75428733D02*
X165690000Y-75721267D01*
X166710000Y-75428733D02*
X166710000Y-75721267D01*
%TO.C,C4*%
X186728733Y-126502500D02*
X187021267Y-126502500D01*
X186728733Y-127522500D02*
X187021267Y-127522500D01*
%TO.C,R5*%
X112977500Y-135935276D02*
X112977500Y-136444724D01*
X114022500Y-135935276D02*
X114022500Y-136444724D01*
%TO.C,R1*%
X188552500Y-130667224D02*
X188552500Y-130157776D01*
X189597500Y-130667224D02*
X189597500Y-130157776D01*
%TO.C,C13*%
X150790000Y-88928733D02*
X150790000Y-89221267D01*
X151810000Y-88928733D02*
X151810000Y-89221267D01*
%TO.C,Q1*%
X178040000Y-132240000D02*
X179560000Y-132240000D01*
X178040000Y-132290000D02*
X178040000Y-132240000D01*
X178040000Y-134190000D02*
X178040000Y-133410000D01*
X178040000Y-135360000D02*
X178040000Y-135310000D01*
X179560000Y-132240000D02*
X179560000Y-133240000D01*
X179560000Y-134360000D02*
X179560000Y-135360000D01*
X179560000Y-135360000D02*
X178040000Y-135360000D01*
X177740000Y-133750000D02*
X177260000Y-133750000D01*
X177500000Y-133420000D01*
X177740000Y-133750000D01*
G36*
X177740000Y-133750000D02*
G01*
X177260000Y-133750000D01*
X177500000Y-133420000D01*
X177740000Y-133750000D01*
G37*
%TO.C,R13*%
X175477500Y-128867224D02*
X175477500Y-128357776D01*
X176522500Y-128867224D02*
X176522500Y-128357776D01*
%TO.C,J1*%
X161710000Y-143175000D02*
X161710000Y-141475000D01*
X171050000Y-143175000D02*
X171050000Y-141475000D01*
%TO.C,R12*%
X177177500Y-128257776D02*
X177177500Y-128767224D01*
X178222500Y-128257776D02*
X178222500Y-128767224D01*
%TO.C,C15*%
X150290000Y-78146267D02*
X150290000Y-77853733D01*
X151310000Y-78146267D02*
X151310000Y-77853733D01*
%TO.C,C19*%
X165390000Y-87028733D02*
X165390000Y-87321267D01*
X166410000Y-87028733D02*
X166410000Y-87321267D01*
%TO.C,C5*%
X171891233Y-127290000D02*
X172183767Y-127290000D01*
X171891233Y-128310000D02*
X172183767Y-128310000D01*
%TO.C,R4*%
X118677500Y-136532776D02*
X118677500Y-137042224D01*
X119722500Y-136532776D02*
X119722500Y-137042224D01*
%TO.C,C18*%
X162990000Y-87421267D02*
X162990000Y-87128733D01*
X164010000Y-87421267D02*
X164010000Y-87128733D01*
%TO.C,U1*%
D12*
X102685000Y-80700000D02*
X102685000Y-94700000D01*
X107885000Y-80700000D02*
X107885000Y-94700000D01*
X124685000Y-80700000D02*
X102685000Y-80700000D01*
X124685000Y-80700000D02*
X124685000Y-94700000D01*
X124685000Y-94700000D02*
X102685000Y-94700000D01*
%TO.C,C8*%
D11*
X156090000Y-91546267D02*
X156090000Y-91253733D01*
X157110000Y-91546267D02*
X157110000Y-91253733D01*
%TO.C,SW4*%
X151450000Y-125382382D02*
X151450000Y-125482382D01*
X151450000Y-126982382D02*
X155850000Y-126982382D01*
X155850000Y-123882382D02*
X151450000Y-123882382D01*
X155850000Y-125382382D02*
X155850000Y-125482382D01*
%TO.C,R18*%
X148845276Y-108977500D02*
X149354724Y-108977500D01*
X148845276Y-110022500D02*
X149354724Y-110022500D01*
%TO.C,R17*%
X148945276Y-93877500D02*
X149454724Y-93877500D01*
X148945276Y-94922500D02*
X149454724Y-94922500D01*
%TO.C,SW7*%
X194800000Y-114850000D02*
X194800000Y-114750000D01*
X194800000Y-116350000D02*
X199200000Y-116350000D01*
X199200000Y-113250000D02*
X194800000Y-113250000D01*
X199200000Y-114850000D02*
X199200000Y-114750000D01*
%TO.C,Q2*%
X175040000Y-118040000D02*
X176560000Y-118040000D01*
X175040000Y-118090000D02*
X175040000Y-118040000D01*
X175040000Y-119990000D02*
X175040000Y-119210000D01*
X175040000Y-121160000D02*
X175040000Y-121110000D01*
X176560000Y-118040000D02*
X176560000Y-119040000D01*
X176560000Y-120160000D02*
X176560000Y-121160000D01*
X176560000Y-121160000D02*
X175040000Y-121160000D01*
X174740000Y-119550000D02*
X174260000Y-119550000D01*
X174500000Y-119220000D01*
X174740000Y-119550000D01*
G36*
X174740000Y-119550000D02*
G01*
X174260000Y-119550000D01*
X174500000Y-119220000D01*
X174740000Y-119550000D01*
G37*
%TO.C,R15*%
X158554724Y-125677500D02*
X158045276Y-125677500D01*
X158554724Y-126722500D02*
X158045276Y-126722500D01*
%TO.C,R20*%
X157477500Y-88354724D02*
X157477500Y-87845276D01*
X158522500Y-88354724D02*
X158522500Y-87845276D01*
%TO.C,R3*%
X115777500Y-136035276D02*
X115777500Y-136544724D01*
X116822500Y-136035276D02*
X116822500Y-136544724D01*
%TO.C,R8*%
X162577500Y-136954724D02*
X162577500Y-136445276D01*
X163622500Y-136954724D02*
X163622500Y-136445276D01*
%TO.C,C7*%
X193191233Y-55390000D02*
X193483767Y-55390000D01*
X193191233Y-56410000D02*
X193483767Y-56410000D01*
%TO.C,C6*%
X171853733Y-128890000D02*
X172146267Y-128890000D01*
X171853733Y-129910000D02*
X172146267Y-129910000D01*
%TO.C,C1*%
X191265000Y-130358767D02*
X191265000Y-130066233D01*
X192285000Y-130358767D02*
X192285000Y-130066233D01*
%TO.C,U5*%
X180665000Y-124287500D02*
X180665000Y-121287500D01*
X183885000Y-124287500D02*
X183885000Y-121287500D01*
X180915000Y-125107500D02*
X180435000Y-124627500D01*
X180915000Y-124627500D01*
X180915000Y-125107500D01*
G36*
X180915000Y-125107500D02*
G01*
X180435000Y-124627500D01*
X180915000Y-124627500D01*
X180915000Y-125107500D01*
G37*
%TO.C,U3*%
X152965000Y-78927500D02*
X153240000Y-78927500D01*
X152965000Y-83547500D02*
X152965000Y-78927500D01*
X153240000Y-83547500D02*
X152965000Y-83547500D01*
X162610000Y-78927500D02*
X162885000Y-78927500D01*
X162885000Y-78927500D02*
X162885000Y-83547500D01*
X162885000Y-83547500D02*
X162610000Y-83547500D01*
X153235000Y-84187500D02*
X152765000Y-84527500D01*
X152765000Y-83847500D01*
X153235000Y-84187500D01*
G36*
X153235000Y-84187500D02*
G01*
X152765000Y-84527500D01*
X152765000Y-83847500D01*
X153235000Y-84187500D01*
G37*
%TO.C,R14*%
X137077500Y-105645276D02*
X137077500Y-106154724D01*
X138122500Y-105645276D02*
X138122500Y-106154724D01*
%TO.C,C12*%
X162990000Y-75528733D02*
X162990000Y-75821267D01*
X164010000Y-75528733D02*
X164010000Y-75821267D01*
%TO.C,R21*%
X155277500Y-75320276D02*
X155277500Y-75829724D01*
X156322500Y-75320276D02*
X156322500Y-75829724D01*
%TO.C,J6*%
X196045000Y-55020000D02*
X197315000Y-55020000D01*
X196045000Y-56290000D02*
X196045000Y-55020000D01*
X198392358Y-58400000D02*
X198705000Y-58400000D01*
X198392358Y-59260000D02*
X198705000Y-59260000D01*
X198392358Y-60940000D02*
X198705000Y-60940000D01*
X198392358Y-61800000D02*
X198705000Y-61800000D01*
X198392358Y-63480000D02*
X198705000Y-63480000D01*
X198392358Y-64340000D02*
X198705000Y-64340000D01*
X198475000Y-55860000D02*
X198705000Y-55860000D01*
X198475000Y-56720000D02*
X198705000Y-56720000D01*
X198705000Y-57560000D02*
X201465000Y-57560000D01*
X198705000Y-60100000D02*
X201465000Y-60100000D01*
X198705000Y-62640000D02*
X201465000Y-62640000D01*
X201465000Y-58400000D02*
X207465000Y-58400000D01*
X201465000Y-60940000D02*
X207465000Y-60940000D01*
X201465000Y-63480000D02*
X207465000Y-63480000D01*
X207465000Y-58400000D02*
X207465000Y-59260000D01*
X207465000Y-59260000D02*
X201465000Y-59260000D01*
X207465000Y-60940000D02*
X207465000Y-61800000D01*
X207465000Y-61800000D02*
X201465000Y-61800000D01*
X207465000Y-63480000D02*
X207465000Y-64340000D01*
X207465000Y-64340000D02*
X201465000Y-64340000D01*
X198705000Y-54910000D02*
X201465000Y-54910000D01*
X201465000Y-65290000D01*
X198705000Y-65290000D01*
X198705000Y-54910000D01*
X201465000Y-55860000D02*
X207465000Y-55860000D01*
X207465000Y-56720000D01*
X201465000Y-56720000D01*
X201465000Y-55860000D01*
G36*
X201465000Y-55860000D02*
G01*
X207465000Y-55860000D01*
X207465000Y-56720000D01*
X201465000Y-56720000D01*
X201465000Y-55860000D01*
G37*
%TO.C,R9*%
X169977500Y-136545276D02*
X169977500Y-137054724D01*
X171022500Y-136545276D02*
X171022500Y-137054724D01*
%TO.C,U6*%
X165490000Y-127490000D02*
X168710000Y-127490000D01*
X165490000Y-127665000D02*
X165490000Y-127490000D01*
X165490000Y-130710000D02*
X165490000Y-130535000D01*
X168710000Y-127490000D02*
X168710000Y-127665000D01*
X168710000Y-130535000D02*
X168710000Y-130710000D01*
X168710000Y-130710000D02*
X165490000Y-130710000D01*
X164940000Y-127660000D02*
X164700000Y-127330000D01*
X165180000Y-127330000D01*
X164940000Y-127660000D01*
G36*
X164940000Y-127660000D02*
G01*
X164700000Y-127330000D01*
X165180000Y-127330000D01*
X164940000Y-127660000D01*
G37*
%TO.C,C20*%
X161290000Y-87128733D02*
X161290000Y-87421267D01*
X162310000Y-87128733D02*
X162310000Y-87421267D01*
%TO.C,FB1*%
X184320276Y-119440000D02*
X184829724Y-119440000D01*
X184320276Y-120485000D02*
X184829724Y-120485000D01*
%TO.C,J3*%
X113530000Y-143090000D02*
X113530000Y-141390000D01*
X122870000Y-143090000D02*
X122870000Y-141390000D01*
%TO.C,R11*%
X174265000Y-122785276D02*
X174265000Y-123294724D01*
X175310000Y-122785276D02*
X175310000Y-123294724D01*
%TO.C,SW1*%
X151450000Y-110450000D02*
X151450000Y-110350000D01*
X151450000Y-111950000D02*
X155850000Y-111950000D01*
X155850000Y-108850000D02*
X151450000Y-108850000D01*
X155850000Y-110450000D02*
X155850000Y-110350000D01*
%TO.C,C14*%
X161290000Y-75721267D02*
X161290000Y-75428733D01*
X162310000Y-75721267D02*
X162310000Y-75428733D01*
%TO.C,C2*%
X190665000Y-121758767D02*
X190665000Y-121466233D01*
X191685000Y-121758767D02*
X191685000Y-121466233D01*
%TO.C,C3*%
X187058767Y-123702500D02*
X186766233Y-123702500D01*
X187058767Y-124722500D02*
X186766233Y-124722500D01*
%TO.C,U9*%
X121910000Y-132800000D02*
X121860000Y-132800000D01*
X121910000Y-130980000D02*
X121910000Y-132800000D01*
X121860000Y-130980000D02*
X121910000Y-130980000D01*
X118840000Y-132800000D02*
X118790000Y-132800000D01*
X118790000Y-132800000D02*
X118790000Y-130980000D01*
X118790000Y-130980000D02*
X118840000Y-130980000D01*
X118840000Y-133340000D02*
X118510000Y-133580000D01*
X118510000Y-133100000D01*
X118840000Y-133340000D01*
G36*
X118840000Y-133340000D02*
G01*
X118510000Y-133580000D01*
X118510000Y-133100000D01*
X118840000Y-133340000D01*
G37*
%TO.C,J2*%
X189615000Y-102752500D02*
X189615000Y-110572500D01*
X189615000Y-108972500D02*
X190535000Y-108972500D01*
X189615000Y-110572500D02*
X190535000Y-110572500D01*
X190535000Y-108972500D02*
X190815000Y-108972500D01*
X190535000Y-110572500D02*
X190535000Y-108972500D01*
X192175000Y-107112500D02*
X192175000Y-102752500D01*
X193175000Y-102752500D02*
X193175000Y-107112500D01*
X193175000Y-107112500D02*
X192175000Y-107112500D01*
X193975000Y-105012500D02*
X193975000Y-102752500D01*
X194475000Y-105012500D02*
X194475000Y-102752500D01*
X194535000Y-108972500D02*
X194535000Y-110187500D01*
X194535000Y-108972500D02*
X194815000Y-108972500D01*
X194815000Y-108972500D02*
X194815000Y-110572500D01*
X194815000Y-110572500D02*
X195735000Y-110572500D01*
X195735000Y-102752500D02*
X189615000Y-102752500D01*
X195735000Y-108972500D02*
X194815000Y-108972500D01*
X195735000Y-110572500D02*
X195735000Y-102752500D01*
X190375000Y-105012500D02*
X191375000Y-105012500D01*
X191375000Y-106612500D01*
X190375000Y-106612500D01*
X190375000Y-105012500D01*
X193975000Y-105012500D02*
X194975000Y-105012500D01*
X194975000Y-106612500D01*
X193975000Y-106612500D01*
X193975000Y-105012500D01*
%TO.C,J4*%
X195930000Y-68970000D02*
X197200000Y-68970000D01*
X195930000Y-70240000D02*
X195930000Y-68970000D01*
X198277358Y-72350000D02*
X198590000Y-72350000D01*
X198277358Y-73210000D02*
X198590000Y-73210000D01*
X198277358Y-74890000D02*
X198590000Y-74890000D01*
X198277358Y-75750000D02*
X198590000Y-75750000D01*
X198277358Y-77430000D02*
X198590000Y-77430000D01*
X198277358Y-78290000D02*
X198590000Y-78290000D01*
X198277358Y-79970000D02*
X198590000Y-79970000D01*
X198277358Y-80830000D02*
X198590000Y-80830000D01*
X198277358Y-82510000D02*
X198590000Y-82510000D01*
X198277358Y-83370000D02*
X198590000Y-83370000D01*
X198277358Y-85050000D02*
X198590000Y-85050000D01*
X198277358Y-85910000D02*
X198590000Y-85910000D01*
X198277358Y-87590000D02*
X198590000Y-87590000D01*
X198277358Y-88450000D02*
X198590000Y-88450000D01*
X198360000Y-69810000D02*
X198590000Y-69810000D01*
X198360000Y-70670000D02*
X198590000Y-70670000D01*
X198590000Y-71510000D02*
X201350000Y-71510000D01*
X198590000Y-74050000D02*
X201350000Y-74050000D01*
X198590000Y-76590000D02*
X201350000Y-76590000D01*
X198590000Y-79130000D02*
X201350000Y-79130000D01*
X198590000Y-81670000D02*
X201350000Y-81670000D01*
X198590000Y-84210000D02*
X201350000Y-84210000D01*
X198590000Y-86750000D02*
X201350000Y-86750000D01*
X201350000Y-72350000D02*
X207350000Y-72350000D01*
X201350000Y-74890000D02*
X207350000Y-74890000D01*
X201350000Y-77430000D02*
X207350000Y-77430000D01*
X201350000Y-79970000D02*
X207350000Y-79970000D01*
X201350000Y-82510000D02*
X207350000Y-82510000D01*
X201350000Y-85050000D02*
X207350000Y-85050000D01*
X201350000Y-87590000D02*
X207350000Y-87590000D01*
X207350000Y-72350000D02*
X207350000Y-73210000D01*
X207350000Y-73210000D02*
X201350000Y-73210000D01*
X207350000Y-74890000D02*
X207350000Y-75750000D01*
X207350000Y-75750000D02*
X201350000Y-75750000D01*
X207350000Y-77430000D02*
X207350000Y-78290000D01*
X207350000Y-78290000D02*
X201350000Y-78290000D01*
X207350000Y-79970000D02*
X207350000Y-80830000D01*
X207350000Y-80830000D02*
X201350000Y-80830000D01*
X207350000Y-82510000D02*
X207350000Y-83370000D01*
X207350000Y-83370000D02*
X201350000Y-83370000D01*
X207350000Y-85050000D02*
X207350000Y-85910000D01*
X207350000Y-85910000D02*
X201350000Y-85910000D01*
X207350000Y-87590000D02*
X207350000Y-88450000D01*
X207350000Y-88450000D02*
X201350000Y-88450000D01*
X198590000Y-68860000D02*
X201350000Y-68860000D01*
X201350000Y-89400000D01*
X198590000Y-89400000D01*
X198590000Y-68860000D01*
X201350000Y-69810000D02*
X207350000Y-69810000D01*
X207350000Y-70670000D01*
X201350000Y-70670000D01*
X201350000Y-69810000D01*
G36*
X201350000Y-69810000D02*
G01*
X207350000Y-69810000D01*
X207350000Y-70670000D01*
X201350000Y-70670000D01*
X201350000Y-69810000D01*
G37*
%TO.C,C10*%
X153753733Y-85365000D02*
X154046267Y-85365000D01*
X153753733Y-86385000D02*
X154046267Y-86385000D01*
%TO.C,R10*%
X174977500Y-134154724D02*
X174977500Y-133645276D01*
X176022500Y-134154724D02*
X176022500Y-133645276D01*
%TO.C,C9*%
X158790000Y-91646267D02*
X158790000Y-91353733D01*
X159810000Y-91646267D02*
X159810000Y-91353733D01*
%TO.C,C17*%
X153690000Y-75821267D02*
X153690000Y-75528733D01*
X154710000Y-75821267D02*
X154710000Y-75528733D01*
%TO.C,C16*%
X152090000Y-75746267D02*
X152090000Y-75453733D01*
X153110000Y-75746267D02*
X153110000Y-75453733D01*
%TO.C,U2*%
X149480000Y-46470000D02*
X149480000Y-52630000D01*
X149480000Y-46470000D02*
X167720000Y-46470000D01*
X149480000Y-71430000D02*
X149480000Y-72210000D01*
X149480000Y-72210000D02*
X150480000Y-72210000D01*
X167720000Y-46470000D02*
X167720000Y-52885000D01*
X167720000Y-71430000D02*
X167720000Y-72210000D01*
X167720000Y-72210000D02*
X166720000Y-72210000D01*
X149475000Y-53355000D02*
X148975000Y-53355000D01*
X149475000Y-52855000D01*
X149475000Y-53355000D01*
G36*
X149475000Y-53355000D02*
G01*
X148975000Y-53355000D01*
X149475000Y-52855000D01*
X149475000Y-53355000D01*
G37*
%TO.C,SW2*%
X151450000Y-95417618D02*
X151450000Y-95317618D01*
X151450000Y-96917618D02*
X155850000Y-96917618D01*
X155850000Y-93817618D02*
X151450000Y-93817618D01*
X155850000Y-95417618D02*
X155850000Y-95317618D01*
%TO.C,SW6*%
X183590000Y-113390000D02*
X184940000Y-113390000D01*
X183590000Y-117210000D02*
X183590000Y-113390000D01*
X183590000Y-117210000D02*
X184940000Y-117210000D01*
X186460000Y-113390000D02*
X187440000Y-113390000D01*
X186460000Y-117210000D02*
X187440000Y-117210000D01*
X188960000Y-113390000D02*
X189940000Y-113390000D01*
X188960000Y-117210000D02*
X189940000Y-117210000D01*
X191460000Y-117210000D02*
X192810000Y-117210000D01*
X192810000Y-113390000D02*
X191460000Y-113390000D01*
X192810000Y-117210000D02*
X192810000Y-113390000D01*
%TD*%
M02*
