%TF.GenerationSoftware,KiCad,Pcbnew,10.0.1*%
%TF.CreationDate,2026-05-07T18:18:31+07:00*%
%TF.ProjectId,Mp3Player,4d703350-6c61-4796-9572-2e6b69636164,rev?*%
%TF.SameCoordinates,Original*%
%TF.FileFunction,Copper,L1,Top*%
%TF.FilePolarity,Positive*%
%FSLAX46Y46*%
G04 Gerber Fmt 4.6, Leading zero omitted, Abs format (unit mm)*
G04 Created by KiCad (PCBNEW 10.0.1) date 2026-05-07 18:18:31*
%MOMM*%
%LPD*%
G01*
G04 APERTURE LIST*
G04 Aperture macros list*
%AMRoundRect*
0 Rectangle with rounded corners*
0 $1 Rounding radius*
0 $2 $3 $4 $5 $6 $7 $8 $9 X,Y pos of 4 corners*
0 Add a 4 corners polygon primitive as box body*
4,1,4,$2,$3,$4,$5,$6,$7,$8,$9,$2,$3,0*
0 Add four circle primitives for the rounded corners*
1,1,$1+$1,$2,$3*
1,1,$1+$1,$4,$5*
1,1,$1+$1,$6,$7*
1,1,$1+$1,$8,$9*
0 Add four rect primitives between the rounded corners*
20,1,$1+$1,$2,$3,$4,$5,0*
20,1,$1+$1,$4,$5,$6,$7,0*
20,1,$1+$1,$6,$7,$8,$9,0*
20,1,$1+$1,$8,$9,$2,$3,0*%
G04 Aperture macros list end*
%TA.AperFunction,HeatsinkPad*%
%ADD10R,2.500000X2.500000*%
%TD*%
%TA.AperFunction,SMDPad,CuDef*%
%ADD11RoundRect,0.062500X0.062500X0.350000X-0.062500X0.350000X-0.062500X-0.350000X0.062500X-0.350000X0*%
%TD*%
%TA.AperFunction,SMDPad,CuDef*%
%ADD12RoundRect,0.062500X0.350000X0.062500X-0.350000X0.062500X-0.350000X-0.062500X0.350000X-0.062500X0*%
%TD*%
%TA.AperFunction,SMDPad,CuDef*%
%ADD13RoundRect,0.237500X-0.237500X0.250000X-0.237500X-0.250000X0.237500X-0.250000X0.237500X0.250000X0*%
%TD*%
%TA.AperFunction,SMDPad,CuDef*%
%ADD14R,1.000000X0.900000*%
%TD*%
%TA.AperFunction,SMDPad,CuDef*%
%ADD15RoundRect,0.237500X-0.250000X-0.237500X0.250000X-0.237500X0.250000X0.237500X-0.250000X0.237500X0*%
%TD*%
%TA.AperFunction,SMDPad,CuDef*%
%ADD16RoundRect,0.237500X0.237500X-0.250000X0.237500X0.250000X-0.237500X0.250000X-0.237500X-0.250000X0*%
%TD*%
%TA.AperFunction,SMDPad,CuDef*%
%ADD17RoundRect,0.150000X0.150000X-0.512500X0.150000X0.512500X-0.150000X0.512500X-0.150000X-0.512500X0*%
%TD*%
%TA.AperFunction,SMDPad,CuDef*%
%ADD18R,0.700000X1.200000*%
%TD*%
%TA.AperFunction,SMDPad,CuDef*%
%ADD19R,1.000000X0.800000*%
%TD*%
%TA.AperFunction,SMDPad,CuDef*%
%ADD20R,1.000000X1.200000*%
%TD*%
%TA.AperFunction,SMDPad,CuDef*%
%ADD21R,1.000000X2.800000*%
%TD*%
%TA.AperFunction,SMDPad,CuDef*%
%ADD22R,1.300000X1.900000*%
%TD*%
%TA.AperFunction,SMDPad,CuDef*%
%ADD23RoundRect,0.237500X-0.237500X0.300000X-0.237500X-0.300000X0.237500X-0.300000X0.237500X0.300000X0*%
%TD*%
%TA.AperFunction,SMDPad,CuDef*%
%ADD24RoundRect,0.237500X-0.300000X-0.237500X0.300000X-0.237500X0.300000X0.237500X-0.300000X0.237500X0*%
%TD*%
%TA.AperFunction,SMDPad,CuDef*%
%ADD25RoundRect,0.150000X-0.587500X-0.150000X0.587500X-0.150000X0.587500X0.150000X-0.587500X0.150000X0*%
%TD*%
%TA.AperFunction,SMDPad,CuDef*%
%ADD26RoundRect,0.150000X-0.150000X-0.425000X0.150000X-0.425000X0.150000X0.425000X-0.150000X0.425000X0*%
%TD*%
%TA.AperFunction,SMDPad,CuDef*%
%ADD27RoundRect,0.075000X-0.075000X-0.500000X0.075000X-0.500000X0.075000X0.500000X-0.075000X0.500000X0*%
%TD*%
%TA.AperFunction,ComponentPad*%
%ADD28O,1.000000X2.100000*%
%TD*%
%TA.AperFunction,ComponentPad*%
%ADD29O,1.000000X1.800000*%
%TD*%
%TA.AperFunction,SMDPad,CuDef*%
%ADD30RoundRect,0.237500X0.237500X-0.300000X0.237500X0.300000X-0.237500X0.300000X-0.237500X-0.300000X0*%
%TD*%
%TA.AperFunction,SMDPad,CuDef*%
%ADD31R,0.800000X1.800000*%
%TD*%
%TA.AperFunction,SMDPad,CuDef*%
%ADD32R,1.800000X0.800000*%
%TD*%
%TA.AperFunction,SMDPad,CuDef*%
%ADD33R,0.900000X1.000000*%
%TD*%
%TA.AperFunction,SMDPad,CuDef*%
%ADD34RoundRect,0.237500X0.250000X0.237500X-0.250000X0.237500X-0.250000X-0.237500X0.250000X-0.237500X0*%
%TD*%
%TA.AperFunction,SMDPad,CuDef*%
%ADD35R,0.450000X0.630000*%
%TD*%
%TA.AperFunction,SMDPad,CuDef*%
%ADD36R,2.600000X1.700000*%
%TD*%
%TA.AperFunction,SMDPad,CuDef*%
%ADD37RoundRect,0.100000X0.100000X-0.637500X0.100000X0.637500X-0.100000X0.637500X-0.100000X-0.637500X0*%
%TD*%
%TA.AperFunction,ComponentPad*%
%ADD38R,1.700000X1.700000*%
%TD*%
%TA.AperFunction,ComponentPad*%
%ADD39C,1.700000*%
%TD*%
%TA.AperFunction,SMDPad,CuDef*%
%ADD40RoundRect,0.087500X-0.662500X-0.087500X0.662500X-0.087500X0.662500X0.087500X-0.662500X0.087500X0*%
%TD*%
%TA.AperFunction,SMDPad,CuDef*%
%ADD41RoundRect,0.237500X0.300000X0.237500X-0.300000X0.237500X-0.300000X-0.237500X0.300000X-0.237500X0*%
%TD*%
%TA.AperFunction,ComponentPad*%
%ADD42RoundRect,0.250000X0.350000X0.625000X-0.350000X0.625000X-0.350000X-0.625000X0.350000X-0.625000X0*%
%TD*%
%TA.AperFunction,ComponentPad*%
%ADD43O,1.200000X1.750000*%
%TD*%
%TA.AperFunction,SMDPad,CuDef*%
%ADD44R,1.500000X0.900000*%
%TD*%
%TA.AperFunction,SMDPad,CuDef*%
%ADD45R,0.900000X1.500000*%
%TD*%
%TA.AperFunction,SMDPad,CuDef*%
%ADD46R,0.900000X0.900000*%
%TD*%
%TA.AperFunction,HeatsinkPad*%
%ADD47C,0.600000*%
%TD*%
%TA.AperFunction,HeatsinkPad*%
%ADD48R,3.800000X3.800000*%
%TD*%
%TA.AperFunction,SMDPad,CuDef*%
%ADD49R,1.000000X1.600000*%
%TD*%
%TA.AperFunction,ViaPad*%
%ADD50C,0.600000*%
%TD*%
%TA.AperFunction,Conductor*%
%ADD51C,0.300000*%
%TD*%
%TA.AperFunction,Conductor*%
%ADD52C,0.200000*%
%TD*%
%TA.AperFunction,Conductor*%
%ADD53C,0.600000*%
%TD*%
%TA.AperFunction,Conductor*%
%ADD54C,0.550000*%
%TD*%
%TA.AperFunction,Conductor*%
%ADD55C,0.250000*%
%TD*%
G04 APERTURE END LIST*
D10*
%TO.P,U4,21,EP_21*%
%TO.N,unconnected-(U4-EP-Pad21)*%
X191200000Y-125937500D03*
D11*
%TO.P,U4,20,GND_20*%
%TO.N,GND*%
X192200000Y-127875000D03*
%TO.P,U4,19,CBP_19*%
%TO.N,Net-(U4-CBP)*%
X191700000Y-127875000D03*
%TO.P,U4,18,THR_18*%
%TO.N,Net-(U4-THR)*%
X191200000Y-127875000D03*
%TO.P,U4,17,SDA_17*%
%TO.N,unconnected-(U4-SDA-Pad17)*%
X190700000Y-127875000D03*
%TO.P,U4,16,SYS_EN_16*%
%TO.N,Net-(U4-SYS_EN)*%
X190200000Y-127875000D03*
D12*
%TO.P,U4,15,ILED_15*%
%TO.N,unconnected-(U4-ILED-Pad15)*%
X189262500Y-126937500D03*
%TO.P,U4,14,ISO_Bx_14*%
%TO.N,Net-(U4-BAT_SNS)*%
X189262500Y-126437500D03*
%TO.P,U4,13,ISO_Bx_13*%
X189262500Y-125937500D03*
%TO.P,U4,12,ISO_Bx_12*%
X189262500Y-125437500D03*
%TO.P,U4,11,ISO_Sx_11*%
%TO.N,Net-(U5-Vin)*%
X189262500Y-124937500D03*
D11*
%TO.P,U4,10,ISO_Sx_10*%
X190200000Y-124000000D03*
%TO.P,U4,9,ISO_Sx_9*%
X190700000Y-124000000D03*
%TO.P,U4,8,VINx_8*%
%TO.N,Net-(C2-Pad1)*%
X191200000Y-124000000D03*
%TO.P,U4,7,VINx_7*%
X191700000Y-124000000D03*
%TO.P,U4,6,VINx_6*%
X192200000Y-124000000D03*
D12*
%TO.P,U4,5,D_IO1_5*%
%TO.N,unconnected-(U4-D_IO1-Pad5)*%
X193137500Y-124937500D03*
%TO.P,U4,4,BAT_SNS_4*%
%TO.N,Net-(U4-BAT_SNS)*%
X193137500Y-125437500D03*
%TO.P,U4,3,D_IO2_3*%
%TO.N,unconnected-(U4-D_IO2-Pad3)*%
X193137500Y-125937500D03*
%TO.P,U4,2,D_IO3_2*%
%TO.N,unconnected-(U4-D_IO3-Pad2)*%
X193137500Y-126437500D03*
%TO.P,U4,1,SCL_1*%
%TO.N,unconnected-(U4-SCL-Pad1)*%
X193137500Y-126937500D03*
%TD*%
D13*
%TO.P,R6,1*%
%TO.N,Net-(J3-CC2)*%
X122100000Y-135775000D03*
%TO.P,R6,2*%
%TO.N,GND*%
X122100000Y-137600000D03*
%TD*%
%TO.P,R2,1*%
%TO.N,Net-(U4-SYS_EN)*%
X181675000Y-125750000D03*
%TO.P,R2,2*%
%TO.N,GND*%
X181675000Y-127575000D03*
%TD*%
D14*
%TO.P,SW3,1,1_1*%
%TO.N,/IO34*%
X169482382Y-108350000D03*
X169482382Y-112450000D03*
%TO.P,SW3,2,2_2*%
%TO.N,GND*%
X167882382Y-108350000D03*
X167882382Y-112450000D03*
%TD*%
D13*
%TO.P,R16,1*%
%TO.N,+3V3*%
X169500000Y-105000000D03*
%TO.P,R16,2*%
%TO.N,/IO34*%
X169500000Y-106825000D03*
%TD*%
D15*
%TO.P,R7,1*%
%TO.N,+3V3*%
X161387500Y-129500000D03*
%TO.P,R7,2*%
%TO.N,Net-(U6-~{RTS})*%
X163212500Y-129500000D03*
%TD*%
D16*
%TO.P,R19,1*%
%TO.N,/IN_L*%
X156400000Y-89012500D03*
%TO.P,R19,2*%
%TO.N,Net-(U3-OUTL)*%
X156400000Y-87187500D03*
%TD*%
D14*
%TO.P,SW5,1,1_1*%
%TO.N,/SENSOR_VP*%
X137817618Y-112450000D03*
X137817618Y-108350000D03*
%TO.P,SW5,2,2_2*%
%TO.N,GND*%
X139417618Y-112450000D03*
X139417618Y-108350000D03*
%TD*%
D17*
%TO.P,U8,1,I/O1_1*%
%TO.N,/ESP_D+*%
X165600000Y-137500000D03*
%TO.P,U8,2,GND_2*%
%TO.N,GND*%
X166550000Y-137500000D03*
%TO.P,U8,3,I/O2_3*%
%TO.N,/ESP_D-*%
X167500000Y-137500000D03*
%TO.P,U8,4,I/O2_4*%
%TO.N,/P_ESP_D-*%
X167500000Y-135225000D03*
%TO.P,U8,5,VBUS_5*%
%TO.N,+3V3*%
X166550000Y-135225000D03*
%TO.P,U8,6,I/O1_6*%
%TO.N,/P_ESP_D+*%
X165600000Y-135225000D03*
%TD*%
D18*
%TO.P,J7,1,DAT2_1*%
%TO.N,/IO27*%
X150200000Y-130300000D03*
%TO.P,J7,2,DAT3/CD_2*%
%TO.N,/IO2*%
X149100000Y-130300000D03*
%TO.P,J7,3,CMD_3*%
%TO.N,/IO23*%
X148000000Y-130300000D03*
%TO.P,J7,4,VDD_4*%
%TO.N,+3V3*%
X146900000Y-130300000D03*
%TO.P,J7,5,CLK_5*%
%TO.N,/IO18*%
X145800000Y-130300000D03*
%TO.P,J7,6,VSS_6*%
%TO.N,GND*%
X144700000Y-130300000D03*
%TO.P,J7,7,DAT0_7*%
%TO.N,/IO19*%
X143600000Y-130300000D03*
%TO.P,J7,8,DAT1_8*%
%TO.N,/IO25*%
X142500000Y-130300000D03*
%TO.P,J7,9*%
%TO.N,N/C*%
X141550000Y-130300000D03*
D19*
%TO.P,J7,10*%
X140600000Y-140800000D03*
D20*
%TO.P,J7,SH,SHIELD_SH*%
%TO.N,GND*%
X140600000Y-134600000D03*
D21*
X140600000Y-144950000D03*
D20*
X151750000Y-130300000D03*
D22*
X154100000Y-145400000D03*
%TD*%
D23*
%TO.P,C11,1*%
%TO.N,GND*%
X166200000Y-74712500D03*
%TO.P,C11,2*%
%TO.N,+3V3*%
X166200000Y-76437500D03*
%TD*%
D24*
%TO.P,C4,1*%
%TO.N,GND*%
X186012500Y-127012500D03*
%TO.P,C4,2*%
%TO.N,Net-(U4-BAT_SNS)*%
X187737500Y-127012500D03*
%TD*%
D13*
%TO.P,R5,1*%
%TO.N,GND*%
X113500000Y-135277500D03*
%TO.P,R5,2*%
%TO.N,Net-(J3-CC1)*%
X113500000Y-137102500D03*
%TD*%
D16*
%TO.P,R1,1*%
%TO.N,GND*%
X189075000Y-131325000D03*
%TO.P,R1,2*%
%TO.N,Net-(U4-THR)*%
X189075000Y-129500000D03*
%TD*%
D23*
%TO.P,C13,1*%
%TO.N,GND*%
X151300000Y-88212500D03*
%TO.P,C13,2*%
%TO.N,/VNEG*%
X151300000Y-89937500D03*
%TD*%
D25*
%TO.P,Q1,1,B_1*%
%TO.N,+3V3*%
X177862500Y-132850000D03*
%TO.P,Q1,2,E_2*%
%TO.N,/EN*%
X177862500Y-134750000D03*
%TO.P,Q1,3,C_3*%
%TO.N,Net-(Q1-C)*%
X179737500Y-133800000D03*
%TD*%
D16*
%TO.P,R13,1*%
%TO.N,/TNOW*%
X176000000Y-129525000D03*
%TO.P,R13,2*%
%TO.N,GND*%
X176000000Y-127700000D03*
%TD*%
D26*
%TO.P,J1,A1,GND_A1*%
%TO.N,GND*%
X163180000Y-139595000D03*
%TO.P,J1,A4,VBUS_A4*%
%TO.N,Net-(C2-Pad1)*%
X163980000Y-139595000D03*
D27*
%TO.P,J1,A5,CC1_A5*%
%TO.N,Net-(J1-CC1)*%
X165130000Y-139595000D03*
%TO.P,J1,A6,D+_A6*%
%TO.N,/ESP_D+*%
X166130000Y-139595000D03*
%TO.P,J1,A7,D-_A7*%
%TO.N,/ESP_D-*%
X166630000Y-139595000D03*
%TO.P,J1,A8*%
%TO.N,N/C*%
X167630000Y-139595000D03*
D26*
%TO.P,J1,A9,VBUS_A9*%
%TO.N,Net-(C2-Pad1)*%
X168780000Y-139595000D03*
%TO.P,J1,A12,GND_A12*%
%TO.N,GND*%
X169580000Y-139595000D03*
%TO.P,J1,B1,GND_B1*%
X169580000Y-139595000D03*
%TO.P,J1,B4,VBUS_B4*%
%TO.N,Net-(C2-Pad1)*%
X168780000Y-139595000D03*
D27*
%TO.P,J1,B5,CC2_B5*%
%TO.N,Net-(J1-CC2)*%
X168130000Y-139595000D03*
%TO.P,J1,B6,D+_B6*%
%TO.N,/ESP_D+*%
X167130000Y-139595000D03*
%TO.P,J1,B7,D-_B7*%
%TO.N,/ESP_D-*%
X165630000Y-139595000D03*
%TO.P,J1,B8*%
%TO.N,N/C*%
X164630000Y-139595000D03*
D26*
%TO.P,J1,B9,VBUS_B9*%
%TO.N,Net-(C2-Pad1)*%
X163980000Y-139595000D03*
%TO.P,J1,B12,GND_B12*%
%TO.N,GND*%
X163180000Y-139595000D03*
D28*
%TO.P,J1,SH*%
%TO.N,N/C*%
X162060000Y-140170000D03*
D29*
X162060000Y-144350000D03*
D28*
X170700000Y-140170000D03*
D29*
X170700000Y-144350000D03*
%TD*%
D13*
%TO.P,R12,1*%
%TO.N,Net-(Q2-B)*%
X177700000Y-127600000D03*
%TO.P,R12,2*%
%TO.N,/TNOW*%
X177700000Y-129425000D03*
%TD*%
D30*
%TO.P,C15,1*%
%TO.N,+3V3*%
X150800000Y-78862500D03*
%TO.P,C15,2*%
%TO.N,GND*%
X150800000Y-77137500D03*
%TD*%
D23*
%TO.P,C19,1*%
%TO.N,/VCOM*%
X165900000Y-86312500D03*
%TO.P,C19,2*%
%TO.N,GND*%
X165900000Y-88037500D03*
%TD*%
D24*
%TO.P,C5,1*%
%TO.N,Net-(U6-V3)*%
X171175000Y-127800000D03*
%TO.P,C5,2*%
%TO.N,GND*%
X172900000Y-127800000D03*
%TD*%
D13*
%TO.P,R4,1*%
%TO.N,Net-(J3-D+-PadA6)*%
X119200000Y-135875000D03*
%TO.P,R4,2*%
%TO.N,/BT_D+*%
X119200000Y-137700000D03*
%TD*%
D30*
%TO.P,C18,1*%
%TO.N,GND*%
X163500000Y-88137500D03*
%TO.P,C18,2*%
%TO.N,+3.3VA*%
X163500000Y-86412500D03*
%TD*%
D31*
%TO.P,U1,1,WKP_1*%
%TO.N,/IO4*%
X109715000Y-94700000D03*
%TO.P,U1,2,D1_2*%
%TO.N,unconnected-(U1-D1-Pad2)*%
X110985000Y-94700000D03*
%TO.P,U1,3,D2_3*%
%TO.N,unconnected-(U1-D2-Pad3)*%
X112255000Y-94700000D03*
%TO.P,U1,4,GND_4*%
%TO.N,GND*%
X113525000Y-94700000D03*
%TO.P,U1,5,D3_5*%
%TO.N,unconnected-(U1-D3-Pad5)*%
X114795000Y-94700000D03*
%TO.P,U1,6,D4_6*%
%TO.N,unconnected-(U1-D4-Pad6)*%
X116065000Y-94700000D03*
%TO.P,U1,7,D5_7*%
%TO.N,unconnected-(U1-D5-Pad7)*%
X117335000Y-94700000D03*
%TO.P,U1,8,D6_8*%
%TO.N,unconnected-(U1-D6-Pad8)*%
X118605000Y-94700000D03*
%TO.P,U1,9,USB_DM_9*%
%TO.N,/P_BT_D+*%
X119875000Y-94700000D03*
%TO.P,U1,10,USB_DP_10*%
%TO.N,/P_BT_D-*%
X121145000Y-94700000D03*
%TO.P,U1,11,SW_11*%
%TO.N,unconnected-(U1-SW-Pad11)*%
X122415000Y-94700000D03*
D32*
%TO.P,U1,12,GND_12*%
%TO.N,GND*%
X124685000Y-93415000D03*
%TO.P,U1,13,TX/RX_13*%
%TO.N,unconnected-(U1-TX{slash}RX-Pad13)*%
X124685000Y-92145000D03*
%TO.P,U1,14,LINK_14*%
%TO.N,unconnected-(U1-LINK-Pad14)*%
X124685000Y-90875000D03*
%TO.P,U1,15,UART_RXD_15*%
%TO.N,unconnected-(U1-UART_RXD-Pad15)*%
X124685000Y-89605000D03*
%TO.P,U1,16,UART_TXD_16*%
%TO.N,unconnected-(U1-UART_TXD-Pad16)*%
X124685000Y-88335000D03*
%TO.P,U1,17,MUTE_17*%
%TO.N,unconnected-(U1-MUTE-Pad17)*%
X124685000Y-87065000D03*
%TO.P,U1,18,AGND_18*%
%TO.N,GND*%
X124685000Y-85795000D03*
%TO.P,U1,19,OUT_R_19*%
%TO.N,unconnected-(U1-OUT_R-Pad19)*%
X124685000Y-84525000D03*
%TO.P,U1,20,OUT_L_20*%
%TO.N,unconnected-(U1-OUT_L-Pad20)*%
X124685000Y-83255000D03*
%TO.P,U1,21,LINE_IN_21*%
%TO.N,unconnected-(U1-LINE_IN-Pad21)*%
X124685000Y-81985000D03*
D31*
%TO.P,U1,22,IN_R_22*%
%TO.N,/IN_R*%
X122415000Y-80700000D03*
%TO.P,U1,23,IN_L_23*%
%TO.N,/IN_L*%
X121145000Y-80700000D03*
%TO.P,U1,24,GND_24*%
%TO.N,GND*%
X119875000Y-80700000D03*
%TO.P,U1,25,KEY1_25*%
%TO.N,unconnected-(U1-KEY1-Pad25)*%
X118605000Y-80700000D03*
%TO.P,U1,26,KEY2_26*%
%TO.N,unconnected-(U1-KEY2-Pad26)*%
X117335000Y-80700000D03*
%TO.P,U1,27,KEY3_27*%
%TO.N,unconnected-(U1-KEY3-Pad27)*%
X116065000Y-80700000D03*
%TO.P,U1,28,VPWR_28*%
%TO.N,unconnected-(U1-VPWR-Pad28)*%
X114795000Y-80700000D03*
%TO.P,U1,29,VBAT_29*%
%TO.N,+3V3*%
X113525000Y-80700000D03*
%TO.P,U1,30,IOVDD_30*%
%TO.N,unconnected-(U1-IOVDD-Pad30)*%
X112255000Y-80700000D03*
%TO.P,U1,31,GND_31*%
%TO.N,GND*%
X110985000Y-80700000D03*
%TO.P,U1,32,GND_32*%
X109715000Y-80700000D03*
%TD*%
D30*
%TO.P,C8,1*%
%TO.N,GND*%
X156600000Y-92262500D03*
%TO.P,C8,2*%
%TO.N,/IN_L*%
X156600000Y-90537500D03*
%TD*%
D33*
%TO.P,SW4,1,1_1*%
%TO.N,/IO35*%
X155700000Y-126232382D03*
X151600000Y-126232382D03*
%TO.P,SW4,2,2_2*%
%TO.N,GND*%
X155700000Y-124632382D03*
X151600000Y-124632382D03*
%TD*%
D15*
%TO.P,R18,1*%
%TO.N,+3V3*%
X148187500Y-109500000D03*
%TO.P,R18,2*%
%TO.N,/IO32*%
X150012500Y-109500000D03*
%TD*%
%TO.P,R17,1*%
%TO.N,+3V3*%
X148287500Y-94400000D03*
%TO.P,R17,2*%
%TO.N,/IO33*%
X150112500Y-94400000D03*
%TD*%
D33*
%TO.P,SW7,1,1_1*%
%TO.N,GND*%
X194950000Y-114000000D03*
X199050000Y-114000000D03*
%TO.P,SW7,2,2_2*%
%TO.N,Net-(Q1-C)*%
X194950000Y-115600000D03*
X199050000Y-115600000D03*
%TD*%
D25*
%TO.P,Q2,1,B_1*%
%TO.N,Net-(Q2-B)*%
X174862500Y-118650000D03*
%TO.P,Q2,2,E_2*%
%TO.N,/IO0*%
X174862500Y-120550000D03*
%TO.P,Q2,3,C_3*%
%TO.N,GND*%
X176737500Y-119600000D03*
%TD*%
D34*
%TO.P,R15,1*%
%TO.N,+3V3*%
X159212500Y-126200000D03*
%TO.P,R15,2*%
%TO.N,/IO35*%
X157387500Y-126200000D03*
%TD*%
D16*
%TO.P,R20,1*%
%TO.N,/IN_R*%
X158000000Y-89012500D03*
%TO.P,R20,2*%
%TO.N,Net-(U3-OUTR)*%
X158000000Y-87187500D03*
%TD*%
D13*
%TO.P,R3,1*%
%TO.N,Net-(J3-D--PadA7)*%
X116300000Y-135377500D03*
%TO.P,R3,2*%
%TO.N,/BT_D-*%
X116300000Y-137202500D03*
%TD*%
D16*
%TO.P,R8,1*%
%TO.N,Net-(J1-CC1)*%
X163100000Y-137612500D03*
%TO.P,R8,2*%
%TO.N,GND*%
X163100000Y-135787500D03*
%TD*%
D24*
%TO.P,C7,1*%
%TO.N,GND*%
X192475000Y-55900000D03*
%TO.P,C7,2*%
%TO.N,/SENSOR_VN*%
X194200000Y-55900000D03*
%TD*%
%TO.P,C6,1*%
%TO.N,+3V3*%
X171137500Y-129400000D03*
%TO.P,C6,2*%
%TO.N,GND*%
X172862500Y-129400000D03*
%TD*%
D30*
%TO.P,C1,1*%
%TO.N,GND*%
X191775000Y-131075000D03*
%TO.P,C1,2*%
%TO.N,Net-(U4-CBP)*%
X191775000Y-129350000D03*
%TD*%
D35*
%TO.P,U5,1,GND_1*%
%TO.N,GND*%
X181325000Y-124127500D03*
%TO.P,U5,2,EN_2*%
%TO.N,Net-(U4-SYS_EN)*%
X182275000Y-124127500D03*
%TO.P,U5,3,Vin_3*%
%TO.N,Net-(U5-Vin)*%
X183225000Y-124127500D03*
%TO.P,U5,4,Vout_4*%
%TO.N,+3V3*%
X183225000Y-121447500D03*
%TO.P,U5,5,Vsense_5*%
X182275000Y-121447500D03*
%TO.P,U5,6,NC_6*%
%TO.N,unconnected-(U5-NC-Pad6)*%
X181325000Y-121447500D03*
D36*
%TO.P,U5,7,GND_7*%
%TO.N,GND*%
X182275000Y-122787500D03*
%TD*%
D37*
%TO.P,U3,1,CPVDD_1*%
%TO.N,+3V3*%
X153700000Y-84100000D03*
%TO.P,U3,2,CAPP_2*%
%TO.N,Net-(U3-CAPP)*%
X154350000Y-84100000D03*
%TO.P,U3,3,CPGND_3*%
%TO.N,GND*%
X155000000Y-84100000D03*
%TO.P,U3,4,CAPM_4*%
%TO.N,Net-(U3-CAPM)*%
X155650000Y-84100000D03*
%TO.P,U3,5,VNEG_5*%
%TO.N,/VNEG*%
X156300000Y-84100000D03*
%TO.P,U3,6,OUTL_6*%
%TO.N,Net-(U3-OUTL)*%
X156950000Y-84100000D03*
%TO.P,U3,7,OUTR_7*%
%TO.N,Net-(U3-OUTR)*%
X157600000Y-84100000D03*
%TO.P,U3,8,AVDD_8*%
%TO.N,+3.3VA*%
X158250000Y-84100000D03*
%TO.P,U3,9,AGND_9*%
%TO.N,GND*%
X158900000Y-84100000D03*
%TO.P,U3,10,VCOM/DEMP_10*%
%TO.N,/VCOM*%
X159550000Y-84100000D03*
%TO.P,U3,11,SDA/MOSI/ATT2_11*%
%TO.N,/IO16*%
X160200000Y-84100000D03*
%TO.P,U3,12,SCL/MC/ATT1_12*%
%TO.N,/IO17*%
X160850000Y-84100000D03*
%TO.P,U3,13,GPIO5/ATT0_13*%
%TO.N,unconnected-(U3-GPIO5{slash}ATT0-Pad13)*%
X161500000Y-84100000D03*
%TO.P,U3,14,GPIO4/MAST_14*%
%TO.N,unconnected-(U3-GPIO4{slash}MAST-Pad14)*%
X162150000Y-84100000D03*
%TO.P,U3,15,GPIO3/AGNS_15*%
%TO.N,unconnected-(U3-GPIO3{slash}AGNS-Pad15)*%
X162150000Y-78375000D03*
%TO.P,U3,16,ADR2/GPIO2/DOUT_16*%
%TO.N,+3V3*%
X161500000Y-78375000D03*
%TO.P,U3,17,MODE1_17*%
%TO.N,GND*%
X160850000Y-78375000D03*
%TO.P,U3,18,MODE2/MS_18*%
%TO.N,+3V3*%
X160200000Y-78375000D03*
%TO.P,U3,19,GPIO6/FLT_19*%
%TO.N,unconnected-(U3-GPIO6{slash}FLT-Pad19)*%
X159550000Y-78375000D03*
%TO.P,U3,20,SCK_20*%
%TO.N,/IO15*%
X158900000Y-78375000D03*
%TO.P,U3,21,BCK_21*%
%TO.N,/IO14*%
X158250000Y-78375000D03*
%TO.P,U3,22,DIN_22*%
%TO.N,/IO12*%
X157600000Y-78375000D03*
%TO.P,U3,23,LRCK_23*%
%TO.N,/IO13*%
X156950000Y-78375000D03*
%TO.P,U3,24,ADR1/MISO/FMT_24*%
%TO.N,GND*%
X156300000Y-78375000D03*
%TO.P,U3,25,XSMT_25*%
%TO.N,Net-(U3-XSMT)*%
X155650000Y-78375000D03*
%TO.P,U3,26,LDOO_26*%
%TO.N,/LDOO*%
X155000000Y-78375000D03*
%TO.P,U3,27,DGND_27*%
%TO.N,GND*%
X154350000Y-78375000D03*
%TO.P,U3,28,DVDD_28*%
%TO.N,+3V3*%
X153700000Y-78375000D03*
%TD*%
D13*
%TO.P,R14,1*%
%TO.N,+3V3*%
X137600000Y-104987500D03*
%TO.P,R14,2*%
%TO.N,/SENSOR_VP*%
X137600000Y-106812500D03*
%TD*%
D23*
%TO.P,C12,1*%
%TO.N,GND*%
X163500000Y-74812500D03*
%TO.P,C12,2*%
%TO.N,+3V3*%
X163500000Y-76537500D03*
%TD*%
D13*
%TO.P,R21,1*%
%TO.N,Net-(U3-XSMT)*%
X155800000Y-74662500D03*
%TO.P,R21,2*%
%TO.N,GND*%
X155800000Y-76487500D03*
%TD*%
D38*
%TO.P,J6,1,Pin_1_1*%
%TO.N,/SENSOR_VN*%
X197315000Y-56290000D03*
D39*
%TO.P,J6,2,Pin_2_2*%
%TO.N,unconnected-(J6-Pin_2-Pad2)*%
X197315000Y-58830000D03*
%TO.P,J6,3,Pin_3_3*%
%TO.N,+3V3*%
X197315000Y-61370000D03*
%TO.P,J6,4,Pin_4_4*%
%TO.N,GND*%
X197315000Y-63910000D03*
%TD*%
D13*
%TO.P,R9,1*%
%TO.N,GND*%
X170500000Y-135887500D03*
%TO.P,R9,2*%
%TO.N,Net-(J1-CC2)*%
X170500000Y-137712500D03*
%TD*%
D40*
%TO.P,U6,1,UD+_1*%
%TO.N,/P_ESP_D+*%
X165000000Y-128100000D03*
%TO.P,U6,2,UD-_2*%
%TO.N,/P_ESP_D-*%
X165000000Y-128600000D03*
%TO.P,U6,3,GND_3*%
%TO.N,GND*%
X165000000Y-129100000D03*
%TO.P,U6,4,~{RTS}_4*%
%TO.N,Net-(U6-~{RTS})*%
X165000000Y-129600000D03*
%TO.P,U6,5,~{CTS}_5*%
%TO.N,unconnected-(U6-~{CTS}-Pad5)*%
X165000000Y-130100000D03*
%TO.P,U6,6,TNOW/~{DTR}_6*%
%TO.N,/TNOW*%
X169200000Y-130100000D03*
%TO.P,U6,7,VCC_7*%
%TO.N,+3V3*%
X169200000Y-129600000D03*
%TO.P,U6,8,TXD_8*%
%TO.N,/ESP_RX*%
X169200000Y-129100000D03*
%TO.P,U6,9,RXD_9*%
%TO.N,/ESP_TX*%
X169200000Y-128600000D03*
%TO.P,U6,10,V3_10*%
%TO.N,Net-(U6-V3)*%
X169200000Y-128100000D03*
%TD*%
D23*
%TO.P,C20,1*%
%TO.N,+3.3VA*%
X161800000Y-86412500D03*
%TO.P,C20,2*%
%TO.N,GND*%
X161800000Y-88137500D03*
%TD*%
D15*
%TO.P,FB1,1*%
%TO.N,+3V3*%
X183662500Y-119962500D03*
%TO.P,FB1,2*%
%TO.N,+3.3VA*%
X185487500Y-119962500D03*
%TD*%
D26*
%TO.P,J3,A1,GND_A1*%
%TO.N,GND*%
X115000000Y-139510000D03*
%TO.P,J3,A4,VBUS_A4*%
%TO.N,unconnected-(J3-VBUS-PadA4)_3*%
X115800000Y-139510000D03*
D27*
%TO.P,J3,A5,CC1_A5*%
%TO.N,Net-(J3-CC1)*%
X116950000Y-139510000D03*
%TO.P,J3,A6,D+_A6*%
%TO.N,Net-(J3-D+-PadA6)*%
X117950000Y-139510000D03*
%TO.P,J3,A7,D-_A7*%
%TO.N,Net-(J3-D--PadA7)*%
X118450000Y-139510000D03*
%TO.P,J3,A8*%
%TO.N,N/C*%
X119450000Y-139510000D03*
D26*
%TO.P,J3,A9,VBUS_A9*%
%TO.N,unconnected-(J3-VBUS-PadA4)*%
X120600000Y-139510000D03*
%TO.P,J3,A12,GND_A12*%
%TO.N,GND*%
X121400000Y-139510000D03*
%TO.P,J3,B1,GND_B1*%
X121400000Y-139510000D03*
%TO.P,J3,B4,VBUS_B4*%
%TO.N,unconnected-(J3-VBUS-PadA4)_1*%
X120600000Y-139510000D03*
D27*
%TO.P,J3,B5,CC2_B5*%
%TO.N,Net-(J3-CC2)*%
X119950000Y-139510000D03*
%TO.P,J3,B6,D+_B6*%
%TO.N,Net-(J3-D+-PadA6)*%
X118950000Y-139510000D03*
%TO.P,J3,B7,D-_B7*%
%TO.N,Net-(J3-D--PadA7)*%
X117450000Y-139510000D03*
%TO.P,J3,B8*%
%TO.N,N/C*%
X116450000Y-139510000D03*
D26*
%TO.P,J3,B9,VBUS_B9*%
%TO.N,unconnected-(J3-VBUS-PadA4)_2*%
X115800000Y-139510000D03*
%TO.P,J3,B12,GND_B12*%
%TO.N,GND*%
X115000000Y-139510000D03*
D28*
%TO.P,J3,SH*%
%TO.N,N/C*%
X113880000Y-140085000D03*
D29*
X113880000Y-144265000D03*
D28*
X122520000Y-140085000D03*
D29*
X122520000Y-144265000D03*
%TD*%
D13*
%TO.P,R11,1*%
%TO.N,/IO0*%
X174787500Y-122127500D03*
%TO.P,R11,2*%
%TO.N,+3V3*%
X174787500Y-123952500D03*
%TD*%
D33*
%TO.P,SW1,1,1_1*%
%TO.N,/IO32*%
X151600000Y-109600000D03*
X155700000Y-109600000D03*
%TO.P,SW1,2,2_2*%
%TO.N,GND*%
X151600000Y-111200000D03*
X155700000Y-111200000D03*
%TD*%
D30*
%TO.P,C14,1*%
%TO.N,+3V3*%
X161800000Y-76437500D03*
%TO.P,C14,2*%
%TO.N,GND*%
X161800000Y-74712500D03*
%TD*%
%TO.P,C2,1*%
%TO.N,Net-(C2-Pad1)*%
X191175000Y-122475000D03*
%TO.P,C2,2*%
%TO.N,GND*%
X191175000Y-120750000D03*
%TD*%
D41*
%TO.P,C3,1*%
%TO.N,Net-(U5-Vin)*%
X187775000Y-124212500D03*
%TO.P,C3,2*%
%TO.N,GND*%
X186050000Y-124212500D03*
%TD*%
D17*
%TO.P,U9,1,I/O1_1*%
%TO.N,/BT_D+*%
X119400000Y-133027500D03*
%TO.P,U9,2,GND_2*%
%TO.N,GND*%
X120350000Y-133027500D03*
%TO.P,U9,3,I/O2_3*%
%TO.N,/BT_D-*%
X121300000Y-133027500D03*
%TO.P,U9,4,I/O2_4*%
%TO.N,/P_BT_D-*%
X121300000Y-130752500D03*
%TO.P,U9,5,VBUS_5*%
%TO.N,+3V3*%
X120350000Y-130752500D03*
%TO.P,U9,6,I/O1_6*%
%TO.N,/P_BT_D+*%
X119400000Y-130752500D03*
%TD*%
D42*
%TO.P,J2,1,Pin_1_1*%
%TO.N,Net-(J2-Pin_1)*%
X193675000Y-109112500D03*
D43*
%TO.P,J2,2,Pin_2_2*%
%TO.N,Net-(J2-Pin_2)*%
X191675000Y-109112500D03*
%TD*%
D38*
%TO.P,J4,1,Pin_1_1*%
%TO.N,/IO26*%
X197200000Y-70240000D03*
D39*
%TO.P,J4,2,Pin_2_2*%
%TO.N,/IO22*%
X197200000Y-72780000D03*
%TO.P,J4,3,Pin_3_3*%
%TO.N,/IO21*%
X197200000Y-75320000D03*
%TO.P,J4,4,Pin_4_4*%
%TO.N,/IO5*%
X197200000Y-77860000D03*
%TO.P,J4,5,Pin_5_5*%
%TO.N,/IO18*%
X197200000Y-80400000D03*
%TO.P,J4,6,Pin_6_6*%
%TO.N,/IO23*%
X197200000Y-82940000D03*
%TO.P,J4,7,Pin_7_7*%
%TO.N,GND*%
X197200000Y-85480000D03*
%TO.P,J4,8,Pin_8_8*%
%TO.N,+3V3*%
X197200000Y-88020000D03*
%TD*%
D24*
%TO.P,C10,1*%
%TO.N,Net-(U3-CAPP)*%
X153037500Y-85875000D03*
%TO.P,C10,2*%
%TO.N,Net-(U3-CAPM)*%
X154762500Y-85875000D03*
%TD*%
D16*
%TO.P,R10,1*%
%TO.N,/EN*%
X175500000Y-134812500D03*
%TO.P,R10,2*%
%TO.N,+3V3*%
X175500000Y-132987500D03*
%TD*%
D30*
%TO.P,C9,1*%
%TO.N,GND*%
X159300000Y-92362500D03*
%TO.P,C9,2*%
%TO.N,/IN_R*%
X159300000Y-90637500D03*
%TD*%
%TO.P,C17,1*%
%TO.N,/LDOO*%
X154200000Y-76537500D03*
%TO.P,C17,2*%
%TO.N,GND*%
X154200000Y-74812500D03*
%TD*%
%TO.P,C16,1*%
%TO.N,GND*%
X152600000Y-76462500D03*
%TO.P,C16,2*%
%TO.N,/LDOO*%
X152600000Y-74737500D03*
%TD*%
D44*
%TO.P,U2,1,GND_1*%
%TO.N,GND*%
X149850000Y-54080000D03*
%TO.P,U2,2,VDD_2*%
%TO.N,+3V3*%
X149850000Y-55350000D03*
%TO.P,U2,3,EN_3*%
%TO.N,/EN*%
X149850000Y-56620000D03*
%TO.P,U2,4,SENSOR_VP_4*%
%TO.N,/SENSOR_VP*%
X149850000Y-57890000D03*
%TO.P,U2,5,SENSOR_VN_5*%
%TO.N,/SENSOR_VN*%
X149850000Y-59160000D03*
%TO.P,U2,6,IO34_6*%
%TO.N,/IO34*%
X149850000Y-60430000D03*
%TO.P,U2,7,IO35_7*%
%TO.N,/IO35*%
X149850000Y-61700000D03*
%TO.P,U2,8,IO32_8*%
%TO.N,/IO32*%
X149850000Y-62970000D03*
%TO.P,U2,9,IO33_9*%
%TO.N,/IO33*%
X149850000Y-64240000D03*
%TO.P,U2,10,IO25_10*%
%TO.N,/IO25*%
X149850000Y-65510000D03*
%TO.P,U2,11,IO26_11*%
%TO.N,/IO26*%
X149850000Y-66780000D03*
%TO.P,U2,12,IO27_12*%
%TO.N,/IO27*%
X149850000Y-68050000D03*
%TO.P,U2,13,IO14_13*%
%TO.N,/IO14*%
X149850000Y-69320000D03*
%TO.P,U2,14,IO12_14*%
%TO.N,/IO12*%
X149850000Y-70590000D03*
D45*
%TO.P,U2,15,GND_15*%
%TO.N,GND*%
X152890000Y-71840000D03*
%TO.P,U2,16,IO13_16*%
%TO.N,/IO13*%
X154160000Y-71840000D03*
%TO.P,U2,17,NC_17*%
%TO.N,unconnected-(U2-NC-Pad17)*%
X155430000Y-71840000D03*
%TO.P,U2,18,NC_18*%
%TO.N,unconnected-(U2-NC-Pad18)*%
X156700000Y-71840000D03*
%TO.P,U2,19,NC_19*%
%TO.N,unconnected-(U2-NC-Pad19)*%
X157970000Y-71840000D03*
%TO.P,U2,20,NC_20*%
%TO.N,unconnected-(U2-NC-Pad20)*%
X159240000Y-71840000D03*
%TO.P,U2,21,NC_21*%
%TO.N,unconnected-(U2-NC-Pad21)*%
X160510000Y-71840000D03*
%TO.P,U2,22,NC_22*%
%TO.N,unconnected-(U2-NC-Pad22)*%
X161780000Y-71840000D03*
%TO.P,U2,23,IO15_23*%
%TO.N,/IO15*%
X163050000Y-71840000D03*
%TO.P,U2,24,IO2_24*%
%TO.N,/IO2*%
X164320000Y-71840000D03*
D44*
%TO.P,U2,25,IO0_25*%
%TO.N,/IO0*%
X167350000Y-70590000D03*
%TO.P,U2,26,IO4_26*%
%TO.N,/IO4*%
X167350000Y-69320000D03*
%TO.P,U2,27,IO16_27*%
%TO.N,/IO16*%
X167350000Y-68050000D03*
%TO.P,U2,28,IO17_28*%
%TO.N,/IO17*%
X167350000Y-66780000D03*
%TO.P,U2,29,IO5_29*%
%TO.N,/IO5*%
X167350000Y-65510000D03*
%TO.P,U2,30,IO18_30*%
%TO.N,/IO18*%
X167350000Y-64240000D03*
%TO.P,U2,31,IO19_31*%
%TO.N,/IO19*%
X167350000Y-62970000D03*
%TO.P,U2,32,NC_32*%
%TO.N,unconnected-(U2-NC-Pad32)*%
X167350000Y-61700000D03*
%TO.P,U2,33,IO21_33*%
%TO.N,/IO21*%
X167350000Y-60430000D03*
%TO.P,U2,34,RXD0/IO3_34*%
%TO.N,/ESP_RX*%
X167350000Y-59160000D03*
%TO.P,U2,35,TXD0/IO1_35*%
%TO.N,/ESP_TX*%
X167350000Y-57890000D03*
%TO.P,U2,36,IO22_36*%
%TO.N,/IO22*%
X167350000Y-56620000D03*
%TO.P,U2,37,IO23_37*%
%TO.N,/IO23*%
X167350000Y-55350000D03*
%TO.P,U2,38,GND_38*%
%TO.N,GND*%
X167350000Y-54080000D03*
D46*
%TO.P,U2,39,GND_39*%
X155700000Y-60400000D03*
D47*
X155700000Y-61100000D03*
D46*
X155700000Y-61800000D03*
D47*
X155700000Y-62500000D03*
D46*
X155700000Y-63200000D03*
D47*
X156400000Y-60400000D03*
X156400000Y-61800000D03*
X156400000Y-63200000D03*
X157075000Y-61100000D03*
X157075000Y-62500000D03*
D46*
X157100000Y-60400000D03*
X157100000Y-61800000D03*
D48*
X157100000Y-61800000D03*
D46*
X157100000Y-63200000D03*
D47*
X157800000Y-60400000D03*
X157800000Y-61800000D03*
X157800000Y-63200000D03*
D46*
X158500000Y-60400000D03*
D47*
X158500000Y-61100000D03*
D46*
X158500000Y-61800000D03*
D47*
X158500000Y-62500000D03*
D46*
X158500000Y-63200000D03*
%TD*%
D33*
%TO.P,SW2,1,1_1*%
%TO.N,/IO33*%
X151600000Y-94567618D03*
X155700000Y-94567618D03*
%TO.P,SW2,2,2_2*%
%TO.N,GND*%
X151600000Y-96167618D03*
X155700000Y-96167618D03*
%TD*%
D49*
%TO.P,SW6,1,A_1*%
%TO.N,Net-(J2-Pin_1)*%
X190700000Y-116500000D03*
%TO.P,SW6,2,B_2*%
%TO.N,Net-(J2-Pin_2)*%
X188200000Y-116500000D03*
%TO.P,SW6,3,C_3*%
%TO.N,unconnected-(SW6-C-Pad3)*%
X185700000Y-116500000D03*
%TO.P,SW6,4,A_4*%
%TO.N,unconnected-(SW6-A-Pad4)*%
X190700000Y-114100000D03*
%TO.P,SW6,5,B_5*%
%TO.N,Net-(U4-BAT_SNS)*%
X188200000Y-114100000D03*
%TO.P,SW6,6,C_6*%
%TO.N,GND*%
X185700000Y-114100000D03*
%TD*%
D50*
%TO.N,GND*%
X140800000Y-145300000D03*
X136900000Y-141400000D03*
%TO.N,+3V3*%
X175400000Y-132987500D03*
X177862500Y-132850000D03*
%TO.N,GND*%
X165900000Y-88037500D03*
%TO.N,/IO35*%
X149900000Y-61700000D03*
%TO.N,+3V3*%
X149850000Y-55350000D03*
X145400000Y-57700000D03*
X150800000Y-79000000D03*
X152900000Y-77800000D03*
X152000000Y-84300000D03*
%TO.N,GND*%
X155400000Y-82600000D03*
%TO.N,+3V3*%
X148287500Y-94400000D03*
%TO.N,GND*%
X154200000Y-74812500D03*
%TO.N,/IO13*%
X154160000Y-71840000D03*
X154300000Y-73600000D03*
%TO.N,+3V3*%
X168600000Y-132200000D03*
X161500000Y-132400000D03*
X166550000Y-133250000D03*
%TO.N,Net-(U4-BAT_SNS)*%
X193200000Y-119400000D03*
X187700000Y-125500000D03*
%TO.N,+3V3*%
X146900000Y-130300000D03*
X125500000Y-131800000D03*
X172900000Y-104700000D03*
X186100000Y-97700000D03*
%TO.N,/IO4*%
X167350000Y-69320000D03*
X143200000Y-84800000D03*
X133700000Y-96500000D03*
X125900000Y-96400000D03*
%TO.N,+3.3VA*%
X172900000Y-91900000D03*
X176800000Y-92900000D03*
%TO.N,+3V3*%
X185900000Y-121900000D03*
X183662500Y-119962500D03*
X174787500Y-123952500D03*
%TO.N,/EN*%
X175500000Y-134812500D03*
X177000000Y-143700000D03*
%TO.N,/IO18*%
X167350000Y-64240000D03*
%TO.N,/IO5*%
X167350000Y-65510000D03*
%TO.N,/IO26*%
X162700000Y-68300000D03*
%TO.N,/IO23*%
X190500000Y-67400000D03*
%TO.N,/IO21*%
X167300000Y-60400000D03*
X171900000Y-59400000D03*
%TO.N,/IO22*%
X183700000Y-69500000D03*
%TO.N,/IO18*%
X189600000Y-73300000D03*
%TO.N,/IO5*%
X188700000Y-72600000D03*
%TO.N,/IO22*%
X183700000Y-71200000D03*
%TO.N,/IO26*%
X181960000Y-70240000D03*
%TO.N,/IO2*%
X164320000Y-71840000D03*
X134400000Y-84300000D03*
%TO.N,/IO27*%
X144900000Y-78700000D03*
%TO.N,/IO32*%
X140700000Y-78700000D03*
%TO.N,/IO33*%
X142000000Y-78800000D03*
X142300000Y-81200000D03*
%TO.N,/IO23*%
X151150000Y-59950000D03*
%TO.N,/IO19*%
X151450000Y-61950000D03*
%TO.N,/IO18*%
X151500000Y-64600000D03*
%TO.N,/IO25*%
X127000000Y-80500000D03*
%TO.N,/IO19*%
X130100000Y-80500000D03*
%TO.N,/IO18*%
X131300000Y-80900000D03*
%TO.N,/IO23*%
X132500000Y-81800000D03*
%TO.N,/IO27*%
X136000000Y-80600000D03*
%TO.N,/IO35*%
X137000000Y-80600000D03*
%TO.N,/IO25*%
X143000000Y-73000000D03*
%TO.N,/IO33*%
X142000000Y-78800000D03*
%TO.N,/IO34*%
X140200000Y-77500000D03*
%TO.N,/IO32*%
X138700000Y-85100000D03*
%TO.N,/IO34*%
X137900000Y-80500000D03*
%TO.N,/SENSOR_VP*%
X139400000Y-80500000D03*
X139500000Y-78900000D03*
%TO.N,GND*%
X119875000Y-80700000D03*
X192475000Y-55900000D03*
%TO.N,+3V3*%
X164100000Y-78800000D03*
X165800000Y-78400000D03*
%TO.N,GND*%
X163500000Y-74812500D03*
X166200000Y-74712500D03*
X166600000Y-131300000D03*
X139417618Y-108350000D03*
X155700000Y-96167618D03*
X167882382Y-108350000D03*
X155700000Y-111200000D03*
X176737500Y-119600000D03*
X155700000Y-124632382D03*
X185700000Y-114100000D03*
X199050000Y-114000000D03*
X152890000Y-71840000D03*
X149850000Y-54080000D03*
X167350000Y-54080000D03*
X151300000Y-88212500D03*
X159300000Y-92362500D03*
X161800000Y-88137500D03*
X150800000Y-77137500D03*
X155800000Y-76487500D03*
X152600000Y-76462500D03*
X124685000Y-85795000D03*
X109715000Y-80700000D03*
X110985000Y-80700000D03*
X124685000Y-93415000D03*
X113525000Y-94700000D03*
X120350000Y-133027500D03*
X113500000Y-135277500D03*
X115000000Y-139510000D03*
X121400000Y-139510000D03*
X122100000Y-137600000D03*
X151750000Y-130300000D03*
X144700000Y-130300000D03*
X163180000Y-139595000D03*
X169580000Y-139595000D03*
X166550000Y-137500000D03*
X163100000Y-135787500D03*
X170500000Y-135987500D03*
X172862500Y-129400000D03*
X176000000Y-127700000D03*
X189075000Y-131325000D03*
X191775000Y-131075000D03*
X191175000Y-120750000D03*
X186012500Y-127012500D03*
X186050000Y-124212500D03*
X181675000Y-127575000D03*
X182275000Y-122787500D03*
%TO.N,/IO23*%
X190300000Y-75100000D03*
%TD*%
%TO.N,/IO21*%
D51*
X186100000Y-71900000D02*
X182571752Y-71900000D01*
%TO.N,GND*%
D52*
X136900000Y-138300000D02*
X136900000Y-141400000D01*
X140600000Y-134600000D02*
X136900000Y-138300000D01*
%TO.N,+3V3*%
X175400000Y-132987500D02*
X175500000Y-132987500D01*
D53*
X174787500Y-126800000D02*
X174787500Y-129062064D01*
X159212500Y-126200000D02*
X174187500Y-126200000D01*
X174187500Y-126200000D02*
X174787500Y-126800000D01*
%TO.N,GND*%
X167882382Y-108350000D02*
X167882382Y-112450000D01*
X161800000Y-88137500D02*
X163500000Y-88137500D01*
%TO.N,+3V3*%
D51*
X153500000Y-81700000D02*
X150800000Y-79000000D01*
X160700000Y-79462500D02*
X158462500Y-81700000D01*
X158462500Y-81700000D02*
X153500000Y-81700000D01*
D54*
X150800000Y-79000000D02*
X150800000Y-81225000D01*
D51*
X160700000Y-79462500D02*
X161139168Y-79462500D01*
D52*
X153125000Y-77800000D02*
X152900000Y-77800000D01*
X153700000Y-78375000D02*
X153125000Y-77800000D01*
%TO.N,GND*%
X152225000Y-76400000D02*
X152537500Y-76400000D01*
X152225000Y-78259314D02*
X152225000Y-76400000D01*
X152546642Y-78580956D02*
X152225000Y-78259314D01*
X152600000Y-78580956D02*
X152546642Y-78580956D01*
X153431544Y-79412500D02*
X152600000Y-78580956D01*
X154049999Y-79412500D02*
X153431544Y-79412500D01*
X152537500Y-76400000D02*
X152600000Y-76462500D01*
X155381544Y-82618456D02*
X155400000Y-82600000D01*
X155381544Y-83062500D02*
X155381544Y-82618456D01*
%TO.N,/IO13*%
X155991722Y-73600000D02*
X154300000Y-73600000D01*
X157025000Y-74633278D02*
X155991722Y-73600000D01*
X157025000Y-78300000D02*
X157025000Y-74633278D01*
X156950000Y-78375000D02*
X157025000Y-78300000D01*
%TO.N,+3V3*%
X168150000Y-131750000D02*
X168600000Y-132200000D01*
X168150000Y-130350432D02*
X168150000Y-131750000D01*
%TO.N,Net-(U4-BAT_SNS)*%
X193200000Y-119400000D02*
X192800000Y-119800000D01*
D51*
X192800000Y-119800000D02*
X194400000Y-121400000D01*
D52*
X187762500Y-125437500D02*
X187700000Y-125500000D01*
X189262500Y-125437500D02*
X187762500Y-125437500D01*
%TO.N,GND*%
X192550000Y-130300000D02*
X191775000Y-131075000D01*
X192200000Y-127875000D02*
X192550000Y-128225000D01*
X192550000Y-128225000D02*
X192550000Y-130300000D01*
%TO.N,Net-(U5-Vin)*%
X190200000Y-124000000D02*
X189262500Y-124937500D01*
%TO.N,+3V3*%
D53*
X166550000Y-135225000D02*
X166550000Y-133250000D01*
X161387500Y-132287500D02*
X161500000Y-132400000D01*
X161387500Y-129500000D02*
X161387500Y-132287500D01*
D54*
X152000000Y-84000000D02*
X152000000Y-84300000D01*
X152787500Y-83212500D02*
X152000000Y-84000000D01*
X152787500Y-83212500D02*
X153675000Y-84100000D01*
D53*
X135495000Y-57700000D02*
X145400000Y-57700000D01*
X113525000Y-79670000D02*
X135495000Y-57700000D01*
X113525000Y-80700000D02*
X113525000Y-79670000D01*
X137700000Y-104987500D02*
X137600000Y-104987500D01*
X146900000Y-130300000D02*
X146900000Y-131150000D01*
D51*
X120735001Y-131800000D02*
X125500000Y-131800000D01*
X120350000Y-131414999D02*
X120735001Y-131800000D01*
X120350000Y-130752500D02*
X120350000Y-131414999D01*
%TO.N,/BT_D-*%
X128172500Y-139900000D02*
X121300000Y-133027500D01*
X128600000Y-139900000D02*
X128172500Y-139900000D01*
X126500000Y-142000000D02*
X128600000Y-139900000D01*
X112400000Y-142000000D02*
X126500000Y-142000000D01*
X111835000Y-136265000D02*
X109800000Y-138300000D01*
X109800000Y-139400000D02*
X112400000Y-142000000D01*
X115362500Y-136265000D02*
X111835000Y-136265000D01*
X109800000Y-138300000D02*
X109800000Y-139400000D01*
X116300000Y-137202500D02*
X115362500Y-136265000D01*
%TO.N,/EN*%
X176300000Y-143700000D02*
X177000000Y-143700000D01*
X175600000Y-143000000D02*
X176300000Y-143700000D01*
X161865127Y-143000000D02*
X175600000Y-143000000D01*
X141150000Y-135937868D02*
X141937868Y-135150000D01*
X141150000Y-140050000D02*
X141150000Y-135937868D01*
X139750000Y-140050000D02*
X141150000Y-140050000D01*
X154015127Y-135150000D02*
X161865127Y-143000000D01*
X137300000Y-142500000D02*
X139750000Y-140050000D01*
X109900000Y-142500000D02*
X137300000Y-142500000D01*
X141937868Y-135150000D02*
X154015127Y-135150000D01*
X108900000Y-136987082D02*
X108900000Y-141500000D01*
X108965000Y-136922082D02*
X108900000Y-136987082D01*
X108965000Y-79450000D02*
X108965000Y-136922082D01*
X149850000Y-56620000D02*
X131795000Y-56620000D01*
X131795000Y-56620000D02*
X108965000Y-79450000D01*
X108900000Y-141500000D02*
X109900000Y-142500000D01*
%TO.N,+3V3*%
D52*
X198465000Y-86755000D02*
X197200000Y-88020000D01*
D53*
X171617618Y-105982382D02*
X170482382Y-105982382D01*
X172900000Y-104700000D02*
X171617618Y-105982382D01*
X187520000Y-97700000D02*
X186100000Y-97700000D01*
X197200000Y-88020000D02*
X187520000Y-97700000D01*
%TO.N,/IO4*%
D51*
X143200000Y-87000000D02*
X143200000Y-84800000D01*
X133700000Y-96500000D02*
X143200000Y-87000000D01*
X125670000Y-96400000D02*
X125900000Y-96400000D01*
X123435000Y-93885000D02*
X123435000Y-94165000D01*
X123000000Y-93450000D02*
X123435000Y-93885000D01*
X123435000Y-94165000D02*
X125670000Y-96400000D01*
X110235000Y-93450000D02*
X123000000Y-93450000D01*
X109715000Y-93970000D02*
X110235000Y-93450000D01*
X109715000Y-94700000D02*
X109715000Y-93970000D01*
%TO.N,+3.3VA*%
D53*
X164475000Y-88199564D02*
X164475000Y-87387500D01*
X164475000Y-87387500D02*
X163500000Y-86412500D01*
X168175436Y-91900000D02*
X164475000Y-88199564D01*
X172900000Y-91900000D02*
X168175436Y-91900000D01*
X176800000Y-111275000D02*
X176800000Y-92900000D01*
X185487500Y-119962500D02*
X176800000Y-111275000D01*
%TO.N,+3V3*%
D52*
X185900000Y-121900000D02*
X186000000Y-122000000D01*
X185447500Y-121447500D02*
X185900000Y-121900000D01*
X183225000Y-121447500D02*
X185447500Y-121447500D01*
%TO.N,/IO26*%
D51*
X161180000Y-66780000D02*
X162700000Y-68300000D01*
X149850000Y-66780000D02*
X161180000Y-66780000D01*
%TO.N,/IO23*%
X178450000Y-55350000D02*
X167350000Y-55350000D01*
X190500000Y-67400000D02*
X178450000Y-55350000D01*
%TO.N,/IO21*%
X171900000Y-61228248D02*
X171900000Y-59400000D01*
X182571752Y-71900000D02*
X171900000Y-61228248D01*
%TO.N,/IO22*%
X183700000Y-69500000D02*
X170820000Y-56620000D01*
X170820000Y-56620000D02*
X167350000Y-56620000D01*
%TO.N,/IO26*%
X181960000Y-70240000D02*
X181940000Y-70240000D01*
%TO.N,/IO2*%
X134400000Y-84300000D02*
X134500000Y-84200000D01*
%TO.N,/IO27*%
X144900000Y-72019239D02*
X144900000Y-78700000D01*
X148869239Y-68050000D02*
X144900000Y-72019239D01*
X149850000Y-68050000D02*
X148869239Y-68050000D01*
%TO.N,/IO32*%
X141300000Y-78100000D02*
X140700000Y-78700000D01*
X141500000Y-78100000D02*
X141300000Y-78100000D01*
%TO.N,/IO33*%
X142300000Y-82200000D02*
X142300000Y-81200000D01*
X150112500Y-90012500D02*
X142300000Y-82200000D01*
%TO.N,/IO23*%
X151150000Y-59950000D02*
X151100000Y-60000000D01*
%TO.N,/IO19*%
X151450000Y-61950000D02*
X151300000Y-62100000D01*
%TO.N,/IO25*%
X143000000Y-71730000D02*
X143000000Y-73000000D01*
%TO.N,/IO23*%
X155750000Y-55350000D02*
X151150000Y-59950000D01*
X167350000Y-55350000D02*
X155750000Y-55350000D01*
%TO.N,/IO19*%
X159350000Y-59550000D02*
X153850000Y-59550000D01*
X153850000Y-59550000D02*
X151450000Y-61950000D01*
X162770000Y-62970000D02*
X159350000Y-59550000D01*
X167350000Y-62970000D02*
X162770000Y-62970000D01*
%TO.N,/IO18*%
X151860000Y-64240000D02*
X151500000Y-64600000D01*
X167350000Y-64240000D02*
X151860000Y-64240000D01*
%TO.N,/IO25*%
X149220000Y-65510000D02*
X143000000Y-71730000D01*
X149850000Y-65510000D02*
X149220000Y-65510000D01*
%TO.N,/IO33*%
X142000000Y-71040000D02*
X142000000Y-78800000D01*
X148800000Y-64240000D02*
X142000000Y-71040000D01*
X149850000Y-64240000D02*
X148800000Y-64240000D01*
%TO.N,/IO34*%
X140200000Y-69030000D02*
X140200000Y-77500000D01*
X148800000Y-60430000D02*
X140200000Y-69030000D01*
X149850000Y-60430000D02*
X148800000Y-60430000D01*
%TO.N,/SENSOR_VP*%
X148800000Y-57890000D02*
X139500000Y-67190000D01*
X139500000Y-67190000D02*
X139500000Y-78900000D01*
X149850000Y-57890000D02*
X148800000Y-57890000D01*
%TO.N,/IO23*%
X190300000Y-76040000D02*
X190300000Y-75100000D01*
X197200000Y-82940000D02*
X190300000Y-76040000D01*
%TO.N,/IO18*%
X190100000Y-73300000D02*
X189600000Y-73300000D01*
X197200000Y-80400000D02*
X190100000Y-73300000D01*
%TO.N,/IO5*%
X191940000Y-72600000D02*
X188700000Y-72600000D01*
X197200000Y-77860000D02*
X191940000Y-72600000D01*
%TO.N,/IO21*%
X193780000Y-71900000D02*
X186100000Y-71900000D01*
X197200000Y-75320000D02*
X193780000Y-71900000D01*
%TO.N,/IO22*%
X195620000Y-71200000D02*
X183700000Y-71200000D01*
X197200000Y-72780000D02*
X195620000Y-71200000D01*
%TO.N,/IO26*%
X197200000Y-70240000D02*
X181960000Y-70240000D01*
%TO.N,/SENSOR_VP*%
X139400000Y-85400000D02*
X139400000Y-80500000D01*
X133000000Y-91800000D02*
X139400000Y-85400000D01*
%TO.N,/IO32*%
X131700000Y-108900000D02*
X131700000Y-92100000D01*
X136050000Y-113250000D02*
X131700000Y-108900000D01*
X131700000Y-92100000D02*
X138700000Y-85100000D01*
X146262500Y-113250000D02*
X136050000Y-113250000D01*
X150012500Y-109500000D02*
X146262500Y-113250000D01*
%TO.N,/IO34*%
X137900000Y-84700000D02*
X137900000Y-80500000D01*
X131200000Y-91400000D02*
X137900000Y-84700000D01*
X131200000Y-109520102D02*
X131200000Y-91400000D01*
X145462280Y-123782382D02*
X131200000Y-109520102D01*
X158150000Y-123782382D02*
X145462280Y-123782382D01*
X169482382Y-112450000D02*
X158150000Y-123782382D01*
%TO.N,/IO35*%
D52*
X137000000Y-84600000D02*
X137000000Y-80600000D01*
X130750000Y-90850000D02*
X137000000Y-84600000D01*
X147275884Y-126232382D02*
X130750000Y-109706498D01*
X130750000Y-109706498D02*
X130750000Y-90850000D01*
X151600000Y-126232382D02*
X147275884Y-126232382D01*
%TO.N,/IO27*%
D51*
X130300000Y-109892894D02*
X130300000Y-89700000D01*
X136000000Y-84000000D02*
X136000000Y-80600000D01*
X130300000Y-89700000D02*
X136000000Y-84000000D01*
X150200000Y-129792894D02*
X130300000Y-109892894D01*
X150200000Y-130300000D02*
X150200000Y-129792894D01*
%TO.N,/IO2*%
X130800000Y-87900000D02*
X134400000Y-84300000D01*
%TO.N,/IO23*%
X130200000Y-84100000D02*
X132500000Y-81800000D01*
X130200000Y-86900000D02*
X130200000Y-84100000D01*
X129300000Y-110700000D02*
X129300000Y-87800000D01*
X148000000Y-129400000D02*
X129300000Y-110700000D01*
X129300000Y-87800000D02*
X130200000Y-86900000D01*
X148000000Y-130300000D02*
X148000000Y-129400000D01*
%TO.N,/IO18*%
X129500000Y-82700000D02*
X131300000Y-80900000D01*
X129500000Y-85800000D02*
X129500000Y-82700000D01*
X129500000Y-85800000D02*
X129600000Y-85700000D01*
%TO.N,/IO19*%
X128600000Y-82000000D02*
X130100000Y-80500000D01*
X128600000Y-84600000D02*
X128600000Y-82000000D01*
%TO.N,/IO25*%
X127000000Y-113450000D02*
X127000000Y-80500000D01*
X142500000Y-128950000D02*
X127000000Y-113450000D01*
X142500000Y-130300000D02*
X142500000Y-128950000D01*
%TO.N,/IO33*%
X150112500Y-94400000D02*
X150112500Y-90012500D01*
%TO.N,/SENSOR_VP*%
X133000000Y-91900000D02*
X133000000Y-91800000D01*
X132400000Y-92500000D02*
X133000000Y-91900000D01*
X132400000Y-107032382D02*
X132400000Y-92500000D01*
X137817618Y-112450000D02*
X132400000Y-107032382D01*
%TO.N,/IO2*%
X130600000Y-87900000D02*
X130800000Y-87900000D01*
X129800000Y-88700000D02*
X130600000Y-87900000D01*
X149100000Y-129400000D02*
X129800000Y-110100000D01*
X129800000Y-110100000D02*
X129800000Y-88700000D01*
X149100000Y-130300000D02*
X149100000Y-129400000D01*
%TO.N,/IO18*%
X128500000Y-86800000D02*
X129500000Y-85800000D01*
X128500000Y-112600000D02*
X128500000Y-86800000D01*
X145800000Y-129750000D02*
X128650000Y-112600000D01*
X128650000Y-112600000D02*
X128500000Y-112600000D01*
X145800000Y-130300000D02*
X145800000Y-129750000D01*
%TO.N,/IO19*%
X127500000Y-85700000D02*
X128600000Y-84600000D01*
X127500000Y-113242894D02*
X127500000Y-85700000D01*
X143600000Y-129342894D02*
X127500000Y-113242894D01*
X143600000Y-130300000D02*
X143600000Y-129342894D01*
%TO.N,+3V3*%
D53*
X154012500Y-131400000D02*
X156187500Y-129225000D01*
X147150000Y-131400000D02*
X154012500Y-131400000D01*
X146900000Y-131150000D02*
X147150000Y-131400000D01*
%TO.N,/ESP_TX*%
D55*
X167760000Y-58300000D02*
X167350000Y-57890000D01*
X168300000Y-58300000D02*
X167760000Y-58300000D01*
%TO.N,/SENSOR_VN*%
D52*
X156630000Y-53330000D02*
X150800000Y-59160000D01*
X191630000Y-53330000D02*
X156630000Y-53330000D01*
X150800000Y-59160000D02*
X149850000Y-59160000D01*
X194200000Y-55900000D02*
X191630000Y-53330000D01*
%TO.N,+3V3*%
D53*
X143675000Y-104987500D02*
X137700000Y-104987500D01*
X148187500Y-109500000D02*
X143675000Y-104987500D01*
X148187500Y-94500000D02*
X148287500Y-94400000D01*
X148187500Y-109500000D02*
X148187500Y-94500000D01*
X158482382Y-105000000D02*
X148287500Y-94805118D01*
X148287500Y-94805118D02*
X148287500Y-94400000D01*
X169500000Y-105000000D02*
X158482382Y-105000000D01*
X170482382Y-114930118D02*
X159212500Y-126200000D01*
X170482382Y-105982382D02*
X170482382Y-114930118D01*
X169500000Y-105000000D02*
X170482382Y-105982382D01*
X173474564Y-130375000D02*
X172112500Y-130375000D01*
X172112500Y-130375000D02*
X171137500Y-129400000D01*
X174787500Y-129062064D02*
X173474564Y-130375000D01*
X174787500Y-123952500D02*
X174787500Y-126800000D01*
D52*
X183225000Y-121447500D02*
X182275000Y-121447500D01*
X168374568Y-129625000D02*
X168150000Y-129849568D01*
X168150000Y-130350432D02*
X170787068Y-132987500D01*
X170912500Y-129625000D02*
X168374568Y-129625000D01*
X171137500Y-129400000D02*
X170912500Y-129625000D01*
X168150000Y-129849568D02*
X168150000Y-130350432D01*
X170787068Y-132987500D02*
X175400000Y-132987500D01*
D54*
X156187500Y-129225000D02*
X159212500Y-126200000D01*
D52*
X198465000Y-62520000D02*
X198465000Y-86755000D01*
X197315000Y-61370000D02*
X198465000Y-62520000D01*
%TO.N,/SENSOR_VN*%
X149320000Y-59160000D02*
X149850000Y-59160000D01*
X196925000Y-55900000D02*
X197315000Y-56290000D01*
X194200000Y-55900000D02*
X196925000Y-55900000D01*
%TO.N,GND*%
X153600000Y-144900000D02*
X154100000Y-145400000D01*
X140650000Y-144900000D02*
X153600000Y-144900000D01*
X140600000Y-144950000D02*
X140650000Y-144900000D01*
X144700000Y-131200000D02*
X144700000Y-130300000D01*
X141300000Y-134600000D02*
X144700000Y-131200000D01*
X140600000Y-134600000D02*
X141300000Y-134600000D01*
%TO.N,+3V3*%
D51*
X163898332Y-78800000D02*
X164100000Y-78800000D01*
X163500000Y-78401668D02*
X163898332Y-78800000D01*
D52*
X163400000Y-76437500D02*
X163500000Y-76537500D01*
X161800000Y-76437500D02*
X163400000Y-76437500D01*
%TO.N,/IO15*%
X163050000Y-72790000D02*
X163050000Y-71840000D01*
X159281544Y-75926734D02*
X162318278Y-72890000D01*
X162318278Y-72890000D02*
X162950000Y-72890000D01*
X159281544Y-77337500D02*
X159281544Y-75926734D01*
X162950000Y-72890000D02*
X163050000Y-72790000D01*
%TO.N,GND*%
X163400000Y-74712500D02*
X163500000Y-74812500D01*
X161800000Y-74712500D02*
X163400000Y-74712500D01*
X160850000Y-75662500D02*
X161800000Y-74712500D01*
X160850000Y-78375000D02*
X160850000Y-75662500D01*
X155999999Y-79412500D02*
X154049999Y-79412500D01*
X156300000Y-79112499D02*
X155999999Y-79412500D01*
X156300000Y-78375000D02*
X156300000Y-79112499D01*
X154350000Y-79112499D02*
X154049999Y-79412500D01*
X154350000Y-78375000D02*
X154350000Y-79112499D01*
%TO.N,/IO14*%
X149320000Y-69320000D02*
X149850000Y-69320000D01*
X151825000Y-74365000D02*
X148800000Y-71340000D01*
X151825000Y-78425000D02*
X151825000Y-74365000D01*
X148800000Y-69840000D02*
X149320000Y-69320000D01*
X157380956Y-79900000D02*
X153300000Y-79900000D01*
X158250000Y-79030956D02*
X157380956Y-79900000D01*
X153300000Y-79900000D02*
X151825000Y-78425000D01*
X158250000Y-78375000D02*
X158250000Y-79030956D01*
X148800000Y-71340000D02*
X148800000Y-69840000D01*
%TO.N,GND*%
X158900000Y-83444044D02*
X158900000Y-84100000D01*
X155381544Y-83062500D02*
X158518456Y-83062500D01*
X158518456Y-83062500D02*
X158900000Y-83444044D01*
X155000000Y-83444044D02*
X155381544Y-83062500D01*
X155000000Y-84100000D02*
X155000000Y-83444044D01*
X159200000Y-92262500D02*
X159300000Y-92362500D01*
X156600000Y-92262500D02*
X159200000Y-92262500D01*
X151600000Y-96167618D02*
X155700000Y-96167618D01*
X151600000Y-111200000D02*
X155700000Y-111200000D01*
X139417618Y-112450000D02*
X139417618Y-108350000D01*
X151600000Y-124632382D02*
X155700000Y-124632382D01*
X166600000Y-129899568D02*
X166600000Y-131300000D01*
X165800432Y-129100000D02*
X166600000Y-129899568D01*
X165000000Y-129100000D02*
X165800432Y-129100000D01*
%TO.N,/P_ESP_D-*%
X167300000Y-130100000D02*
X167500000Y-130300000D01*
X167500000Y-130300000D02*
X167500000Y-135225000D01*
X166600000Y-128600000D02*
X167300000Y-129300000D01*
X165000000Y-128600000D02*
X166600000Y-128600000D01*
X167300000Y-129300000D02*
X167300000Y-130100000D01*
%TO.N,GND*%
X172900000Y-129362500D02*
X172862500Y-129400000D01*
X172900000Y-127800000D02*
X172900000Y-129362500D01*
X181325000Y-123737500D02*
X182275000Y-122787500D01*
X181325000Y-124127500D02*
X181325000Y-123737500D01*
X194950000Y-114000000D02*
X199050000Y-114000000D01*
%TO.N,+3.3VA*%
D51*
X161800000Y-86412500D02*
X163500000Y-86412500D01*
X159825001Y-86412500D02*
X161800000Y-86412500D01*
X158250000Y-84837499D02*
X159825001Y-86412500D01*
X158250000Y-84100000D02*
X158250000Y-84837499D01*
%TO.N,+3V3*%
X165520000Y-78120000D02*
X165800000Y-78400000D01*
X165520000Y-77117500D02*
X165520000Y-78120000D01*
X166200000Y-76437500D02*
X165520000Y-77117500D01*
X163500000Y-78401668D02*
X163500000Y-76537500D01*
X162439168Y-79462500D02*
X163500000Y-78401668D01*
X161500000Y-79101668D02*
X161860832Y-79462500D01*
X161860832Y-79462500D02*
X162439168Y-79462500D01*
X161500000Y-78375000D02*
X161500000Y-79101668D01*
X161139168Y-79462500D02*
X161500000Y-79101668D01*
X160550001Y-79462500D02*
X160700000Y-79462500D01*
X160200000Y-79112499D02*
X160550001Y-79462500D01*
X160200000Y-78375000D02*
X160200000Y-79112499D01*
D54*
X150800000Y-81225000D02*
X152787500Y-83212500D01*
X150800000Y-78862500D02*
X150800000Y-79000000D01*
%TO.N,/SENSOR_VP*%
D51*
X137600000Y-112232382D02*
X137817618Y-112450000D01*
X137600000Y-106812500D02*
X137600000Y-112232382D01*
%TO.N,/IO32*%
X150112500Y-109600000D02*
X150012500Y-109500000D01*
X155700000Y-109600000D02*
X150112500Y-109600000D01*
%TO.N,/IO34*%
X169500000Y-112432382D02*
X169482382Y-112450000D01*
X169500000Y-106825000D02*
X169500000Y-112432382D01*
%TO.N,/IO33*%
X150280118Y-94567618D02*
X150112500Y-94400000D01*
X155700000Y-94567618D02*
X150280118Y-94567618D01*
%TO.N,/IO0*%
D52*
X173862500Y-77102500D02*
X167350000Y-70590000D01*
X173862500Y-119662500D02*
X173862500Y-77102500D01*
X174900000Y-120700000D02*
X173862500Y-119662500D01*
%TO.N,/IO16*%
X166400000Y-68050000D02*
X167350000Y-68050000D01*
X166300000Y-68150000D02*
X166400000Y-68050000D01*
X166300000Y-71340000D02*
X166300000Y-68150000D01*
X166975000Y-72015000D02*
X166300000Y-71340000D01*
X166975000Y-80580956D02*
X166975000Y-72015000D01*
X162418456Y-85137500D02*
X166975000Y-80580956D01*
X160581544Y-85137500D02*
X162418456Y-85137500D01*
X160200000Y-84755956D02*
X160581544Y-85137500D01*
X160200000Y-84100000D02*
X160200000Y-84755956D01*
%TO.N,/IO17*%
X165000000Y-67300000D02*
X165520000Y-66780000D01*
X165070000Y-67370000D02*
X165000000Y-67300000D01*
X165070000Y-79142501D02*
X165070000Y-67370000D01*
X160850000Y-83362501D02*
X165070000Y-79142501D01*
X160850000Y-84100000D02*
X160850000Y-83362501D01*
X165520000Y-66780000D02*
X167350000Y-66780000D01*
%TO.N,/IO15*%
X162725000Y-72165000D02*
X163050000Y-71840000D01*
X158900000Y-77719044D02*
X159281544Y-77337500D01*
X158900000Y-78375000D02*
X158900000Y-77719044D01*
%TO.N,Net-(U3-XSMT)*%
X156625000Y-77280956D02*
X156088088Y-77280956D01*
X156625000Y-75487500D02*
X156625000Y-77280956D01*
X155800000Y-74662500D02*
X156625000Y-75487500D01*
X156088088Y-77280956D02*
X155650000Y-77719044D01*
X155650000Y-77719044D02*
X155650000Y-78375000D01*
%TO.N,/LDOO*%
X152600000Y-74937500D02*
X154200000Y-76537500D01*
X152600000Y-74737500D02*
X152600000Y-74937500D01*
X155000000Y-77337500D02*
X155000000Y-78375000D01*
X154200000Y-76537500D02*
X155000000Y-77337500D01*
%TO.N,/VNEG*%
X156300000Y-85100000D02*
X156300000Y-84100000D01*
X155625000Y-85775000D02*
X156300000Y-85100000D01*
X156133278Y-88175000D02*
X155625000Y-87666722D01*
X160075000Y-88175000D02*
X156133278Y-88175000D01*
X155625000Y-87666722D02*
X155625000Y-85775000D01*
X160075000Y-92891722D02*
X160075000Y-88175000D01*
X159766722Y-93200000D02*
X160075000Y-92891722D01*
X154562500Y-93200000D02*
X159766722Y-93200000D01*
X151300000Y-89937500D02*
X154562500Y-93200000D01*
%TO.N,Net-(U3-CAPP)*%
X153458278Y-85875000D02*
X154350000Y-84983278D01*
X154350000Y-84983278D02*
X154350000Y-84100000D01*
X153037500Y-85875000D02*
X153458278Y-85875000D01*
%TO.N,Net-(U3-CAPM)*%
X155650000Y-84987500D02*
X155650000Y-84100000D01*
X154762500Y-85875000D02*
X155650000Y-84987500D01*
%TO.N,/IN_R*%
X122500000Y-80700000D02*
X122415000Y-80700000D01*
X155775000Y-91375000D02*
X144300000Y-79900000D01*
X158562500Y-91375000D02*
X155775000Y-91375000D01*
X159300000Y-90637500D02*
X158562500Y-91375000D01*
X123300000Y-79900000D02*
X122500000Y-80700000D01*
%TO.N,/IN_L*%
X121845000Y-79500000D02*
X121145000Y-80200000D01*
X145358278Y-79500000D02*
X121845000Y-79500000D01*
X156395778Y-90537500D02*
X145358278Y-79500000D01*
X156600000Y-90537500D02*
X156395778Y-90537500D01*
X121145000Y-80200000D02*
X121145000Y-80700000D01*
%TO.N,/IN_R*%
X158000000Y-89337500D02*
X159300000Y-90637500D01*
X158000000Y-89012500D02*
X158000000Y-89337500D01*
%TO.N,/IN_L*%
X156400000Y-90337500D02*
X156600000Y-90537500D01*
X156400000Y-89012500D02*
X156400000Y-90337500D01*
%TO.N,Net-(U3-OUTL)*%
X156950000Y-84100000D02*
X156950000Y-86637500D01*
X156950000Y-86637500D02*
X156400000Y-87187500D01*
%TO.N,Net-(U3-OUTR)*%
X157600000Y-86787500D02*
X158000000Y-87187500D01*
X157600000Y-84100000D02*
X157600000Y-86787500D01*
%TO.N,/VCOM*%
X165162500Y-85575000D02*
X165900000Y-86312500D01*
X160287501Y-85575000D02*
X165162500Y-85575000D01*
X159550000Y-84837499D02*
X160287501Y-85575000D01*
X159550000Y-84100000D02*
X159550000Y-84837499D01*
%TO.N,Net-(U4-BAT_SNS)*%
D51*
X193635096Y-125437500D02*
X193137500Y-125437500D01*
X194400000Y-124672596D02*
X193635096Y-125437500D01*
X194400000Y-121400000D02*
X194400000Y-124672596D01*
X192100000Y-119100000D02*
X192800000Y-119800000D01*
X188800000Y-119100000D02*
X192100000Y-119100000D01*
X187350000Y-117650000D02*
X188800000Y-119100000D01*
X187350000Y-114950000D02*
X187350000Y-117650000D01*
X188200000Y-114100000D02*
X187350000Y-114950000D01*
%TO.N,Net-(C2-Pad1)*%
D52*
X168729999Y-141520000D02*
X168079999Y-140870000D01*
X171031371Y-141520000D02*
X168729999Y-141520000D01*
X171500000Y-141051371D02*
X171031371Y-141520000D01*
X171500000Y-137558278D02*
X171500000Y-141051371D01*
X175033278Y-134025000D02*
X171500000Y-137558278D01*
X175716722Y-134025000D02*
X175033278Y-134025000D01*
X176275000Y-133466722D02*
X175716722Y-134025000D01*
X176275000Y-132508278D02*
X176275000Y-133466722D01*
X178475000Y-130308278D02*
X176275000Y-132508278D01*
X178475000Y-123157500D02*
X178475000Y-130308278D01*
X180800000Y-120832500D02*
X178475000Y-123157500D01*
X189532500Y-120832500D02*
X180800000Y-120832500D01*
X191175000Y-122475000D02*
X189532500Y-120832500D01*
%TO.N,/P_BT_D+*%
D51*
X119400000Y-95175000D02*
X119875000Y-94700000D01*
X119400000Y-130752500D02*
X119400000Y-95175000D01*
%TO.N,/P_BT_D-*%
X121300000Y-94855000D02*
X121145000Y-94700000D01*
X121300000Y-130752500D02*
X121300000Y-94855000D01*
%TO.N,/BT_D-*%
D52*
X121300000Y-132365001D02*
X121300000Y-133027500D01*
%TO.N,/BT_D+*%
X119975000Y-134264999D02*
X119400000Y-133689999D01*
X119400000Y-133689999D02*
X119400000Y-133027500D01*
X119200000Y-137700000D02*
X119975000Y-136925000D01*
X119975000Y-136925000D02*
X119975000Y-134264999D01*
%TO.N,Net-(J3-CC1)*%
X114387500Y-137990000D02*
X113500000Y-137102500D01*
X116037410Y-137990000D02*
X114387500Y-137990000D01*
X116950000Y-138902590D02*
X116037410Y-137990000D01*
X116950000Y-139510000D02*
X116950000Y-138902590D01*
%TO.N,Net-(J3-CC2)*%
X119975000Y-139485000D02*
X119975000Y-137900000D01*
X119975000Y-137900000D02*
X122100000Y-135775000D01*
X119950000Y-139510000D02*
X119975000Y-139485000D01*
%TO.N,Net-(J3-D+-PadA6)*%
X118682410Y-138635000D02*
X117850000Y-137802590D01*
X117850000Y-137802590D02*
X117850000Y-137225000D01*
X117850000Y-137225000D02*
X119200000Y-135875000D01*
X118950000Y-138902590D02*
X118950000Y-139510000D01*
X118217590Y-138635000D02*
X118682410Y-138635000D01*
X117950000Y-138902590D02*
X118217590Y-138635000D01*
X118682410Y-138635000D02*
X118950000Y-138902590D01*
X117950000Y-139510000D02*
X117950000Y-138902590D01*
%TO.N,Net-(J3-D--PadA7)*%
X117450000Y-136527500D02*
X116300000Y-135377500D01*
X117450000Y-139510000D02*
X117450000Y-136527500D01*
X117450000Y-140117410D02*
X117450000Y-139510000D01*
X117717590Y-140385000D02*
X117450000Y-140117410D01*
X118450000Y-140117410D02*
X118182410Y-140385000D01*
X118450000Y-139510000D02*
X118450000Y-140117410D01*
X118182410Y-140385000D02*
X117717590Y-140385000D01*
%TO.N,/IO35*%
X151632382Y-126200000D02*
X151600000Y-126232382D01*
X157387500Y-126200000D02*
X151632382Y-126200000D01*
%TO.N,Net-(J1-CC1)*%
X163812500Y-137612500D02*
X163100000Y-137612500D01*
X165130000Y-138930000D02*
X163812500Y-137612500D01*
X165130000Y-139595000D02*
X165130000Y-138930000D01*
%TO.N,Net-(C2-Pad1)*%
X168780000Y-140169999D02*
X168780000Y-139595000D01*
X168079999Y-140870000D02*
X168780000Y-140169999D01*
X164797590Y-140870000D02*
X168079999Y-140870000D01*
X163980000Y-140052410D02*
X164797590Y-140870000D01*
X163980000Y-139595000D02*
X163980000Y-140052410D01*
%TO.N,/ESP_D-*%
X167500000Y-136837501D02*
X167500000Y-137500000D01*
X167199999Y-136537500D02*
X167500000Y-136837501D01*
X165259448Y-136537500D02*
X167199999Y-136537500D01*
X165000000Y-136796948D02*
X165259448Y-136537500D01*
X165000000Y-138203052D02*
X165000000Y-136796948D01*
X165635906Y-138838958D02*
X165000000Y-138203052D01*
X165635906Y-140208316D02*
X165635906Y-138838958D01*
X165897590Y-140470000D02*
X165635906Y-140208316D01*
X166300000Y-140470000D02*
X165897590Y-140470000D01*
%TO.N,/ESP_D+*%
X165600000Y-138162499D02*
X165600000Y-137500000D01*
X166157501Y-138720000D02*
X165600000Y-138162499D01*
X166700000Y-138720000D02*
X166862410Y-138720000D01*
X166700000Y-138720000D02*
X166157501Y-138720000D01*
X167130000Y-138987590D02*
X167130000Y-139595000D01*
X166862410Y-138720000D02*
X167130000Y-138987590D01*
X166397590Y-138720000D02*
X166700000Y-138720000D01*
X166130000Y-139595000D02*
X166130000Y-138987590D01*
X166130000Y-138987590D02*
X166397590Y-138720000D01*
%TO.N,/ESP_D-*%
X165630000Y-140202410D02*
X165630000Y-139595000D01*
X166362410Y-140470000D02*
X166300000Y-140470000D01*
X166630000Y-140202410D02*
X166362410Y-140470000D01*
X166630000Y-139595000D02*
X166630000Y-140202410D01*
X165897590Y-140470000D02*
X165630000Y-140202410D01*
%TO.N,Net-(J1-CC2)*%
X168130000Y-139020001D02*
X168130000Y-139595000D01*
X169337501Y-137812500D02*
X168130000Y-139020001D01*
X170500000Y-137812500D02*
X169337501Y-137812500D01*
%TO.N,/P_ESP_D+*%
X162425000Y-132050000D02*
X165600000Y-135225000D01*
X162425000Y-129033278D02*
X162425000Y-132050000D01*
X163358278Y-128100000D02*
X162425000Y-129033278D01*
X165000000Y-128100000D02*
X163358278Y-128100000D01*
%TO.N,Net-(U6-~{RTS})*%
X163312500Y-129600000D02*
X163212500Y-129500000D01*
X165000000Y-129600000D02*
X163312500Y-129600000D01*
%TO.N,Net-(U6-V3)*%
X169500000Y-127800000D02*
X169200000Y-128100000D01*
X171175000Y-127800000D02*
X169500000Y-127800000D01*
%TO.N,/IO0*%
X174900000Y-122015000D02*
X174787500Y-122127500D01*
X174900000Y-120700000D02*
X174900000Y-122015000D01*
%TO.N,Net-(Q2-B)*%
X177700000Y-122121948D02*
X177700000Y-127600000D01*
X174900000Y-119321948D02*
X177700000Y-122121948D01*
X174900000Y-118800000D02*
X174900000Y-119321948D01*
%TO.N,/TNOW*%
X170700000Y-131600000D02*
X169200000Y-130100000D01*
X173925000Y-131600000D02*
X170700000Y-131600000D01*
X176000000Y-129525000D02*
X173925000Y-131600000D01*
X177700000Y-129425000D02*
X176100000Y-129425000D01*
X176100000Y-129425000D02*
X176000000Y-129525000D01*
%TO.N,/EN*%
X175562500Y-134750000D02*
X175500000Y-134812500D01*
X177862500Y-134750000D02*
X175562500Y-134750000D01*
%TO.N,Net-(C2-Pad1)*%
X192200000Y-124000000D02*
X191200000Y-124000000D01*
X191175000Y-122475000D02*
X191175000Y-123975000D01*
X191175000Y-123975000D02*
X191200000Y-124000000D01*
%TO.N,Net-(U5-Vin)*%
X187000000Y-123437500D02*
X184375000Y-123437500D01*
X184375000Y-123437500D02*
X183685000Y-124127500D01*
X187775000Y-124212500D02*
X187000000Y-123437500D01*
X183685000Y-124127500D02*
X183225000Y-124127500D01*
X190200000Y-124000000D02*
X190700000Y-124000000D01*
X188537500Y-124212500D02*
X189262500Y-124937500D01*
X187775000Y-124212500D02*
X188537500Y-124212500D01*
%TO.N,Net-(U4-BAT_SNS)*%
X189262500Y-125437500D02*
X189262500Y-126437500D01*
X189262500Y-126437500D02*
X188312500Y-126437500D01*
X188312500Y-126437500D02*
X187737500Y-127012500D01*
%TO.N,Net-(U4-SYS_EN)*%
X182275000Y-125150000D02*
X182275000Y-124127500D01*
X181675000Y-125750000D02*
X182275000Y-125150000D01*
X185570778Y-127875000D02*
X183445778Y-125750000D01*
X183445778Y-125750000D02*
X181675000Y-125750000D01*
X190200000Y-127875000D02*
X185570778Y-127875000D01*
%TO.N,Net-(U4-CBP)*%
X191775000Y-127950000D02*
X191700000Y-127875000D01*
X191775000Y-129350000D02*
X191775000Y-127950000D01*
%TO.N,Net-(U4-THR)*%
X191200000Y-128301886D02*
X191200000Y-127875000D01*
X190001886Y-129500000D02*
X191200000Y-128301886D01*
X189075000Y-129500000D02*
X190001886Y-129500000D01*
%TO.N,Net-(Q1-C)*%
X194950000Y-115600000D02*
X199050000Y-115600000D01*
%TO.N,Net-(J2-Pin_1)*%
X193675000Y-113525000D02*
X190700000Y-116500000D01*
X193675000Y-109112500D02*
X193675000Y-113525000D01*
%TO.N,Net-(J2-Pin_2)*%
X189900000Y-114800000D02*
X188200000Y-116500000D01*
X189900000Y-110887500D02*
X189900000Y-114800000D01*
X191675000Y-109112500D02*
X189900000Y-110887500D01*
%TO.N,Net-(Q1-C)*%
X194950000Y-115600000D02*
X194950000Y-129204222D01*
X194950000Y-129204222D02*
X190354222Y-133800000D01*
X190354222Y-133800000D02*
X179737500Y-133800000D01*
%TO.N,/ESP_RX*%
D55*
X167350000Y-59160000D02*
X168350000Y-59160000D01*
X199825000Y-113175000D02*
X199825000Y-124930262D01*
X168350000Y-59160000D02*
X184675000Y-75485000D01*
X184675000Y-75485000D02*
X184675000Y-98025000D01*
X184675000Y-98025000D02*
X199825000Y-113175000D01*
X199825000Y-124930262D02*
X182810262Y-141945000D01*
X182810262Y-141945000D02*
X162118274Y-141945000D01*
X162118274Y-141945000D02*
X160575000Y-140401726D01*
X160575000Y-140401726D02*
X160575000Y-129022924D01*
X160575000Y-129022924D02*
X161997924Y-127600000D01*
X161997924Y-127600000D02*
X166864212Y-127600000D01*
X166864212Y-127600000D02*
X168364212Y-129100000D01*
X168364212Y-129100000D02*
X169200000Y-129100000D01*
%TO.N,/ESP_TX*%
X171714576Y-127000000D02*
X161961528Y-127000000D01*
X169200000Y-128600000D02*
X171714576Y-128600000D01*
X171714576Y-128600000D02*
X172037500Y-128277076D01*
X172037500Y-128277076D02*
X172037500Y-127322924D01*
X172037500Y-127322924D02*
X171714576Y-127000000D01*
X161961528Y-127000000D02*
X160125000Y-128836528D01*
X160125000Y-140588122D02*
X161931878Y-142395000D01*
X160125000Y-128836528D02*
X160125000Y-140588122D01*
X161931878Y-142395000D02*
X182996658Y-142395000D01*
X182996658Y-142395000D02*
X200275000Y-125116658D01*
X200275000Y-125116658D02*
X200275000Y-112988604D01*
X200275000Y-112988604D02*
X185125000Y-97838604D01*
X185125000Y-97838604D02*
X185125000Y-75125000D01*
X185125000Y-75125000D02*
X168300000Y-58300000D01*
%TO.N,/IO32*%
D51*
X141500000Y-70270000D02*
X141500000Y-78100000D01*
%TO.N,/IO12*%
D52*
X152150000Y-72890000D02*
X149850000Y-70590000D01*
X156390000Y-72890000D02*
X152150000Y-72890000D01*
X157600000Y-74100000D02*
X156390000Y-72890000D01*
X157600000Y-78375000D02*
X157600000Y-74100000D01*
%TO.N,/IO35*%
D51*
X149850000Y-61700000D02*
X149220000Y-61700000D01*
%TO.N,/IN_R*%
D52*
X144300000Y-79900000D02*
X123300000Y-79900000D01*
%TO.N,/IO32*%
D51*
X149850000Y-62970000D02*
X148800000Y-62970000D01*
X148800000Y-62970000D02*
X141500000Y-70270000D01*
%TD*%
M02*
